version 1
nodes
0 "root" -1
end
skeleton
time 0
0 0 0 0 0 0 0
end
triangles
cl_card
0 -2.67000 -1.67000 0.00000 -0.57735 -0.57735 -0.57735 -0.53400 0.00000 1 0 1.0
0 -2.67000 -1.70000 0.03000 -0.57735 -0.57735 -0.57735 -0.53400 0.00600 1 0 1.0
0 -2.70000 -1.67000 0.03000 -0.57735 -0.57735 -0.57735 -0.54000 0.00600 1 0 1.0
cl_card
0 -2.67000 -1.70000 0.05000 -0.57735 -0.57735 0.57735 -0.53400 0.01000 1 0 1.0
0 -2.67000 -1.67000 0.08000 -0.57735 -0.57735 0.57735 -0.53400 0.01600 1 0 1.0
0 -2.70000 -1.67000 0.05000 -0.57735 -0.57735 0.57735 -0.54000 0.01000 1 0 1.0
cl_card
0 -2.67000 1.67000 0.00000 -0.57735 0.57735 -0.57735 -0.53400 0.00000 1 0 1.0
0 -2.70000 1.67000 0.03000 -0.57735 0.57735 -0.57735 -0.54000 0.00600 1 0 1.0
0 -2.67000 1.70000 0.03000 -0.57735 0.57735 -0.57735 -0.53400 0.00600 1 0 1.0
cl_card
0 -2.67000 1.67000 0.08000 -0.57735 0.57735 0.57735 -0.53400 0.01600 1 0 1.0
0 -2.67000 1.70000 0.05000 -0.57735 0.57735 0.57735 -0.53400 0.01000 1 0 1.0
0 -2.70000 1.67000 0.05000 -0.57735 0.57735 0.57735 -0.54000 0.01000 1 0 1.0
cl_card
0 2.67000 -1.67000 0.00000 0.57735 -0.57735 -0.57735 0.53400 0.00000 1 0 1.0
0 2.70000 -1.67000 0.03000 0.57735 -0.57735 -0.57735 0.54000 0.00600 1 0 1.0
0 2.67000 -1.70000 0.03000 0.57735 -0.57735 -0.57735 0.53400 0.00600 1 0 1.0
cl_card
0 2.67000 -1.67000 0.08000 0.57735 -0.57735 0.57735 0.53400 0.01600 1 0 1.0
0 2.67000 -1.70000 0.05000 0.57735 -0.57735 0.57735 0.53400 0.01000 1 0 1.0
0 2.70000 -1.67000 0.05000 0.57735 -0.57735 0.57735 0.54000 0.01000 1 0 1.0
cl_card
0 2.67000 1.67000 0.00000 0.57735 0.57735 -0.57735 0.53400 0.00000 1 0 1.0
0 2.67000 1.70000 0.03000 0.57735 0.57735 -0.57735 0.53400 0.00600 1 0 1.0
0 2.70000 1.67000 0.03000 0.57735 0.57735 -0.57735 0.54000 0.00600 1 0 1.0
cl_card
0 2.67000 1.67000 0.08000 0.57735 0.57735 0.57735 0.53400 0.01600 1 0 1.0
0 2.70000 1.67000 0.05000 0.57735 0.57735 0.57735 0.54000 0.01000 1 0 1.0
0 2.67000 1.70000 0.05000 0.57735 0.57735 0.57735 0.53400 0.01000 1 0 1.0
cl_card
0 -2.67000 1.67000 0.00000 -0.70711 0.00000 -0.70711 0.33400 0.00000 1 0 1.0
0 -2.67000 -1.67000 0.00000 -0.70711 0.00000 -0.70711 -0.33400 0.00000 1 0 1.0
0 -2.70000 -1.67000 0.03000 -0.70711 0.00000 -0.70711 -0.33400 0.00600 1 0 1.0
cl_card
0 -2.67000 1.67000 0.00000 -0.70711 0.00000 -0.70711 0.33400 0.00000 1 0 1.0
0 -2.70000 -1.67000 0.03000 -0.70711 0.00000 -0.70711 -0.33400 0.00600 1 0 1.0
0 -2.70000 1.67000 0.03000 -0.70711 0.00000 -0.70711 0.33400 0.00600 1 0 1.0
cl_card
0 -2.67000 -1.70000 0.03000 -0.70711 -0.70711 0.00000 -0.34000 0.00600 1 0 1.0
0 -2.67000 -1.70000 0.05000 -0.70711 -0.70711 0.00000 -0.34000 0.01000 1 0 1.0
0 -2.70000 -1.67000 0.05000 -0.70711 -0.70711 0.00000 -0.33400 0.01000 1 0 1.0
cl_card
0 -2.67000 -1.70000 0.03000 -0.70711 -0.70711 0.00000 -0.34000 0.00600 1 0 1.0
0 -2.70000 -1.67000 0.05000 -0.70711 -0.70711 0.00000 -0.33400 0.01000 1 0 1.0
0 -2.70000 -1.67000 0.03000 -0.70711 -0.70711 0.00000 -0.33400 0.00600 1 0 1.0
cl_card
0 -2.67000 -1.67000 0.08000 -0.70711 0.00000 0.70711 -0.33400 0.01600 1 0 1.0
0 -2.67000 1.67000 0.08000 -0.70711 0.00000 0.70711 0.33400 0.01600 1 0 1.0
0 -2.70000 1.67000 0.05000 -0.70711 0.00000 0.70711 0.33400 0.01000 1 0 1.0
cl_card
0 -2.67000 -1.67000 0.08000 -0.70711 0.00000 0.70711 -0.33400 0.01600 1 0 1.0
0 -2.70000 1.67000 0.05000 -0.70711 0.00000 0.70711 0.33400 0.01000 1 0 1.0
0 -2.70000 -1.67000 0.05000 -0.70711 0.00000 0.70711 -0.33400 0.01000 1 0 1.0
cl_card
0 -2.67000 1.70000 0.05000 -0.70711 0.70711 0.00000 0.34000 0.01000 1 0 1.0
0 -2.67000 1.70000 0.03000 -0.70711 0.70711 0.00000 0.34000 0.00600 1 0 1.0
0 -2.70000 1.67000 0.03000 -0.70711 0.70711 0.00000 0.33400 0.00600 1 0 1.0
cl_card
0 -2.67000 1.70000 0.05000 -0.70711 0.70711 0.00000 0.34000 0.01000 1 0 1.0
0 -2.70000 1.67000 0.03000 -0.70711 0.70711 0.00000 0.33400 0.00600 1 0 1.0
0 -2.70000 1.67000 0.05000 -0.70711 0.70711 0.00000 0.33400 0.01000 1 0 1.0
cl_card
0 2.67000 1.67000 0.00000 0.00000 0.70711 -0.70711 0.53400 0.00000 1 0 1.0
0 -2.67000 1.67000 0.00000 0.00000 0.70711 -0.70711 -0.53400 0.00000 1 0 1.0
0 -2.67000 1.70000 0.03000 0.00000 0.70711 -0.70711 -0.53400 0.00600 1 0 1.0
cl_card
0 2.67000 1.67000 0.00000 0.00000 0.70711 -0.70711 0.53400 0.00000 1 0 1.0
0 -2.67000 1.70000 0.03000 0.00000 0.70711 -0.70711 -0.53400 0.00600 1 0 1.0
0 2.67000 1.70000 0.03000 0.00000 0.70711 -0.70711 0.53400 0.00600 1 0 1.0
cl_card
0 -2.67000 1.67000 0.08000 0.00000 0.70711 0.70711 -0.53400 0.01600 1 0 1.0
0 2.67000 1.67000 0.08000 0.00000 0.70711 0.70711 0.53400 0.01600 1 0 1.0
0 2.67000 1.70000 0.05000 0.00000 0.70711 0.70711 0.53400 0.01000 1 0 1.0
cl_card
0 -2.67000 1.67000 0.08000 0.00000 0.70711 0.70711 -0.53400 0.01600 1 0 1.0
0 2.67000 1.70000 0.05000 0.00000 0.70711 0.70711 0.53400 0.01000 1 0 1.0
0 -2.67000 1.70000 0.05000 0.00000 0.70711 0.70711 -0.53400 0.01000 1 0 1.0
cl_card
0 2.70000 1.67000 0.05000 0.70711 0.70711 0.00000 0.33400 0.01000 1 0 1.0
0 2.70000 1.67000 0.03000 0.70711 0.70711 0.00000 0.33400 0.00600 1 0 1.0
0 2.67000 1.70000 0.03000 0.70711 0.70711 0.00000 0.34000 0.00600 1 0 1.0
cl_card
0 2.70000 1.67000 0.05000 0.70711 0.70711 0.00000 0.33400 0.01000 1 0 1.0
0 2.67000 1.70000 0.03000 0.70711 0.70711 0.00000 0.34000 0.00600 1 0 1.0
0 2.67000 1.70000 0.05000 0.70711 0.70711 0.00000 0.34000 0.01000 1 0 1.0
cl_card
0 2.67000 -1.67000 0.00000 0.70711 0.00000 -0.70711 -0.33400 0.00000 1 0 1.0
0 2.67000 1.67000 0.00000 0.70711 0.00000 -0.70711 0.33400 0.00000 1 0 1.0
0 2.70000 1.67000 0.03000 0.70711 0.00000 -0.70711 0.33400 0.00600 1 0 1.0
cl_card
0 2.67000 -1.67000 0.00000 0.70711 0.00000 -0.70711 -0.33400 0.00000 1 0 1.0
0 2.70000 1.67000 0.03000 0.70711 0.00000 -0.70711 0.33400 0.00600 1 0 1.0
0 2.70000 -1.67000 0.03000 0.70711 0.00000 -0.70711 -0.33400 0.00600 1 0 1.0
cl_card
0 2.67000 1.67000 0.08000 0.70711 0.00000 0.70711 0.33400 0.01600 1 0 1.0
0 2.67000 -1.67000 0.08000 0.70711 0.00000 0.70711 -0.33400 0.01600 1 0 1.0
0 2.70000 -1.67000 0.05000 0.70711 0.00000 0.70711 -0.33400 0.01000 1 0 1.0
cl_card
0 2.67000 1.67000 0.08000 0.70711 0.00000 0.70711 0.33400 0.01600 1 0 1.0
0 2.70000 -1.67000 0.05000 0.70711 0.00000 0.70711 -0.33400 0.01000 1 0 1.0
0 2.70000 1.67000 0.05000 0.70711 0.00000 0.70711 0.33400 0.01000 1 0 1.0
cl_card
0 2.67000 -1.70000 0.05000 0.70711 -0.70711 0.00000 -0.34000 0.01000 1 0 1.0
0 2.67000 -1.70000 0.03000 0.70711 -0.70711 0.00000 -0.34000 0.00600 1 0 1.0
0 2.70000 -1.67000 0.03000 0.70711 -0.70711 0.00000 -0.33400 0.00600 1 0 1.0
cl_card
0 2.67000 -1.70000 0.05000 0.70711 -0.70711 0.00000 -0.34000 0.01000 1 0 1.0
0 2.70000 -1.67000 0.03000 0.70711 -0.70711 0.00000 -0.33400 0.00600 1 0 1.0
0 2.70000 -1.67000 0.05000 0.70711 -0.70711 0.00000 -0.33400 0.01000 1 0 1.0
cl_card
0 -2.67000 -1.67000 0.00000 0.00000 -0.70711 -0.70711 -0.53400 0.00000 1 0 1.0
0 2.67000 -1.67000 0.00000 0.00000 -0.70711 -0.70711 0.53400 0.00000 1 0 1.0
0 2.67000 -1.70000 0.03000 0.00000 -0.70711 -0.70711 0.53400 0.00600 1 0 1.0
cl_card
0 -2.67000 -1.67000 0.00000 0.00000 -0.70711 -0.70711 -0.53400 0.00000 1 0 1.0
0 2.67000 -1.70000 0.03000 0.00000 -0.70711 -0.70711 0.53400 0.00600 1 0 1.0
0 -2.67000 -1.70000 0.03000 0.00000 -0.70711 -0.70711 -0.53400 0.00600 1 0 1.0
cl_card
0 2.67000 -1.67000 0.08000 0.00000 -0.70711 0.70711 0.53400 0.01600 1 0 1.0
0 -2.67000 -1.67000 0.08000 0.00000 -0.70711 0.70711 -0.53400 0.01600 1 0 1.0
0 -2.67000 -1.70000 0.05000 0.00000 -0.70711 0.70711 -0.53400 0.01000 1 0 1.0
cl_card
0 2.67000 -1.67000 0.08000 0.00000 -0.70711 0.70711 0.53400 0.01600 1 0 1.0
0 -2.67000 -1.70000 0.05000 0.00000 -0.70711 0.70711 -0.53400 0.01000 1 0 1.0
0 2.67000 -1.70000 0.05000 0.00000 -0.70711 0.70711 0.53400 0.01000 1 0 1.0
cl_card
0 -2.67000 1.67000 0.00000 0.00000 0.00000 -1.00000 -0.53400 0.33400 1 0 1.0
0 2.67000 1.67000 0.00000 0.00000 0.00000 -1.00000 0.53400 0.33400 1 0 1.0
0 2.67000 -1.67000 0.00000 0.00000 0.00000 -1.00000 0.53400 -0.33400 1 0 1.0
cl_card
0 -2.67000 1.67000 0.00000 0.00000 0.00000 -1.00000 -0.53400 0.33400 1 0 1.0
0 2.67000 -1.67000 0.00000 0.00000 0.00000 -1.00000 0.53400 -0.33400 1 0 1.0
0 -2.67000 -1.67000 0.00000 0.00000 0.00000 -1.00000 -0.53400 -0.33400 1 0 1.0
cl_card
0 -2.70000 -1.67000 0.03000 -1.00000 0.00000 0.00000 -0.33400 0.00600 1 0 1.0
0 -2.70000 -1.67000 0.05000 -1.00000 0.00000 0.00000 -0.33400 0.01000 1 0 1.0
0 -2.70000 1.67000 0.05000 -1.00000 0.00000 0.00000 0.33400 0.01000 1 0 1.0
cl_card
0 -2.70000 -1.67000 0.03000 -1.00000 0.00000 0.00000 -0.33400 0.00600 1 0 1.0
0 -2.70000 1.67000 0.05000 -1.00000 0.00000 0.00000 0.33400 0.01000 1 0 1.0
0 -2.70000 1.67000 0.03000 -1.00000 0.00000 0.00000 0.33400 0.00600 1 0 1.0
cl_card
0 2.67000 -1.70000 0.03000 0.00000 -1.00000 0.00000 0.53400 0.00600 1 0 1.0
0 2.67000 -1.70000 0.05000 0.00000 -1.00000 0.00000 0.53400 0.01000 1 0 1.0
0 -2.67000 -1.70000 0.05000 0.00000 -1.00000 0.00000 -0.53400 0.01000 1 0 1.0
cl_card
0 2.67000 -1.70000 0.03000 0.00000 -1.00000 0.00000 0.53400 0.00600 1 0 1.0
0 -2.67000 -1.70000 0.05000 0.00000 -1.00000 0.00000 -0.53400 0.01000 1 0 1.0
0 -2.67000 -1.70000 0.03000 0.00000 -1.00000 0.00000 -0.53400 0.00600 1 0 1.0
cl_card
0 2.67000 1.67000 0.08000 0.00000 0.00000 1.00000 0.53400 0.33400 1 0 1.0
0 -2.67000 1.67000 0.08000 0.00000 0.00000 1.00000 -0.53400 0.33400 1 0 1.0
0 -2.67000 -1.67000 0.08000 0.00000 0.00000 1.00000 -0.53400 -0.33400 1 0 1.0
cl_card
0 2.67000 1.67000 0.08000 0.00000 0.00000 1.00000 0.53400 0.33400 1 0 1.0
0 -2.67000 -1.67000 0.08000 0.00000 0.00000 1.00000 -0.53400 -0.33400 1 0 1.0
0 2.67000 -1.67000 0.08000 0.00000 0.00000 1.00000 0.53400 -0.33400 1 0 1.0
cl_card
0 -2.67000 1.70000 0.03000 0.00000 1.00000 0.00000 -0.53400 0.00600 1 0 1.0
0 -2.67000 1.70000 0.05000 0.00000 1.00000 0.00000 -0.53400 0.01000 1 0 1.0
0 2.67000 1.70000 0.05000 0.00000 1.00000 0.00000 0.53400 0.01000 1 0 1.0
cl_card
0 -2.67000 1.70000 0.03000 0.00000 1.00000 0.00000 -0.53400 0.00600 1 0 1.0
0 2.67000 1.70000 0.05000 0.00000 1.00000 0.00000 0.53400 0.01000 1 0 1.0
0 2.67000 1.70000 0.03000 0.00000 1.00000 0.00000 0.53400 0.00600 1 0 1.0
cl_card
0 2.70000 1.67000 0.03000 1.00000 0.00000 0.00000 0.33400 0.00600 1 0 1.0
0 2.70000 1.67000 0.05000 1.00000 0.00000 0.00000 0.33400 0.01000 1 0 1.0
0 2.70000 -1.67000 0.05000 1.00000 0.00000 0.00000 -0.33400 0.01000 1 0 1.0
cl_card
0 2.70000 1.67000 0.03000 1.00000 0.00000 0.00000 0.33400 0.00600 1 0 1.0
0 2.70000 -1.67000 0.05000 1.00000 0.00000 0.00000 -0.33400 0.01000 1 0 1.0
0 2.70000 -1.67000 0.03000 1.00000 0.00000 0.00000 -0.33400 0.00600 1 0 1.0
cl_navy
0 -2.49500 0.80500 0.08000 -0.57734 -0.57735 -0.57735 -0.49900 0.01600 1 0 1.0
0 -2.49500 0.80000 0.08500 -0.57734 -0.57735 -0.57735 -0.49900 0.01700 1 0 1.0
0 -2.50000 0.80500 0.08500 -0.57734 -0.57735 -0.57735 -0.50000 0.01700 1 0 1.0
cl_navy
0 -2.49500 0.80000 0.09500 -0.57734 -0.57735 0.57735 -0.49900 0.01900 1 0 1.0
0 -2.49500 0.80500 0.10000 -0.57734 -0.57735 0.57735 -0.49900 0.02000 1 0 1.0
0 -2.50000 0.80500 0.09500 -0.57734 -0.57735 0.57735 -0.50000 0.01900 1 0 1.0
cl_navy
0 -2.49500 1.49500 0.08000 -0.57734 0.57735 -0.57735 -0.49900 0.01600 1 0 1.0
0 -2.50000 1.49500 0.08500 -0.57734 0.57735 -0.57735 -0.50000 0.01700 1 0 1.0
0 -2.49500 1.50000 0.08500 -0.57734 0.57735 -0.57735 -0.49900 0.01700 1 0 1.0
cl_navy
0 -2.49500 1.49500 0.10000 -0.57734 0.57735 0.57735 -0.49900 0.02000 1 0 1.0
0 -2.49500 1.50000 0.09500 -0.57734 0.57735 0.57735 -0.49900 0.01900 1 0 1.0
0 -2.50000 1.49500 0.09500 -0.57734 0.57735 0.57735 -0.50000 0.01900 1 0 1.0
cl_navy
0 2.49500 0.80500 0.08000 0.57734 -0.57735 -0.57735 0.49900 0.01600 1 0 1.0
0 2.50000 0.80500 0.08500 0.57734 -0.57735 -0.57735 0.50000 0.01700 1 0 1.0
0 2.49500 0.80000 0.08500 0.57734 -0.57735 -0.57735 0.49900 0.01700 1 0 1.0
cl_navy
0 2.49500 0.80500 0.10000 0.57734 -0.57735 0.57735 0.49900 0.02000 1 0 1.0
0 2.49500 0.80000 0.09500 0.57734 -0.57735 0.57735 0.49900 0.01900 1 0 1.0
0 2.50000 0.80500 0.09500 0.57734 -0.57735 0.57735 0.50000 0.01900 1 0 1.0
cl_navy
0 2.49500 1.49500 0.08000 0.57734 0.57735 -0.57735 0.49900 0.01600 1 0 1.0
0 2.49500 1.50000 0.08500 0.57734 0.57735 -0.57735 0.49900 0.01700 1 0 1.0
0 2.50000 1.49500 0.08500 0.57734 0.57735 -0.57735 0.50000 0.01700 1 0 1.0
cl_navy
0 2.49500 1.49500 0.10000 0.57734 0.57735 0.57735 0.49900 0.02000 1 0 1.0
0 2.50000 1.49500 0.09500 0.57734 0.57735 0.57735 0.50000 0.01900 1 0 1.0
0 2.49500 1.50000 0.09500 0.57734 0.57735 0.57735 0.49900 0.01900 1 0 1.0
cl_navy
0 -2.49500 1.49500 0.08000 -0.70710 0.00000 -0.70712 -0.49900 0.29900 1 0 1.0
0 -2.49500 0.80500 0.08000 -0.70710 0.00000 -0.70712 -0.49900 0.16100 1 0 1.0
0 -2.50000 0.80500 0.08500 -0.70710 0.00000 -0.70712 -0.50000 0.16100 1 0 1.0
cl_navy
0 -2.49500 1.49500 0.08000 -0.70710 0.00000 -0.70712 -0.49900 0.29900 1 0 1.0
0 -2.50000 0.80500 0.08500 -0.70710 0.00000 -0.70712 -0.50000 0.16100 1 0 1.0
0 -2.50000 1.49500 0.08500 -0.70710 0.00000 -0.70712 -0.50000 0.29900 1 0 1.0
cl_navy
0 -2.49500 0.80000 0.08500 -0.70710 -0.70712 0.00000 -0.49900 0.01700 1 0 1.0
0 -2.49500 0.80000 0.09500 -0.70710 -0.70712 0.00000 -0.49900 0.01900 1 0 1.0
0 -2.50000 0.80500 0.09500 -0.70710 -0.70712 0.00000 -0.50000 0.01900 1 0 1.0
cl_navy
0 -2.49500 0.80000 0.08500 -0.70710 -0.70712 0.00000 -0.49900 0.01700 1 0 1.0
0 -2.50000 0.80500 0.09500 -0.70710 -0.70712 0.00000 -0.50000 0.01900 1 0 1.0
0 -2.50000 0.80500 0.08500 -0.70710 -0.70712 0.00000 -0.50000 0.01700 1 0 1.0
cl_navy
0 -2.49500 0.80500 0.10000 -0.70710 0.00000 0.70712 -0.49900 0.16100 1 0 1.0
0 -2.49500 1.49500 0.10000 -0.70710 0.00000 0.70712 -0.49900 0.29900 1 0 1.0
0 -2.50000 1.49500 0.09500 -0.70710 0.00000 0.70712 -0.50000 0.29900 1 0 1.0
cl_navy
0 -2.49500 0.80500 0.10000 -0.70710 0.00000 0.70712 -0.49900 0.16100 1 0 1.0
0 -2.50000 1.49500 0.09500 -0.70710 0.00000 0.70712 -0.50000 0.29900 1 0 1.0
0 -2.50000 0.80500 0.09500 -0.70710 0.00000 0.70712 -0.50000 0.16100 1 0 1.0
cl_navy
0 -2.49500 1.50000 0.09500 -0.70710 0.70712 0.00000 -0.49900 0.01900 1 0 1.0
0 -2.49500 1.50000 0.08500 -0.70710 0.70712 0.00000 -0.49900 0.01700 1 0 1.0
0 -2.50000 1.49500 0.08500 -0.70710 0.70712 0.00000 -0.50000 0.01700 1 0 1.0
cl_navy
0 -2.49500 1.50000 0.09500 -0.70710 0.70712 0.00000 -0.49900 0.01900 1 0 1.0
0 -2.50000 1.49500 0.08500 -0.70710 0.70712 0.00000 -0.50000 0.01700 1 0 1.0
0 -2.50000 1.49500 0.09500 -0.70710 0.70712 0.00000 -0.50000 0.01900 1 0 1.0
cl_navy
0 2.49500 1.49500 0.08000 0.00000 0.70711 -0.70711 0.49900 0.01600 1 0 1.0
0 -2.49500 1.49500 0.08000 0.00000 0.70711 -0.70711 -0.49900 0.01600 1 0 1.0
0 -2.49500 1.50000 0.08500 0.00000 0.70711 -0.70711 -0.49900 0.01700 1 0 1.0
cl_navy
0 2.49500 1.49500 0.08000 0.00000 0.70711 -0.70711 0.49900 0.01600 1 0 1.0
0 -2.49500 1.50000 0.08500 0.00000 0.70711 -0.70711 -0.49900 0.01700 1 0 1.0
0 2.49500 1.50000 0.08500 0.00000 0.70711 -0.70711 0.49900 0.01700 1 0 1.0
cl_navy
0 -2.49500 1.49500 0.10000 0.00000 0.70711 0.70711 -0.49900 0.02000 1 0 1.0
0 2.49500 1.49500 0.10000 0.00000 0.70711 0.70711 0.49900 0.02000 1 0 1.0
0 2.49500 1.50000 0.09500 0.00000 0.70711 0.70711 0.49900 0.01900 1 0 1.0
cl_navy
0 -2.49500 1.49500 0.10000 0.00000 0.70711 0.70711 -0.49900 0.02000 1 0 1.0
0 2.49500 1.50000 0.09500 0.00000 0.70711 0.70711 0.49900 0.01900 1 0 1.0
0 -2.49500 1.50000 0.09500 0.00000 0.70711 0.70711 -0.49900 0.01900 1 0 1.0
cl_navy
0 2.50000 1.49500 0.09500 0.70710 0.70712 0.00000 0.50000 0.01900 1 0 1.0
0 2.50000 1.49500 0.08500 0.70710 0.70712 0.00000 0.50000 0.01700 1 0 1.0
0 2.49500 1.50000 0.08500 0.70710 0.70712 0.00000 0.49900 0.01700 1 0 1.0
cl_navy
0 2.50000 1.49500 0.09500 0.70710 0.70712 0.00000 0.50000 0.01900 1 0 1.0
0 2.49500 1.50000 0.08500 0.70710 0.70712 0.00000 0.49900 0.01700 1 0 1.0
0 2.49500 1.50000 0.09500 0.70710 0.70712 0.00000 0.49900 0.01900 1 0 1.0
cl_navy
0 2.49500 0.80500 0.08000 0.70710 0.00000 -0.70712 0.49900 0.16100 1 0 1.0
0 2.49500 1.49500 0.08000 0.70710 0.00000 -0.70712 0.49900 0.29900 1 0 1.0
0 2.50000 1.49500 0.08500 0.70710 0.00000 -0.70712 0.50000 0.29900 1 0 1.0
cl_navy
0 2.49500 0.80500 0.08000 0.70710 0.00000 -0.70712 0.49900 0.16100 1 0 1.0
0 2.50000 1.49500 0.08500 0.70710 0.00000 -0.70712 0.50000 0.29900 1 0 1.0
0 2.50000 0.80500 0.08500 0.70710 0.00000 -0.70712 0.50000 0.16100 1 0 1.0
cl_navy
0 2.49500 1.49500 0.10000 0.70710 0.00000 0.70712 0.49900 0.29900 1 0 1.0
0 2.49500 0.80500 0.10000 0.70710 0.00000 0.70712 0.49900 0.16100 1 0 1.0
0 2.50000 0.80500 0.09500 0.70710 0.00000 0.70712 0.50000 0.16100 1 0 1.0
cl_navy
0 2.49500 1.49500 0.10000 0.70710 0.00000 0.70712 0.49900 0.29900 1 0 1.0
0 2.50000 0.80500 0.09500 0.70710 0.00000 0.70712 0.50000 0.16100 1 0 1.0
0 2.50000 1.49500 0.09500 0.70710 0.00000 0.70712 0.50000 0.29900 1 0 1.0
cl_navy
0 2.49500 0.80000 0.09500 0.70710 -0.70712 0.00000 0.49900 0.01900 1 0 1.0
0 2.49500 0.80000 0.08500 0.70710 -0.70712 0.00000 0.49900 0.01700 1 0 1.0
0 2.50000 0.80500 0.08500 0.70710 -0.70712 0.00000 0.50000 0.01700 1 0 1.0
cl_navy
0 2.49500 0.80000 0.09500 0.70710 -0.70712 0.00000 0.49900 0.01900 1 0 1.0
0 2.50000 0.80500 0.08500 0.70710 -0.70712 0.00000 0.50000 0.01700 1 0 1.0
0 2.50000 0.80500 0.09500 0.70710 -0.70712 0.00000 0.50000 0.01900 1 0 1.0
cl_navy
0 -2.49500 0.80500 0.08000 0.00000 -0.70711 -0.70711 -0.49900 0.01600 1 0 1.0
0 2.49500 0.80500 0.08000 0.00000 -0.70711 -0.70711 0.49900 0.01600 1 0 1.0
0 2.49500 0.80000 0.08500 0.00000 -0.70711 -0.70711 0.49900 0.01700 1 0 1.0
cl_navy
0 -2.49500 0.80500 0.08000 0.00000 -0.70711 -0.70711 -0.49900 0.01600 1 0 1.0
0 2.49500 0.80000 0.08500 0.00000 -0.70711 -0.70711 0.49900 0.01700 1 0 1.0
0 -2.49500 0.80000 0.08500 0.00000 -0.70711 -0.70711 -0.49900 0.01700 1 0 1.0
cl_navy
0 2.49500 0.80500 0.10000 0.00000 -0.70711 0.70711 0.49900 0.02000 1 0 1.0
0 -2.49500 0.80500 0.10000 0.00000 -0.70711 0.70711 -0.49900 0.02000 1 0 1.0
0 -2.49500 0.80000 0.09500 0.00000 -0.70711 0.70711 -0.49900 0.01900 1 0 1.0
cl_navy
0 2.49500 0.80500 0.10000 0.00000 -0.70711 0.70711 0.49900 0.02000 1 0 1.0
0 -2.49500 0.80000 0.09500 0.00000 -0.70711 0.70711 -0.49900 0.01900 1 0 1.0
0 2.49500 0.80000 0.09500 0.00000 -0.70711 0.70711 0.49900 0.01900 1 0 1.0
cl_navy
0 -2.49500 1.49500 0.08000 0.00000 0.00000 -1.00000 -0.49900 0.29900 1 0 1.0
0 2.49500 1.49500 0.08000 0.00000 0.00000 -1.00000 0.49900 0.29900 1 0 1.0
0 2.49500 0.80500 0.08000 0.00000 0.00000 -1.00000 0.49900 0.16100 1 0 1.0
cl_navy
0 -2.49500 1.49500 0.08000 0.00000 0.00000 -1.00000 -0.49900 0.29900 1 0 1.0
0 2.49500 0.80500 0.08000 0.00000 0.00000 -1.00000 0.49900 0.16100 1 0 1.0
0 -2.49500 0.80500 0.08000 0.00000 0.00000 -1.00000 -0.49900 0.16100 1 0 1.0
cl_navy
0 -2.50000 0.80500 0.08500 -1.00000 0.00000 0.00000 0.16100 0.01700 1 0 1.0
0 -2.50000 0.80500 0.09500 -1.00000 0.00000 0.00000 0.16100 0.01900 1 0 1.0
0 -2.50000 1.49500 0.09500 -1.00000 0.00000 0.00000 0.29900 0.01900 1 0 1.0
cl_navy
0 -2.50000 0.80500 0.08500 -1.00000 0.00000 0.00000 0.16100 0.01700 1 0 1.0
0 -2.50000 1.49500 0.09500 -1.00000 0.00000 0.00000 0.29900 0.01900 1 0 1.0
0 -2.50000 1.49500 0.08500 -1.00000 0.00000 0.00000 0.29900 0.01700 1 0 1.0
cl_navy
0 2.49500 0.80000 0.08500 0.00000 -1.00000 0.00000 0.49900 0.01700 1 0 1.0
0 2.49500 0.80000 0.09500 0.00000 -1.00000 0.00000 0.49900 0.01900 1 0 1.0
0 -2.49500 0.80000 0.09500 0.00000 -1.00000 0.00000 -0.49900 0.01900 1 0 1.0
cl_navy
0 2.49500 0.80000 0.08500 0.00000 -1.00000 0.00000 0.49900 0.01700 1 0 1.0
0 -2.49500 0.80000 0.09500 0.00000 -1.00000 0.00000 -0.49900 0.01900 1 0 1.0
0 -2.49500 0.80000 0.08500 0.00000 -1.00000 0.00000 -0.49900 0.01700 1 0 1.0
cl_navy
0 2.49500 1.49500 0.10000 0.00000 0.00000 1.00000 0.49900 0.29900 1 0 1.0
0 -2.49500 1.49500 0.10000 0.00000 0.00000 1.00000 -0.49900 0.29900 1 0 1.0
0 -2.49500 0.80500 0.10000 0.00000 0.00000 1.00000 -0.49900 0.16100 1 0 1.0
cl_navy
0 2.49500 1.49500 0.10000 0.00000 0.00000 1.00000 0.49900 0.29900 1 0 1.0
0 -2.49500 0.80500 0.10000 0.00000 0.00000 1.00000 -0.49900 0.16100 1 0 1.0
0 2.49500 0.80500 0.10000 0.00000 0.00000 1.00000 0.49900 0.16100 1 0 1.0
cl_navy
0 -2.49500 1.50000 0.08500 0.00000 1.00000 0.00000 -0.49900 0.01700 1 0 1.0
0 -2.49500 1.50000 0.09500 0.00000 1.00000 0.00000 -0.49900 0.01900 1 0 1.0
0 2.49500 1.50000 0.09500 0.00000 1.00000 0.00000 0.49900 0.01900 1 0 1.0
cl_navy
0 -2.49500 1.50000 0.08500 0.00000 1.00000 0.00000 -0.49900 0.01700 1 0 1.0
0 2.49500 1.50000 0.09500 0.00000 1.00000 0.00000 0.49900 0.01900 1 0 1.0
0 2.49500 1.50000 0.08500 0.00000 1.00000 0.00000 0.49900 0.01700 1 0 1.0
cl_navy
0 2.50000 1.49500 0.08500 1.00000 0.00000 0.00000 0.29900 0.01700 1 0 1.0
0 2.50000 1.49500 0.09500 1.00000 0.00000 0.00000 0.29900 0.01900 1 0 1.0
0 2.50000 0.80500 0.09500 1.00000 0.00000 0.00000 0.16100 0.01900 1 0 1.0
cl_navy
0 2.50000 1.49500 0.08500 1.00000 0.00000 0.00000 0.29900 0.01700 1 0 1.0
0 2.50000 0.80500 0.09500 1.00000 0.00000 0.00000 0.16100 0.01900 1 0 1.0
0 2.50000 0.80500 0.08500 1.00000 0.00000 0.00000 0.16100 0.01700 1 0 1.0
cl_photo
0 -0.64500 0.19500 0.08000 -0.57735 -0.57735 -0.57735 0.03900 0.01600 1 0 1.0
0 -0.64500 0.19000 0.08500 -0.57735 -0.57735 -0.57735 0.03800 0.01700 1 0 1.0
0 -0.65000 0.19500 0.08500 -0.57735 -0.57735 -0.57735 0.03900 0.01700 1 0 1.0
cl_photo
0 -0.64500 0.19000 0.09500 -0.57735 -0.57735 0.57735 0.03800 0.01900 1 0 1.0
0 -0.64500 0.19500 0.10000 -0.57735 -0.57735 0.57735 0.03900 0.02000 1 0 1.0
0 -0.65000 0.19500 0.09500 -0.57735 -0.57735 0.57735 0.03900 0.01900 1 0 1.0
cl_photo
0 -0.64500 0.30500 0.08000 -0.57735 0.57735 -0.57735 0.06100 0.01600 1 0 1.0
0 -0.65000 0.30500 0.08500 -0.57735 0.57735 -0.57735 0.06100 0.01700 1 0 1.0
0 -0.64500 0.31000 0.08500 -0.57735 0.57735 -0.57735 0.06200 0.01700 1 0 1.0
cl_photo
0 -0.64500 0.30500 0.10000 -0.57735 0.57735 0.57735 0.06100 0.02000 1 0 1.0
0 -0.64500 0.31000 0.09500 -0.57735 0.57735 0.57735 0.06200 0.01900 1 0 1.0
0 -0.65000 0.30500 0.09500 -0.57735 0.57735 0.57735 0.06100 0.01900 1 0 1.0
cl_photo
0 1.54500 0.19500 0.08000 0.57736 -0.57735 -0.57735 0.03900 0.01600 1 0 1.0
0 1.55000 0.19500 0.08500 0.57736 -0.57735 -0.57735 0.03900 0.01700 1 0 1.0
0 1.54500 0.19000 0.08500 0.57736 -0.57735 -0.57735 0.03800 0.01700 1 0 1.0
cl_photo
0 1.54500 0.19500 0.10000 0.57736 -0.57735 0.57735 0.03900 0.02000 1 0 1.0
0 1.54500 0.19000 0.09500 0.57736 -0.57735 0.57735 0.03800 0.01900 1 0 1.0
0 1.55000 0.19500 0.09500 0.57736 -0.57735 0.57735 0.03900 0.01900 1 0 1.0
cl_photo
0 1.54500 0.30500 0.08000 0.57736 0.57735 -0.57735 0.06100 0.01600 1 0 1.0
0 1.54500 0.31000 0.08500 0.57736 0.57735 -0.57735 0.06200 0.01700 1 0 1.0
0 1.55000 0.30500 0.08500 0.57736 0.57735 -0.57735 0.06100 0.01700 1 0 1.0
cl_photo
0 1.54500 0.30500 0.10000 0.57736 0.57735 0.57735 0.06100 0.02000 1 0 1.0
0 1.55000 0.30500 0.09500 0.57736 0.57735 0.57735 0.06100 0.01900 1 0 1.0
0 1.54500 0.31000 0.09500 0.57736 0.57735 0.57735 0.06200 0.01900 1 0 1.0
cl_photo
0 -0.64500 0.30500 0.08000 -0.70711 0.00000 -0.70711 0.06100 0.01600 1 0 1.0
0 -0.64500 0.19500 0.08000 -0.70711 0.00000 -0.70711 0.03900 0.01600 1 0 1.0
0 -0.65000 0.19500 0.08500 -0.70711 0.00000 -0.70711 0.03900 0.01700 1 0 1.0
cl_photo
0 -0.64500 0.30500 0.08000 -0.70711 0.00000 -0.70711 0.06100 0.01600 1 0 1.0
0 -0.65000 0.19500 0.08500 -0.70711 0.00000 -0.70711 0.03900 0.01700 1 0 1.0
0 -0.65000 0.30500 0.08500 -0.70711 0.00000 -0.70711 0.06100 0.01700 1 0 1.0
cl_photo
0 -0.64500 0.19000 0.08500 -0.70711 -0.70711 0.00000 0.03800 0.01700 1 0 1.0
0 -0.64500 0.19000 0.09500 -0.70711 -0.70711 0.00000 0.03800 0.01900 1 0 1.0
0 -0.65000 0.19500 0.09500 -0.70711 -0.70711 0.00000 0.03900 0.01900 1 0 1.0
cl_photo
0 -0.64500 0.19000 0.08500 -0.70711 -0.70711 0.00000 0.03800 0.01700 1 0 1.0
0 -0.65000 0.19500 0.09500 -0.70711 -0.70711 0.00000 0.03900 0.01900 1 0 1.0
0 -0.65000 0.19500 0.08500 -0.70711 -0.70711 0.00000 0.03900 0.01700 1 0 1.0
cl_photo
0 -0.64500 0.19500 0.10000 -0.70711 0.00000 0.70711 0.03900 0.02000 1 0 1.0
0 -0.64500 0.30500 0.10000 -0.70711 0.00000 0.70711 0.06100 0.02000 1 0 1.0
0 -0.65000 0.30500 0.09500 -0.70711 0.00000 0.70711 0.06100 0.01900 1 0 1.0
cl_photo
0 -0.64500 0.19500 0.10000 -0.70711 0.00000 0.70711 0.03900 0.02000 1 0 1.0
0 -0.65000 0.30500 0.09500 -0.70711 0.00000 0.70711 0.06100 0.01900 1 0 1.0
0 -0.65000 0.19500 0.09500 -0.70711 0.00000 0.70711 0.03900 0.01900 1 0 1.0
cl_photo
0 -0.64500 0.31000 0.09500 -0.70711 0.70711 0.00000 0.06200 0.01900 1 0 1.0
0 -0.64500 0.31000 0.08500 -0.70711 0.70711 0.00000 0.06200 0.01700 1 0 1.0
0 -0.65000 0.30500 0.08500 -0.70711 0.70711 0.00000 0.06100 0.01700 1 0 1.0
cl_photo
0 -0.64500 0.31000 0.09500 -0.70711 0.70711 0.00000 0.06200 0.01900 1 0 1.0
0 -0.65000 0.30500 0.08500 -0.70711 0.70711 0.00000 0.06100 0.01700 1 0 1.0
0 -0.65000 0.30500 0.09500 -0.70711 0.70711 0.00000 0.06100 0.01900 1 0 1.0
cl_photo
0 1.54500 0.30500 0.08000 0.00000 0.70711 -0.70711 0.30900 0.01600 1 0 1.0
0 -0.64500 0.30500 0.08000 0.00000 0.70711 -0.70711 -0.12900 0.01600 1 0 1.0
0 -0.64500 0.31000 0.08500 0.00000 0.70711 -0.70711 -0.12900 0.01700 1 0 1.0
cl_photo
0 1.54500 0.30500 0.08000 0.00000 0.70711 -0.70711 0.30900 0.01600 1 0 1.0
0 -0.64500 0.31000 0.08500 0.00000 0.70711 -0.70711 -0.12900 0.01700 1 0 1.0
0 1.54500 0.31000 0.08500 0.00000 0.70711 -0.70711 0.30900 0.01700 1 0 1.0
cl_photo
0 -0.64500 0.30500 0.10000 0.00000 0.70711 0.70711 -0.12900 0.02000 1 0 1.0
0 1.54500 0.30500 0.10000 0.00000 0.70711 0.70711 0.30900 0.02000 1 0 1.0
0 1.54500 0.31000 0.09500 0.00000 0.70711 0.70711 0.30900 0.01900 1 0 1.0
cl_photo
0 -0.64500 0.30500 0.10000 0.00000 0.70711 0.70711 -0.12900 0.02000 1 0 1.0
0 1.54500 0.31000 0.09500 0.00000 0.70711 0.70711 0.30900 0.01900 1 0 1.0
0 -0.64500 0.31000 0.09500 0.00000 0.70711 0.70711 -0.12900 0.01900 1 0 1.0
cl_photo
0 1.55000 0.30500 0.09500 0.70712 0.70710 0.00000 0.06100 0.01900 1 0 1.0
0 1.55000 0.30500 0.08500 0.70712 0.70710 0.00000 0.06100 0.01700 1 0 1.0
0 1.54500 0.31000 0.08500 0.70712 0.70710 0.00000 0.06200 0.01700 1 0 1.0
cl_photo
0 1.55000 0.30500 0.09500 0.70712 0.70710 0.00000 0.06100 0.01900 1 0 1.0
0 1.54500 0.31000 0.08500 0.70712 0.70710 0.00000 0.06200 0.01700 1 0 1.0
0 1.54500 0.31000 0.09500 0.70712 0.70710 0.00000 0.06200 0.01900 1 0 1.0
cl_photo
0 1.54500 0.19500 0.08000 0.70712 0.00000 -0.70710 0.03900 0.01600 1 0 1.0
0 1.54500 0.30500 0.08000 0.70712 0.00000 -0.70710 0.06100 0.01600 1 0 1.0
0 1.55000 0.30500 0.08500 0.70712 0.00000 -0.70710 0.06100 0.01700 1 0 1.0
cl_photo
0 1.54500 0.19500 0.08000 0.70712 0.00000 -0.70710 0.03900 0.01600 1 0 1.0
0 1.55000 0.30500 0.08500 0.70712 0.00000 -0.70710 0.06100 0.01700 1 0 1.0
0 1.55000 0.19500 0.08500 0.70712 0.00000 -0.70710 0.03900 0.01700 1 0 1.0
cl_photo
0 1.54500 0.30500 0.10000 0.70712 0.00000 0.70710 0.06100 0.02000 1 0 1.0
0 1.54500 0.19500 0.10000 0.70712 0.00000 0.70710 0.03900 0.02000 1 0 1.0
0 1.55000 0.19500 0.09500 0.70712 0.00000 0.70710 0.03900 0.01900 1 0 1.0
cl_photo
0 1.54500 0.30500 0.10000 0.70712 0.00000 0.70710 0.06100 0.02000 1 0 1.0
0 1.55000 0.19500 0.09500 0.70712 0.00000 0.70710 0.03900 0.01900 1 0 1.0
0 1.55000 0.30500 0.09500 0.70712 0.00000 0.70710 0.06100 0.01900 1 0 1.0
cl_photo
0 1.54500 0.19000 0.09500 0.70712 -0.70710 0.00000 0.03800 0.01900 1 0 1.0
0 1.54500 0.19000 0.08500 0.70712 -0.70710 0.00000 0.03800 0.01700 1 0 1.0
0 1.55000 0.19500 0.08500 0.70712 -0.70710 0.00000 0.03900 0.01700 1 0 1.0
cl_photo
0 1.54500 0.19000 0.09500 0.70712 -0.70710 0.00000 0.03800 0.01900 1 0 1.0
0 1.55000 0.19500 0.08500 0.70712 -0.70710 0.00000 0.03900 0.01700 1 0 1.0
0 1.55000 0.19500 0.09500 0.70712 -0.70710 0.00000 0.03900 0.01900 1 0 1.0
cl_photo
0 -0.64500 0.19500 0.08000 0.00000 -0.70711 -0.70711 -0.12900 0.01600 1 0 1.0
0 1.54500 0.19500 0.08000 0.00000 -0.70711 -0.70711 0.30900 0.01600 1 0 1.0
0 1.54500 0.19000 0.08500 0.00000 -0.70711 -0.70711 0.30900 0.01700 1 0 1.0
cl_photo
0 -0.64500 0.19500 0.08000 0.00000 -0.70711 -0.70711 -0.12900 0.01600 1 0 1.0
0 1.54500 0.19000 0.08500 0.00000 -0.70711 -0.70711 0.30900 0.01700 1 0 1.0
0 -0.64500 0.19000 0.08500 0.00000 -0.70711 -0.70711 -0.12900 0.01700 1 0 1.0
cl_photo
0 1.54500 0.19500 0.10000 0.00000 -0.70711 0.70711 0.30900 0.02000 1 0 1.0
0 -0.64500 0.19500 0.10000 0.00000 -0.70711 0.70711 -0.12900 0.02000 1 0 1.0
0 -0.64500 0.19000 0.09500 0.00000 -0.70711 0.70711 -0.12900 0.01900 1 0 1.0
cl_photo
0 1.54500 0.19500 0.10000 0.00000 -0.70711 0.70711 0.30900 0.02000 1 0 1.0
0 -0.64500 0.19000 0.09500 0.00000 -0.70711 0.70711 -0.12900 0.01900 1 0 1.0
0 1.54500 0.19000 0.09500 0.00000 -0.70711 0.70711 0.30900 0.01900 1 0 1.0
cl_photo
0 -0.64500 0.30500 0.08000 0.00000 0.00000 -1.00000 -0.12900 0.06100 1 0 1.0
0 1.54500 0.30500 0.08000 0.00000 0.00000 -1.00000 0.30900 0.06100 1 0 1.0
0 1.54500 0.19500 0.08000 0.00000 0.00000 -1.00000 0.30900 0.03900 1 0 1.0
cl_photo
0 -0.64500 0.30500 0.08000 0.00000 0.00000 -1.00000 -0.12900 0.06100 1 0 1.0
0 1.54500 0.19500 0.08000 0.00000 0.00000 -1.00000 0.30900 0.03900 1 0 1.0
0 -0.64500 0.19500 0.08000 0.00000 0.00000 -1.00000 -0.12900 0.03900 1 0 1.0
cl_photo
0 -0.65000 0.19500 0.08500 -1.00000 0.00000 0.00000 0.03900 0.01700 1 0 1.0
0 -0.65000 0.19500 0.09500 -1.00000 0.00000 0.00000 0.03900 0.01900 1 0 1.0
0 -0.65000 0.30500 0.09500 -1.00000 0.00000 0.00000 0.06100 0.01900 1 0 1.0
cl_photo
0 -0.65000 0.19500 0.08500 -1.00000 0.00000 0.00000 0.03900 0.01700 1 0 1.0
0 -0.65000 0.30500 0.09500 -1.00000 0.00000 0.00000 0.06100 0.01900 1 0 1.0
0 -0.65000 0.30500 0.08500 -1.00000 0.00000 0.00000 0.06100 0.01700 1 0 1.0
cl_photo
0 1.54500 0.19000 0.08500 0.00000 -1.00000 0.00000 0.30900 0.01700 1 0 1.0
0 1.54500 0.19000 0.09500 0.00000 -1.00000 0.00000 0.30900 0.01900 1 0 1.0
0 -0.64500 0.19000 0.09500 0.00000 -1.00000 0.00000 -0.12900 0.01900 1 0 1.0
cl_photo
0 1.54500 0.19000 0.08500 0.00000 -1.00000 0.00000 0.30900 0.01700 1 0 1.0
0 -0.64500 0.19000 0.09500 0.00000 -1.00000 0.00000 -0.12900 0.01900 1 0 1.0
0 -0.64500 0.19000 0.08500 0.00000 -1.00000 0.00000 -0.12900 0.01700 1 0 1.0
cl_photo
0 1.54500 0.30500 0.10000 0.00000 0.00000 1.00000 0.30900 0.06100 1 0 1.0
0 -0.64500 0.30500 0.10000 0.00000 0.00000 1.00000 -0.12900 0.06100 1 0 1.0
0 -0.64500 0.19500 0.10000 0.00000 0.00000 1.00000 -0.12900 0.03900 1 0 1.0
cl_photo
0 1.54500 0.30500 0.10000 0.00000 0.00000 1.00000 0.30900 0.06100 1 0 1.0
0 -0.64500 0.19500 0.10000 0.00000 0.00000 1.00000 -0.12900 0.03900 1 0 1.0
0 1.54500 0.19500 0.10000 0.00000 0.00000 1.00000 0.30900 0.03900 1 0 1.0
cl_photo
0 -0.64500 0.31000 0.08500 0.00000 1.00000 0.00000 -0.12900 0.01700 1 0 1.0
0 -0.64500 0.31000 0.09500 0.00000 1.00000 0.00000 -0.12900 0.01900 1 0 1.0
0 1.54500 0.31000 0.09500 0.00000 1.00000 0.00000 0.30900 0.01900 1 0 1.0
cl_photo
0 -0.64500 0.31000 0.08500 0.00000 1.00000 0.00000 -0.12900 0.01700 1 0 1.0
0 1.54500 0.31000 0.09500 0.00000 1.00000 0.00000 0.30900 0.01900 1 0 1.0
0 1.54500 0.31000 0.08500 0.00000 1.00000 0.00000 0.30900 0.01700 1 0 1.0
cl_photo
0 1.55000 0.30500 0.08500 1.00000 0.00000 0.00000 0.06100 0.01700 1 0 1.0
0 1.55000 0.30500 0.09500 1.00000 0.00000 0.00000 0.06100 0.01900 1 0 1.0
0 1.55000 0.19500 0.09500 1.00000 0.00000 0.00000 0.03900 0.01900 1 0 1.0
cl_photo
0 1.55000 0.30500 0.08500 1.00000 0.00000 0.00000 0.06100 0.01700 1 0 1.0
0 1.55000 0.19500 0.09500 1.00000 0.00000 0.00000 0.03900 0.01900 1 0 1.0
0 1.55000 0.19500 0.08500 1.00000 0.00000 0.00000 0.03900 0.01700 1 0 1.0
cl_photo
0 -0.64500 -0.18500 0.08000 -0.57735 -0.57735 -0.57735 -0.03700 0.01600 1 0 1.0
0 -0.64500 -0.19000 0.08500 -0.57735 -0.57735 -0.57735 -0.03800 0.01700 1 0 1.0
0 -0.65000 -0.18500 0.08500 -0.57735 -0.57735 -0.57735 -0.03700 0.01700 1 0 1.0
cl_photo
0 -0.64500 -0.19000 0.09500 -0.57735 -0.57735 0.57735 -0.03800 0.01900 1 0 1.0
0 -0.64500 -0.18500 0.10000 -0.57735 -0.57735 0.57735 -0.03700 0.02000 1 0 1.0
0 -0.65000 -0.18500 0.09500 -0.57735 -0.57735 0.57735 -0.03700 0.01900 1 0 1.0
cl_photo
0 -0.64500 -0.07500 0.08000 -0.57735 0.57735 -0.57735 -0.01500 0.01600 1 0 1.0
0 -0.65000 -0.07500 0.08500 -0.57735 0.57735 -0.57735 -0.01500 0.01700 1 0 1.0
0 -0.64500 -0.07000 0.08500 -0.57735 0.57735 -0.57735 -0.01400 0.01700 1 0 1.0
cl_photo
0 -0.64500 -0.07500 0.10000 -0.57735 0.57735 0.57735 -0.01500 0.02000 1 0 1.0
0 -0.64500 -0.07000 0.09500 -0.57735 0.57735 0.57735 -0.01400 0.01900 1 0 1.0
0 -0.65000 -0.07500 0.09500 -0.57735 0.57735 0.57735 -0.01500 0.01900 1 0 1.0
cl_photo
0 1.24500 -0.18500 0.08000 0.57735 -0.57735 -0.57735 -0.03700 0.01600 1 0 1.0
0 1.25000 -0.18500 0.08500 0.57735 -0.57735 -0.57735 -0.03700 0.01700 1 0 1.0
0 1.24500 -0.19000 0.08500 0.57735 -0.57735 -0.57735 -0.03800 0.01700 1 0 1.0
cl_photo
0 1.24500 -0.18500 0.10000 0.57735 -0.57735 0.57735 -0.03700 0.02000 1 0 1.0
0 1.24500 -0.19000 0.09500 0.57735 -0.57735 0.57735 -0.03800 0.01900 1 0 1.0
0 1.25000 -0.18500 0.09500 0.57735 -0.57735 0.57735 -0.03700 0.01900 1 0 1.0
cl_photo
0 1.24500 -0.07500 0.08000 0.57735 0.57735 -0.57735 -0.01500 0.01600 1 0 1.0
0 1.24500 -0.07000 0.08500 0.57735 0.57735 -0.57735 -0.01400 0.01700 1 0 1.0
0 1.25000 -0.07500 0.08500 0.57735 0.57735 -0.57735 -0.01500 0.01700 1 0 1.0
cl_photo
0 1.24500 -0.07500 0.10000 0.57735 0.57735 0.57735 -0.01500 0.02000 1 0 1.0
0 1.25000 -0.07500 0.09500 0.57735 0.57735 0.57735 -0.01500 0.01900 1 0 1.0
0 1.24500 -0.07000 0.09500 0.57735 0.57735 0.57735 -0.01400 0.01900 1 0 1.0
cl_photo
0 -0.64500 -0.07500 0.08000 -0.70711 0.00000 -0.70711 -0.01500 0.01600 1 0 1.0
0 -0.64500 -0.18500 0.08000 -0.70711 0.00000 -0.70711 -0.03700 0.01600 1 0 1.0
0 -0.65000 -0.18500 0.08500 -0.70711 0.00000 -0.70711 -0.03700 0.01700 1 0 1.0
cl_photo
0 -0.64500 -0.07500 0.08000 -0.70711 0.00000 -0.70711 -0.01500 0.01600 1 0 1.0
0 -0.65000 -0.18500 0.08500 -0.70711 0.00000 -0.70711 -0.03700 0.01700 1 0 1.0
0 -0.65000 -0.07500 0.08500 -0.70711 0.00000 -0.70711 -0.01500 0.01700 1 0 1.0
cl_photo
0 -0.64500 -0.19000 0.08500 -0.70711 -0.70711 0.00000 -0.03800 0.01700 1 0 1.0
0 -0.64500 -0.19000 0.09500 -0.70711 -0.70711 0.00000 -0.03800 0.01900 1 0 1.0
0 -0.65000 -0.18500 0.09500 -0.70711 -0.70711 0.00000 -0.03700 0.01900 1 0 1.0
cl_photo
0 -0.64500 -0.19000 0.08500 -0.70711 -0.70711 0.00000 -0.03800 0.01700 1 0 1.0
0 -0.65000 -0.18500 0.09500 -0.70711 -0.70711 0.00000 -0.03700 0.01900 1 0 1.0
0 -0.65000 -0.18500 0.08500 -0.70711 -0.70711 0.00000 -0.03700 0.01700 1 0 1.0
cl_photo
0 -0.64500 -0.18500 0.10000 -0.70711 0.00000 0.70711 -0.03700 0.02000 1 0 1.0
0 -0.64500 -0.07500 0.10000 -0.70711 0.00000 0.70711 -0.01500 0.02000 1 0 1.0
0 -0.65000 -0.07500 0.09500 -0.70711 0.00000 0.70711 -0.01500 0.01900 1 0 1.0
cl_photo
0 -0.64500 -0.18500 0.10000 -0.70711 0.00000 0.70711 -0.03700 0.02000 1 0 1.0
0 -0.65000 -0.07500 0.09500 -0.70711 0.00000 0.70711 -0.01500 0.01900 1 0 1.0
0 -0.65000 -0.18500 0.09500 -0.70711 0.00000 0.70711 -0.03700 0.01900 1 0 1.0
cl_photo
0 -0.64500 -0.07000 0.09500 -0.70711 0.70711 0.00000 -0.01400 0.01900 1 0 1.0
0 -0.64500 -0.07000 0.08500 -0.70711 0.70711 0.00000 -0.01400 0.01700 1 0 1.0
0 -0.65000 -0.07500 0.08500 -0.70711 0.70711 0.00000 -0.01500 0.01700 1 0 1.0
cl_photo
0 -0.64500 -0.07000 0.09500 -0.70711 0.70711 0.00000 -0.01400 0.01900 1 0 1.0
0 -0.65000 -0.07500 0.08500 -0.70711 0.70711 0.00000 -0.01500 0.01700 1 0 1.0
0 -0.65000 -0.07500 0.09500 -0.70711 0.70711 0.00000 -0.01500 0.01900 1 0 1.0
cl_photo
0 1.24500 -0.07500 0.08000 0.00000 0.70711 -0.70711 0.24900 -0.01500 1 0 1.0
0 -0.64500 -0.07500 0.08000 0.00000 0.70711 -0.70711 -0.12900 -0.01500 1 0 1.0
0 -0.64500 -0.07000 0.08500 0.00000 0.70711 -0.70711 -0.12900 -0.01400 1 0 1.0
cl_photo
0 1.24500 -0.07500 0.08000 0.00000 0.70711 -0.70711 0.24900 -0.01500 1 0 1.0
0 -0.64500 -0.07000 0.08500 0.00000 0.70711 -0.70711 -0.12900 -0.01400 1 0 1.0
0 1.24500 -0.07000 0.08500 0.00000 0.70711 -0.70711 0.24900 -0.01400 1 0 1.0
cl_photo
0 -0.64500 -0.07500 0.10000 0.00000 0.70711 0.70711 -0.12900 -0.01500 1 0 1.0
0 1.24500 -0.07500 0.10000 0.00000 0.70711 0.70711 0.24900 -0.01500 1 0 1.0
0 1.24500 -0.07000 0.09500 0.00000 0.70711 0.70711 0.24900 -0.01400 1 0 1.0
cl_photo
0 -0.64500 -0.07500 0.10000 0.00000 0.70711 0.70711 -0.12900 -0.01500 1 0 1.0
0 1.24500 -0.07000 0.09500 0.00000 0.70711 0.70711 0.24900 -0.01400 1 0 1.0
0 -0.64500 -0.07000 0.09500 0.00000 0.70711 0.70711 -0.12900 -0.01400 1 0 1.0
cl_photo
0 1.25000 -0.07500 0.09500 0.70711 0.70711 0.00000 -0.01500 0.01900 1 0 1.0
0 1.25000 -0.07500 0.08500 0.70711 0.70711 0.00000 -0.01500 0.01700 1 0 1.0
0 1.24500 -0.07000 0.08500 0.70711 0.70711 0.00000 -0.01400 0.01700 1 0 1.0
cl_photo
0 1.25000 -0.07500 0.09500 0.70711 0.70711 0.00000 -0.01500 0.01900 1 0 1.0
0 1.24500 -0.07000 0.08500 0.70711 0.70711 0.00000 -0.01400 0.01700 1 0 1.0
0 1.24500 -0.07000 0.09500 0.70711 0.70711 0.00000 -0.01400 0.01900 1 0 1.0
cl_photo
0 1.24500 -0.18500 0.08000 0.70711 0.00000 -0.70711 -0.03700 0.01600 1 0 1.0
0 1.24500 -0.07500 0.08000 0.70711 0.00000 -0.70711 -0.01500 0.01600 1 0 1.0
0 1.25000 -0.07500 0.08500 0.70711 0.00000 -0.70711 -0.01500 0.01700 1 0 1.0
cl_photo
0 1.24500 -0.18500 0.08000 0.70711 0.00000 -0.70711 -0.03700 0.01600 1 0 1.0
0 1.25000 -0.07500 0.08500 0.70711 0.00000 -0.70711 -0.01500 0.01700 1 0 1.0
0 1.25000 -0.18500 0.08500 0.70711 0.00000 -0.70711 -0.03700 0.01700 1 0 1.0
cl_photo
0 1.24500 -0.07500 0.10000 0.70711 0.00000 0.70711 -0.01500 0.02000 1 0 1.0
0 1.24500 -0.18500 0.10000 0.70711 0.00000 0.70711 -0.03700 0.02000 1 0 1.0
0 1.25000 -0.18500 0.09500 0.70711 0.00000 0.70711 -0.03700 0.01900 1 0 1.0
cl_photo
0 1.24500 -0.07500 0.10000 0.70711 0.00000 0.70711 -0.01500 0.02000 1 0 1.0
0 1.25000 -0.18500 0.09500 0.70711 0.00000 0.70711 -0.03700 0.01900 1 0 1.0
0 1.25000 -0.07500 0.09500 0.70711 0.00000 0.70711 -0.01500 0.01900 1 0 1.0
cl_photo
0 1.24500 -0.19000 0.09500 0.70711 -0.70711 0.00000 -0.03800 0.01900 1 0 1.0
0 1.24500 -0.19000 0.08500 0.70711 -0.70711 0.00000 -0.03800 0.01700 1 0 1.0
0 1.25000 -0.18500 0.08500 0.70711 -0.70711 0.00000 -0.03700 0.01700 1 0 1.0
cl_photo
0 1.24500 -0.19000 0.09500 0.70711 -0.70711 0.00000 -0.03800 0.01900 1 0 1.0
0 1.25000 -0.18500 0.08500 0.70711 -0.70711 0.00000 -0.03700 0.01700 1 0 1.0
0 1.25000 -0.18500 0.09500 0.70711 -0.70711 0.00000 -0.03700 0.01900 1 0 1.0
cl_photo
0 -0.64500 -0.18500 0.08000 0.00000 -0.70711 -0.70711 -0.12900 0.01600 1 0 1.0
0 1.24500 -0.18500 0.08000 0.00000 -0.70711 -0.70711 0.24900 0.01600 1 0 1.0
0 1.24500 -0.19000 0.08500 0.00000 -0.70711 -0.70711 0.24900 0.01700 1 0 1.0
cl_photo
0 -0.64500 -0.18500 0.08000 0.00000 -0.70711 -0.70711 -0.12900 0.01600 1 0 1.0
0 1.24500 -0.19000 0.08500 0.00000 -0.70711 -0.70711 0.24900 0.01700 1 0 1.0
0 -0.64500 -0.19000 0.08500 0.00000 -0.70711 -0.70711 -0.12900 0.01700 1 0 1.0
cl_photo
0 1.24500 -0.18500 0.10000 0.00000 -0.70711 0.70711 0.24900 0.02000 1 0 1.0
0 -0.64500 -0.18500 0.10000 0.00000 -0.70711 0.70711 -0.12900 0.02000 1 0 1.0
0 -0.64500 -0.19000 0.09500 0.00000 -0.70711 0.70711 -0.12900 0.01900 1 0 1.0
cl_photo
0 1.24500 -0.18500 0.10000 0.00000 -0.70711 0.70711 0.24900 0.02000 1 0 1.0
0 -0.64500 -0.19000 0.09500 0.00000 -0.70711 0.70711 -0.12900 0.01900 1 0 1.0
0 1.24500 -0.19000 0.09500 0.00000 -0.70711 0.70711 0.24900 0.01900 1 0 1.0
cl_photo
0 -0.64500 -0.07500 0.08000 0.00000 0.00000 -1.00000 -0.12900 -0.01500 1 0 1.0
0 1.24500 -0.07500 0.08000 0.00000 0.00000 -1.00000 0.24900 -0.01500 1 0 1.0
0 1.24500 -0.18500 0.08000 0.00000 0.00000 -1.00000 0.24900 -0.03700 1 0 1.0
cl_photo
0 -0.64500 -0.07500 0.08000 0.00000 0.00000 -1.00000 -0.12900 -0.01500 1 0 1.0
0 1.24500 -0.18500 0.08000 0.00000 0.00000 -1.00000 0.24900 -0.03700 1 0 1.0
0 -0.64500 -0.18500 0.08000 0.00000 0.00000 -1.00000 -0.12900 -0.03700 1 0 1.0
cl_photo
0 -0.65000 -0.18500 0.08500 -1.00000 0.00000 0.00000 -0.03700 0.01700 1 0 1.0
0 -0.65000 -0.18500 0.09500 -1.00000 0.00000 0.00000 -0.03700 0.01900 1 0 1.0
0 -0.65000 -0.07500 0.09500 -1.00000 0.00000 0.00000 -0.01500 0.01900 1 0 1.0
cl_photo
0 -0.65000 -0.18500 0.08500 -1.00000 0.00000 0.00000 -0.03700 0.01700 1 0 1.0
0 -0.65000 -0.07500 0.09500 -1.00000 0.00000 0.00000 -0.01500 0.01900 1 0 1.0
0 -0.65000 -0.07500 0.08500 -1.00000 0.00000 0.00000 -0.01500 0.01700 1 0 1.0
cl_photo
0 1.24500 -0.19000 0.08500 0.00000 -1.00000 0.00000 0.24900 0.01700 1 0 1.0
0 1.24500 -0.19000 0.09500 0.00000 -1.00000 0.00000 0.24900 0.01900 1 0 1.0
0 -0.64500 -0.19000 0.09500 0.00000 -1.00000 0.00000 -0.12900 0.01900 1 0 1.0
cl_photo
0 1.24500 -0.19000 0.08500 0.00000 -1.00000 0.00000 0.24900 0.01700 1 0 1.0
0 -0.64500 -0.19000 0.09500 0.00000 -1.00000 0.00000 -0.12900 0.01900 1 0 1.0
0 -0.64500 -0.19000 0.08500 0.00000 -1.00000 0.00000 -0.12900 0.01700 1 0 1.0
cl_photo
0 1.24500 -0.07500 0.10000 0.00000 0.00000 1.00000 0.24900 -0.01500 1 0 1.0
0 -0.64500 -0.07500 0.10000 0.00000 0.00000 1.00000 -0.12900 -0.01500 1 0 1.0
0 -0.64500 -0.18500 0.10000 0.00000 0.00000 1.00000 -0.12900 -0.03700 1 0 1.0
cl_photo
0 1.24500 -0.07500 0.10000 0.00000 0.00000 1.00000 0.24900 -0.01500 1 0 1.0
0 -0.64500 -0.18500 0.10000 0.00000 0.00000 1.00000 -0.12900 -0.03700 1 0 1.0
0 1.24500 -0.18500 0.10000 0.00000 0.00000 1.00000 0.24900 -0.03700 1 0 1.0
cl_photo
0 -0.64500 -0.07000 0.08500 0.00000 1.00000 0.00000 -0.12900 0.01700 1 0 1.0
0 -0.64500 -0.07000 0.09500 0.00000 1.00000 0.00000 -0.12900 0.01900 1 0 1.0
0 1.24500 -0.07000 0.09500 0.00000 1.00000 0.00000 0.24900 0.01900 1 0 1.0
cl_photo
0 -0.64500 -0.07000 0.08500 0.00000 1.00000 0.00000 -0.12900 0.01700 1 0 1.0
0 1.24500 -0.07000 0.09500 0.00000 1.00000 0.00000 0.24900 0.01900 1 0 1.0
0 1.24500 -0.07000 0.08500 0.00000 1.00000 0.00000 0.24900 0.01700 1 0 1.0
cl_photo
0 1.25000 -0.07500 0.08500 1.00000 0.00000 0.00000 -0.01500 0.01700 1 0 1.0
0 1.25000 -0.07500 0.09500 1.00000 0.00000 0.00000 -0.01500 0.01900 1 0 1.0
0 1.25000 -0.18500 0.09500 1.00000 0.00000 0.00000 -0.03700 0.01900 1 0 1.0
cl_photo
0 1.25000 -0.07500 0.08500 1.00000 0.00000 0.00000 -0.01500 0.01700 1 0 1.0
0 1.25000 -0.18500 0.09500 1.00000 0.00000 0.00000 -0.03700 0.01900 1 0 1.0
0 1.25000 -0.18500 0.08500 1.00000 0.00000 0.00000 -0.03700 0.01700 1 0 1.0
cl_photo
0 -0.64500 -0.56500 0.08000 -0.57735 -0.57735 -0.57735 -0.11300 0.01600 1 0 1.0
0 -0.64500 -0.57000 0.08500 -0.57735 -0.57735 -0.57735 -0.11400 0.01700 1 0 1.0
0 -0.65000 -0.56500 0.08500 -0.57735 -0.57735 -0.57735 -0.11300 0.01700 1 0 1.0
cl_photo
0 -0.64500 -0.57000 0.09500 -0.57735 -0.57735 0.57735 -0.11400 0.01900 1 0 1.0
0 -0.64500 -0.56500 0.10000 -0.57735 -0.57735 0.57735 -0.11300 0.02000 1 0 1.0
0 -0.65000 -0.56500 0.09500 -0.57735 -0.57735 0.57735 -0.11300 0.01900 1 0 1.0
cl_photo
0 -0.64500 -0.45500 0.08000 -0.57735 0.57735 -0.57735 -0.09100 0.01600 1 0 1.0
0 -0.65000 -0.45500 0.08500 -0.57735 0.57735 -0.57735 -0.09100 0.01700 1 0 1.0
0 -0.64500 -0.45000 0.08500 -0.57735 0.57735 -0.57735 -0.09000 0.01700 1 0 1.0
cl_photo
0 -0.64500 -0.45500 0.10000 -0.57735 0.57735 0.57735 -0.09100 0.02000 1 0 1.0
0 -0.64500 -0.45000 0.09500 -0.57735 0.57735 0.57735 -0.09000 0.01900 1 0 1.0
0 -0.65000 -0.45500 0.09500 -0.57735 0.57735 0.57735 -0.09100 0.01900 1 0 1.0
cl_photo
0 0.94500 -0.56500 0.08000 0.57735 -0.57735 -0.57735 -0.11300 0.01600 1 0 1.0
0 0.95000 -0.56500 0.08500 0.57735 -0.57735 -0.57735 -0.11300 0.01700 1 0 1.0
0 0.94500 -0.57000 0.08500 0.57735 -0.57735 -0.57735 -0.11400 0.01700 1 0 1.0
cl_photo
0 0.94500 -0.56500 0.10000 0.57735 -0.57735 0.57735 -0.11300 0.02000 1 0 1.0
0 0.94500 -0.57000 0.09500 0.57735 -0.57735 0.57735 -0.11400 0.01900 1 0 1.0
0 0.95000 -0.56500 0.09500 0.57735 -0.57735 0.57735 -0.11300 0.01900 1 0 1.0
cl_photo
0 0.94500 -0.45500 0.08000 0.57735 0.57735 -0.57735 -0.09100 0.01600 1 0 1.0
0 0.94500 -0.45000 0.08500 0.57735 0.57735 -0.57735 -0.09000 0.01700 1 0 1.0
0 0.95000 -0.45500 0.08500 0.57735 0.57735 -0.57735 -0.09100 0.01700 1 0 1.0
cl_photo
0 0.94500 -0.45500 0.10000 0.57735 0.57735 0.57735 -0.09100 0.02000 1 0 1.0
0 0.95000 -0.45500 0.09500 0.57735 0.57735 0.57735 -0.09100 0.01900 1 0 1.0
0 0.94500 -0.45000 0.09500 0.57735 0.57735 0.57735 -0.09000 0.01900 1 0 1.0
cl_photo
0 -0.64500 -0.45500 0.08000 -0.70711 0.00000 -0.70711 -0.09100 0.01600 1 0 1.0
0 -0.64500 -0.56500 0.08000 -0.70711 0.00000 -0.70711 -0.11300 0.01600 1 0 1.0
0 -0.65000 -0.56500 0.08500 -0.70711 0.00000 -0.70711 -0.11300 0.01700 1 0 1.0
cl_photo
0 -0.64500 -0.45500 0.08000 -0.70711 0.00000 -0.70711 -0.09100 0.01600 1 0 1.0
0 -0.65000 -0.56500 0.08500 -0.70711 0.00000 -0.70711 -0.11300 0.01700 1 0 1.0
0 -0.65000 -0.45500 0.08500 -0.70711 0.00000 -0.70711 -0.09100 0.01700 1 0 1.0
cl_photo
0 -0.64500 -0.57000 0.08500 -0.70711 -0.70711 0.00000 -0.11400 0.01700 1 0 1.0
0 -0.64500 -0.57000 0.09500 -0.70711 -0.70711 0.00000 -0.11400 0.01900 1 0 1.0
0 -0.65000 -0.56500 0.09500 -0.70711 -0.70711 0.00000 -0.11300 0.01900 1 0 1.0
cl_photo
0 -0.64500 -0.57000 0.08500 -0.70711 -0.70711 0.00000 -0.11400 0.01700 1 0 1.0
0 -0.65000 -0.56500 0.09500 -0.70711 -0.70711 0.00000 -0.11300 0.01900 1 0 1.0
0 -0.65000 -0.56500 0.08500 -0.70711 -0.70711 0.00000 -0.11300 0.01700 1 0 1.0
cl_photo
0 -0.64500 -0.56500 0.10000 -0.70711 0.00000 0.70711 -0.11300 0.02000 1 0 1.0
0 -0.64500 -0.45500 0.10000 -0.70711 0.00000 0.70711 -0.09100 0.02000 1 0 1.0
0 -0.65000 -0.45500 0.09500 -0.70711 0.00000 0.70711 -0.09100 0.01900 1 0 1.0
cl_photo
0 -0.64500 -0.56500 0.10000 -0.70711 0.00000 0.70711 -0.11300 0.02000 1 0 1.0
0 -0.65000 -0.45500 0.09500 -0.70711 0.00000 0.70711 -0.09100 0.01900 1 0 1.0
0 -0.65000 -0.56500 0.09500 -0.70711 0.00000 0.70711 -0.11300 0.01900 1 0 1.0
cl_photo
0 -0.64500 -0.45000 0.09500 -0.70711 0.70711 0.00000 -0.09000 0.01900 1 0 1.0
0 -0.64500 -0.45000 0.08500 -0.70711 0.70711 0.00000 -0.09000 0.01700 1 0 1.0
0 -0.65000 -0.45500 0.08500 -0.70711 0.70711 0.00000 -0.09100 0.01700 1 0 1.0
cl_photo
0 -0.64500 -0.45000 0.09500 -0.70711 0.70711 0.00000 -0.09000 0.01900 1 0 1.0
0 -0.65000 -0.45500 0.08500 -0.70711 0.70711 0.00000 -0.09100 0.01700 1 0 1.0
0 -0.65000 -0.45500 0.09500 -0.70711 0.70711 0.00000 -0.09100 0.01900 1 0 1.0
cl_photo
0 0.94500 -0.45500 0.08000 0.00000 0.70711 -0.70711 0.18900 0.01600 1 0 1.0
0 -0.64500 -0.45500 0.08000 0.00000 0.70711 -0.70711 -0.12900 0.01600 1 0 1.0
0 -0.64500 -0.45000 0.08500 0.00000 0.70711 -0.70711 -0.12900 0.01700 1 0 1.0
cl_photo
0 0.94500 -0.45500 0.08000 0.00000 0.70711 -0.70711 0.18900 0.01600 1 0 1.0
0 -0.64500 -0.45000 0.08500 0.00000 0.70711 -0.70711 -0.12900 0.01700 1 0 1.0
0 0.94500 -0.45000 0.08500 0.00000 0.70711 -0.70711 0.18900 0.01700 1 0 1.0
cl_photo
0 -0.64500 -0.45500 0.10000 0.00000 0.70711 0.70711 -0.12900 0.02000 1 0 1.0
0 0.94500 -0.45500 0.10000 0.00000 0.70711 0.70711 0.18900 0.02000 1 0 1.0
0 0.94500 -0.45000 0.09500 0.00000 0.70711 0.70711 0.18900 0.01900 1 0 1.0
cl_photo
0 -0.64500 -0.45500 0.10000 0.00000 0.70711 0.70711 -0.12900 0.02000 1 0 1.0
0 0.94500 -0.45000 0.09500 0.00000 0.70711 0.70711 0.18900 0.01900 1 0 1.0
0 -0.64500 -0.45000 0.09500 0.00000 0.70711 0.70711 -0.12900 0.01900 1 0 1.0
cl_photo
0 0.95000 -0.45500 0.09500 0.70711 0.70711 0.00000 -0.09100 0.01900 1 0 1.0
0 0.95000 -0.45500 0.08500 0.70711 0.70711 0.00000 -0.09100 0.01700 1 0 1.0
0 0.94500 -0.45000 0.08500 0.70711 0.70711 0.00000 -0.09000 0.01700 1 0 1.0
cl_photo
0 0.95000 -0.45500 0.09500 0.70711 0.70711 0.00000 -0.09100 0.01900 1 0 1.0
0 0.94500 -0.45000 0.08500 0.70711 0.70711 0.00000 -0.09000 0.01700 1 0 1.0
0 0.94500 -0.45000 0.09500 0.70711 0.70711 0.00000 -0.09000 0.01900 1 0 1.0
cl_photo
0 0.94500 -0.56500 0.08000 0.70711 0.00000 -0.70711 -0.11300 0.01600 1 0 1.0
0 0.94500 -0.45500 0.08000 0.70711 0.00000 -0.70711 -0.09100 0.01600 1 0 1.0
0 0.95000 -0.45500 0.08500 0.70711 0.00000 -0.70711 -0.09100 0.01700 1 0 1.0
cl_photo
0 0.94500 -0.56500 0.08000 0.70711 0.00000 -0.70711 -0.11300 0.01600 1 0 1.0
0 0.95000 -0.45500 0.08500 0.70711 0.00000 -0.70711 -0.09100 0.01700 1 0 1.0
0 0.95000 -0.56500 0.08500 0.70711 0.00000 -0.70711 -0.11300 0.01700 1 0 1.0
cl_photo
0 0.94500 -0.45500 0.10000 0.70711 0.00000 0.70711 -0.09100 0.02000 1 0 1.0
0 0.94500 -0.56500 0.10000 0.70711 0.00000 0.70711 -0.11300 0.02000 1 0 1.0
0 0.95000 -0.56500 0.09500 0.70711 0.00000 0.70711 -0.11300 0.01900 1 0 1.0
cl_photo
0 0.94500 -0.45500 0.10000 0.70711 0.00000 0.70711 -0.09100 0.02000 1 0 1.0
0 0.95000 -0.56500 0.09500 0.70711 0.00000 0.70711 -0.11300 0.01900 1 0 1.0
0 0.95000 -0.45500 0.09500 0.70711 0.00000 0.70711 -0.09100 0.01900 1 0 1.0
cl_photo
0 0.94500 -0.57000 0.09500 0.70711 -0.70711 0.00000 -0.11400 0.01900 1 0 1.0
0 0.94500 -0.57000 0.08500 0.70711 -0.70711 0.00000 -0.11400 0.01700 1 0 1.0
0 0.95000 -0.56500 0.08500 0.70711 -0.70711 0.00000 -0.11300 0.01700 1 0 1.0
cl_photo
0 0.94500 -0.57000 0.09500 0.70711 -0.70711 0.00000 -0.11400 0.01900 1 0 1.0
0 0.95000 -0.56500 0.08500 0.70711 -0.70711 0.00000 -0.11300 0.01700 1 0 1.0
0 0.95000 -0.56500 0.09500 0.70711 -0.70711 0.00000 -0.11300 0.01900 1 0 1.0
cl_photo
0 -0.64500 -0.56500 0.08000 0.00000 -0.70711 -0.70711 -0.12900 0.01600 1 0 1.0
0 0.94500 -0.56500 0.08000 0.00000 -0.70711 -0.70711 0.18900 0.01600 1 0 1.0
0 0.94500 -0.57000 0.08500 0.00000 -0.70711 -0.70711 0.18900 0.01700 1 0 1.0
cl_photo
0 -0.64500 -0.56500 0.08000 0.00000 -0.70711 -0.70711 -0.12900 0.01600 1 0 1.0
0 0.94500 -0.57000 0.08500 0.00000 -0.70711 -0.70711 0.18900 0.01700 1 0 1.0
0 -0.64500 -0.57000 0.08500 0.00000 -0.70711 -0.70711 -0.12900 0.01700 1 0 1.0
cl_photo
0 0.94500 -0.56500 0.10000 0.00000 -0.70711 0.70711 0.18900 0.02000 1 0 1.0
0 -0.64500 -0.56500 0.10000 0.00000 -0.70711 0.70711 -0.12900 0.02000 1 0 1.0
0 -0.64500 -0.57000 0.09500 0.00000 -0.70711 0.70711 -0.12900 0.01900 1 0 1.0
cl_photo
0 0.94500 -0.56500 0.10000 0.00000 -0.70711 0.70711 0.18900 0.02000 1 0 1.0
0 -0.64500 -0.57000 0.09500 0.00000 -0.70711 0.70711 -0.12900 0.01900 1 0 1.0
0 0.94500 -0.57000 0.09500 0.00000 -0.70711 0.70711 0.18900 0.01900 1 0 1.0
cl_photo
0 -0.64500 -0.45500 0.08000 0.00000 0.00000 -1.00000 -0.12900 -0.09100 1 0 1.0
0 0.94500 -0.45500 0.08000 0.00000 0.00000 -1.00000 0.18900 -0.09100 1 0 1.0
0 0.94500 -0.56500 0.08000 0.00000 0.00000 -1.00000 0.18900 -0.11300 1 0 1.0
cl_photo
0 -0.64500 -0.45500 0.08000 0.00000 0.00000 -1.00000 -0.12900 -0.09100 1 0 1.0
0 0.94500 -0.56500 0.08000 0.00000 0.00000 -1.00000 0.18900 -0.11300 1 0 1.0
0 -0.64500 -0.56500 0.08000 0.00000 0.00000 -1.00000 -0.12900 -0.11300 1 0 1.0
cl_photo
0 -0.65000 -0.56500 0.08500 -1.00000 0.00000 0.00000 -0.11300 0.01700 1 0 1.0
0 -0.65000 -0.56500 0.09500 -1.00000 0.00000 0.00000 -0.11300 0.01900 1 0 1.0
0 -0.65000 -0.45500 0.09500 -1.00000 0.00000 0.00000 -0.09100 0.01900 1 0 1.0
cl_photo
0 -0.65000 -0.56500 0.08500 -1.00000 0.00000 0.00000 -0.11300 0.01700 1 0 1.0
0 -0.65000 -0.45500 0.09500 -1.00000 0.00000 0.00000 -0.09100 0.01900 1 0 1.0
0 -0.65000 -0.45500 0.08500 -1.00000 0.00000 0.00000 -0.09100 0.01700 1 0 1.0
cl_photo
0 0.94500 -0.57000 0.08500 0.00000 -1.00000 0.00000 0.18900 0.01700 1 0 1.0
0 0.94500 -0.57000 0.09500 0.00000 -1.00000 0.00000 0.18900 0.01900 1 0 1.0
0 -0.64500 -0.57000 0.09500 0.00000 -1.00000 0.00000 -0.12900 0.01900 1 0 1.0
cl_photo
0 0.94500 -0.57000 0.08500 0.00000 -1.00000 0.00000 0.18900 0.01700 1 0 1.0
0 -0.64500 -0.57000 0.09500 0.00000 -1.00000 0.00000 -0.12900 0.01900 1 0 1.0
0 -0.64500 -0.57000 0.08500 0.00000 -1.00000 0.00000 -0.12900 0.01700 1 0 1.0
cl_photo
0 0.94500 -0.45500 0.10000 0.00000 0.00000 1.00000 0.18900 -0.09100 1 0 1.0
0 -0.64500 -0.45500 0.10000 0.00000 0.00000 1.00000 -0.12900 -0.09100 1 0 1.0
0 -0.64500 -0.56500 0.10000 0.00000 0.00000 1.00000 -0.12900 -0.11300 1 0 1.0
cl_photo
0 0.94500 -0.45500 0.10000 0.00000 0.00000 1.00000 0.18900 -0.09100 1 0 1.0
0 -0.64500 -0.56500 0.10000 0.00000 0.00000 1.00000 -0.12900 -0.11300 1 0 1.0
0 0.94500 -0.56500 0.10000 0.00000 0.00000 1.00000 0.18900 -0.11300 1 0 1.0
cl_photo
0 -0.64500 -0.45000 0.08500 0.00000 1.00000 0.00000 -0.12900 0.01700 1 0 1.0
0 -0.64500 -0.45000 0.09500 0.00000 1.00000 0.00000 -0.12900 0.01900 1 0 1.0
0 0.94500 -0.45000 0.09500 0.00000 1.00000 0.00000 0.18900 0.01900 1 0 1.0
cl_photo
0 -0.64500 -0.45000 0.08500 0.00000 1.00000 0.00000 -0.12900 0.01700 1 0 1.0
0 0.94500 -0.45000 0.09500 0.00000 1.00000 0.00000 0.18900 0.01900 1 0 1.0
0 0.94500 -0.45000 0.08500 0.00000 1.00000 0.00000 0.18900 0.01700 1 0 1.0
cl_photo
0 0.95000 -0.45500 0.08500 1.00000 0.00000 0.00000 -0.09100 0.01700 1 0 1.0
0 0.95000 -0.45500 0.09500 1.00000 0.00000 0.00000 -0.09100 0.01900 1 0 1.0
0 0.95000 -0.56500 0.09500 1.00000 0.00000 0.00000 -0.11300 0.01900 1 0 1.0
cl_photo
0 0.95000 -0.45500 0.08500 1.00000 0.00000 0.00000 -0.09100 0.01700 1 0 1.0
0 0.95000 -0.56500 0.09500 1.00000 0.00000 0.00000 -0.11300 0.01900 1 0 1.0
0 0.95000 -0.56500 0.08500 1.00000 0.00000 0.00000 -0.11300 0.01700 1 0 1.0
cl_photo
0 -0.64500 -0.94500 0.08000 -0.57735 -0.57735 -0.57735 -0.18900 0.01600 1 0 1.0
0 -0.64500 -0.95000 0.08500 -0.57735 -0.57735 -0.57735 -0.19000 0.01700 1 0 1.0
0 -0.65000 -0.94500 0.08500 -0.57735 -0.57735 -0.57735 -0.18900 0.01700 1 0 1.0
cl_photo
0 -0.64500 -0.95000 0.09500 -0.57735 -0.57735 0.57735 -0.19000 0.01900 1 0 1.0
0 -0.64500 -0.94500 0.10000 -0.57735 -0.57735 0.57735 -0.18900 0.02000 1 0 1.0
0 -0.65000 -0.94500 0.09500 -0.57735 -0.57735 0.57735 -0.18900 0.01900 1 0 1.0
cl_photo
0 -0.64500 -0.83500 0.08000 -0.57735 0.57735 -0.57735 -0.16700 0.01600 1 0 1.0
0 -0.65000 -0.83500 0.08500 -0.57735 0.57735 -0.57735 -0.16700 0.01700 1 0 1.0
0 -0.64500 -0.83000 0.08500 -0.57735 0.57735 -0.57735 -0.16600 0.01700 1 0 1.0
cl_photo
0 -0.64500 -0.83500 0.10000 -0.57735 0.57735 0.57735 -0.16700 0.02000 1 0 1.0
0 -0.64500 -0.83000 0.09500 -0.57735 0.57735 0.57735 -0.16600 0.01900 1 0 1.0
0 -0.65000 -0.83500 0.09500 -0.57735 0.57735 0.57735 -0.16700 0.01900 1 0 1.0
cl_photo
0 0.64500 -0.94500 0.08000 0.57735 -0.57735 -0.57735 -0.18900 0.01600 1 0 1.0
0 0.65000 -0.94500 0.08500 0.57735 -0.57735 -0.57735 -0.18900 0.01700 1 0 1.0
0 0.64500 -0.95000 0.08500 0.57735 -0.57735 -0.57735 -0.19000 0.01700 1 0 1.0
cl_photo
0 0.64500 -0.94500 0.10000 0.57735 -0.57735 0.57735 -0.18900 0.02000 1 0 1.0
0 0.64500 -0.95000 0.09500 0.57735 -0.57735 0.57735 -0.19000 0.01900 1 0 1.0
0 0.65000 -0.94500 0.09500 0.57735 -0.57735 0.57735 -0.18900 0.01900 1 0 1.0
cl_photo
0 0.64500 -0.83500 0.08000 0.57735 0.57735 -0.57735 -0.16700 0.01600 1 0 1.0
0 0.64500 -0.83000 0.08500 0.57735 0.57735 -0.57735 -0.16600 0.01700 1 0 1.0
0 0.65000 -0.83500 0.08500 0.57735 0.57735 -0.57735 -0.16700 0.01700 1 0 1.0
cl_photo
0 0.64500 -0.83500 0.10000 0.57735 0.57735 0.57735 -0.16700 0.02000 1 0 1.0
0 0.65000 -0.83500 0.09500 0.57735 0.57735 0.57735 -0.16700 0.01900 1 0 1.0
0 0.64500 -0.83000 0.09500 0.57735 0.57735 0.57735 -0.16600 0.01900 1 0 1.0
cl_photo
0 -0.64500 -0.83500 0.08000 -0.70711 0.00000 -0.70711 -0.16700 0.01600 1 0 1.0
0 -0.64500 -0.94500 0.08000 -0.70711 0.00000 -0.70711 -0.18900 0.01600 1 0 1.0
0 -0.65000 -0.94500 0.08500 -0.70711 0.00000 -0.70711 -0.18900 0.01700 1 0 1.0
cl_photo
0 -0.64500 -0.83500 0.08000 -0.70711 0.00000 -0.70711 -0.16700 0.01600 1 0 1.0
0 -0.65000 -0.94500 0.08500 -0.70711 0.00000 -0.70711 -0.18900 0.01700 1 0 1.0
0 -0.65000 -0.83500 0.08500 -0.70711 0.00000 -0.70711 -0.16700 0.01700 1 0 1.0
cl_photo
0 -0.64500 -0.95000 0.08500 -0.70711 -0.70711 0.00000 -0.19000 0.01700 1 0 1.0
0 -0.64500 -0.95000 0.09500 -0.70711 -0.70711 0.00000 -0.19000 0.01900 1 0 1.0
0 -0.65000 -0.94500 0.09500 -0.70711 -0.70711 0.00000 -0.18900 0.01900 1 0 1.0
cl_photo
0 -0.64500 -0.95000 0.08500 -0.70711 -0.70711 0.00000 -0.19000 0.01700 1 0 1.0
0 -0.65000 -0.94500 0.09500 -0.70711 -0.70711 0.00000 -0.18900 0.01900 1 0 1.0
0 -0.65000 -0.94500 0.08500 -0.70711 -0.70711 0.00000 -0.18900 0.01700 1 0 1.0
cl_photo
0 -0.64500 -0.94500 0.10000 -0.70711 0.00000 0.70711 -0.18900 0.02000 1 0 1.0
0 -0.64500 -0.83500 0.10000 -0.70711 0.00000 0.70711 -0.16700 0.02000 1 0 1.0
0 -0.65000 -0.83500 0.09500 -0.70711 0.00000 0.70711 -0.16700 0.01900 1 0 1.0
cl_photo
0 -0.64500 -0.94500 0.10000 -0.70711 0.00000 0.70711 -0.18900 0.02000 1 0 1.0
0 -0.65000 -0.83500 0.09500 -0.70711 0.00000 0.70711 -0.16700 0.01900 1 0 1.0
0 -0.65000 -0.94500 0.09500 -0.70711 0.00000 0.70711 -0.18900 0.01900 1 0 1.0
cl_photo
0 -0.64500 -0.83000 0.09500 -0.70711 0.70711 0.00000 -0.16600 0.01900 1 0 1.0
0 -0.64500 -0.83000 0.08500 -0.70711 0.70711 0.00000 -0.16600 0.01700 1 0 1.0
0 -0.65000 -0.83500 0.08500 -0.70711 0.70711 0.00000 -0.16700 0.01700 1 0 1.0
cl_photo
0 -0.64500 -0.83000 0.09500 -0.70711 0.70711 0.00000 -0.16600 0.01900 1 0 1.0
0 -0.65000 -0.83500 0.08500 -0.70711 0.70711 0.00000 -0.16700 0.01700 1 0 1.0
0 -0.65000 -0.83500 0.09500 -0.70711 0.70711 0.00000 -0.16700 0.01900 1 0 1.0
cl_photo
0 0.64500 -0.83500 0.08000 0.00000 0.70711 -0.70711 0.12900 0.01600 1 0 1.0
0 -0.64500 -0.83500 0.08000 0.00000 0.70711 -0.70711 -0.12900 0.01600 1 0 1.0
0 -0.64500 -0.83000 0.08500 0.00000 0.70711 -0.70711 -0.12900 0.01700 1 0 1.0
cl_photo
0 0.64500 -0.83500 0.08000 0.00000 0.70711 -0.70711 0.12900 0.01600 1 0 1.0
0 -0.64500 -0.83000 0.08500 0.00000 0.70711 -0.70711 -0.12900 0.01700 1 0 1.0
0 0.64500 -0.83000 0.08500 0.00000 0.70711 -0.70711 0.12900 0.01700 1 0 1.0
cl_photo
0 -0.64500 -0.83500 0.10000 0.00000 0.70711 0.70711 -0.12900 0.02000 1 0 1.0
0 0.64500 -0.83500 0.10000 0.00000 0.70711 0.70711 0.12900 0.02000 1 0 1.0
0 0.64500 -0.83000 0.09500 0.00000 0.70711 0.70711 0.12900 0.01900 1 0 1.0
cl_photo
0 -0.64500 -0.83500 0.10000 0.00000 0.70711 0.70711 -0.12900 0.02000 1 0 1.0
0 0.64500 -0.83000 0.09500 0.00000 0.70711 0.70711 0.12900 0.01900 1 0 1.0
0 -0.64500 -0.83000 0.09500 0.00000 0.70711 0.70711 -0.12900 0.01900 1 0 1.0
cl_photo
0 0.65000 -0.83500 0.09500 0.70711 0.70711 0.00000 -0.16700 0.01900 1 0 1.0
0 0.65000 -0.83500 0.08500 0.70711 0.70711 0.00000 -0.16700 0.01700 1 0 1.0
0 0.64500 -0.83000 0.08500 0.70711 0.70711 0.00000 -0.16600 0.01700 1 0 1.0
cl_photo
0 0.65000 -0.83500 0.09500 0.70711 0.70711 0.00000 -0.16700 0.01900 1 0 1.0
0 0.64500 -0.83000 0.08500 0.70711 0.70711 0.00000 -0.16600 0.01700 1 0 1.0
0 0.64500 -0.83000 0.09500 0.70711 0.70711 0.00000 -0.16600 0.01900 1 0 1.0
cl_photo
0 0.64500 -0.94500 0.08000 0.70711 0.00000 -0.70711 -0.18900 0.01600 1 0 1.0
0 0.64500 -0.83500 0.08000 0.70711 0.00000 -0.70711 -0.16700 0.01600 1 0 1.0
0 0.65000 -0.83500 0.08500 0.70711 0.00000 -0.70711 -0.16700 0.01700 1 0 1.0
cl_photo
0 0.64500 -0.94500 0.08000 0.70711 0.00000 -0.70711 -0.18900 0.01600 1 0 1.0
0 0.65000 -0.83500 0.08500 0.70711 0.00000 -0.70711 -0.16700 0.01700 1 0 1.0
0 0.65000 -0.94500 0.08500 0.70711 0.00000 -0.70711 -0.18900 0.01700 1 0 1.0
cl_photo
0 0.64500 -0.83500 0.10000 0.70711 0.00000 0.70711 -0.16700 0.02000 1 0 1.0
0 0.64500 -0.94500 0.10000 0.70711 0.00000 0.70711 -0.18900 0.02000 1 0 1.0
0 0.65000 -0.94500 0.09500 0.70711 0.00000 0.70711 -0.18900 0.01900 1 0 1.0
cl_photo
0 0.64500 -0.83500 0.10000 0.70711 0.00000 0.70711 -0.16700 0.02000 1 0 1.0
0 0.65000 -0.94500 0.09500 0.70711 0.00000 0.70711 -0.18900 0.01900 1 0 1.0
0 0.65000 -0.83500 0.09500 0.70711 0.00000 0.70711 -0.16700 0.01900 1 0 1.0
cl_photo
0 0.64500 -0.95000 0.09500 0.70711 -0.70711 0.00000 -0.19000 0.01900 1 0 1.0
0 0.64500 -0.95000 0.08500 0.70711 -0.70711 0.00000 -0.19000 0.01700 1 0 1.0
0 0.65000 -0.94500 0.08500 0.70711 -0.70711 0.00000 -0.18900 0.01700 1 0 1.0
cl_photo
0 0.64500 -0.95000 0.09500 0.70711 -0.70711 0.00000 -0.19000 0.01900 1 0 1.0
0 0.65000 -0.94500 0.08500 0.70711 -0.70711 0.00000 -0.18900 0.01700 1 0 1.0
0 0.65000 -0.94500 0.09500 0.70711 -0.70711 0.00000 -0.18900 0.01900 1 0 1.0
cl_photo
0 -0.64500 -0.94500 0.08000 0.00000 -0.70711 -0.70711 -0.12900 0.01600 1 0 1.0
0 0.64500 -0.94500 0.08000 0.00000 -0.70711 -0.70711 0.12900 0.01600 1 0 1.0
0 0.64500 -0.95000 0.08500 0.00000 -0.70711 -0.70711 0.12900 0.01700 1 0 1.0
cl_photo
0 -0.64500 -0.94500 0.08000 0.00000 -0.70711 -0.70711 -0.12900 0.01600 1 0 1.0
0 0.64500 -0.95000 0.08500 0.00000 -0.70711 -0.70711 0.12900 0.01700 1 0 1.0
0 -0.64500 -0.95000 0.08500 0.00000 -0.70711 -0.70711 -0.12900 0.01700 1 0 1.0
cl_photo
0 0.64500 -0.94500 0.10000 0.00000 -0.70711 0.70711 0.12900 0.02000 1 0 1.0
0 -0.64500 -0.94500 0.10000 0.00000 -0.70711 0.70711 -0.12900 0.02000 1 0 1.0
0 -0.64500 -0.95000 0.09500 0.00000 -0.70711 0.70711 -0.12900 0.01900 1 0 1.0
cl_photo
0 0.64500 -0.94500 0.10000 0.00000 -0.70711 0.70711 0.12900 0.02000 1 0 1.0
0 -0.64500 -0.95000 0.09500 0.00000 -0.70711 0.70711 -0.12900 0.01900 1 0 1.0
0 0.64500 -0.95000 0.09500 0.00000 -0.70711 0.70711 0.12900 0.01900 1 0 1.0
cl_photo
0 -0.64500 -0.83500 0.08000 0.00000 0.00000 -1.00000 -0.12900 -0.16700 1 0 1.0
0 0.64500 -0.83500 0.08000 0.00000 0.00000 -1.00000 0.12900 -0.16700 1 0 1.0
0 0.64500 -0.94500 0.08000 0.00000 0.00000 -1.00000 0.12900 -0.18900 1 0 1.0
cl_photo
0 -0.64500 -0.83500 0.08000 0.00000 0.00000 -1.00000 -0.12900 -0.16700 1 0 1.0
0 0.64500 -0.94500 0.08000 0.00000 0.00000 -1.00000 0.12900 -0.18900 1 0 1.0
0 -0.64500 -0.94500 0.08000 0.00000 0.00000 -1.00000 -0.12900 -0.18900 1 0 1.0
cl_photo
0 -0.65000 -0.94500 0.08500 -1.00000 0.00000 0.00000 -0.18900 0.01700 1 0 1.0
0 -0.65000 -0.94500 0.09500 -1.00000 0.00000 0.00000 -0.18900 0.01900 1 0 1.0
0 -0.65000 -0.83500 0.09500 -1.00000 0.00000 0.00000 -0.16700 0.01900 1 0 1.0
cl_photo
0 -0.65000 -0.94500 0.08500 -1.00000 0.00000 0.00000 -0.18900 0.01700 1 0 1.0
0 -0.65000 -0.83500 0.09500 -1.00000 0.00000 0.00000 -0.16700 0.01900 1 0 1.0
0 -0.65000 -0.83500 0.08500 -1.00000 0.00000 0.00000 -0.16700 0.01700 1 0 1.0
cl_photo
0 0.64500 -0.95000 0.08500 0.00000 -1.00000 0.00000 0.12900 0.01700 1 0 1.0
0 0.64500 -0.95000 0.09500 0.00000 -1.00000 0.00000 0.12900 0.01900 1 0 1.0
0 -0.64500 -0.95000 0.09500 0.00000 -1.00000 0.00000 -0.12900 0.01900 1 0 1.0
cl_photo
0 0.64500 -0.95000 0.08500 0.00000 -1.00000 0.00000 0.12900 0.01700 1 0 1.0
0 -0.64500 -0.95000 0.09500 0.00000 -1.00000 0.00000 -0.12900 0.01900 1 0 1.0
0 -0.64500 -0.95000 0.08500 0.00000 -1.00000 0.00000 -0.12900 0.01700 1 0 1.0
cl_photo
0 0.64500 -0.83500 0.10000 0.00000 0.00000 1.00000 0.12900 -0.16700 1 0 1.0
0 -0.64500 -0.83500 0.10000 0.00000 0.00000 1.00000 -0.12900 -0.16700 1 0 1.0
0 -0.64500 -0.94500 0.10000 0.00000 0.00000 1.00000 -0.12900 -0.18900 1 0 1.0
cl_photo
0 0.64500 -0.83500 0.10000 0.00000 0.00000 1.00000 0.12900 -0.16700 1 0 1.0
0 -0.64500 -0.94500 0.10000 0.00000 0.00000 1.00000 -0.12900 -0.18900 1 0 1.0
0 0.64500 -0.94500 0.10000 0.00000 0.00000 1.00000 0.12900 -0.18900 1 0 1.0
cl_photo
0 -0.64500 -0.83000 0.08500 0.00000 1.00000 0.00000 -0.12900 0.01700 1 0 1.0
0 -0.64500 -0.83000 0.09500 0.00000 1.00000 0.00000 -0.12900 0.01900 1 0 1.0
0 0.64500 -0.83000 0.09500 0.00000 1.00000 0.00000 0.12900 0.01900 1 0 1.0
cl_photo
0 -0.64500 -0.83000 0.08500 0.00000 1.00000 0.00000 -0.12900 0.01700 1 0 1.0
0 0.64500 -0.83000 0.09500 0.00000 1.00000 0.00000 0.12900 0.01900 1 0 1.0
0 0.64500 -0.83000 0.08500 0.00000 1.00000 0.00000 0.12900 0.01700 1 0 1.0
cl_photo
0 0.65000 -0.83500 0.08500 1.00000 0.00000 0.00000 -0.16700 0.01700 1 0 1.0
0 0.65000 -0.83500 0.09500 1.00000 0.00000 0.00000 -0.16700 0.01900 1 0 1.0
0 0.65000 -0.94500 0.09500 1.00000 0.00000 0.00000 -0.18900 0.01900 1 0 1.0
cl_photo
0 0.65000 -0.83500 0.08500 1.00000 0.00000 0.00000 -0.16700 0.01700 1 0 1.0
0 0.65000 -0.94500 0.09500 1.00000 0.00000 0.00000 -0.18900 0.01900 1 0 1.0
0 0.65000 -0.94500 0.08500 1.00000 0.00000 0.00000 -0.18900 0.01700 1 0 1.0
cl_photo
0 -2.39500 -1.14500 0.08000 -0.57734 -0.57735 -0.57735 -0.47900 0.01600 1 0 1.0
0 -2.39500 -1.15000 0.08500 -0.57734 -0.57735 -0.57735 -0.47900 0.01700 1 0 1.0
0 -2.40000 -1.14500 0.08500 -0.57734 -0.57735 -0.57735 -0.48000 0.01700 1 0 1.0
cl_photo
0 -2.39500 -1.15000 0.09500 -0.57734 -0.57735 0.57735 -0.47900 0.01900 1 0 1.0
0 -2.39500 -1.14500 0.10000 -0.57734 -0.57735 0.57735 -0.47900 0.02000 1 0 1.0
0 -2.40000 -1.14500 0.09500 -0.57734 -0.57735 0.57735 -0.48000 0.01900 1 0 1.0
cl_photo
0 -2.39500 0.44500 0.08000 -0.57734 0.57735 -0.57735 -0.47900 0.01600 1 0 1.0
0 -2.40000 0.44500 0.08500 -0.57734 0.57735 -0.57735 -0.48000 0.01700 1 0 1.0
0 -2.39500 0.45000 0.08500 -0.57734 0.57735 -0.57735 -0.47900 0.01700 1 0 1.0
cl_photo
0 -2.39500 0.44500 0.10000 -0.57734 0.57735 0.57735 -0.47900 0.02000 1 0 1.0
0 -2.39500 0.45000 0.09500 -0.57734 0.57735 0.57735 -0.47900 0.01900 1 0 1.0
0 -2.40000 0.44500 0.09500 -0.57734 0.57735 0.57735 -0.48000 0.01900 1 0 1.0
cl_photo
0 -1.10500 -1.14500 0.08000 0.57735 -0.57735 -0.57735 -0.22900 0.01600 1 0 1.0
0 -1.10000 -1.14500 0.08500 0.57735 -0.57735 -0.57735 -0.22900 0.01700 1 0 1.0
0 -1.10500 -1.15000 0.08500 0.57735 -0.57735 -0.57735 -0.23000 0.01700 1 0 1.0
cl_photo
0 -1.10500 -1.14500 0.10000 0.57735 -0.57735 0.57735 -0.22900 0.02000 1 0 1.0
0 -1.10500 -1.15000 0.09500 0.57735 -0.57735 0.57735 -0.23000 0.01900 1 0 1.0
0 -1.10000 -1.14500 0.09500 0.57735 -0.57735 0.57735 -0.22900 0.01900 1 0 1.0
cl_photo
0 -1.10500 0.44500 0.08000 0.57735 0.57735 -0.57735 0.08900 0.01600 1 0 1.0
0 -1.10500 0.45000 0.08500 0.57735 0.57735 -0.57735 0.09000 0.01700 1 0 1.0
0 -1.10000 0.44500 0.08500 0.57735 0.57735 -0.57735 0.08900 0.01700 1 0 1.0
cl_photo
0 -1.10500 0.44500 0.10000 0.57735 0.57735 0.57735 0.08900 0.02000 1 0 1.0
0 -1.10000 0.44500 0.09500 0.57735 0.57735 0.57735 0.08900 0.01900 1 0 1.0
0 -1.10500 0.45000 0.09500 0.57735 0.57735 0.57735 0.09000 0.01900 1 0 1.0
cl_photo
0 -2.39500 0.44500 0.08000 -0.70710 0.00000 -0.70712 -0.47900 0.08900 1 0 1.0
0 -2.39500 -1.14500 0.08000 -0.70710 0.00000 -0.70712 -0.47900 -0.22900 1 0 1.0
0 -2.40000 -1.14500 0.08500 -0.70710 0.00000 -0.70712 -0.48000 -0.22900 1 0 1.0
cl_photo
0 -2.39500 0.44500 0.08000 -0.70710 0.00000 -0.70712 -0.47900 0.08900 1 0 1.0
0 -2.40000 -1.14500 0.08500 -0.70710 0.00000 -0.70712 -0.48000 -0.22900 1 0 1.0
0 -2.40000 0.44500 0.08500 -0.70710 0.00000 -0.70712 -0.48000 0.08900 1 0 1.0
cl_photo
0 -2.39500 -1.15000 0.08500 -0.70710 -0.70712 0.00000 -0.47900 0.01700 1 0 1.0
0 -2.39500 -1.15000 0.09500 -0.70710 -0.70712 0.00000 -0.47900 0.01900 1 0 1.0
0 -2.40000 -1.14500 0.09500 -0.70710 -0.70712 0.00000 -0.48000 0.01900 1 0 1.0
cl_photo
0 -2.39500 -1.15000 0.08500 -0.70710 -0.70712 0.00000 -0.47900 0.01700 1 0 1.0
0 -2.40000 -1.14500 0.09500 -0.70710 -0.70712 0.00000 -0.48000 0.01900 1 0 1.0
0 -2.40000 -1.14500 0.08500 -0.70710 -0.70712 0.00000 -0.48000 0.01700 1 0 1.0
cl_photo
0 -2.39500 -1.14500 0.10000 -0.70710 0.00000 0.70712 -0.47900 -0.22900 1 0 1.0
0 -2.39500 0.44500 0.10000 -0.70710 0.00000 0.70712 -0.47900 0.08900 1 0 1.0
0 -2.40000 0.44500 0.09500 -0.70710 0.00000 0.70712 -0.48000 0.08900 1 0 1.0
cl_photo
0 -2.39500 -1.14500 0.10000 -0.70710 0.00000 0.70712 -0.47900 -0.22900 1 0 1.0
0 -2.40000 0.44500 0.09500 -0.70710 0.00000 0.70712 -0.48000 0.08900 1 0 1.0
0 -2.40000 -1.14500 0.09500 -0.70710 0.00000 0.70712 -0.48000 -0.22900 1 0 1.0
cl_photo
0 -2.39500 0.45000 0.09500 -0.70710 0.70712 0.00000 -0.47900 0.01900 1 0 1.0
0 -2.39500 0.45000 0.08500 -0.70710 0.70712 0.00000 -0.47900 0.01700 1 0 1.0
0 -2.40000 0.44500 0.08500 -0.70710 0.70712 0.00000 -0.48000 0.01700 1 0 1.0
cl_photo
0 -2.39500 0.45000 0.09500 -0.70710 0.70712 0.00000 -0.47900 0.01900 1 0 1.0
0 -2.40000 0.44500 0.08500 -0.70710 0.70712 0.00000 -0.48000 0.01700 1 0 1.0
0 -2.40000 0.44500 0.09500 -0.70710 0.70712 0.00000 -0.48000 0.01900 1 0 1.0
cl_photo
0 -1.10500 0.44500 0.08000 0.00000 0.70711 -0.70711 -0.22100 0.01600 1 0 1.0
0 -2.39500 0.44500 0.08000 0.00000 0.70711 -0.70711 -0.47900 0.01600 1 0 1.0
0 -2.39500 0.45000 0.08500 0.00000 0.70711 -0.70711 -0.47900 0.01700 1 0 1.0
cl_photo
0 -1.10500 0.44500 0.08000 0.00000 0.70711 -0.70711 -0.22100 0.01600 1 0 1.0
0 -2.39500 0.45000 0.08500 0.00000 0.70711 -0.70711 -0.47900 0.01700 1 0 1.0
0 -1.10500 0.45000 0.08500 0.00000 0.70711 -0.70711 -0.22100 0.01700 1 0 1.0
cl_photo
0 -2.39500 0.44500 0.10000 0.00000 0.70711 0.70711 -0.47900 0.02000 1 0 1.0
0 -1.10500 0.44500 0.10000 0.00000 0.70711 0.70711 -0.22100 0.02000 1 0 1.0
0 -1.10500 0.45000 0.09500 0.00000 0.70711 0.70711 -0.22100 0.01900 1 0 1.0
cl_photo
0 -2.39500 0.44500 0.10000 0.00000 0.70711 0.70711 -0.47900 0.02000 1 0 1.0
0 -1.10500 0.45000 0.09500 0.00000 0.70711 0.70711 -0.22100 0.01900 1 0 1.0
0 -2.39500 0.45000 0.09500 0.00000 0.70711 0.70711 -0.47900 0.01900 1 0 1.0
cl_photo
0 -1.10000 0.44500 0.09500 0.70711 0.70711 0.00000 0.08900 0.01900 1 0 1.0
0 -1.10000 0.44500 0.08500 0.70711 0.70711 0.00000 0.08900 0.01700 1 0 1.0
0 -1.10500 0.45000 0.08500 0.70711 0.70711 0.00000 0.09000 0.01700 1 0 1.0
cl_photo
0 -1.10000 0.44500 0.09500 0.70711 0.70711 0.00000 0.08900 0.01900 1 0 1.0
0 -1.10500 0.45000 0.08500 0.70711 0.70711 0.00000 0.09000 0.01700 1 0 1.0
0 -1.10500 0.45000 0.09500 0.70711 0.70711 0.00000 0.09000 0.01900 1 0 1.0
cl_photo
0 -1.10500 -1.14500 0.08000 0.70711 0.00000 -0.70711 -0.22900 0.01600 1 0 1.0
0 -1.10500 0.44500 0.08000 0.70711 0.00000 -0.70711 0.08900 0.01600 1 0 1.0
0 -1.10000 0.44500 0.08500 0.70711 0.00000 -0.70711 0.08900 0.01700 1 0 1.0
cl_photo
0 -1.10500 -1.14500 0.08000 0.70711 0.00000 -0.70711 -0.22900 0.01600 1 0 1.0
0 -1.10000 0.44500 0.08500 0.70711 0.00000 -0.70711 0.08900 0.01700 1 0 1.0
0 -1.10000 -1.14500 0.08500 0.70711 0.00000 -0.70711 -0.22900 0.01700 1 0 1.0
cl_photo
0 -1.10500 0.44500 0.10000 0.70711 0.00000 0.70711 0.08900 0.02000 1 0 1.0
0 -1.10500 -1.14500 0.10000 0.70711 0.00000 0.70711 -0.22900 0.02000 1 0 1.0
0 -1.10000 -1.14500 0.09500 0.70711 0.00000 0.70711 -0.22900 0.01900 1 0 1.0
cl_photo
0 -1.10500 0.44500 0.10000 0.70711 0.00000 0.70711 0.08900 0.02000 1 0 1.0
0 -1.10000 -1.14500 0.09500 0.70711 0.00000 0.70711 -0.22900 0.01900 1 0 1.0
0 -1.10000 0.44500 0.09500 0.70711 0.00000 0.70711 0.08900 0.01900 1 0 1.0
cl_photo
0 -1.10500 -1.15000 0.09500 0.70711 -0.70711 0.00000 -0.23000 0.01900 1 0 1.0
0 -1.10500 -1.15000 0.08500 0.70711 -0.70711 0.00000 -0.23000 0.01700 1 0 1.0
0 -1.10000 -1.14500 0.08500 0.70711 -0.70711 0.00000 -0.22900 0.01700 1 0 1.0
cl_photo
0 -1.10500 -1.15000 0.09500 0.70711 -0.70711 0.00000 -0.23000 0.01900 1 0 1.0
0 -1.10000 -1.14500 0.08500 0.70711 -0.70711 0.00000 -0.22900 0.01700 1 0 1.0
0 -1.10000 -1.14500 0.09500 0.70711 -0.70711 0.00000 -0.22900 0.01900 1 0 1.0
cl_photo
0 -2.39500 -1.14500 0.08000 0.00000 -0.70711 -0.70711 -0.47900 0.01600 1 0 1.0
0 -1.10500 -1.14500 0.08000 0.00000 -0.70711 -0.70711 -0.22100 0.01600 1 0 1.0
0 -1.10500 -1.15000 0.08500 0.00000 -0.70711 -0.70711 -0.22100 0.01700 1 0 1.0
cl_photo
0 -2.39500 -1.14500 0.08000 0.00000 -0.70711 -0.70711 -0.47900 0.01600 1 0 1.0
0 -1.10500 -1.15000 0.08500 0.00000 -0.70711 -0.70711 -0.22100 0.01700 1 0 1.0
0 -2.39500 -1.15000 0.08500 0.00000 -0.70711 -0.70711 -0.47900 0.01700 1 0 1.0
cl_photo
0 -1.10500 -1.14500 0.10000 0.00000 -0.70711 0.70711 -0.22100 0.02000 1 0 1.0
0 -2.39500 -1.14500 0.10000 0.00000 -0.70711 0.70711 -0.47900 0.02000 1 0 1.0
0 -2.39500 -1.15000 0.09500 0.00000 -0.70711 0.70711 -0.47900 0.01900 1 0 1.0
cl_photo
0 -1.10500 -1.14500 0.10000 0.00000 -0.70711 0.70711 -0.22100 0.02000 1 0 1.0
0 -2.39500 -1.15000 0.09500 0.00000 -0.70711 0.70711 -0.47900 0.01900 1 0 1.0
0 -1.10500 -1.15000 0.09500 0.00000 -0.70711 0.70711 -0.22100 0.01900 1 0 1.0
cl_photo
0 -2.39500 0.44500 0.08000 0.00000 0.00000 -1.00000 -0.47900 0.08900 1 0 1.0
0 -1.10500 0.44500 0.08000 0.00000 0.00000 -1.00000 -0.22100 0.08900 1 0 1.0
0 -1.10500 -1.14500 0.08000 0.00000 0.00000 -1.00000 -0.22100 -0.22900 1 0 1.0
cl_photo
0 -2.39500 0.44500 0.08000 0.00000 0.00000 -1.00000 -0.47900 0.08900 1 0 1.0
0 -1.10500 -1.14500 0.08000 0.00000 0.00000 -1.00000 -0.22100 -0.22900 1 0 1.0
0 -2.39500 -1.14500 0.08000 0.00000 0.00000 -1.00000 -0.47900 -0.22900 1 0 1.0
cl_photo
0 -2.40000 -1.14500 0.08500 -1.00000 0.00000 0.00000 -0.22900 0.01700 1 0 1.0
0 -2.40000 -1.14500 0.09500 -1.00000 0.00000 0.00000 -0.22900 0.01900 1 0 1.0
0 -2.40000 0.44500 0.09500 -1.00000 0.00000 0.00000 0.08900 0.01900 1 0 1.0
cl_photo
0 -2.40000 -1.14500 0.08500 -1.00000 0.00000 0.00000 -0.22900 0.01700 1 0 1.0
0 -2.40000 0.44500 0.09500 -1.00000 0.00000 0.00000 0.08900 0.01900 1 0 1.0
0 -2.40000 0.44500 0.08500 -1.00000 0.00000 0.00000 0.08900 0.01700 1 0 1.0
cl_photo
0 -1.10500 -1.15000 0.08500 0.00000 -1.00000 0.00000 -0.22100 0.01700 1 0 1.0
0 -1.10500 -1.15000 0.09500 0.00000 -1.00000 0.00000 -0.22100 0.01900 1 0 1.0
0 -2.39500 -1.15000 0.09500 0.00000 -1.00000 0.00000 -0.47900 0.01900 1 0 1.0
cl_photo
0 -1.10500 -1.15000 0.08500 0.00000 -1.00000 0.00000 -0.22100 0.01700 1 0 1.0
0 -2.39500 -1.15000 0.09500 0.00000 -1.00000 0.00000 -0.47900 0.01900 1 0 1.0
0 -2.39500 -1.15000 0.08500 0.00000 -1.00000 0.00000 -0.47900 0.01700 1 0 1.0
cl_photo
0 -1.10500 0.44500 0.10000 0.00000 0.00000 1.00000 -0.22100 0.08900 1 0 1.0
0 -2.39500 0.44500 0.10000 0.00000 0.00000 1.00000 -0.47900 0.08900 1 0 1.0
0 -2.39500 -1.14500 0.10000 0.00000 0.00000 1.00000 -0.47900 -0.22900 1 0 1.0
cl_photo
0 -1.10500 0.44500 0.10000 0.00000 0.00000 1.00000 -0.22100 0.08900 1 0 1.0
0 -2.39500 -1.14500 0.10000 0.00000 0.00000 1.00000 -0.47900 -0.22900 1 0 1.0
0 -1.10500 -1.14500 0.10000 0.00000 0.00000 1.00000 -0.22100 -0.22900 1 0 1.0
cl_photo
0 -2.39500 0.45000 0.08500 0.00000 1.00000 0.00000 -0.47900 0.01700 1 0 1.0
0 -2.39500 0.45000 0.09500 0.00000 1.00000 0.00000 -0.47900 0.01900 1 0 1.0
0 -1.10500 0.45000 0.09500 0.00000 1.00000 0.00000 -0.22100 0.01900 1 0 1.0
cl_photo
0 -2.39500 0.45000 0.08500 0.00000 1.00000 0.00000 -0.47900 0.01700 1 0 1.0
0 -1.10500 0.45000 0.09500 0.00000 1.00000 0.00000 -0.22100 0.01900 1 0 1.0
0 -1.10500 0.45000 0.08500 0.00000 1.00000 0.00000 -0.22100 0.01700 1 0 1.0
cl_photo
0 -1.10000 0.44500 0.08500 1.00000 0.00000 0.00000 0.08900 0.01700 1 0 1.0
0 -1.10000 0.44500 0.09500 1.00000 0.00000 0.00000 0.08900 0.01900 1 0 1.0
0 -1.10000 -1.14500 0.09500 1.00000 0.00000 0.00000 -0.22900 0.01900 1 0 1.0
cl_photo
0 -1.10000 0.44500 0.08500 1.00000 0.00000 0.00000 0.08900 0.01700 1 0 1.0
0 -1.10000 -1.14500 0.09500 1.00000 0.00000 0.00000 -0.22900 0.01900 1 0 1.0
0 -1.10000 -1.14500 0.08500 1.00000 0.00000 0.00000 -0.22900 0.01700 1 0 1.0
cl_accent
0 -2.49500 0.66500 0.08000 -0.57734 -0.57735 -0.57735 -0.49900 0.01600 1 0 1.0
0 -2.49500 0.66000 0.08500 -0.57734 -0.57735 -0.57735 -0.49900 0.01700 1 0 1.0
0 -2.50000 0.66500 0.08500 -0.57734 -0.57735 -0.57735 -0.50000 0.01700 1 0 1.0
cl_accent
0 -2.49500 0.66000 0.09500 -0.57734 -0.57735 0.57735 -0.49900 0.01900 1 0 1.0
0 -2.49500 0.66500 0.10000 -0.57734 -0.57735 0.57735 -0.49900 0.02000 1 0 1.0
0 -2.50000 0.66500 0.09500 -0.57734 -0.57735 0.57735 -0.50000 0.01900 1 0 1.0
cl_accent
0 -2.49500 0.77500 0.08000 -0.57734 0.57735 -0.57735 -0.49900 0.01600 1 0 1.0
0 -2.50000 0.77500 0.08500 -0.57734 0.57735 -0.57735 -0.50000 0.01700 1 0 1.0
0 -2.49500 0.78000 0.08500 -0.57734 0.57735 -0.57735 -0.49900 0.01700 1 0 1.0
cl_accent
0 -2.49500 0.77500 0.10000 -0.57734 0.57735 0.57735 -0.49900 0.02000 1 0 1.0
0 -2.49500 0.78000 0.09500 -0.57734 0.57735 0.57735 -0.49900 0.01900 1 0 1.0
0 -2.50000 0.77500 0.09500 -0.57734 0.57735 0.57735 -0.50000 0.01900 1 0 1.0
cl_accent
0 2.49500 0.66500 0.08000 0.57734 -0.57735 -0.57735 0.49900 0.01600 1 0 1.0
0 2.50000 0.66500 0.08500 0.57734 -0.57735 -0.57735 0.50000 0.01700 1 0 1.0
0 2.49500 0.66000 0.08500 0.57734 -0.57735 -0.57735 0.49900 0.01700 1 0 1.0
cl_accent
0 2.49500 0.66500 0.10000 0.57734 -0.57735 0.57735 0.49900 0.02000 1 0 1.0
0 2.49500 0.66000 0.09500 0.57734 -0.57735 0.57735 0.49900 0.01900 1 0 1.0
0 2.50000 0.66500 0.09500 0.57734 -0.57735 0.57735 0.50000 0.01900 1 0 1.0
cl_accent
0 2.49500 0.77500 0.08000 0.57734 0.57735 -0.57735 0.49900 0.01600 1 0 1.0
0 2.49500 0.78000 0.08500 0.57734 0.57735 -0.57735 0.49900 0.01700 1 0 1.0
0 2.50000 0.77500 0.08500 0.57734 0.57735 -0.57735 0.50000 0.01700 1 0 1.0
cl_accent
0 2.49500 0.77500 0.10000 0.57734 0.57735 0.57735 0.49900 0.02000 1 0 1.0
0 2.50000 0.77500 0.09500 0.57734 0.57735 0.57735 0.50000 0.01900 1 0 1.0
0 2.49500 0.78000 0.09500 0.57734 0.57735 0.57735 0.49900 0.01900 1 0 1.0
cl_accent
0 -2.49500 0.77500 0.08000 -0.70710 0.00000 -0.70712 -0.49900 0.15500 1 0 1.0
0 -2.49500 0.66500 0.08000 -0.70710 0.00000 -0.70712 -0.49900 0.13300 1 0 1.0
0 -2.50000 0.66500 0.08500 -0.70710 0.00000 -0.70712 -0.50000 0.13300 1 0 1.0
cl_accent
0 -2.49500 0.77500 0.08000 -0.70710 0.00000 -0.70712 -0.49900 0.15500 1 0 1.0
0 -2.50000 0.66500 0.08500 -0.70710 0.00000 -0.70712 -0.50000 0.13300 1 0 1.0
0 -2.50000 0.77500 0.08500 -0.70710 0.00000 -0.70712 -0.50000 0.15500 1 0 1.0
cl_accent
0 -2.49500 0.66000 0.08500 -0.70710 -0.70712 0.00000 -0.49900 0.01700 1 0 1.0
0 -2.49500 0.66000 0.09500 -0.70710 -0.70712 0.00000 -0.49900 0.01900 1 0 1.0
0 -2.50000 0.66500 0.09500 -0.70710 -0.70712 0.00000 -0.50000 0.01900 1 0 1.0
cl_accent
0 -2.49500 0.66000 0.08500 -0.70710 -0.70712 0.00000 -0.49900 0.01700 1 0 1.0
0 -2.50000 0.66500 0.09500 -0.70710 -0.70712 0.00000 -0.50000 0.01900 1 0 1.0
0 -2.50000 0.66500 0.08500 -0.70710 -0.70712 0.00000 -0.50000 0.01700 1 0 1.0
cl_accent
0 -2.49500 0.66500 0.10000 -0.70710 0.00000 0.70712 -0.49900 0.13300 1 0 1.0
0 -2.49500 0.77500 0.10000 -0.70710 0.00000 0.70712 -0.49900 0.15500 1 0 1.0
0 -2.50000 0.77500 0.09500 -0.70710 0.00000 0.70712 -0.50000 0.15500 1 0 1.0
cl_accent
0 -2.49500 0.66500 0.10000 -0.70710 0.00000 0.70712 -0.49900 0.13300 1 0 1.0
0 -2.50000 0.77500 0.09500 -0.70710 0.00000 0.70712 -0.50000 0.15500 1 0 1.0
0 -2.50000 0.66500 0.09500 -0.70710 0.00000 0.70712 -0.50000 0.13300 1 0 1.0
cl_accent
0 -2.49500 0.78000 0.09500 -0.70710 0.70712 0.00000 -0.49900 0.01900 1 0 1.0
0 -2.49500 0.78000 0.08500 -0.70710 0.70712 0.00000 -0.49900 0.01700 1 0 1.0
0 -2.50000 0.77500 0.08500 -0.70710 0.70712 0.00000 -0.50000 0.01700 1 0 1.0
cl_accent
0 -2.49500 0.78000 0.09500 -0.70710 0.70712 0.00000 -0.49900 0.01900 1 0 1.0
0 -2.50000 0.77500 0.08500 -0.70710 0.70712 0.00000 -0.50000 0.01700 1 0 1.0
0 -2.50000 0.77500 0.09500 -0.70710 0.70712 0.00000 -0.50000 0.01900 1 0 1.0
cl_accent
0 2.49500 0.77500 0.08000 0.00000 0.70711 -0.70711 0.49900 0.01600 1 0 1.0
0 -2.49500 0.77500 0.08000 0.00000 0.70711 -0.70711 -0.49900 0.01600 1 0 1.0
0 -2.49500 0.78000 0.08500 0.00000 0.70711 -0.70711 -0.49900 0.01700 1 0 1.0
cl_accent
0 2.49500 0.77500 0.08000 0.00000 0.70711 -0.70711 0.49900 0.01600 1 0 1.0
0 -2.49500 0.78000 0.08500 0.00000 0.70711 -0.70711 -0.49900 0.01700 1 0 1.0
0 2.49500 0.78000 0.08500 0.00000 0.70711 -0.70711 0.49900 0.01700 1 0 1.0
cl_accent
0 -2.49500 0.77500 0.10000 0.00000 0.70711 0.70711 -0.49900 0.02000 1 0 1.0
0 2.49500 0.77500 0.10000 0.00000 0.70711 0.70711 0.49900 0.02000 1 0 1.0
0 2.49500 0.78000 0.09500 0.00000 0.70711 0.70711 0.49900 0.01900 1 0 1.0
cl_accent
0 -2.49500 0.77500 0.10000 0.00000 0.70711 0.70711 -0.49900 0.02000 1 0 1.0
0 2.49500 0.78000 0.09500 0.00000 0.70711 0.70711 0.49900 0.01900 1 0 1.0
0 -2.49500 0.78000 0.09500 0.00000 0.70711 0.70711 -0.49900 0.01900 1 0 1.0
cl_accent
0 2.50000 0.77500 0.09500 0.70710 0.70712 0.00000 0.50000 0.01900 1 0 1.0
0 2.50000 0.77500 0.08500 0.70710 0.70712 0.00000 0.50000 0.01700 1 0 1.0
0 2.49500 0.78000 0.08500 0.70710 0.70712 0.00000 0.49900 0.01700 1 0 1.0
cl_accent
0 2.50000 0.77500 0.09500 0.70710 0.70712 0.00000 0.50000 0.01900 1 0 1.0
0 2.49500 0.78000 0.08500 0.70710 0.70712 0.00000 0.49900 0.01700 1 0 1.0
0 2.49500 0.78000 0.09500 0.70710 0.70712 0.00000 0.49900 0.01900 1 0 1.0
cl_accent
0 2.49500 0.66500 0.08000 0.70710 0.00000 -0.70712 0.49900 0.13300 1 0 1.0
0 2.49500 0.77500 0.08000 0.70710 0.00000 -0.70712 0.49900 0.15500 1 0 1.0
0 2.50000 0.77500 0.08500 0.70710 0.00000 -0.70712 0.50000 0.15500 1 0 1.0
cl_accent
0 2.49500 0.66500 0.08000 0.70710 0.00000 -0.70712 0.49900 0.13300 1 0 1.0
0 2.50000 0.77500 0.08500 0.70710 0.00000 -0.70712 0.50000 0.15500 1 0 1.0
0 2.50000 0.66500 0.08500 0.70710 0.00000 -0.70712 0.50000 0.13300 1 0 1.0
cl_accent
0 2.49500 0.77500 0.10000 0.70710 0.00000 0.70712 0.49900 0.15500 1 0 1.0
0 2.49500 0.66500 0.10000 0.70710 0.00000 0.70712 0.49900 0.13300 1 0 1.0
0 2.50000 0.66500 0.09500 0.70710 0.00000 0.70712 0.50000 0.13300 1 0 1.0
cl_accent
0 2.49500 0.77500 0.10000 0.70710 0.00000 0.70712 0.49900 0.15500 1 0 1.0
0 2.50000 0.66500 0.09500 0.70710 0.00000 0.70712 0.50000 0.13300 1 0 1.0
0 2.50000 0.77500 0.09500 0.70710 0.00000 0.70712 0.50000 0.15500 1 0 1.0
cl_accent
0 2.49500 0.66000 0.09500 0.70710 -0.70712 0.00000 0.49900 0.01900 1 0 1.0
0 2.49500 0.66000 0.08500 0.70710 -0.70712 0.00000 0.49900 0.01700 1 0 1.0
0 2.50000 0.66500 0.08500 0.70710 -0.70712 0.00000 0.50000 0.01700 1 0 1.0
cl_accent
0 2.49500 0.66000 0.09500 0.70710 -0.70712 0.00000 0.49900 0.01900 1 0 1.0
0 2.50000 0.66500 0.08500 0.70710 -0.70712 0.00000 0.50000 0.01700 1 0 1.0
0 2.50000 0.66500 0.09500 0.70710 -0.70712 0.00000 0.50000 0.01900 1 0 1.0
cl_accent
0 -2.49500 0.66500 0.08000 0.00000 -0.70711 -0.70711 -0.49900 0.01600 1 0 1.0
0 2.49500 0.66500 0.08000 0.00000 -0.70711 -0.70711 0.49900 0.01600 1 0 1.0
0 2.49500 0.66000 0.08500 0.00000 -0.70711 -0.70711 0.49900 0.01700 1 0 1.0
cl_accent
0 -2.49500 0.66500 0.08000 0.00000 -0.70711 -0.70711 -0.49900 0.01600 1 0 1.0
0 2.49500 0.66000 0.08500 0.00000 -0.70711 -0.70711 0.49900 0.01700 1 0 1.0
0 -2.49500 0.66000 0.08500 0.00000 -0.70711 -0.70711 -0.49900 0.01700 1 0 1.0
cl_accent
0 2.49500 0.66500 0.10000 0.00000 -0.70711 0.70711 0.49900 0.02000 1 0 1.0
0 -2.49500 0.66500 0.10000 0.00000 -0.70711 0.70711 -0.49900 0.02000 1 0 1.0
0 -2.49500 0.66000 0.09500 0.00000 -0.70711 0.70711 -0.49900 0.01900 1 0 1.0
cl_accent
0 2.49500 0.66500 0.10000 0.00000 -0.70711 0.70711 0.49900 0.02000 1 0 1.0
0 -2.49500 0.66000 0.09500 0.00000 -0.70711 0.70711 -0.49900 0.01900 1 0 1.0
0 2.49500 0.66000 0.09500 0.00000 -0.70711 0.70711 0.49900 0.01900 1 0 1.0
cl_accent
0 -2.49500 0.77500 0.08000 0.00000 0.00000 -1.00000 -0.49900 0.15500 1 0 1.0
0 2.49500 0.77500 0.08000 0.00000 0.00000 -1.00000 0.49900 0.15500 1 0 1.0
0 2.49500 0.66500 0.08000 0.00000 0.00000 -1.00000 0.49900 0.13300 1 0 1.0
cl_accent
0 -2.49500 0.77500 0.08000 0.00000 0.00000 -1.00000 -0.49900 0.15500 1 0 1.0
0 2.49500 0.66500 0.08000 0.00000 0.00000 -1.00000 0.49900 0.13300 1 0 1.0
0 -2.49500 0.66500 0.08000 0.00000 0.00000 -1.00000 -0.49900 0.13300 1 0 1.0
cl_accent
0 -2.50000 0.66500 0.08500 -1.00000 0.00000 0.00000 0.13300 0.01700 1 0 1.0
0 -2.50000 0.66500 0.09500 -1.00000 0.00000 0.00000 0.13300 0.01900 1 0 1.0
0 -2.50000 0.77500 0.09500 -1.00000 0.00000 0.00000 0.15500 0.01900 1 0 1.0
cl_accent
0 -2.50000 0.66500 0.08500 -1.00000 0.00000 0.00000 0.13300 0.01700 1 0 1.0
0 -2.50000 0.77500 0.09500 -1.00000 0.00000 0.00000 0.15500 0.01900 1 0 1.0
0 -2.50000 0.77500 0.08500 -1.00000 0.00000 0.00000 0.15500 0.01700 1 0 1.0
cl_accent
0 2.49500 0.66000 0.08500 0.00000 -1.00000 0.00000 0.49900 0.01700 1 0 1.0
0 2.49500 0.66000 0.09500 0.00000 -1.00000 0.00000 0.49900 0.01900 1 0 1.0
0 -2.49500 0.66000 0.09500 0.00000 -1.00000 0.00000 -0.49900 0.01900 1 0 1.0
cl_accent
0 2.49500 0.66000 0.08500 0.00000 -1.00000 0.00000 0.49900 0.01700 1 0 1.0
0 -2.49500 0.66000 0.09500 0.00000 -1.00000 0.00000 -0.49900 0.01900 1 0 1.0
0 -2.49500 0.66000 0.08500 0.00000 -1.00000 0.00000 -0.49900 0.01700 1 0 1.0
cl_accent
0 2.49500 0.77500 0.10000 0.00000 0.00000 1.00000 0.49900 0.15500 1 0 1.0
0 -2.49500 0.77500 0.10000 0.00000 0.00000 1.00000 -0.49900 0.15500 1 0 1.0
0 -2.49500 0.66500 0.10000 0.00000 0.00000 1.00000 -0.49900 0.13300 1 0 1.0
cl_accent
0 2.49500 0.77500 0.10000 0.00000 0.00000 1.00000 0.49900 0.15500 1 0 1.0
0 -2.49500 0.66500 0.10000 0.00000 0.00000 1.00000 -0.49900 0.13300 1 0 1.0
0 2.49500 0.66500 0.10000 0.00000 0.00000 1.00000 0.49900 0.13300 1 0 1.0
cl_accent
0 -2.49500 0.78000 0.08500 0.00000 1.00000 0.00000 -0.49900 0.01700 1 0 1.0
0 -2.49500 0.78000 0.09500 0.00000 1.00000 0.00000 -0.49900 0.01900 1 0 1.0
0 2.49500 0.78000 0.09500 0.00000 1.00000 0.00000 0.49900 0.01900 1 0 1.0
cl_accent
0 -2.49500 0.78000 0.08500 0.00000 1.00000 0.00000 -0.49900 0.01700 1 0 1.0
0 2.49500 0.78000 0.09500 0.00000 1.00000 0.00000 0.49900 0.01900 1 0 1.0
0 2.49500 0.78000 0.08500 0.00000 1.00000 0.00000 0.49900 0.01700 1 0 1.0
cl_accent
0 2.50000 0.77500 0.08500 1.00000 0.00000 0.00000 0.15500 0.01700 1 0 1.0
0 2.50000 0.77500 0.09500 1.00000 0.00000 0.00000 0.15500 0.01900 1 0 1.0
0 2.50000 0.66500 0.09500 1.00000 0.00000 0.00000 0.13300 0.01900 1 0 1.0
cl_accent
0 2.50000 0.77500 0.08500 1.00000 0.00000 0.00000 0.15500 0.01700 1 0 1.0
0 2.50000 0.66500 0.09500 1.00000 0.00000 0.00000 0.13300 0.01900 1 0 1.0
0 2.50000 0.66500 0.08500 1.00000 0.00000 0.00000 0.13300 0.01700 1 0 1.0
end
