version 1
nodes
0 "root" -1
end
skeleton
time 0
0 0 0 0 0 0 0
end
triangles
cl_denim
0 -3.00000 -4.00000 0.00000 -0.26387 -0.24929 -0.93179 -0.60000 -0.80000 1 0 1.0
0 -3.00000 -4.24967 0.06680 -0.26387 -0.24929 -0.93179 -0.60000 -0.84993 1 0 1.0
0 -3.23911 -4.23911 0.13168 -0.26387 -0.24929 -0.93179 -0.64782 -0.84782 1 0 1.0
cl_denim
0 -3.00000 -4.00000 0.00000 -0.24929 -0.26387 -0.93179 -0.60000 -0.80000 1 0 1.0
0 -3.23911 -4.23911 0.13168 -0.24929 -0.26387 -0.93179 -0.64782 -0.84782 1 0 1.0
0 -3.24967 -4.00000 0.06680 -0.24929 -0.26387 -0.93179 -0.64993 -0.80000 1 0 1.0
cl_denim
0 -3.00000 -4.24967 0.06680 -0.21778 -0.69014 -0.69013 -0.60000 0.01336 1 0 1.0
0 -3.00000 -4.43320 0.25033 -0.21778 -0.69014 -0.69013 -0.60000 0.05007 1 0 1.0
0 -3.23911 -4.36832 0.26089 -0.21778 -0.69014 -0.69013 -0.64782 0.05218 1 0 1.0
cl_denim
0 -3.00000 -4.24967 0.06680 -0.21778 -0.69013 -0.69014 -0.60000 0.01336 1 0 1.0
0 -3.23911 -4.36832 0.26089 -0.21778 -0.69013 -0.69014 -0.64782 0.05218 1 0 1.0
0 -3.23911 -4.23911 0.13168 -0.21778 -0.69013 -0.69014 -0.64782 0.02634 1 0 1.0
cl_denim
0 -3.00000 -4.50000 0.50000 -0.24929 -0.93179 -0.26387 -0.60000 0.10000 1 0 1.0
0 -3.24967 -4.43320 0.50000 -0.24929 -0.93179 -0.26387 -0.64993 0.10000 1 0 1.0
0 -3.23911 -4.36832 0.26089 -0.24929 -0.93179 -0.26387 -0.64782 0.05218 1 0 1.0
cl_denim
0 -3.00000 -4.50000 0.50000 -0.26387 -0.93179 -0.24929 -0.60000 0.10000 1 0 1.0
0 -3.23911 -4.36832 0.26089 -0.26387 -0.93179 -0.24929 -0.64782 0.05218 1 0 1.0
0 -3.00000 -4.43320 0.25033 -0.26387 -0.93179 -0.24929 -0.60000 0.05007 1 0 1.0
cl_denim
0 -3.24967 -4.43320 0.50000 -0.69014 -0.69014 -0.21778 -0.88664 0.10000 1 0 1.0
0 -3.43320 -4.24967 0.50000 -0.69014 -0.69014 -0.21778 -0.84993 0.10000 1 0 1.0
0 -3.36832 -4.23911 0.26089 -0.69014 -0.69014 -0.21778 -0.84782 0.05218 1 0 1.0
cl_denim
0 -3.24967 -4.43320 0.50000 -0.69014 -0.69014 -0.21778 -0.88664 0.10000 1 0 1.0
0 -3.36832 -4.23911 0.26089 -0.69014 -0.69014 -0.21778 -0.84782 0.05218 1 0 1.0
0 -3.23911 -4.36832 0.26089 -0.69014 -0.69014 -0.21778 -0.87366 0.05218 1 0 1.0
cl_denim
0 -3.50000 -4.00000 0.50000 -0.93179 -0.26387 -0.24929 -0.80000 0.10000 1 0 1.0
0 -3.43320 -4.00000 0.25033 -0.93179 -0.26387 -0.24929 -0.80000 0.05007 1 0 1.0
0 -3.36832 -4.23911 0.26089 -0.93179 -0.26387 -0.24929 -0.84782 0.05218 1 0 1.0
cl_denim
0 -3.50000 -4.00000 0.50000 -0.93179 -0.24929 -0.26387 -0.80000 0.10000 1 0 1.0
0 -3.36832 -4.23911 0.26089 -0.93179 -0.24929 -0.26387 -0.84782 0.05218 1 0 1.0
0 -3.43320 -4.24967 0.50000 -0.93179 -0.24929 -0.26387 -0.84993 0.10000 1 0 1.0
cl_denim
0 -3.43320 -4.00000 0.25033 -0.69014 -0.21778 -0.69014 -0.68664 -0.80000 1 0 1.0
0 -3.24967 -4.00000 0.06680 -0.69014 -0.21778 -0.69014 -0.64993 -0.80000 1 0 1.0
0 -3.23911 -4.23911 0.13168 -0.69014 -0.21778 -0.69014 -0.64782 -0.84782 1 0 1.0
cl_denim
0 -3.43320 -4.00000 0.25033 -0.69013 -0.21778 -0.69014 -0.68664 -0.80000 1 0 1.0
0 -3.23911 -4.23911 0.13168 -0.69013 -0.21778 -0.69014 -0.64782 -0.84782 1 0 1.0
0 -3.36832 -4.23911 0.26089 -0.69013 -0.21778 -0.69014 -0.67366 -0.84782 1 0 1.0
cl_denim
0 -3.23911 -4.23911 0.13168 -0.57735 -0.57735 -0.57735 -0.64782 -0.84782 1 0 1.0
0 -3.23911 -4.36832 0.26089 -0.57735 -0.57735 -0.57735 -0.64782 -0.87366 1 0 1.0
0 -3.36832 -4.23911 0.26089 -0.57735 -0.57735 -0.57735 -0.67366 -0.84782 1 0 1.0
cl_denim
0 -3.00000 -4.50000 1.10000 -0.26387 -0.93179 0.24929 -0.60000 0.22000 1 0 1.0
0 -3.00000 -4.43320 1.34967 -0.26387 -0.93179 0.24929 -0.60000 0.26993 1 0 1.0
0 -3.23911 -4.36832 1.33911 -0.26387 -0.93179 0.24929 -0.64782 0.26782 1 0 1.0
cl_denim
0 -3.00000 -4.50000 1.10000 -0.24929 -0.93179 0.26387 -0.60000 0.22000 1 0 1.0
0 -3.23911 -4.36832 1.33911 -0.24929 -0.93179 0.26387 -0.64782 0.26782 1 0 1.0
0 -3.24967 -4.43320 1.10000 -0.24929 -0.93179 0.26387 -0.64993 0.22000 1 0 1.0
cl_denim
0 -3.00000 -4.43320 1.34967 -0.21778 -0.69014 0.69013 -0.60000 0.26993 1 0 1.0
0 -3.00000 -4.24967 1.53320 -0.21778 -0.69014 0.69013 -0.60000 0.30664 1 0 1.0
0 -3.23911 -4.23911 1.46832 -0.21778 -0.69014 0.69013 -0.64782 0.29366 1 0 1.0
cl_denim
0 -3.00000 -4.43320 1.34967 -0.21778 -0.69014 0.69014 -0.60000 0.26993 1 0 1.0
0 -3.23911 -4.23911 1.46832 -0.21778 -0.69014 0.69014 -0.64782 0.29366 1 0 1.0
0 -3.23911 -4.36832 1.33911 -0.21778 -0.69014 0.69014 -0.64782 0.26782 1 0 1.0
cl_denim
0 -3.00000 -4.00000 1.60000 -0.24929 -0.26387 0.93179 -0.60000 -0.80000 1 0 1.0
0 -3.24967 -4.00000 1.53320 -0.24929 -0.26387 0.93179 -0.64993 -0.80000 1 0 1.0
0 -3.23911 -4.23911 1.46832 -0.24929 -0.26387 0.93179 -0.64782 -0.84782 1 0 1.0
cl_denim
0 -3.00000 -4.00000 1.60000 -0.26387 -0.24929 0.93179 -0.60000 -0.80000 1 0 1.0
0 -3.23911 -4.23911 1.46832 -0.26387 -0.24929 0.93179 -0.64782 -0.84782 1 0 1.0
0 -3.00000 -4.24967 1.53320 -0.26387 -0.24929 0.93179 -0.60000 -0.84993 1 0 1.0
cl_denim
0 -3.24967 -4.00000 1.53320 -0.69014 -0.21778 0.69013 -0.80000 0.30664 1 0 1.0
0 -3.43320 -4.00000 1.34967 -0.69014 -0.21778 0.69013 -0.80000 0.26993 1 0 1.0
0 -3.36832 -4.23911 1.33911 -0.69014 -0.21778 0.69013 -0.84782 0.26782 1 0 1.0
cl_denim
0 -3.24967 -4.00000 1.53320 -0.69014 -0.21778 0.69014 -0.80000 0.30664 1 0 1.0
0 -3.36832 -4.23911 1.33911 -0.69014 -0.21778 0.69014 -0.84782 0.26782 1 0 1.0
0 -3.23911 -4.23911 1.46832 -0.69014 -0.21778 0.69014 -0.84782 0.29366 1 0 1.0
cl_denim
0 -3.50000 -4.00000 1.10000 -0.93179 -0.24929 0.26387 -0.80000 0.22000 1 0 1.0
0 -3.43320 -4.24967 1.10000 -0.93179 -0.24929 0.26387 -0.84993 0.22000 1 0 1.0
0 -3.36832 -4.23911 1.33911 -0.93179 -0.24929 0.26387 -0.84782 0.26782 1 0 1.0
cl_denim
0 -3.50000 -4.00000 1.10000 -0.93179 -0.26387 0.24929 -0.80000 0.22000 1 0 1.0
0 -3.36832 -4.23911 1.33911 -0.93179 -0.26387 0.24929 -0.84782 0.26782 1 0 1.0
0 -3.43320 -4.00000 1.34967 -0.93179 -0.26387 0.24929 -0.80000 0.26993 1 0 1.0
cl_denim
0 -3.43320 -4.24967 1.10000 -0.69014 -0.69014 0.21778 -0.84993 0.22000 1 0 1.0
0 -3.24967 -4.43320 1.10000 -0.69014 -0.69014 0.21778 -0.88664 0.22000 1 0 1.0
0 -3.23911 -4.36832 1.33911 -0.69014 -0.69014 0.21778 -0.87366 0.26782 1 0 1.0
cl_denim
0 -3.43320 -4.24967 1.10000 -0.69014 -0.69014 0.21778 -0.84993 0.22000 1 0 1.0
0 -3.23911 -4.36832 1.33911 -0.69014 -0.69014 0.21778 -0.87366 0.26782 1 0 1.0
0 -3.36832 -4.23911 1.33911 -0.69014 -0.69014 0.21778 -0.84782 0.26782 1 0 1.0
cl_denim
0 -3.23911 -4.36832 1.33911 -0.57735 -0.57735 0.57735 -0.87366 0.26782 1 0 1.0
0 -3.23911 -4.23911 1.46832 -0.57735 -0.57735 0.57735 -0.84782 0.29366 1 0 1.0
0 -3.36832 -4.23911 1.33911 -0.57735 -0.57735 0.57735 -0.84782 0.26782 1 0 1.0
cl_denim
0 -3.00000 4.00000 0.00000 -0.24929 0.26387 -0.93179 -0.60000 0.80000 1 0 1.0
0 -3.24967 4.00000 0.06680 -0.24929 0.26387 -0.93179 -0.64993 0.80000 1 0 1.0
0 -3.23911 4.23911 0.13168 -0.24929 0.26387 -0.93179 -0.64782 0.84782 1 0 1.0
cl_denim
0 -3.00000 4.00000 0.00000 -0.26387 0.24929 -0.93179 -0.60000 0.80000 1 0 1.0
0 -3.23911 4.23911 0.13168 -0.26387 0.24929 -0.93179 -0.64782 0.84782 1 0 1.0
0 -3.00000 4.24967 0.06680 -0.26387 0.24929 -0.93179 -0.60000 0.84993 1 0 1.0
cl_denim
0 -3.24967 4.00000 0.06680 -0.69014 0.21778 -0.69014 0.80000 0.01336 1 0 1.0
0 -3.43320 4.00000 0.25033 -0.69014 0.21778 -0.69014 0.80000 0.05007 1 0 1.0
0 -3.36832 4.23911 0.26089 -0.69014 0.21778 -0.69014 0.84782 0.05218 1 0 1.0
cl_denim
0 -3.24967 4.00000 0.06680 -0.69014 0.21778 -0.69014 0.80000 0.01336 1 0 1.0
0 -3.36832 4.23911 0.26089 -0.69014 0.21778 -0.69014 0.84782 0.05218 1 0 1.0
0 -3.23911 4.23911 0.13168 -0.69014 0.21778 -0.69014 0.84782 0.02634 1 0 1.0
cl_denim
0 -3.50000 4.00000 0.50000 -0.93179 0.24929 -0.26387 0.80000 0.10000 1 0 1.0
0 -3.43320 4.24967 0.50000 -0.93179 0.24929 -0.26387 0.84993 0.10000 1 0 1.0
0 -3.36832 4.23911 0.26089 -0.93179 0.24929 -0.26387 0.84782 0.05218 1 0 1.0
cl_denim
0 -3.50000 4.00000 0.50000 -0.93179 0.26387 -0.24929 0.80000 0.10000 1 0 1.0
0 -3.36832 4.23911 0.26089 -0.93179 0.26387 -0.24929 0.84782 0.05218 1 0 1.0
0 -3.43320 4.00000 0.25033 -0.93179 0.26387 -0.24929 0.80000 0.05007 1 0 1.0
cl_denim
0 -3.43320 4.24967 0.50000 -0.69014 0.69014 -0.21778 0.84993 0.10000 1 0 1.0
0 -3.24967 4.43320 0.50000 -0.69014 0.69014 -0.21778 0.88664 0.10000 1 0 1.0
0 -3.23911 4.36832 0.26089 -0.69014 0.69014 -0.21778 0.87366 0.05218 1 0 1.0
cl_denim
0 -3.43320 4.24967 0.50000 -0.69014 0.69014 -0.21778 0.84993 0.10000 1 0 1.0
0 -3.23911 4.36832 0.26089 -0.69014 0.69014 -0.21778 0.87366 0.05218 1 0 1.0
0 -3.36832 4.23911 0.26089 -0.69014 0.69014 -0.21778 0.84782 0.05218 1 0 1.0
cl_denim
0 -3.00000 4.50000 0.50000 -0.26387 0.93179 -0.24929 -0.60000 0.10000 1 0 1.0
0 -3.00000 4.43320 0.25033 -0.26387 0.93179 -0.24929 -0.60000 0.05007 1 0 1.0
0 -3.23911 4.36832 0.26089 -0.26387 0.93179 -0.24929 -0.64782 0.05218 1 0 1.0
cl_denim
0 -3.00000 4.50000 0.50000 -0.24929 0.93179 -0.26387 -0.60000 0.10000 1 0 1.0
0 -3.23911 4.36832 0.26089 -0.24929 0.93179 -0.26387 -0.64782 0.05218 1 0 1.0
0 -3.24967 4.43320 0.50000 -0.24929 0.93179 -0.26387 -0.64993 0.10000 1 0 1.0
cl_denim
0 -3.00000 4.43320 0.25033 -0.21778 0.69014 -0.69013 -0.60000 0.05007 1 0 1.0
0 -3.00000 4.24967 0.06680 -0.21778 0.69014 -0.69013 -0.60000 0.01336 1 0 1.0
0 -3.23911 4.23911 0.13168 -0.21778 0.69014 -0.69013 -0.64782 0.02634 1 0 1.0
cl_denim
0 -3.00000 4.43320 0.25033 -0.21778 0.69014 -0.69014 -0.60000 0.05007 1 0 1.0
0 -3.23911 4.23911 0.13168 -0.21778 0.69014 -0.69014 -0.64782 0.02634 1 0 1.0
0 -3.23911 4.36832 0.26089 -0.21778 0.69014 -0.69014 -0.64782 0.05218 1 0 1.0
cl_denim
0 -3.23911 4.23911 0.13168 -0.57735 0.57735 -0.57735 0.84782 0.02634 1 0 1.0
0 -3.36832 4.23911 0.26089 -0.57735 0.57735 -0.57735 0.84782 0.05218 1 0 1.0
0 -3.23911 4.36832 0.26089 -0.57735 0.57735 -0.57735 0.87366 0.05218 1 0 1.0
cl_denim
0 -3.00000 4.00000 1.60000 -0.26387 0.24929 0.93179 -0.60000 0.80000 1 0 1.0
0 -3.00000 4.24967 1.53320 -0.26387 0.24929 0.93179 -0.60000 0.84993 1 0 1.0
0 -3.23911 4.23911 1.46832 -0.26387 0.24929 0.93179 -0.64782 0.84782 1 0 1.0
cl_denim
0 -3.00000 4.00000 1.60000 -0.24929 0.26387 0.93179 -0.60000 0.80000 1 0 1.0
0 -3.23911 4.23911 1.46832 -0.24929 0.26387 0.93179 -0.64782 0.84782 1 0 1.0
0 -3.24967 4.00000 1.53320 -0.24929 0.26387 0.93179 -0.64993 0.80000 1 0 1.0
cl_denim
0 -3.00000 4.24967 1.53320 -0.21778 0.69014 0.69014 -0.60000 0.30664 1 0 1.0
0 -3.00000 4.43320 1.34967 -0.21778 0.69014 0.69014 -0.60000 0.26993 1 0 1.0
0 -3.23911 4.36832 1.33911 -0.21778 0.69014 0.69014 -0.64782 0.26782 1 0 1.0
cl_denim
0 -3.00000 4.24967 1.53320 -0.21778 0.69014 0.69014 -0.60000 0.30664 1 0 1.0
0 -3.23911 4.36832 1.33911 -0.21778 0.69014 0.69014 -0.64782 0.26782 1 0 1.0
0 -3.23911 4.23911 1.46832 -0.21778 0.69014 0.69014 -0.64782 0.29366 1 0 1.0
cl_denim
0 -3.00000 4.50000 1.10000 -0.24929 0.93179 0.26387 -0.60000 0.22000 1 0 1.0
0 -3.24967 4.43320 1.10000 -0.24929 0.93179 0.26387 -0.64993 0.22000 1 0 1.0
0 -3.23911 4.36832 1.33911 -0.24929 0.93179 0.26387 -0.64782 0.26782 1 0 1.0
cl_denim
0 -3.00000 4.50000 1.10000 -0.26387 0.93179 0.24929 -0.60000 0.22000 1 0 1.0
0 -3.23911 4.36832 1.33911 -0.26387 0.93179 0.24929 -0.64782 0.26782 1 0 1.0
0 -3.00000 4.43320 1.34967 -0.26387 0.93179 0.24929 -0.60000 0.26993 1 0 1.0
cl_denim
0 -3.24967 4.43320 1.10000 -0.69014 0.69014 0.21778 0.88664 0.22000 1 0 1.0
0 -3.43320 4.24967 1.10000 -0.69014 0.69014 0.21778 0.84993 0.22000 1 0 1.0
0 -3.36832 4.23911 1.33911 -0.69014 0.69014 0.21778 0.84782 0.26782 1 0 1.0
cl_denim
0 -3.24967 4.43320 1.10000 -0.69014 0.69014 0.21778 0.88664 0.22000 1 0 1.0
0 -3.36832 4.23911 1.33911 -0.69014 0.69014 0.21778 0.84782 0.26782 1 0 1.0
0 -3.23911 4.36832 1.33911 -0.69014 0.69014 0.21778 0.87366 0.26782 1 0 1.0
cl_denim
0 -3.50000 4.00000 1.10000 -0.93179 0.26387 0.24929 0.80000 0.22000 1 0 1.0
0 -3.43320 4.00000 1.34967 -0.93179 0.26387 0.24929 0.80000 0.26993 1 0 1.0
0 -3.36832 4.23911 1.33911 -0.93179 0.26387 0.24929 0.84782 0.26782 1 0 1.0
cl_denim
0 -3.50000 4.00000 1.10000 -0.93179 0.24929 0.26387 0.80000 0.22000 1 0 1.0
0 -3.36832 4.23911 1.33911 -0.93179 0.24929 0.26387 0.84782 0.26782 1 0 1.0
0 -3.43320 4.24967 1.10000 -0.93179 0.24929 0.26387 0.84993 0.22000 1 0 1.0
cl_denim
0 -3.43320 4.00000 1.34967 -0.69014 0.21778 0.69014 0.80000 0.26993 1 0 1.0
0 -3.24967 4.00000 1.53320 -0.69014 0.21778 0.69014 0.80000 0.30664 1 0 1.0
0 -3.23911 4.23911 1.46832 -0.69014 0.21778 0.69014 0.84782 0.29366 1 0 1.0
cl_denim
0 -3.43320 4.00000 1.34967 -0.69014 0.21778 0.69014 0.80000 0.26993 1 0 1.0
0 -3.23911 4.23911 1.46832 -0.69014 0.21778 0.69014 0.84782 0.29366 1 0 1.0
0 -3.36832 4.23911 1.33911 -0.69014 0.21778 0.69014 0.84782 0.26782 1 0 1.0
cl_denim
0 -3.23911 4.23911 1.46832 -0.57735 0.57735 0.57735 0.84782 0.29366 1 0 1.0
0 -3.23911 4.36832 1.33911 -0.57735 0.57735 0.57735 0.87366 0.26782 1 0 1.0
0 -3.36832 4.23911 1.33911 -0.57735 0.57735 0.57735 0.84782 0.26782 1 0 1.0
cl_denim
0 3.00000 -4.00000 0.00000 0.24929 -0.26387 -0.93179 0.60000 -0.80000 1 0 1.0
0 3.24967 -4.00000 0.06680 0.24929 -0.26387 -0.93179 0.64993 -0.80000 1 0 1.0
0 3.23911 -4.23911 0.13168 0.24929 -0.26387 -0.93179 0.64782 -0.84782 1 0 1.0
cl_denim
0 3.00000 -4.00000 0.00000 0.26387 -0.24929 -0.93179 0.60000 -0.80000 1 0 1.0
0 3.23911 -4.23911 0.13168 0.26387 -0.24929 -0.93179 0.64782 -0.84782 1 0 1.0
0 3.00000 -4.24967 0.06680 0.26387 -0.24929 -0.93179 0.60000 -0.84993 1 0 1.0
cl_denim
0 3.24967 -4.00000 0.06680 0.69014 -0.21778 -0.69014 -0.80000 0.01336 1 0 1.0
0 3.43320 -4.00000 0.25033 0.69014 -0.21778 -0.69014 -0.80000 0.05007 1 0 1.0
0 3.36832 -4.23911 0.26089 0.69014 -0.21778 -0.69014 -0.84782 0.05218 1 0 1.0
cl_denim
0 3.24967 -4.00000 0.06680 0.69014 -0.21778 -0.69014 -0.80000 0.01336 1 0 1.0
0 3.36832 -4.23911 0.26089 0.69014 -0.21778 -0.69014 -0.84782 0.05218 1 0 1.0
0 3.23911 -4.23911 0.13168 0.69014 -0.21778 -0.69014 -0.84782 0.02634 1 0 1.0
cl_denim
0 3.50000 -4.00000 0.50000 0.93179 -0.24929 -0.26387 -0.80000 0.10000 1 0 1.0
0 3.43320 -4.24967 0.50000 0.93179 -0.24929 -0.26387 -0.84993 0.10000 1 0 1.0
0 3.36832 -4.23911 0.26089 0.93179 -0.24929 -0.26387 -0.84782 0.05218 1 0 1.0
cl_denim
0 3.50000 -4.00000 0.50000 0.93179 -0.26387 -0.24929 -0.80000 0.10000 1 0 1.0
0 3.36832 -4.23911 0.26089 0.93179 -0.26387 -0.24929 -0.84782 0.05218 1 0 1.0
0 3.43320 -4.00000 0.25033 0.93179 -0.26387 -0.24929 -0.80000 0.05007 1 0 1.0
cl_denim
0 3.43320 -4.24967 0.50000 0.69014 -0.69014 -0.21778 -0.84993 0.10000 1 0 1.0
0 3.24967 -4.43320 0.50000 0.69014 -0.69014 -0.21778 -0.88664 0.10000 1 0 1.0
0 3.23911 -4.36832 0.26089 0.69014 -0.69014 -0.21778 -0.87366 0.05218 1 0 1.0
cl_denim
0 3.43320 -4.24967 0.50000 0.69014 -0.69014 -0.21778 -0.84993 0.10000 1 0 1.0
0 3.23911 -4.36832 0.26089 0.69014 -0.69014 -0.21778 -0.87366 0.05218 1 0 1.0
0 3.36832 -4.23911 0.26089 0.69014 -0.69014 -0.21778 -0.84782 0.05218 1 0 1.0
cl_denim
0 3.00000 -4.50000 0.50000 0.26387 -0.93179 -0.24929 0.60000 0.10000 1 0 1.0
0 3.00000 -4.43320 0.25033 0.26387 -0.93179 -0.24929 0.60000 0.05007 1 0 1.0
0 3.23911 -4.36832 0.26089 0.26387 -0.93179 -0.24929 0.64782 0.05218 1 0 1.0
cl_denim
0 3.00000 -4.50000 0.50000 0.24929 -0.93179 -0.26387 0.60000 0.10000 1 0 1.0
0 3.23911 -4.36832 0.26089 0.24929 -0.93179 -0.26387 0.64782 0.05218 1 0 1.0
0 3.24967 -4.43320 0.50000 0.24929 -0.93179 -0.26387 0.64993 0.10000 1 0 1.0
cl_denim
0 3.00000 -4.43320 0.25033 0.21778 -0.69014 -0.69013 0.60000 0.05007 1 0 1.0
0 3.00000 -4.24967 0.06680 0.21778 -0.69014 -0.69013 0.60000 0.01336 1 0 1.0
0 3.23911 -4.23911 0.13168 0.21778 -0.69014 -0.69013 0.64782 0.02634 1 0 1.0
cl_denim
0 3.00000 -4.43320 0.25033 0.21778 -0.69014 -0.69014 0.60000 0.05007 1 0 1.0
0 3.23911 -4.23911 0.13168 0.21778 -0.69014 -0.69014 0.64782 0.02634 1 0 1.0
0 3.23911 -4.36832 0.26089 0.21778 -0.69014 -0.69014 0.64782 0.05218 1 0 1.0
cl_denim
0 3.23911 -4.23911 0.13168 0.57735 -0.57735 -0.57735 -0.84782 0.02634 1 0 1.0
0 3.36832 -4.23911 0.26089 0.57735 -0.57735 -0.57735 -0.84782 0.05218 1 0 1.0
0 3.23911 -4.36832 0.26089 0.57735 -0.57735 -0.57735 -0.87366 0.05218 1 0 1.0
cl_denim
0 3.00000 -4.00000 1.60000 0.26387 -0.24929 0.93179 0.60000 -0.80000 1 0 1.0
0 3.00000 -4.24967 1.53320 0.26387 -0.24929 0.93179 0.60000 -0.84993 1 0 1.0
0 3.23911 -4.23911 1.46832 0.26387 -0.24929 0.93179 0.64782 -0.84782 1 0 1.0
cl_denim
0 3.00000 -4.00000 1.60000 0.24929 -0.26387 0.93179 0.60000 -0.80000 1 0 1.0
0 3.23911 -4.23911 1.46832 0.24929 -0.26387 0.93179 0.64782 -0.84782 1 0 1.0
0 3.24967 -4.00000 1.53320 0.24929 -0.26387 0.93179 0.64993 -0.80000 1 0 1.0
cl_denim
0 3.00000 -4.24967 1.53320 0.21778 -0.69014 0.69014 0.60000 0.30664 1 0 1.0
0 3.00000 -4.43320 1.34967 0.21778 -0.69014 0.69014 0.60000 0.26993 1 0 1.0
0 3.23911 -4.36832 1.33911 0.21778 -0.69014 0.69014 0.64782 0.26782 1 0 1.0
cl_denim
0 3.00000 -4.24967 1.53320 0.21778 -0.69014 0.69014 0.60000 0.30664 1 0 1.0
0 3.23911 -4.36832 1.33911 0.21778 -0.69014 0.69014 0.64782 0.26782 1 0 1.0
0 3.23911 -4.23911 1.46832 0.21778 -0.69014 0.69014 0.64782 0.29366 1 0 1.0
cl_denim
0 3.00000 -4.50000 1.10000 0.24929 -0.93179 0.26387 0.60000 0.22000 1 0 1.0
0 3.24967 -4.43320 1.10000 0.24929 -0.93179 0.26387 0.64993 0.22000 1 0 1.0
0 3.23911 -4.36832 1.33911 0.24929 -0.93179 0.26387 0.64782 0.26782 1 0 1.0
cl_denim
0 3.00000 -4.50000 1.10000 0.26387 -0.93179 0.24929 0.60000 0.22000 1 0 1.0
0 3.23911 -4.36832 1.33911 0.26387 -0.93179 0.24929 0.64782 0.26782 1 0 1.0
0 3.00000 -4.43320 1.34967 0.26387 -0.93179 0.24929 0.60000 0.26993 1 0 1.0
cl_denim
0 3.24967 -4.43320 1.10000 0.69014 -0.69014 0.21778 -0.88664 0.22000 1 0 1.0
0 3.43320 -4.24967 1.10000 0.69014 -0.69014 0.21778 -0.84993 0.22000 1 0 1.0
0 3.36832 -4.23911 1.33911 0.69014 -0.69014 0.21778 -0.84782 0.26782 1 0 1.0
cl_denim
0 3.24967 -4.43320 1.10000 0.69014 -0.69014 0.21778 -0.88664 0.22000 1 0 1.0
0 3.36832 -4.23911 1.33911 0.69014 -0.69014 0.21778 -0.84782 0.26782 1 0 1.0
0 3.23911 -4.36832 1.33911 0.69014 -0.69014 0.21778 -0.87366 0.26782 1 0 1.0
cl_denim
0 3.50000 -4.00000 1.10000 0.93179 -0.26387 0.24929 -0.80000 0.22000 1 0 1.0
0 3.43320 -4.00000 1.34967 0.93179 -0.26387 0.24929 -0.80000 0.26993 1 0 1.0
0 3.36832 -4.23911 1.33911 0.93179 -0.26387 0.24929 -0.84782 0.26782 1 0 1.0
cl_denim
0 3.50000 -4.00000 1.10000 0.93179 -0.24929 0.26387 -0.80000 0.22000 1 0 1.0
0 3.36832 -4.23911 1.33911 0.93179 -0.24929 0.26387 -0.84782 0.26782 1 0 1.0
0 3.43320 -4.24967 1.10000 0.93179 -0.24929 0.26387 -0.84993 0.22000 1 0 1.0
cl_denim
0 3.43320 -4.00000 1.34967 0.69014 -0.21778 0.69014 -0.80000 0.26993 1 0 1.0
0 3.24967 -4.00000 1.53320 0.69014 -0.21778 0.69014 -0.80000 0.30664 1 0 1.0
0 3.23911 -4.23911 1.46832 0.69014 -0.21778 0.69014 -0.84782 0.29366 1 0 1.0
cl_denim
0 3.43320 -4.00000 1.34967 0.69014 -0.21778 0.69014 -0.80000 0.26993 1 0 1.0
0 3.23911 -4.23911 1.46832 0.69014 -0.21778 0.69014 -0.84782 0.29366 1 0 1.0
0 3.36832 -4.23911 1.33911 0.69014 -0.21778 0.69014 -0.84782 0.26782 1 0 1.0
cl_denim
0 3.23911 -4.23911 1.46832 0.57735 -0.57735 0.57735 -0.84782 0.29366 1 0 1.0
0 3.23911 -4.36832 1.33911 0.57735 -0.57735 0.57735 -0.87366 0.26782 1 0 1.0
0 3.36832 -4.23911 1.33911 0.57735 -0.57735 0.57735 -0.84782 0.26782 1 0 1.0
cl_denim
0 3.00000 4.00000 0.00000 0.26387 0.24929 -0.93179 0.60000 0.80000 1 0 1.0
0 3.00000 4.24967 0.06680 0.26387 0.24929 -0.93179 0.60000 0.84993 1 0 1.0
0 3.23911 4.23911 0.13168 0.26387 0.24929 -0.93179 0.64782 0.84782 1 0 1.0
cl_denim
0 3.00000 4.00000 0.00000 0.24929 0.26387 -0.93179 0.60000 0.80000 1 0 1.0
0 3.23911 4.23911 0.13168 0.24929 0.26387 -0.93179 0.64782 0.84782 1 0 1.0
0 3.24967 4.00000 0.06680 0.24929 0.26387 -0.93179 0.64993 0.80000 1 0 1.0
cl_denim
0 3.00000 4.24967 0.06680 0.21778 0.69014 -0.69013 0.60000 0.01336 1 0 1.0
0 3.00000 4.43320 0.25033 0.21778 0.69014 -0.69013 0.60000 0.05007 1 0 1.0
0 3.23911 4.36832 0.26089 0.21778 0.69014 -0.69013 0.64782 0.05218 1 0 1.0
cl_denim
0 3.00000 4.24967 0.06680 0.21778 0.69013 -0.69014 0.60000 0.01336 1 0 1.0
0 3.23911 4.36832 0.26089 0.21778 0.69013 -0.69014 0.64782 0.05218 1 0 1.0
0 3.23911 4.23911 0.13168 0.21778 0.69013 -0.69014 0.64782 0.02634 1 0 1.0
cl_denim
0 3.00000 4.50000 0.50000 0.24929 0.93179 -0.26387 0.60000 0.10000 1 0 1.0
0 3.24967 4.43320 0.50000 0.24929 0.93179 -0.26387 0.64993 0.10000 1 0 1.0
0 3.23911 4.36832 0.26089 0.24929 0.93179 -0.26387 0.64782 0.05218 1 0 1.0
cl_denim
0 3.00000 4.50000 0.50000 0.26387 0.93179 -0.24929 0.60000 0.10000 1 0 1.0
0 3.23911 4.36832 0.26089 0.26387 0.93179 -0.24929 0.64782 0.05218 1 0 1.0
0 3.00000 4.43320 0.25033 0.26387 0.93179 -0.24929 0.60000 0.05007 1 0 1.0
cl_denim
0 3.24967 4.43320 0.50000 0.69014 0.69014 -0.21778 0.88664 0.10000 1 0 1.0
0 3.43320 4.24967 0.50000 0.69014 0.69014 -0.21778 0.84993 0.10000 1 0 1.0
0 3.36832 4.23911 0.26089 0.69014 0.69014 -0.21778 0.84782 0.05218 1 0 1.0
cl_denim
0 3.24967 4.43320 0.50000 0.69014 0.69014 -0.21778 0.88664 0.10000 1 0 1.0
0 3.36832 4.23911 0.26089 0.69014 0.69014 -0.21778 0.84782 0.05218 1 0 1.0
0 3.23911 4.36832 0.26089 0.69014 0.69014 -0.21778 0.87366 0.05218 1 0 1.0
cl_denim
0 3.50000 4.00000 0.50000 0.93179 0.26387 -0.24929 0.80000 0.10000 1 0 1.0
0 3.43320 4.00000 0.25033 0.93179 0.26387 -0.24929 0.80000 0.05007 1 0 1.0
0 3.36832 4.23911 0.26089 0.93179 0.26387 -0.24929 0.84782 0.05218 1 0 1.0
cl_denim
0 3.50000 4.00000 0.50000 0.93179 0.24929 -0.26387 0.80000 0.10000 1 0 1.0
0 3.36832 4.23911 0.26089 0.93179 0.24929 -0.26387 0.84782 0.05218 1 0 1.0
0 3.43320 4.24967 0.50000 0.93179 0.24929 -0.26387 0.84993 0.10000 1 0 1.0
cl_denim
0 3.43320 4.00000 0.25033 0.69014 0.21778 -0.69014 0.68664 0.80000 1 0 1.0
0 3.24967 4.00000 0.06680 0.69014 0.21778 -0.69014 0.64993 0.80000 1 0 1.0
0 3.23911 4.23911 0.13168 0.69014 0.21778 -0.69014 0.64782 0.84782 1 0 1.0
cl_denim
0 3.43320 4.00000 0.25033 0.69013 0.21778 -0.69014 0.68664 0.80000 1 0 1.0
0 3.23911 4.23911 0.13168 0.69013 0.21778 -0.69014 0.64782 0.84782 1 0 1.0
0 3.36832 4.23911 0.26089 0.69013 0.21778 -0.69014 0.67366 0.84782 1 0 1.0
cl_denim
0 3.23911 4.23911 0.13168 0.57735 0.57735 -0.57735 0.64782 0.84782 1 0 1.0
0 3.23911 4.36832 0.26089 0.57735 0.57735 -0.57735 0.64782 0.87366 1 0 1.0
0 3.36832 4.23911 0.26089 0.57735 0.57735 -0.57735 0.67366 0.84782 1 0 1.0
cl_denim
0 3.00000 4.00000 1.60000 0.24929 0.26387 0.93179 0.60000 0.80000 1 0 1.0
0 3.24967 4.00000 1.53320 0.24929 0.26387 0.93179 0.64993 0.80000 1 0 1.0
0 3.23911 4.23911 1.46832 0.24929 0.26387 0.93179 0.64782 0.84782 1 0 1.0
cl_denim
0 3.00000 4.00000 1.60000 0.26387 0.24929 0.93179 0.60000 0.80000 1 0 1.0
0 3.23911 4.23911 1.46832 0.26387 0.24929 0.93179 0.64782 0.84782 1 0 1.0
0 3.00000 4.24967 1.53320 0.26387 0.24929 0.93179 0.60000 0.84993 1 0 1.0
cl_denim
0 3.24967 4.00000 1.53320 0.69014 0.21778 0.69014 0.80000 0.30664 1 0 1.0
0 3.43320 4.00000 1.34967 0.69014 0.21778 0.69014 0.80000 0.26993 1 0 1.0
0 3.36832 4.23911 1.33911 0.69014 0.21778 0.69014 0.84782 0.26782 1 0 1.0
cl_denim
0 3.24967 4.00000 1.53320 0.69014 0.21778 0.69014 0.80000 0.30664 1 0 1.0
0 3.36832 4.23911 1.33911 0.69014 0.21778 0.69014 0.84782 0.26782 1 0 1.0
0 3.23911 4.23911 1.46832 0.69014 0.21778 0.69014 0.84782 0.29366 1 0 1.0
cl_denim
0 3.50000 4.00000 1.10000 0.93179 0.24929 0.26387 0.80000 0.22000 1 0 1.0
0 3.43320 4.24967 1.10000 0.93179 0.24929 0.26387 0.84993 0.22000 1 0 1.0
0 3.36832 4.23911 1.33911 0.93179 0.24929 0.26387 0.84782 0.26782 1 0 1.0
cl_denim
0 3.50000 4.00000 1.10000 0.93179 0.26387 0.24929 0.80000 0.22000 1 0 1.0
0 3.36832 4.23911 1.33911 0.93179 0.26387 0.24929 0.84782 0.26782 1 0 1.0
0 3.43320 4.00000 1.34967 0.93179 0.26387 0.24929 0.80000 0.26993 1 0 1.0
cl_denim
0 3.43320 4.24967 1.10000 0.69014 0.69014 0.21778 0.84993 0.22000 1 0 1.0
0 3.24967 4.43320 1.10000 0.69014 0.69014 0.21778 0.88664 0.22000 1 0 1.0
0 3.23911 4.36832 1.33911 0.69014 0.69014 0.21778 0.87366 0.26782 1 0 1.0
cl_denim
0 3.43320 4.24967 1.10000 0.69014 0.69014 0.21778 0.84993 0.22000 1 0 1.0
0 3.23911 4.36832 1.33911 0.69014 0.69014 0.21778 0.87366 0.26782 1 0 1.0
0 3.36832 4.23911 1.33911 0.69014 0.69014 0.21778 0.84782 0.26782 1 0 1.0
cl_denim
0 3.00000 4.50000 1.10000 0.26387 0.93179 0.24929 0.60000 0.22000 1 0 1.0
0 3.00000 4.43320 1.34967 0.26387 0.93179 0.24929 0.60000 0.26993 1 0 1.0
0 3.23911 4.36832 1.33911 0.26387 0.93179 0.24929 0.64782 0.26782 1 0 1.0
cl_denim
0 3.00000 4.50000 1.10000 0.24929 0.93179 0.26387 0.60000 0.22000 1 0 1.0
0 3.23911 4.36832 1.33911 0.24929 0.93179 0.26387 0.64782 0.26782 1 0 1.0
0 3.24967 4.43320 1.10000 0.24929 0.93179 0.26387 0.64993 0.22000 1 0 1.0
cl_denim
0 3.00000 4.43320 1.34967 0.21778 0.69014 0.69013 0.60000 0.26993 1 0 1.0
0 3.00000 4.24967 1.53320 0.21778 0.69014 0.69013 0.60000 0.30664 1 0 1.0
0 3.23911 4.23911 1.46832 0.21778 0.69014 0.69013 0.64782 0.29366 1 0 1.0
cl_denim
0 3.00000 4.43320 1.34967 0.21778 0.69014 0.69014 0.60000 0.26993 1 0 1.0
0 3.23911 4.23911 1.46832 0.21778 0.69014 0.69014 0.64782 0.29366 1 0 1.0
0 3.23911 4.36832 1.33911 0.21778 0.69014 0.69014 0.64782 0.26782 1 0 1.0
cl_denim
0 3.23911 4.23911 1.46832 0.57735 0.57735 0.57735 0.84782 0.29366 1 0 1.0
0 3.36832 4.23911 1.33911 0.57735 0.57735 0.57735 0.84782 0.26782 1 0 1.0
0 3.23911 4.36832 1.33911 0.57735 0.57735 0.57735 0.87366 0.26782 1 0 1.0
cl_denim
0 -3.00000 4.00000 0.00000 -0.25845 0.00000 -0.96602 -0.60000 0.80000 1 0 1.0
0 -3.00000 -4.00000 0.00000 -0.25845 0.00000 -0.96602 -0.60000 -0.80000 1 0 1.0
0 -3.24967 -4.00000 0.06680 -0.25845 0.00000 -0.96602 -0.64993 -0.80000 1 0 1.0
cl_denim
0 -3.00000 4.00000 0.00000 -0.25845 0.00000 -0.96602 -0.60000 0.80000 1 0 1.0
0 -3.24967 -4.00000 0.06680 -0.25845 0.00000 -0.96602 -0.64993 -0.80000 1 0 1.0
0 -3.24967 4.00000 0.06680 -0.25845 0.00000 -0.96602 -0.64993 0.80000 1 0 1.0
cl_denim
0 -3.24967 4.00000 0.06680 -0.70711 0.00000 -0.70711 0.80000 0.01336 1 0 1.0
0 -3.24967 -4.00000 0.06680 -0.70711 0.00000 -0.70711 -0.80000 0.01336 1 0 1.0
0 -3.43320 -4.00000 0.25033 -0.70711 0.00000 -0.70711 -0.80000 0.05007 1 0 1.0
cl_denim
0 -3.24967 4.00000 0.06680 -0.70711 0.00000 -0.70711 0.80000 0.01336 1 0 1.0
0 -3.43320 -4.00000 0.25033 -0.70711 0.00000 -0.70711 -0.80000 0.05007 1 0 1.0
0 -3.43320 4.00000 0.25033 -0.70711 0.00000 -0.70711 0.80000 0.05007 1 0 1.0
cl_denim
0 -3.43320 4.00000 0.25033 -0.96602 0.00000 -0.25845 0.80000 0.05007 1 0 1.0
0 -3.43320 -4.00000 0.25033 -0.96602 0.00000 -0.25845 -0.80000 0.05007 1 0 1.0
0 -3.50000 -4.00000 0.50000 -0.96602 0.00000 -0.25845 -0.80000 0.10000 1 0 1.0
cl_denim
0 -3.43320 4.00000 0.25033 -0.96602 0.00000 -0.25845 0.80000 0.05007 1 0 1.0
0 -3.50000 -4.00000 0.50000 -0.96602 0.00000 -0.25845 -0.80000 0.10000 1 0 1.0
0 -3.50000 4.00000 0.50000 -0.96602 0.00000 -0.25845 0.80000 0.10000 1 0 1.0
cl_denim
0 -3.00000 -4.50000 0.50000 -0.25845 -0.96602 0.00000 -0.60000 0.10000 1 0 1.0
0 -3.00000 -4.50000 1.10000 -0.25845 -0.96602 0.00000 -0.60000 0.22000 1 0 1.0
0 -3.24967 -4.43320 1.10000 -0.25845 -0.96602 0.00000 -0.64993 0.22000 1 0 1.0
cl_denim
0 -3.00000 -4.50000 0.50000 -0.25845 -0.96602 0.00000 -0.60000 0.10000 1 0 1.0
0 -3.24967 -4.43320 1.10000 -0.25845 -0.96602 0.00000 -0.64993 0.22000 1 0 1.0
0 -3.24967 -4.43320 0.50000 -0.25845 -0.96602 0.00000 -0.64993 0.10000 1 0 1.0
cl_denim
0 -3.24967 -4.43320 0.50000 -0.70711 -0.70711 0.00000 -0.88664 0.10000 1 0 1.0
0 -3.24967 -4.43320 1.10000 -0.70711 -0.70711 0.00000 -0.88664 0.22000 1 0 1.0
0 -3.43320 -4.24967 1.10000 -0.70711 -0.70711 0.00000 -0.84993 0.22000 1 0 1.0
cl_denim
0 -3.24967 -4.43320 0.50000 -0.70711 -0.70711 0.00000 -0.88664 0.10000 1 0 1.0
0 -3.43320 -4.24967 1.10000 -0.70711 -0.70711 0.00000 -0.84993 0.22000 1 0 1.0
0 -3.43320 -4.24967 0.50000 -0.70711 -0.70711 0.00000 -0.84993 0.10000 1 0 1.0
cl_denim
0 -3.43320 -4.24967 0.50000 -0.96602 -0.25845 0.00000 -0.84993 0.10000 1 0 1.0
0 -3.43320 -4.24967 1.10000 -0.96602 -0.25845 0.00000 -0.84993 0.22000 1 0 1.0
0 -3.50000 -4.00000 1.10000 -0.96602 -0.25845 0.00000 -0.80000 0.22000 1 0 1.0
cl_denim
0 -3.43320 -4.24967 0.50000 -0.96602 -0.25845 0.00000 -0.84993 0.10000 1 0 1.0
0 -3.50000 -4.00000 1.10000 -0.96602 -0.25845 0.00000 -0.80000 0.22000 1 0 1.0
0 -3.50000 -4.00000 0.50000 -0.96602 -0.25845 0.00000 -0.80000 0.10000 1 0 1.0
cl_denim
0 -3.00000 -4.00000 1.60000 -0.25845 0.00000 0.96602 -0.60000 -0.80000 1 0 1.0
0 -3.00000 4.00000 1.60000 -0.25845 0.00000 0.96602 -0.60000 0.80000 1 0 1.0
0 -3.24967 4.00000 1.53320 -0.25845 0.00000 0.96602 -0.64993 0.80000 1 0 1.0
cl_denim
0 -3.00000 -4.00000 1.60000 -0.25845 0.00000 0.96602 -0.60000 -0.80000 1 0 1.0
0 -3.24967 4.00000 1.53320 -0.25845 0.00000 0.96602 -0.64993 0.80000 1 0 1.0
0 -3.24967 -4.00000 1.53320 -0.25845 0.00000 0.96602 -0.64993 -0.80000 1 0 1.0
cl_denim
0 -3.24967 -4.00000 1.53320 -0.70711 0.00000 0.70711 -0.80000 0.30664 1 0 1.0
0 -3.24967 4.00000 1.53320 -0.70711 0.00000 0.70711 0.80000 0.30664 1 0 1.0
0 -3.43320 4.00000 1.34967 -0.70711 0.00000 0.70711 0.80000 0.26993 1 0 1.0
cl_denim
0 -3.24967 -4.00000 1.53320 -0.70711 -0.00000 0.70711 -0.80000 0.30664 1 0 1.0
0 -3.43320 4.00000 1.34967 -0.70711 -0.00000 0.70711 0.80000 0.26993 1 0 1.0
0 -3.43320 -4.00000 1.34967 -0.70711 -0.00000 0.70711 -0.80000 0.26993 1 0 1.0
cl_denim
0 -3.43320 -4.00000 1.34967 -0.96602 -0.00000 0.25845 -0.80000 0.26993 1 0 1.0
0 -3.43320 4.00000 1.34967 -0.96602 -0.00000 0.25845 0.80000 0.26993 1 0 1.0
0 -3.50000 4.00000 1.10000 -0.96602 -0.00000 0.25845 0.80000 0.22000 1 0 1.0
cl_denim
0 -3.43320 -4.00000 1.34967 -0.96602 -0.00000 0.25845 -0.80000 0.26993 1 0 1.0
0 -3.50000 4.00000 1.10000 -0.96602 -0.00000 0.25845 0.80000 0.22000 1 0 1.0
0 -3.50000 -4.00000 1.10000 -0.96602 -0.00000 0.25845 -0.80000 0.22000 1 0 1.0
cl_denim
0 -3.00000 4.50000 1.10000 -0.25845 0.96602 0.00000 -0.60000 0.22000 1 0 1.0
0 -3.00000 4.50000 0.50000 -0.25845 0.96602 0.00000 -0.60000 0.10000 1 0 1.0
0 -3.24967 4.43320 0.50000 -0.25845 0.96602 0.00000 -0.64993 0.10000 1 0 1.0
cl_denim
0 -3.00000 4.50000 1.10000 -0.25845 0.96602 0.00000 -0.60000 0.22000 1 0 1.0
0 -3.24967 4.43320 0.50000 -0.25845 0.96602 0.00000 -0.64993 0.10000 1 0 1.0
0 -3.24967 4.43320 1.10000 -0.25845 0.96602 0.00000 -0.64993 0.22000 1 0 1.0
cl_denim
0 -3.24967 4.43320 1.10000 -0.70711 0.70711 0.00000 0.88664 0.22000 1 0 1.0
0 -3.24967 4.43320 0.50000 -0.70711 0.70711 0.00000 0.88664 0.10000 1 0 1.0
0 -3.43320 4.24967 0.50000 -0.70711 0.70711 0.00000 0.84993 0.10000 1 0 1.0
cl_denim
0 -3.24967 4.43320 1.10000 -0.70711 0.70711 0.00000 0.88664 0.22000 1 0 1.0
0 -3.43320 4.24967 0.50000 -0.70711 0.70711 0.00000 0.84993 0.10000 1 0 1.0
0 -3.43320 4.24967 1.10000 -0.70711 0.70711 0.00000 0.84993 0.22000 1 0 1.0
cl_denim
0 -3.43320 4.24967 1.10000 -0.96602 0.25845 0.00000 0.84993 0.22000 1 0 1.0
0 -3.43320 4.24967 0.50000 -0.96602 0.25845 0.00000 0.84993 0.10000 1 0 1.0
0 -3.50000 4.00000 0.50000 -0.96602 0.25845 0.00000 0.80000 0.10000 1 0 1.0
cl_denim
0 -3.43320 4.24967 1.10000 -0.96602 0.25845 0.00000 0.84993 0.22000 1 0 1.0
0 -3.50000 4.00000 0.50000 -0.96602 0.25845 0.00000 0.80000 0.10000 1 0 1.0
0 -3.50000 4.00000 1.10000 -0.96602 0.25845 0.00000 0.80000 0.22000 1 0 1.0
cl_denim
0 3.00000 4.00000 0.00000 0.00000 0.25845 -0.96602 0.60000 0.80000 1 0 1.0
0 -3.00000 4.00000 0.00000 0.00000 0.25845 -0.96602 -0.60000 0.80000 1 0 1.0
0 -3.00000 4.24967 0.06680 0.00000 0.25845 -0.96602 -0.60000 0.84993 1 0 1.0
cl_denim
0 3.00000 4.00000 0.00000 -0.00000 0.25845 -0.96602 0.60000 0.80000 1 0 1.0
0 -3.00000 4.24967 0.06680 -0.00000 0.25845 -0.96602 -0.60000 0.84993 1 0 1.0
0 3.00000 4.24967 0.06680 -0.00000 0.25845 -0.96602 0.60000 0.84993 1 0 1.0
cl_denim
0 3.00000 4.24967 0.06680 -0.00000 0.70711 -0.70711 0.60000 0.01336 1 0 1.0
0 -3.00000 4.24967 0.06680 -0.00000 0.70711 -0.70711 -0.60000 0.01336 1 0 1.0
0 -3.00000 4.43320 0.25033 -0.00000 0.70711 -0.70711 -0.60000 0.05007 1 0 1.0
cl_denim
0 3.00000 4.24967 0.06680 -0.00000 0.70711 -0.70711 0.60000 0.01336 1 0 1.0
0 -3.00000 4.43320 0.25033 -0.00000 0.70711 -0.70711 -0.60000 0.05007 1 0 1.0
0 3.00000 4.43320 0.25033 -0.00000 0.70711 -0.70711 0.60000 0.05007 1 0 1.0
cl_denim
0 3.00000 4.43320 0.25033 -0.00000 0.96602 -0.25845 0.60000 0.05007 1 0 1.0
0 -3.00000 4.43320 0.25033 -0.00000 0.96602 -0.25845 -0.60000 0.05007 1 0 1.0
0 -3.00000 4.50000 0.50000 -0.00000 0.96602 -0.25845 -0.60000 0.10000 1 0 1.0
cl_denim
0 3.00000 4.43320 0.25033 -0.00000 0.96602 -0.25845 0.60000 0.05007 1 0 1.0
0 -3.00000 4.50000 0.50000 -0.00000 0.96602 -0.25845 -0.60000 0.10000 1 0 1.0
0 3.00000 4.50000 0.50000 -0.00000 0.96602 -0.25845 0.60000 0.10000 1 0 1.0
cl_denim
0 -3.00000 4.00000 1.60000 0.00000 0.25845 0.96602 -0.60000 0.80000 1 0 1.0
0 3.00000 4.00000 1.60000 0.00000 0.25845 0.96602 0.60000 0.80000 1 0 1.0
0 3.00000 4.24967 1.53320 0.00000 0.25845 0.96602 0.60000 0.84993 1 0 1.0
cl_denim
0 -3.00000 4.00000 1.60000 0.00000 0.25845 0.96602 -0.60000 0.80000 1 0 1.0
0 3.00000 4.24967 1.53320 0.00000 0.25845 0.96602 0.60000 0.84993 1 0 1.0
0 -3.00000 4.24967 1.53320 0.00000 0.25845 0.96602 -0.60000 0.84993 1 0 1.0
cl_denim
0 -3.00000 4.24967 1.53320 0.00000 0.70711 0.70711 -0.60000 0.30664 1 0 1.0
0 3.00000 4.24967 1.53320 0.00000 0.70711 0.70711 0.60000 0.30664 1 0 1.0
0 3.00000 4.43320 1.34967 0.00000 0.70711 0.70711 0.60000 0.26993 1 0 1.0
cl_denim
0 -3.00000 4.24967 1.53320 0.00000 0.70711 0.70711 -0.60000 0.30664 1 0 1.0
0 3.00000 4.43320 1.34967 0.00000 0.70711 0.70711 0.60000 0.26993 1 0 1.0
0 -3.00000 4.43320 1.34967 0.00000 0.70711 0.70711 -0.60000 0.26993 1 0 1.0
cl_denim
0 -3.00000 4.43320 1.34967 0.00000 0.96602 0.25845 -0.60000 0.26993 1 0 1.0
0 3.00000 4.43320 1.34967 0.00000 0.96602 0.25845 0.60000 0.26993 1 0 1.0
0 3.00000 4.50000 1.10000 0.00000 0.96602 0.25845 0.60000 0.22000 1 0 1.0
cl_denim
0 -3.00000 4.43320 1.34967 0.00000 0.96602 0.25845 -0.60000 0.26993 1 0 1.0
0 3.00000 4.50000 1.10000 0.00000 0.96602 0.25845 0.60000 0.22000 1 0 1.0
0 -3.00000 4.50000 1.10000 0.00000 0.96602 0.25845 -0.60000 0.22000 1 0 1.0
cl_denim
0 3.50000 4.00000 1.10000 0.96602 0.25845 0.00000 0.80000 0.22000 1 0 1.0
0 3.50000 4.00000 0.50000 0.96602 0.25845 0.00000 0.80000 0.10000 1 0 1.0
0 3.43320 4.24967 0.50000 0.96602 0.25845 0.00000 0.84993 0.10000 1 0 1.0
cl_denim
0 3.50000 4.00000 1.10000 0.96602 0.25845 0.00000 0.80000 0.22000 1 0 1.0
0 3.43320 4.24967 0.50000 0.96602 0.25845 0.00000 0.84993 0.10000 1 0 1.0
0 3.43320 4.24967 1.10000 0.96602 0.25845 0.00000 0.84993 0.22000 1 0 1.0
cl_denim
0 3.43320 4.24967 1.10000 0.70711 0.70711 0.00000 0.84993 0.22000 1 0 1.0
0 3.43320 4.24967 0.50000 0.70711 0.70711 0.00000 0.84993 0.10000 1 0 1.0
0 3.24967 4.43320 0.50000 0.70711 0.70711 0.00000 0.88664 0.10000 1 0 1.0
cl_denim
0 3.43320 4.24967 1.10000 0.70711 0.70711 0.00000 0.84993 0.22000 1 0 1.0
0 3.24967 4.43320 0.50000 0.70711 0.70711 0.00000 0.88664 0.10000 1 0 1.0
0 3.24967 4.43320 1.10000 0.70711 0.70711 0.00000 0.88664 0.22000 1 0 1.0
cl_denim
0 3.24967 4.43320 1.10000 0.25845 0.96602 0.00000 0.64993 0.22000 1 0 1.0
0 3.24967 4.43320 0.50000 0.25845 0.96602 0.00000 0.64993 0.10000 1 0 1.0
0 3.00000 4.50000 0.50000 0.25845 0.96602 0.00000 0.60000 0.10000 1 0 1.0
cl_denim
0 3.24967 4.43320 1.10000 0.25845 0.96602 0.00000 0.64993 0.22000 1 0 1.0
0 3.00000 4.50000 0.50000 0.25845 0.96602 0.00000 0.60000 0.10000 1 0 1.0
0 3.00000 4.50000 1.10000 0.25845 0.96602 0.00000 0.60000 0.22000 1 0 1.0
cl_denim
0 3.00000 -4.00000 0.00000 0.25845 0.00000 -0.96602 0.60000 -0.80000 1 0 1.0
0 3.00000 4.00000 0.00000 0.25845 0.00000 -0.96602 0.60000 0.80000 1 0 1.0
0 3.24967 4.00000 0.06680 0.25845 0.00000 -0.96602 0.64993 0.80000 1 0 1.0
cl_denim
0 3.00000 -4.00000 0.00000 0.25845 -0.00000 -0.96602 0.60000 -0.80000 1 0 1.0
0 3.24967 4.00000 0.06680 0.25845 -0.00000 -0.96602 0.64993 0.80000 1 0 1.0
0 3.24967 -4.00000 0.06680 0.25845 -0.00000 -0.96602 0.64993 -0.80000 1 0 1.0
cl_denim
0 3.24967 -4.00000 0.06680 0.70711 -0.00000 -0.70711 -0.80000 0.01336 1 0 1.0
0 3.24967 4.00000 0.06680 0.70711 -0.00000 -0.70711 0.80000 0.01336 1 0 1.0
0 3.43320 4.00000 0.25033 0.70711 -0.00000 -0.70711 0.80000 0.05007 1 0 1.0
cl_denim
0 3.24967 -4.00000 0.06680 0.70711 -0.00000 -0.70711 -0.80000 0.01336 1 0 1.0
0 3.43320 4.00000 0.25033 0.70711 -0.00000 -0.70711 0.80000 0.05007 1 0 1.0
0 3.43320 -4.00000 0.25033 0.70711 -0.00000 -0.70711 -0.80000 0.05007 1 0 1.0
cl_denim
0 3.43320 -4.00000 0.25033 0.96602 -0.00000 -0.25845 -0.80000 0.05007 1 0 1.0
0 3.43320 4.00000 0.25033 0.96602 -0.00000 -0.25845 0.80000 0.05007 1 0 1.0
0 3.50000 4.00000 0.50000 0.96602 -0.00000 -0.25845 0.80000 0.10000 1 0 1.0
cl_denim
0 3.43320 -4.00000 0.25033 0.96602 -0.00000 -0.25845 -0.80000 0.05007 1 0 1.0
0 3.50000 4.00000 0.50000 0.96602 -0.00000 -0.25845 0.80000 0.10000 1 0 1.0
0 3.50000 -4.00000 0.50000 0.96602 -0.00000 -0.25845 -0.80000 0.10000 1 0 1.0
cl_denim
0 3.00000 4.00000 1.60000 0.25845 0.00000 0.96602 0.60000 0.80000 1 0 1.0
0 3.00000 -4.00000 1.60000 0.25845 0.00000 0.96602 0.60000 -0.80000 1 0 1.0
0 3.24967 -4.00000 1.53320 0.25845 0.00000 0.96602 0.64993 -0.80000 1 0 1.0
cl_denim
0 3.00000 4.00000 1.60000 0.25845 0.00000 0.96602 0.60000 0.80000 1 0 1.0
0 3.24967 -4.00000 1.53320 0.25845 0.00000 0.96602 0.64993 -0.80000 1 0 1.0
0 3.24967 4.00000 1.53320 0.25845 0.00000 0.96602 0.64993 0.80000 1 0 1.0
cl_denim
0 3.24967 4.00000 1.53320 0.70711 0.00000 0.70711 0.80000 0.30664 1 0 1.0
0 3.24967 -4.00000 1.53320 0.70711 0.00000 0.70711 -0.80000 0.30664 1 0 1.0
0 3.43320 -4.00000 1.34967 0.70711 0.00000 0.70711 -0.80000 0.26993 1 0 1.0
cl_denim
0 3.24967 4.00000 1.53320 0.70711 0.00000 0.70711 0.80000 0.30664 1 0 1.0
0 3.43320 -4.00000 1.34967 0.70711 0.00000 0.70711 -0.80000 0.26993 1 0 1.0
0 3.43320 4.00000 1.34967 0.70711 0.00000 0.70711 0.80000 0.26993 1 0 1.0
cl_denim
0 3.43320 4.00000 1.34967 0.96602 0.00000 0.25845 0.80000 0.26993 1 0 1.0
0 3.43320 -4.00000 1.34967 0.96602 0.00000 0.25845 -0.80000 0.26993 1 0 1.0
0 3.50000 -4.00000 1.10000 0.96602 0.00000 0.25845 -0.80000 0.22000 1 0 1.0
cl_denim
0 3.43320 4.00000 1.34967 0.96602 0.00000 0.25845 0.80000 0.26993 1 0 1.0
0 3.50000 -4.00000 1.10000 0.96602 0.00000 0.25845 -0.80000 0.22000 1 0 1.0
0 3.50000 4.00000 1.10000 0.96602 0.00000 0.25845 0.80000 0.22000 1 0 1.0
cl_denim
0 3.00000 -4.50000 1.10000 0.25845 -0.96602 0.00000 0.60000 0.22000 1 0 1.0
0 3.00000 -4.50000 0.50000 0.25845 -0.96602 0.00000 0.60000 0.10000 1 0 1.0
0 3.24967 -4.43320 0.50000 0.25845 -0.96602 0.00000 0.64993 0.10000 1 0 1.0
cl_denim
0 3.00000 -4.50000 1.10000 0.25845 -0.96602 0.00000 0.60000 0.22000 1 0 1.0
0 3.24967 -4.43320 0.50000 0.25845 -0.96602 0.00000 0.64993 0.10000 1 0 1.0
0 3.24967 -4.43320 1.10000 0.25845 -0.96602 0.00000 0.64993 0.22000 1 0 1.0
cl_denim
0 3.24967 -4.43320 1.10000 0.70711 -0.70711 0.00000 -0.88664 0.22000 1 0 1.0
0 3.24967 -4.43320 0.50000 0.70711 -0.70711 0.00000 -0.88664 0.10000 1 0 1.0
0 3.43320 -4.24967 0.50000 0.70711 -0.70711 0.00000 -0.84993 0.10000 1 0 1.0
cl_denim
0 3.24967 -4.43320 1.10000 0.70711 -0.70711 0.00000 -0.88664 0.22000 1 0 1.0
0 3.43320 -4.24967 0.50000 0.70711 -0.70711 0.00000 -0.84993 0.10000 1 0 1.0
0 3.43320 -4.24967 1.10000 0.70711 -0.70711 0.00000 -0.84993 0.22000 1 0 1.0
cl_denim
0 3.43320 -4.24967 1.10000 0.96602 -0.25845 0.00000 -0.84993 0.22000 1 0 1.0
0 3.43320 -4.24967 0.50000 0.96602 -0.25845 0.00000 -0.84993 0.10000 1 0 1.0
0 3.50000 -4.00000 0.50000 0.96602 -0.25845 0.00000 -0.80000 0.10000 1 0 1.0
cl_denim
0 3.43320 -4.24967 1.10000 0.96602 -0.25845 0.00000 -0.84993 0.22000 1 0 1.0
0 3.50000 -4.00000 0.50000 0.96602 -0.25845 0.00000 -0.80000 0.10000 1 0 1.0
0 3.50000 -4.00000 1.10000 0.96602 -0.25845 0.00000 -0.80000 0.22000 1 0 1.0
cl_denim
0 -3.00000 -4.00000 0.00000 0.00000 -0.25845 -0.96602 -0.60000 -0.80000 1 0 1.0
0 3.00000 -4.00000 0.00000 0.00000 -0.25845 -0.96602 0.60000 -0.80000 1 0 1.0
0 3.00000 -4.24967 0.06680 0.00000 -0.25845 -0.96602 0.60000 -0.84993 1 0 1.0
cl_denim
0 -3.00000 -4.00000 0.00000 0.00000 -0.25845 -0.96602 -0.60000 -0.80000 1 0 1.0
0 3.00000 -4.24967 0.06680 0.00000 -0.25845 -0.96602 0.60000 -0.84993 1 0 1.0
0 -3.00000 -4.24967 0.06680 0.00000 -0.25845 -0.96602 -0.60000 -0.84993 1 0 1.0
cl_denim
0 -3.00000 -4.24967 0.06680 0.00000 -0.70711 -0.70711 -0.60000 0.01336 1 0 1.0
0 3.00000 -4.24967 0.06680 0.00000 -0.70711 -0.70711 0.60000 0.01336 1 0 1.0
0 3.00000 -4.43320 0.25033 0.00000 -0.70711 -0.70711 0.60000 0.05007 1 0 1.0
cl_denim
0 -3.00000 -4.24967 0.06680 0.00000 -0.70711 -0.70711 -0.60000 0.01336 1 0 1.0
0 3.00000 -4.43320 0.25033 0.00000 -0.70711 -0.70711 0.60000 0.05007 1 0 1.0
0 -3.00000 -4.43320 0.25033 0.00000 -0.70711 -0.70711 -0.60000 0.05007 1 0 1.0
cl_denim
0 -3.00000 -4.43320 0.25033 0.00000 -0.96602 -0.25845 -0.60000 0.05007 1 0 1.0
0 3.00000 -4.43320 0.25033 0.00000 -0.96602 -0.25845 0.60000 0.05007 1 0 1.0
0 3.00000 -4.50000 0.50000 0.00000 -0.96602 -0.25845 0.60000 0.10000 1 0 1.0
cl_denim
0 -3.00000 -4.43320 0.25033 0.00000 -0.96602 -0.25845 -0.60000 0.05007 1 0 1.0
0 3.00000 -4.50000 0.50000 0.00000 -0.96602 -0.25845 0.60000 0.10000 1 0 1.0
0 -3.00000 -4.50000 0.50000 0.00000 -0.96602 -0.25845 -0.60000 0.10000 1 0 1.0
cl_denim
0 3.00000 -4.00000 1.60000 0.00000 -0.25845 0.96602 0.60000 -0.80000 1 0 1.0
0 -3.00000 -4.00000 1.60000 0.00000 -0.25845 0.96602 -0.60000 -0.80000 1 0 1.0
0 -3.00000 -4.24967 1.53320 0.00000 -0.25845 0.96602 -0.60000 -0.84993 1 0 1.0
cl_denim
0 3.00000 -4.00000 1.60000 0.00000 -0.25845 0.96602 0.60000 -0.80000 1 0 1.0
0 -3.00000 -4.24967 1.53320 0.00000 -0.25845 0.96602 -0.60000 -0.84993 1 0 1.0
0 3.00000 -4.24967 1.53320 0.00000 -0.25845 0.96602 0.60000 -0.84993 1 0 1.0
cl_denim
0 3.00000 -4.24967 1.53320 0.00000 -0.70711 0.70711 0.60000 0.30664 1 0 1.0
0 -3.00000 -4.24967 1.53320 0.00000 -0.70711 0.70711 -0.60000 0.30664 1 0 1.0
0 -3.00000 -4.43320 1.34967 0.00000 -0.70711 0.70711 -0.60000 0.26993 1 0 1.0
cl_denim
0 3.00000 -4.24967 1.53320 -0.00000 -0.70711 0.70711 0.60000 0.30664 1 0 1.0
0 -3.00000 -4.43320 1.34967 -0.00000 -0.70711 0.70711 -0.60000 0.26993 1 0 1.0
0 3.00000 -4.43320 1.34967 -0.00000 -0.70711 0.70711 0.60000 0.26993 1 0 1.0
cl_denim
0 3.00000 -4.43320 1.34967 -0.00000 -0.96602 0.25845 0.60000 0.26993 1 0 1.0
0 -3.00000 -4.43320 1.34967 -0.00000 -0.96602 0.25845 -0.60000 0.26993 1 0 1.0
0 -3.00000 -4.50000 1.10000 -0.00000 -0.96602 0.25845 -0.60000 0.22000 1 0 1.0
cl_denim
0 3.00000 -4.43320 1.34967 -0.00000 -0.96602 0.25845 0.60000 0.26993 1 0 1.0
0 -3.00000 -4.50000 1.10000 -0.00000 -0.96602 0.25845 -0.60000 0.22000 1 0 1.0
0 3.00000 -4.50000 1.10000 -0.00000 -0.96602 0.25845 0.60000 0.22000 1 0 1.0
cl_denim
0 -3.00000 4.00000 0.00000 0.00000 0.00000 -1.00000 -0.60000 0.80000 1 0 1.0
0 3.00000 4.00000 0.00000 0.00000 0.00000 -1.00000 0.60000 0.80000 1 0 1.0
0 3.00000 -4.00000 0.00000 0.00000 0.00000 -1.00000 0.60000 -0.80000 1 0 1.0
cl_denim
0 -3.00000 4.00000 0.00000 0.00000 0.00000 -1.00000 -0.60000 0.80000 1 0 1.0
0 3.00000 -4.00000 0.00000 0.00000 0.00000 -1.00000 0.60000 -0.80000 1 0 1.0
0 -3.00000 -4.00000 0.00000 0.00000 0.00000 -1.00000 -0.60000 -0.80000 1 0 1.0
cl_denim
0 -3.50000 -4.00000 0.50000 -1.00000 0.00000 0.00000 -0.80000 0.10000 1 0 1.0
0 -3.50000 -4.00000 1.10000 -1.00000 0.00000 0.00000 -0.80000 0.22000 1 0 1.0
0 -3.50000 4.00000 1.10000 -1.00000 0.00000 0.00000 0.80000 0.22000 1 0 1.0
cl_denim
0 -3.50000 -4.00000 0.50000 -1.00000 0.00000 0.00000 -0.80000 0.10000 1 0 1.0
0 -3.50000 4.00000 1.10000 -1.00000 0.00000 0.00000 0.80000 0.22000 1 0 1.0
0 -3.50000 4.00000 0.50000 -1.00000 0.00000 0.00000 0.80000 0.10000 1 0 1.0
cl_denim
0 3.00000 -4.50000 0.50000 0.00000 -1.00000 0.00000 0.60000 0.10000 1 0 1.0
0 3.00000 -4.50000 1.10000 0.00000 -1.00000 0.00000 0.60000 0.22000 1 0 1.0
0 -3.00000 -4.50000 1.10000 0.00000 -1.00000 0.00000 -0.60000 0.22000 1 0 1.0
cl_denim
0 3.00000 -4.50000 0.50000 0.00000 -1.00000 0.00000 0.60000 0.10000 1 0 1.0
0 -3.00000 -4.50000 1.10000 0.00000 -1.00000 0.00000 -0.60000 0.22000 1 0 1.0
0 -3.00000 -4.50000 0.50000 0.00000 -1.00000 0.00000 -0.60000 0.10000 1 0 1.0
cl_denim
0 3.00000 4.00000 1.60000 0.00000 0.00000 1.00000 0.60000 0.80000 1 0 1.0
0 -3.00000 4.00000 1.60000 0.00000 0.00000 1.00000 -0.60000 0.80000 1 0 1.0
0 -3.00000 -4.00000 1.60000 0.00000 0.00000 1.00000 -0.60000 -0.80000 1 0 1.0
cl_denim
0 3.00000 4.00000 1.60000 0.00000 0.00000 1.00000 0.60000 0.80000 1 0 1.0
0 -3.00000 -4.00000 1.60000 0.00000 0.00000 1.00000 -0.60000 -0.80000 1 0 1.0
0 3.00000 -4.00000 1.60000 0.00000 0.00000 1.00000 0.60000 -0.80000 1 0 1.0
cl_denim
0 -3.00000 4.50000 0.50000 0.00000 1.00000 0.00000 -0.60000 0.10000 1 0 1.0
0 -3.00000 4.50000 1.10000 0.00000 1.00000 0.00000 -0.60000 0.22000 1 0 1.0
0 3.00000 4.50000 1.10000 0.00000 1.00000 0.00000 0.60000 0.22000 1 0 1.0
cl_denim
0 -3.00000 4.50000 0.50000 0.00000 1.00000 0.00000 -0.60000 0.10000 1 0 1.0
0 3.00000 4.50000 1.10000 0.00000 1.00000 0.00000 0.60000 0.22000 1 0 1.0
0 3.00000 4.50000 0.50000 0.00000 1.00000 0.00000 0.60000 0.10000 1 0 1.0
cl_denim
0 3.50000 4.00000 0.50000 1.00000 0.00000 0.00000 0.80000 0.10000 1 0 1.0
0 3.50000 4.00000 1.10000 1.00000 0.00000 0.00000 0.80000 0.22000 1 0 1.0
0 3.50000 -4.00000 1.10000 1.00000 0.00000 0.00000 -0.80000 0.22000 1 0 1.0
cl_denim
0 3.50000 4.00000 0.50000 1.00000 0.00000 0.00000 0.80000 0.10000 1 0 1.0
0 3.50000 -4.00000 1.10000 1.00000 0.00000 0.00000 -0.80000 0.22000 1 0 1.0
0 3.50000 -4.00000 0.50000 1.00000 0.00000 0.00000 -0.80000 0.10000 1 0 1.0
cl_denim
0 2.90000 -4.25000 0.00000 -0.28175 -0.36718 -0.88645 0.58000 -0.85000 1 0 1.0
0 2.90000 -4.46213 0.08787 -0.28175 -0.36718 -0.88645 0.58000 -0.89243 1 0 1.0
0 2.72679 -4.42321 0.12679 -0.28175 -0.36718 -0.88645 0.54536 -0.88464 1 0 1.0
cl_denim
0 2.90000 -4.25000 0.00000 -0.36718 -0.28175 -0.88645 0.58000 -0.85000 1 0 1.0
0 2.72679 -4.42321 0.12679 -0.36718 -0.28175 -0.88645 0.54536 -0.88464 1 0 1.0
0 2.68787 -4.25000 0.08787 -0.36718 -0.28175 -0.88645 0.53757 -0.85000 1 0 1.0
cl_denim
0 2.90000 -4.55000 0.30000 -0.36718 -0.88645 -0.28175 0.58000 0.06000 1 0 1.0
0 2.68787 -4.46213 0.30000 -0.36718 -0.88645 -0.28175 0.53757 0.06000 1 0 1.0
0 2.72679 -4.42321 0.12679 -0.36718 -0.88645 -0.28175 0.54536 0.02536 1 0 1.0
cl_denim
0 2.90000 -4.55000 0.30000 -0.28175 -0.88645 -0.36718 0.58000 0.06000 1 0 1.0
0 2.72679 -4.42321 0.12679 -0.28175 -0.88645 -0.36718 0.54536 0.02536 1 0 1.0
0 2.90000 -4.46213 0.08787 -0.28175 -0.88645 -0.36718 0.58000 0.01757 1 0 1.0
cl_denim
0 2.60000 -4.25000 0.30000 -0.88645 -0.28175 -0.36718 -0.85000 0.06000 1 0 1.0
0 2.68787 -4.25000 0.08787 -0.88645 -0.28175 -0.36718 -0.85000 0.01757 1 0 1.0
0 2.72679 -4.42321 0.12679 -0.88645 -0.28175 -0.36718 -0.88464 0.02536 1 0 1.0
cl_denim
0 2.60000 -4.25000 0.30000 -0.88645 -0.36718 -0.28175 -0.85000 0.06000 1 0 1.0
0 2.72679 -4.42321 0.12679 -0.88645 -0.36718 -0.28175 -0.88464 0.02536 1 0 1.0
0 2.68787 -4.46213 0.30000 -0.88645 -0.36718 -0.28175 -0.89243 0.06000 1 0 1.0
cl_denim
0 2.90000 -4.55000 1.40000 -0.28175 -0.88645 0.36718 0.58000 0.28000 1 0 1.0
0 2.90000 -4.46213 1.61213 -0.28175 -0.88645 0.36718 0.58000 0.32243 1 0 1.0
0 2.72679 -4.42321 1.57321 -0.28175 -0.88645 0.36718 0.54536 0.31464 1 0 1.0
cl_denim
0 2.90000 -4.55000 1.40000 -0.36718 -0.88645 0.28175 0.58000 0.28000 1 0 1.0
0 2.72679 -4.42321 1.57321 -0.36718 -0.88645 0.28175 0.54536 0.31464 1 0 1.0
0 2.68787 -4.46213 1.40000 -0.36718 -0.88645 0.28175 0.53757 0.28000 1 0 1.0
cl_denim
0 2.90000 -4.25000 1.70000 -0.36718 -0.28175 0.88645 0.58000 -0.85000 1 0 1.0
0 2.68787 -4.25000 1.61213 -0.36718 -0.28175 0.88645 0.53757 -0.85000 1 0 1.0
0 2.72679 -4.42321 1.57321 -0.36718 -0.28175 0.88645 0.54536 -0.88464 1 0 1.0
cl_denim
0 2.90000 -4.25000 1.70000 -0.28175 -0.36718 0.88645 0.58000 -0.85000 1 0 1.0
0 2.72679 -4.42321 1.57321 -0.28175 -0.36718 0.88645 0.54536 -0.88464 1 0 1.0
0 2.90000 -4.46213 1.61213 -0.28175 -0.36718 0.88645 0.58000 -0.89243 1 0 1.0
cl_denim
0 2.60000 -4.25000 1.40000 -0.88645 -0.36718 0.28175 -0.85000 0.28000 1 0 1.0
0 2.68787 -4.46213 1.40000 -0.88645 -0.36718 0.28175 -0.89243 0.28000 1 0 1.0
0 2.72679 -4.42321 1.57321 -0.88645 -0.36718 0.28175 -0.88464 0.31464 1 0 1.0
cl_denim
0 2.60000 -4.25000 1.40000 -0.88645 -0.28175 0.36718 -0.85000 0.28000 1 0 1.0
0 2.72679 -4.42321 1.57321 -0.88645 -0.28175 0.36718 -0.88464 0.31464 1 0 1.0
0 2.68787 -4.25000 1.61213 -0.88645 -0.28175 0.36718 -0.85000 0.32243 1 0 1.0
cl_denim
0 2.90000 4.25000 0.00000 -0.36718 0.28175 -0.88645 0.58000 0.85000 1 0 1.0
0 2.68787 4.25000 0.08787 -0.36718 0.28175 -0.88645 0.53757 0.85000 1 0 1.0
0 2.72679 4.42321 0.12679 -0.36718 0.28175 -0.88645 0.54536 0.88464 1 0 1.0
cl_denim
0 2.90000 4.25000 0.00000 -0.28175 0.36718 -0.88645 0.58000 0.85000 1 0 1.0
0 2.72679 4.42321 0.12679 -0.28175 0.36718 -0.88645 0.54536 0.88464 1 0 1.0
0 2.90000 4.46213 0.08787 -0.28175 0.36718 -0.88645 0.58000 0.89243 1 0 1.0
cl_denim
0 2.60000 4.25000 0.30000 -0.88645 0.36718 -0.28175 0.85000 0.06000 1 0 1.0
0 2.68787 4.46213 0.30000 -0.88645 0.36718 -0.28175 0.89243 0.06000 1 0 1.0
0 2.72679 4.42321 0.12679 -0.88645 0.36718 -0.28175 0.88464 0.02536 1 0 1.0
cl_denim
0 2.60000 4.25000 0.30000 -0.88645 0.28175 -0.36718 0.85000 0.06000 1 0 1.0
0 2.72679 4.42321 0.12679 -0.88645 0.28175 -0.36718 0.88464 0.02536 1 0 1.0
0 2.68787 4.25000 0.08787 -0.88645 0.28175 -0.36718 0.85000 0.01757 1 0 1.0
cl_denim
0 2.90000 4.55000 0.30000 -0.28175 0.88645 -0.36718 0.58000 0.06000 1 0 1.0
0 2.90000 4.46213 0.08787 -0.28175 0.88645 -0.36718 0.58000 0.01757 1 0 1.0
0 2.72679 4.42321 0.12679 -0.28175 0.88645 -0.36718 0.54536 0.02536 1 0 1.0
cl_denim
0 2.90000 4.55000 0.30000 -0.36718 0.88645 -0.28175 0.58000 0.06000 1 0 1.0
0 2.72679 4.42321 0.12679 -0.36718 0.88645 -0.28175 0.54536 0.02536 1 0 1.0
0 2.68787 4.46213 0.30000 -0.36718 0.88645 -0.28175 0.53757 0.06000 1 0 1.0
cl_denim
0 2.90000 4.25000 1.70000 -0.28175 0.36718 0.88645 0.58000 0.85000 1 0 1.0
0 2.90000 4.46213 1.61213 -0.28175 0.36718 0.88645 0.58000 0.89243 1 0 1.0
0 2.72679 4.42321 1.57321 -0.28175 0.36718 0.88645 0.54536 0.88464 1 0 1.0
cl_denim
0 2.90000 4.25000 1.70000 -0.36718 0.28175 0.88645 0.58000 0.85000 1 0 1.0
0 2.72679 4.42321 1.57321 -0.36718 0.28175 0.88645 0.54536 0.88464 1 0 1.0
0 2.68787 4.25000 1.61213 -0.36718 0.28175 0.88645 0.53757 0.85000 1 0 1.0
cl_denim
0 2.90000 4.55000 1.40000 -0.36718 0.88645 0.28175 0.58000 0.28000 1 0 1.0
0 2.68787 4.46213 1.40000 -0.36718 0.88645 0.28175 0.53757 0.28000 1 0 1.0
0 2.72679 4.42321 1.57321 -0.36718 0.88645 0.28175 0.54536 0.31464 1 0 1.0
cl_denim
0 2.90000 4.55000 1.40000 -0.28175 0.88645 0.36718 0.58000 0.28000 1 0 1.0
0 2.72679 4.42321 1.57321 -0.28175 0.88645 0.36718 0.54536 0.31464 1 0 1.0
0 2.90000 4.46213 1.61213 -0.28175 0.88645 0.36718 0.58000 0.32243 1 0 1.0
cl_denim
0 2.60000 4.25000 1.40000 -0.88645 0.28175 0.36718 0.85000 0.28000 1 0 1.0
0 2.68787 4.25000 1.61213 -0.88645 0.28175 0.36718 0.85000 0.32243 1 0 1.0
0 2.72679 4.42321 1.57321 -0.88645 0.28175 0.36718 0.88464 0.31464 1 0 1.0
cl_denim
0 2.60000 4.25000 1.40000 -0.88645 0.36718 0.28175 0.85000 0.28000 1 0 1.0
0 2.72679 4.42321 1.57321 -0.88645 0.36718 0.28175 0.88464 0.31464 1 0 1.0
0 2.68787 4.46213 1.40000 -0.88645 0.36718 0.28175 0.89243 0.28000 1 0 1.0
cl_denim
0 3.50000 -4.25000 0.00000 0.36718 -0.28175 -0.88645 0.70000 -0.85000 1 0 1.0
0 3.71213 -4.25000 0.08787 0.36718 -0.28175 -0.88645 0.74243 -0.85000 1 0 1.0
0 3.67321 -4.42321 0.12679 0.36718 -0.28175 -0.88645 0.73464 -0.88464 1 0 1.0
cl_denim
0 3.50000 -4.25000 0.00000 0.28175 -0.36718 -0.88645 0.70000 -0.85000 1 0 1.0
0 3.67321 -4.42321 0.12679 0.28175 -0.36718 -0.88645 0.73464 -0.88464 1 0 1.0
0 3.50000 -4.46213 0.08787 0.28175 -0.36718 -0.88645 0.70000 -0.89243 1 0 1.0
cl_denim
0 3.80000 -4.25000 0.30000 0.88645 -0.36718 -0.28175 -0.85000 0.06000 1 0 1.0
0 3.71213 -4.46213 0.30000 0.88645 -0.36718 -0.28175 -0.89243 0.06000 1 0 1.0
0 3.67321 -4.42321 0.12679 0.88645 -0.36718 -0.28175 -0.88464 0.02536 1 0 1.0
cl_denim
0 3.80000 -4.25000 0.30000 0.88645 -0.28175 -0.36718 -0.85000 0.06000 1 0 1.0
0 3.67321 -4.42321 0.12679 0.88645 -0.28175 -0.36718 -0.88464 0.02536 1 0 1.0
0 3.71213 -4.25000 0.08787 0.88645 -0.28175 -0.36718 -0.85000 0.01757 1 0 1.0
cl_denim
0 3.50000 -4.55000 0.30000 0.28175 -0.88645 -0.36718 0.70000 0.06000 1 0 1.0
0 3.50000 -4.46213 0.08787 0.28175 -0.88645 -0.36718 0.70000 0.01757 1 0 1.0
0 3.67321 -4.42321 0.12679 0.28175 -0.88645 -0.36718 0.73464 0.02536 1 0 1.0
cl_denim
0 3.50000 -4.55000 0.30000 0.36718 -0.88645 -0.28175 0.70000 0.06000 1 0 1.0
0 3.67321 -4.42321 0.12679 0.36718 -0.88645 -0.28175 0.73464 0.02536 1 0 1.0
0 3.71213 -4.46213 0.30000 0.36718 -0.88645 -0.28175 0.74243 0.06000 1 0 1.0
cl_denim
0 3.50000 -4.25000 1.70000 0.28175 -0.36718 0.88645 0.70000 -0.85000 1 0 1.0
0 3.50000 -4.46213 1.61213 0.28175 -0.36718 0.88645 0.70000 -0.89243 1 0 1.0
0 3.67321 -4.42321 1.57321 0.28175 -0.36718 0.88645 0.73464 -0.88464 1 0 1.0
cl_denim
0 3.50000 -4.25000 1.70000 0.36718 -0.28175 0.88645 0.70000 -0.85000 1 0 1.0
0 3.67321 -4.42321 1.57321 0.36718 -0.28175 0.88645 0.73464 -0.88464 1 0 1.0
0 3.71213 -4.25000 1.61213 0.36718 -0.28175 0.88645 0.74243 -0.85000 1 0 1.0
cl_denim
0 3.50000 -4.55000 1.40000 0.36718 -0.88645 0.28175 0.70000 0.28000 1 0 1.0
0 3.71213 -4.46213 1.40000 0.36718 -0.88645 0.28175 0.74243 0.28000 1 0 1.0
0 3.67321 -4.42321 1.57321 0.36718 -0.88645 0.28175 0.73464 0.31464 1 0 1.0
cl_denim
0 3.50000 -4.55000 1.40000 0.28175 -0.88645 0.36718 0.70000 0.28000 1 0 1.0
0 3.67321 -4.42321 1.57321 0.28175 -0.88645 0.36718 0.73464 0.31464 1 0 1.0
0 3.50000 -4.46213 1.61213 0.28175 -0.88645 0.36718 0.70000 0.32243 1 0 1.0
cl_denim
0 3.80000 -4.25000 1.40000 0.88645 -0.28175 0.36718 -0.85000 0.28000 1 0 1.0
0 3.71213 -4.25000 1.61213 0.88645 -0.28175 0.36718 -0.85000 0.32243 1 0 1.0
0 3.67321 -4.42321 1.57321 0.88645 -0.28175 0.36718 -0.88464 0.31464 1 0 1.0
cl_denim
0 3.80000 -4.25000 1.40000 0.88645 -0.36718 0.28175 -0.85000 0.28000 1 0 1.0
0 3.67321 -4.42321 1.57321 0.88645 -0.36718 0.28175 -0.88464 0.31464 1 0 1.0
0 3.71213 -4.46213 1.40000 0.88645 -0.36718 0.28175 -0.89243 0.28000 1 0 1.0
cl_denim
0 3.50000 4.25000 0.00000 0.28175 0.36718 -0.88645 0.70000 0.85000 1 0 1.0
0 3.50000 4.46213 0.08787 0.28175 0.36718 -0.88645 0.70000 0.89243 1 0 1.0
0 3.67321 4.42321 0.12679 0.28175 0.36718 -0.88645 0.73464 0.88464 1 0 1.0
cl_denim
0 3.50000 4.25000 0.00000 0.36718 0.28175 -0.88645 0.70000 0.85000 1 0 1.0
0 3.67321 4.42321 0.12679 0.36718 0.28175 -0.88645 0.73464 0.88464 1 0 1.0
0 3.71213 4.25000 0.08787 0.36718 0.28175 -0.88645 0.74243 0.85000 1 0 1.0
cl_denim
0 3.50000 4.55000 0.30000 0.36718 0.88645 -0.28175 0.70000 0.06000 1 0 1.0
0 3.71213 4.46213 0.30000 0.36718 0.88645 -0.28175 0.74243 0.06000 1 0 1.0
0 3.67321 4.42321 0.12679 0.36718 0.88645 -0.28175 0.73464 0.02536 1 0 1.0
cl_denim
0 3.50000 4.55000 0.30000 0.28175 0.88645 -0.36718 0.70000 0.06000 1 0 1.0
0 3.67321 4.42321 0.12679 0.28175 0.88645 -0.36718 0.73464 0.02536 1 0 1.0
0 3.50000 4.46213 0.08787 0.28175 0.88645 -0.36718 0.70000 0.01757 1 0 1.0
cl_denim
0 3.80000 4.25000 0.30000 0.88645 0.28175 -0.36718 0.85000 0.06000 1 0 1.0
0 3.71213 4.25000 0.08787 0.88645 0.28175 -0.36718 0.85000 0.01757 1 0 1.0
0 3.67321 4.42321 0.12679 0.88645 0.28175 -0.36718 0.88464 0.02536 1 0 1.0
cl_denim
0 3.80000 4.25000 0.30000 0.88645 0.36718 -0.28175 0.85000 0.06000 1 0 1.0
0 3.67321 4.42321 0.12679 0.88645 0.36718 -0.28175 0.88464 0.02536 1 0 1.0
0 3.71213 4.46213 0.30000 0.88645 0.36718 -0.28175 0.89243 0.06000 1 0 1.0
cl_denim
0 3.50000 4.25000 1.70000 0.36718 0.28175 0.88645 0.70000 0.85000 1 0 1.0
0 3.71213 4.25000 1.61213 0.36718 0.28175 0.88645 0.74243 0.85000 1 0 1.0
0 3.67321 4.42321 1.57321 0.36718 0.28175 0.88645 0.73464 0.88464 1 0 1.0
cl_denim
0 3.50000 4.25000 1.70000 0.28175 0.36718 0.88645 0.70000 0.85000 1 0 1.0
0 3.67321 4.42321 1.57321 0.28175 0.36718 0.88645 0.73464 0.88464 1 0 1.0
0 3.50000 4.46213 1.61213 0.28175 0.36718 0.88645 0.70000 0.89243 1 0 1.0
cl_denim
0 3.80000 4.25000 1.40000 0.88645 0.36718 0.28175 0.85000 0.28000 1 0 1.0
0 3.71213 4.46213 1.40000 0.88645 0.36718 0.28175 0.89243 0.28000 1 0 1.0
0 3.67321 4.42321 1.57321 0.88645 0.36718 0.28175 0.88464 0.31464 1 0 1.0
cl_denim
0 3.80000 4.25000 1.40000 0.88645 0.28175 0.36718 0.85000 0.28000 1 0 1.0
0 3.67321 4.42321 1.57321 0.88645 0.28175 0.36718 0.88464 0.31464 1 0 1.0
0 3.71213 4.25000 1.61213 0.88645 0.28175 0.36718 0.85000 0.32243 1 0 1.0
cl_denim
0 3.50000 4.55000 1.40000 0.28175 0.88645 0.36718 0.70000 0.28000 1 0 1.0
0 3.50000 4.46213 1.61213 0.28175 0.88645 0.36718 0.70000 0.32243 1 0 1.0
0 3.67321 4.42321 1.57321 0.28175 0.88645 0.36718 0.73464 0.31464 1 0 1.0
cl_denim
0 3.50000 4.55000 1.40000 0.36718 0.88645 0.28175 0.70000 0.28000 1 0 1.0
0 3.67321 4.42321 1.57321 0.36718 0.88645 0.28175 0.73464 0.31464 1 0 1.0
0 3.71213 4.46213 1.40000 0.36718 0.88645 0.28175 0.74243 0.28000 1 0 1.0
cl_denim
0 2.90000 4.25000 0.00000 -0.38268 0.00000 -0.92388 0.58000 0.85000 1 0 1.0
0 2.90000 -4.25000 0.00000 -0.38268 0.00000 -0.92388 0.58000 -0.85000 1 0 1.0
0 2.68787 -4.25000 0.08787 -0.38268 0.00000 -0.92388 0.53757 -0.85000 1 0 1.0
cl_denim
0 2.90000 4.25000 0.00000 -0.38268 -0.00000 -0.92388 0.58000 0.85000 1 0 1.0
0 2.68787 -4.25000 0.08787 -0.38268 -0.00000 -0.92388 0.53757 -0.85000 1 0 1.0
0 2.68787 4.25000 0.08787 -0.38268 -0.00000 -0.92388 0.53757 0.85000 1 0 1.0
cl_denim
0 2.68787 4.25000 0.08787 -0.92388 -0.00000 -0.38268 0.85000 0.01757 1 0 1.0
0 2.68787 -4.25000 0.08787 -0.92388 -0.00000 -0.38268 -0.85000 0.01757 1 0 1.0
0 2.60000 -4.25000 0.30000 -0.92388 -0.00000 -0.38268 -0.85000 0.06000 1 0 1.0
cl_denim
0 2.68787 4.25000 0.08787 -0.92388 0.00000 -0.38268 0.85000 0.01757 1 0 1.0
0 2.60000 -4.25000 0.30000 -0.92388 0.00000 -0.38268 -0.85000 0.06000 1 0 1.0
0 2.60000 4.25000 0.30000 -0.92388 0.00000 -0.38268 0.85000 0.06000 1 0 1.0
cl_denim
0 2.90000 -4.55000 0.30000 -0.38268 -0.92388 0.00000 0.58000 0.06000 1 0 1.0
0 2.90000 -4.55000 1.40000 -0.38268 -0.92388 0.00000 0.58000 0.28000 1 0 1.0
0 2.68787 -4.46213 1.40000 -0.38268 -0.92388 0.00000 0.53757 0.28000 1 0 1.0
cl_denim
0 2.90000 -4.55000 0.30000 -0.38268 -0.92388 0.00000 0.58000 0.06000 1 0 1.0
0 2.68787 -4.46213 1.40000 -0.38268 -0.92388 0.00000 0.53757 0.28000 1 0 1.0
0 2.68787 -4.46213 0.30000 -0.38268 -0.92388 0.00000 0.53757 0.06000 1 0 1.0
cl_denim
0 2.68787 -4.46213 0.30000 -0.92388 -0.38268 0.00000 -0.89243 0.06000 1 0 1.0
0 2.68787 -4.46213 1.40000 -0.92388 -0.38268 0.00000 -0.89243 0.28000 1 0 1.0
0 2.60000 -4.25000 1.40000 -0.92388 -0.38268 0.00000 -0.85000 0.28000 1 0 1.0
cl_denim
0 2.68787 -4.46213 0.30000 -0.92388 -0.38268 0.00000 -0.89243 0.06000 1 0 1.0
0 2.60000 -4.25000 1.40000 -0.92388 -0.38268 0.00000 -0.85000 0.28000 1 0 1.0
0 2.60000 -4.25000 0.30000 -0.92388 -0.38268 0.00000 -0.85000 0.06000 1 0 1.0
cl_denim
0 2.90000 -4.25000 1.70000 -0.38268 0.00000 0.92388 0.58000 -0.85000 1 0 1.0
0 2.90000 4.25000 1.70000 -0.38268 0.00000 0.92388 0.58000 0.85000 1 0 1.0
0 2.68787 4.25000 1.61213 -0.38268 0.00000 0.92388 0.53757 0.85000 1 0 1.0
cl_denim
0 2.90000 -4.25000 1.70000 -0.38268 0.00000 0.92388 0.58000 -0.85000 1 0 1.0
0 2.68787 4.25000 1.61213 -0.38268 0.00000 0.92388 0.53757 0.85000 1 0 1.0
0 2.68787 -4.25000 1.61213 -0.38268 0.00000 0.92388 0.53757 -0.85000 1 0 1.0
cl_denim
0 2.68787 -4.25000 1.61213 -0.92388 0.00000 0.38268 -0.85000 0.32243 1 0 1.0
0 2.68787 4.25000 1.61213 -0.92388 0.00000 0.38268 0.85000 0.32243 1 0 1.0
0 2.60000 4.25000 1.40000 -0.92388 0.00000 0.38268 0.85000 0.28000 1 0 1.0
cl_denim
0 2.68787 -4.25000 1.61213 -0.92388 0.00000 0.38268 -0.85000 0.32243 1 0 1.0
0 2.60000 4.25000 1.40000 -0.92388 0.00000 0.38268 0.85000 0.28000 1 0 1.0
0 2.60000 -4.25000 1.40000 -0.92388 0.00000 0.38268 -0.85000 0.28000 1 0 1.0
cl_denim
0 2.90000 4.55000 1.40000 -0.38268 0.92388 0.00000 0.58000 0.28000 1 0 1.0
0 2.90000 4.55000 0.30000 -0.38268 0.92388 0.00000 0.58000 0.06000 1 0 1.0
0 2.68787 4.46213 0.30000 -0.38268 0.92388 0.00000 0.53757 0.06000 1 0 1.0
cl_denim
0 2.90000 4.55000 1.40000 -0.38268 0.92388 0.00000 0.58000 0.28000 1 0 1.0
0 2.68787 4.46213 0.30000 -0.38268 0.92388 0.00000 0.53757 0.06000 1 0 1.0
0 2.68787 4.46213 1.40000 -0.38268 0.92388 0.00000 0.53757 0.28000 1 0 1.0
cl_denim
0 2.68787 4.46213 1.40000 -0.92388 0.38268 0.00000 0.89243 0.28000 1 0 1.0
0 2.68787 4.46213 0.30000 -0.92388 0.38268 0.00000 0.89243 0.06000 1 0 1.0
0 2.60000 4.25000 0.30000 -0.92388 0.38268 0.00000 0.85000 0.06000 1 0 1.0
cl_denim
0 2.68787 4.46213 1.40000 -0.92388 0.38268 0.00000 0.89243 0.28000 1 0 1.0
0 2.60000 4.25000 0.30000 -0.92388 0.38268 0.00000 0.85000 0.06000 1 0 1.0
0 2.60000 4.25000 1.40000 -0.92388 0.38268 0.00000 0.85000 0.28000 1 0 1.0
cl_denim
0 3.50000 4.25000 0.00000 0.00000 0.38268 -0.92388 0.70000 0.85000 1 0 1.0
0 2.90000 4.25000 0.00000 0.00000 0.38268 -0.92388 0.58000 0.85000 1 0 1.0
0 2.90000 4.46213 0.08787 0.00000 0.38268 -0.92388 0.58000 0.89243 1 0 1.0
cl_denim
0 3.50000 4.25000 0.00000 0.00000 0.38268 -0.92388 0.70000 0.85000 1 0 1.0
0 2.90000 4.46213 0.08787 0.00000 0.38268 -0.92388 0.58000 0.89243 1 0 1.0
0 3.50000 4.46213 0.08787 0.00000 0.38268 -0.92388 0.70000 0.89243 1 0 1.0
cl_denim
0 3.50000 4.46213 0.08787 0.00000 0.92388 -0.38268 0.70000 0.01757 1 0 1.0
0 2.90000 4.46213 0.08787 0.00000 0.92388 -0.38268 0.58000 0.01757 1 0 1.0
0 2.90000 4.55000 0.30000 0.00000 0.92388 -0.38268 0.58000 0.06000 1 0 1.0
cl_denim
0 3.50000 4.46213 0.08787 -0.00000 0.92388 -0.38268 0.70000 0.01757 1 0 1.0
0 2.90000 4.55000 0.30000 -0.00000 0.92388 -0.38268 0.58000 0.06000 1 0 1.0
0 3.50000 4.55000 0.30000 -0.00000 0.92388 -0.38268 0.70000 0.06000 1 0 1.0
cl_denim
0 2.90000 4.25000 1.70000 0.00000 0.38268 0.92388 0.58000 0.85000 1 0 1.0
0 3.50000 4.25000 1.70000 0.00000 0.38268 0.92388 0.70000 0.85000 1 0 1.0
0 3.50000 4.46213 1.61213 0.00000 0.38268 0.92388 0.70000 0.89243 1 0 1.0
cl_denim
0 2.90000 4.25000 1.70000 0.00000 0.38268 0.92388 0.58000 0.85000 1 0 1.0
0 3.50000 4.46213 1.61213 0.00000 0.38268 0.92388 0.70000 0.89243 1 0 1.0
0 2.90000 4.46213 1.61213 0.00000 0.38268 0.92388 0.58000 0.89243 1 0 1.0
cl_denim
0 2.90000 4.46213 1.61213 0.00000 0.92388 0.38268 0.58000 0.32243 1 0 1.0
0 3.50000 4.46213 1.61213 0.00000 0.92388 0.38268 0.70000 0.32243 1 0 1.0
0 3.50000 4.55000 1.40000 0.00000 0.92388 0.38268 0.70000 0.28000 1 0 1.0
cl_denim
0 2.90000 4.46213 1.61213 0.00000 0.92388 0.38268 0.58000 0.32243 1 0 1.0
0 3.50000 4.55000 1.40000 0.00000 0.92388 0.38268 0.70000 0.28000 1 0 1.0
0 2.90000 4.55000 1.40000 0.00000 0.92388 0.38268 0.58000 0.28000 1 0 1.0
cl_denim
0 3.80000 4.25000 1.40000 0.92388 0.38268 0.00000 0.85000 0.28000 1 0 1.0
0 3.80000 4.25000 0.30000 0.92388 0.38268 0.00000 0.85000 0.06000 1 0 1.0
0 3.71213 4.46213 0.30000 0.92388 0.38268 0.00000 0.89243 0.06000 1 0 1.0
cl_denim
0 3.80000 4.25000 1.40000 0.92388 0.38268 0.00000 0.85000 0.28000 1 0 1.0
0 3.71213 4.46213 0.30000 0.92388 0.38268 0.00000 0.89243 0.06000 1 0 1.0
0 3.71213 4.46213 1.40000 0.92388 0.38268 0.00000 0.89243 0.28000 1 0 1.0
cl_denim
0 3.71213 4.46213 1.40000 0.38268 0.92388 0.00000 0.74243 0.28000 1 0 1.0
0 3.71213 4.46213 0.30000 0.38268 0.92388 0.00000 0.74243 0.06000 1 0 1.0
0 3.50000 4.55000 0.30000 0.38268 0.92388 0.00000 0.70000 0.06000 1 0 1.0
cl_denim
0 3.71213 4.46213 1.40000 0.38268 0.92388 0.00000 0.74243 0.28000 1 0 1.0
0 3.50000 4.55000 0.30000 0.38268 0.92388 0.00000 0.70000 0.06000 1 0 1.0
0 3.50000 4.55000 1.40000 0.38268 0.92388 0.00000 0.70000 0.28000 1 0 1.0
cl_denim
0 3.50000 -4.25000 0.00000 0.38268 0.00000 -0.92388 0.70000 -0.85000 1 0 1.0
0 3.50000 4.25000 0.00000 0.38268 0.00000 -0.92388 0.70000 0.85000 1 0 1.0
0 3.71213 4.25000 0.08787 0.38268 0.00000 -0.92388 0.74243 0.85000 1 0 1.0
cl_denim
0 3.50000 -4.25000 0.00000 0.38268 0.00000 -0.92388 0.70000 -0.85000 1 0 1.0
0 3.71213 4.25000 0.08787 0.38268 0.00000 -0.92388 0.74243 0.85000 1 0 1.0
0 3.71213 -4.25000 0.08787 0.38268 0.00000 -0.92388 0.74243 -0.85000 1 0 1.0
cl_denim
0 3.71213 -4.25000 0.08787 0.92388 0.00000 -0.38268 -0.85000 0.01757 1 0 1.0
0 3.71213 4.25000 0.08787 0.92388 0.00000 -0.38268 0.85000 0.01757 1 0 1.0
0 3.80000 4.25000 0.30000 0.92388 0.00000 -0.38268 0.85000 0.06000 1 0 1.0
cl_denim
0 3.71213 -4.25000 0.08787 0.92388 0.00000 -0.38268 -0.85000 0.01757 1 0 1.0
0 3.80000 4.25000 0.30000 0.92388 0.00000 -0.38268 0.85000 0.06000 1 0 1.0
0 3.80000 -4.25000 0.30000 0.92388 0.00000 -0.38268 -0.85000 0.06000 1 0 1.0
cl_denim
0 3.50000 4.25000 1.70000 0.38268 0.00000 0.92388 0.70000 0.85000 1 0 1.0
0 3.50000 -4.25000 1.70000 0.38268 0.00000 0.92388 0.70000 -0.85000 1 0 1.0
0 3.71213 -4.25000 1.61213 0.38268 0.00000 0.92388 0.74243 -0.85000 1 0 1.0
cl_denim
0 3.50000 4.25000 1.70000 0.38268 0.00000 0.92388 0.70000 0.85000 1 0 1.0
0 3.71213 -4.25000 1.61213 0.38268 0.00000 0.92388 0.74243 -0.85000 1 0 1.0
0 3.71213 4.25000 1.61213 0.38268 0.00000 0.92388 0.74243 0.85000 1 0 1.0
cl_denim
0 3.71213 4.25000 1.61213 0.92388 0.00000 0.38268 0.85000 0.32243 1 0 1.0
0 3.71213 -4.25000 1.61213 0.92388 0.00000 0.38268 -0.85000 0.32243 1 0 1.0
0 3.80000 -4.25000 1.40000 0.92388 0.00000 0.38268 -0.85000 0.28000 1 0 1.0
cl_denim
0 3.71213 4.25000 1.61213 0.92388 0.00000 0.38268 0.85000 0.32243 1 0 1.0
0 3.80000 -4.25000 1.40000 0.92388 0.00000 0.38268 -0.85000 0.28000 1 0 1.0
0 3.80000 4.25000 1.40000 0.92388 0.00000 0.38268 0.85000 0.28000 1 0 1.0
cl_denim
0 3.50000 -4.55000 1.40000 0.38268 -0.92388 0.00000 0.70000 0.28000 1 0 1.0
0 3.50000 -4.55000 0.30000 0.38268 -0.92388 0.00000 0.70000 0.06000 1 0 1.0
0 3.71213 -4.46213 0.30000 0.38268 -0.92388 0.00000 0.74243 0.06000 1 0 1.0
cl_denim
0 3.50000 -4.55000 1.40000 0.38268 -0.92388 0.00000 0.70000 0.28000 1 0 1.0
0 3.71213 -4.46213 0.30000 0.38268 -0.92388 0.00000 0.74243 0.06000 1 0 1.0
0 3.71213 -4.46213 1.40000 0.38268 -0.92388 0.00000 0.74243 0.28000 1 0 1.0
cl_denim
0 3.71213 -4.46213 1.40000 0.92388 -0.38268 0.00000 -0.89243 0.28000 1 0 1.0
0 3.71213 -4.46213 0.30000 0.92388 -0.38268 0.00000 -0.89243 0.06000 1 0 1.0
0 3.80000 -4.25000 0.30000 0.92388 -0.38268 0.00000 -0.85000 0.06000 1 0 1.0
cl_denim
0 3.71213 -4.46213 1.40000 0.92388 -0.38268 0.00000 -0.89243 0.28000 1 0 1.0
0 3.80000 -4.25000 0.30000 0.92388 -0.38268 0.00000 -0.85000 0.06000 1 0 1.0
0 3.80000 -4.25000 1.40000 0.92388 -0.38268 0.00000 -0.85000 0.28000 1 0 1.0
cl_denim
0 2.90000 -4.25000 0.00000 0.00000 -0.38268 -0.92388 0.58000 -0.85000 1 0 1.0
0 3.50000 -4.25000 0.00000 0.00000 -0.38268 -0.92388 0.70000 -0.85000 1 0 1.0
0 3.50000 -4.46213 0.08787 0.00000 -0.38268 -0.92388 0.70000 -0.89243 1 0 1.0
cl_denim
0 2.90000 -4.25000 0.00000 0.00000 -0.38268 -0.92388 0.58000 -0.85000 1 0 1.0
0 3.50000 -4.46213 0.08787 0.00000 -0.38268 -0.92388 0.70000 -0.89243 1 0 1.0
0 2.90000 -4.46213 0.08787 0.00000 -0.38268 -0.92388 0.58000 -0.89243 1 0 1.0
cl_denim
0 2.90000 -4.46213 0.08787 0.00000 -0.92388 -0.38268 0.58000 0.01757 1 0 1.0
0 3.50000 -4.46213 0.08787 0.00000 -0.92388 -0.38268 0.70000 0.01757 1 0 1.0
0 3.50000 -4.55000 0.30000 0.00000 -0.92388 -0.38268 0.70000 0.06000 1 0 1.0
cl_denim
0 2.90000 -4.46213 0.08787 0.00000 -0.92388 -0.38268 0.58000 0.01757 1 0 1.0
0 3.50000 -4.55000 0.30000 0.00000 -0.92388 -0.38268 0.70000 0.06000 1 0 1.0
0 2.90000 -4.55000 0.30000 0.00000 -0.92388 -0.38268 0.58000 0.06000 1 0 1.0
cl_denim
0 3.50000 -4.25000 1.70000 0.00000 -0.38268 0.92388 0.70000 -0.85000 1 0 1.0
0 2.90000 -4.25000 1.70000 0.00000 -0.38268 0.92388 0.58000 -0.85000 1 0 1.0
0 2.90000 -4.46213 1.61213 0.00000 -0.38268 0.92388 0.58000 -0.89243 1 0 1.0
cl_denim
0 3.50000 -4.25000 1.70000 0.00000 -0.38268 0.92388 0.70000 -0.85000 1 0 1.0
0 2.90000 -4.46213 1.61213 0.00000 -0.38268 0.92388 0.58000 -0.89243 1 0 1.0
0 3.50000 -4.46213 1.61213 0.00000 -0.38268 0.92388 0.70000 -0.89243 1 0 1.0
cl_denim
0 3.50000 -4.46213 1.61213 0.00000 -0.92388 0.38268 0.70000 0.32243 1 0 1.0
0 2.90000 -4.46213 1.61213 0.00000 -0.92388 0.38268 0.58000 0.32243 1 0 1.0
0 2.90000 -4.55000 1.40000 0.00000 -0.92388 0.38268 0.58000 0.28000 1 0 1.0
cl_denim
0 3.50000 -4.46213 1.61213 -0.00000 -0.92388 0.38268 0.70000 0.32243 1 0 1.0
0 2.90000 -4.55000 1.40000 -0.00000 -0.92388 0.38268 0.58000 0.28000 1 0 1.0
0 3.50000 -4.55000 1.40000 -0.00000 -0.92388 0.38268 0.70000 0.28000 1 0 1.0
cl_denim
0 2.90000 4.25000 0.00000 0.00000 0.00000 -1.00000 0.58000 0.85000 1 0 1.0
0 3.50000 4.25000 0.00000 0.00000 0.00000 -1.00000 0.70000 0.85000 1 0 1.0
0 3.50000 -4.25000 0.00000 0.00000 0.00000 -1.00000 0.70000 -0.85000 1 0 1.0
cl_denim
0 2.90000 4.25000 0.00000 0.00000 0.00000 -1.00000 0.58000 0.85000 1 0 1.0
0 3.50000 -4.25000 0.00000 0.00000 0.00000 -1.00000 0.70000 -0.85000 1 0 1.0
0 2.90000 -4.25000 0.00000 0.00000 0.00000 -1.00000 0.58000 -0.85000 1 0 1.0
cl_denim
0 2.60000 -4.25000 0.30000 -1.00000 0.00000 0.00000 -0.85000 0.06000 1 0 1.0
0 2.60000 -4.25000 1.40000 -1.00000 0.00000 0.00000 -0.85000 0.28000 1 0 1.0
0 2.60000 4.25000 1.40000 -1.00000 0.00000 0.00000 0.85000 0.28000 1 0 1.0
cl_denim
0 2.60000 -4.25000 0.30000 -1.00000 0.00000 0.00000 -0.85000 0.06000 1 0 1.0
0 2.60000 4.25000 1.40000 -1.00000 0.00000 0.00000 0.85000 0.28000 1 0 1.0
0 2.60000 4.25000 0.30000 -1.00000 0.00000 0.00000 0.85000 0.06000 1 0 1.0
cl_denim
0 3.50000 -4.55000 0.30000 0.00000 -1.00000 0.00000 0.70000 0.06000 1 0 1.0
0 3.50000 -4.55000 1.40000 0.00000 -1.00000 0.00000 0.70000 0.28000 1 0 1.0
0 2.90000 -4.55000 1.40000 0.00000 -1.00000 0.00000 0.58000 0.28000 1 0 1.0
cl_denim
0 3.50000 -4.55000 0.30000 0.00000 -1.00000 0.00000 0.70000 0.06000 1 0 1.0
0 2.90000 -4.55000 1.40000 0.00000 -1.00000 0.00000 0.58000 0.28000 1 0 1.0
0 2.90000 -4.55000 0.30000 0.00000 -1.00000 0.00000 0.58000 0.06000 1 0 1.0
cl_denim
0 3.50000 4.25000 1.70000 0.00000 0.00000 1.00000 0.70000 0.85000 1 0 1.0
0 2.90000 4.25000 1.70000 0.00000 0.00000 1.00000 0.58000 0.85000 1 0 1.0
0 2.90000 -4.25000 1.70000 0.00000 0.00000 1.00000 0.58000 -0.85000 1 0 1.0
cl_denim
0 3.50000 4.25000 1.70000 0.00000 0.00000 1.00000 0.70000 0.85000 1 0 1.0
0 2.90000 -4.25000 1.70000 0.00000 0.00000 1.00000 0.58000 -0.85000 1 0 1.0
0 3.50000 -4.25000 1.70000 0.00000 0.00000 1.00000 0.70000 -0.85000 1 0 1.0
cl_denim
0 2.90000 4.55000 0.30000 0.00000 1.00000 0.00000 0.58000 0.06000 1 0 1.0
0 2.90000 4.55000 1.40000 0.00000 1.00000 0.00000 0.58000 0.28000 1 0 1.0
0 3.50000 4.55000 1.40000 0.00000 1.00000 0.00000 0.70000 0.28000 1 0 1.0
cl_denim
0 2.90000 4.55000 0.30000 0.00000 1.00000 0.00000 0.58000 0.06000 1 0 1.0
0 3.50000 4.55000 1.40000 0.00000 1.00000 0.00000 0.70000 0.28000 1 0 1.0
0 3.50000 4.55000 0.30000 0.00000 1.00000 0.00000 0.70000 0.06000 1 0 1.0
cl_denim
0 3.80000 4.25000 0.30000 1.00000 0.00000 0.00000 0.85000 0.06000 1 0 1.0
0 3.80000 4.25000 1.40000 1.00000 0.00000 0.00000 0.85000 0.28000 1 0 1.0
0 3.80000 -4.25000 1.40000 1.00000 0.00000 0.00000 -0.85000 0.28000 1 0 1.0
cl_denim
0 3.80000 4.25000 0.30000 1.00000 0.00000 0.00000 0.85000 0.06000 1 0 1.0
0 3.80000 -4.25000 1.40000 1.00000 0.00000 0.00000 -0.85000 0.28000 1 0 1.0
0 3.80000 -4.25000 0.30000 1.00000 0.00000 0.00000 -0.85000 0.06000 1 0 1.0
cl_metal
0 3.30000 0.30000 1.67500 0.25882 0.96593 0.00000 0.66000 0.33500 1 0 1.0
0 3.30000 0.30000 1.82500 0.25882 0.96593 0.00000 0.66000 0.36500 1 0 1.0
0 3.45000 0.25981 1.82500 0.25882 0.96593 0.00000 0.69000 0.36500 1 0 1.0
cl_metal
0 3.30000 0.30000 1.67500 0.25882 0.96593 0.00000 0.66000 0.33500 1 0 1.0
0 3.45000 0.25981 1.82500 0.25882 0.96593 0.00000 0.69000 0.36500 1 0 1.0
0 3.45000 0.25981 1.67500 0.25882 0.96593 0.00000 0.69000 0.33500 1 0 1.0
cl_metal
0 3.45000 0.25981 1.67500 0.70711 0.70711 0.00000 0.05196 0.33500 1 0 1.0
0 3.45000 0.25981 1.82500 0.70711 0.70711 0.00000 0.05196 0.36500 1 0 1.0
0 3.55981 0.15000 1.82500 0.70711 0.70711 0.00000 0.03000 0.36500 1 0 1.0
cl_metal
0 3.45000 0.25981 1.67500 0.70711 0.70711 0.00000 0.05196 0.33500 1 0 1.0
0 3.55981 0.15000 1.82500 0.70711 0.70711 0.00000 0.03000 0.36500 1 0 1.0
0 3.55981 0.15000 1.67500 0.70711 0.70711 0.00000 0.03000 0.33500 1 0 1.0
cl_metal
0 3.55981 0.15000 1.67500 0.96593 0.25882 0.00000 0.03000 0.33500 1 0 1.0
0 3.55981 0.15000 1.82500 0.96593 0.25882 0.00000 0.03000 0.36500 1 0 1.0
0 3.60000 0.00000 1.82500 0.96593 0.25882 0.00000 0.00000 0.36500 1 0 1.0
cl_metal
0 3.55981 0.15000 1.67500 0.96593 0.25882 0.00000 0.03000 0.33500 1 0 1.0
0 3.60000 0.00000 1.82500 0.96593 0.25882 0.00000 0.00000 0.36500 1 0 1.0
0 3.60000 0.00000 1.67500 0.96593 0.25882 0.00000 0.00000 0.33500 1 0 1.0
cl_metal
0 3.60000 0.00000 1.67500 0.96593 -0.25882 0.00000 0.00000 0.33500 1 0 1.0
0 3.60000 0.00000 1.82500 0.96593 -0.25882 0.00000 0.00000 0.36500 1 0 1.0
0 3.55981 -0.15000 1.82500 0.96593 -0.25882 0.00000 -0.03000 0.36500 1 0 1.0
cl_metal
0 3.60000 0.00000 1.67500 0.96593 -0.25882 0.00000 0.00000 0.33500 1 0 1.0
0 3.55981 -0.15000 1.82500 0.96593 -0.25882 0.00000 -0.03000 0.36500 1 0 1.0
0 3.55981 -0.15000 1.67500 0.96593 -0.25882 0.00000 -0.03000 0.33500 1 0 1.0
cl_metal
0 3.55981 -0.15000 1.67500 0.70711 -0.70711 0.00000 -0.03000 0.33500 1 0 1.0
0 3.55981 -0.15000 1.82500 0.70711 -0.70711 0.00000 -0.03000 0.36500 1 0 1.0
0 3.45000 -0.25981 1.82500 0.70711 -0.70711 0.00000 -0.05196 0.36500 1 0 1.0
cl_metal
0 3.55981 -0.15000 1.67500 0.70711 -0.70711 0.00000 -0.03000 0.33500 1 0 1.0
0 3.45000 -0.25981 1.82500 0.70711 -0.70711 0.00000 -0.05196 0.36500 1 0 1.0
0 3.45000 -0.25981 1.67500 0.70711 -0.70711 0.00000 -0.05196 0.33500 1 0 1.0
cl_metal
0 3.45000 -0.25981 1.67500 0.25882 -0.96593 0.00000 0.69000 0.33500 1 0 1.0
0 3.45000 -0.25981 1.82500 0.25882 -0.96593 0.00000 0.69000 0.36500 1 0 1.0
0 3.30000 -0.30000 1.82500 0.25882 -0.96593 0.00000 0.66000 0.36500 1 0 1.0
cl_metal
0 3.45000 -0.25981 1.67500 0.25882 -0.96593 0.00000 0.69000 0.33500 1 0 1.0
0 3.30000 -0.30000 1.82500 0.25882 -0.96593 0.00000 0.66000 0.36500 1 0 1.0
0 3.30000 -0.30000 1.67500 0.25882 -0.96593 0.00000 0.66000 0.33500 1 0 1.0
cl_metal
0 3.30000 -0.30000 1.67500 -0.25882 -0.96593 0.00000 0.66000 0.33500 1 0 1.0
0 3.30000 -0.30000 1.82500 -0.25882 -0.96593 0.00000 0.66000 0.36500 1 0 1.0
0 3.15000 -0.25981 1.82500 -0.25882 -0.96593 0.00000 0.63000 0.36500 1 0 1.0
cl_metal
0 3.30000 -0.30000 1.67500 -0.25882 -0.96593 0.00000 0.66000 0.33500 1 0 1.0
0 3.15000 -0.25981 1.82500 -0.25882 -0.96593 0.00000 0.63000 0.36500 1 0 1.0
0 3.15000 -0.25981 1.67500 -0.25882 -0.96593 0.00000 0.63000 0.33500 1 0 1.0
cl_metal
0 3.15000 -0.25981 1.67500 -0.70711 -0.70711 0.00000 -0.05196 0.33500 1 0 1.0
0 3.15000 -0.25981 1.82500 -0.70711 -0.70711 0.00000 -0.05196 0.36500 1 0 1.0
0 3.04019 -0.15000 1.82500 -0.70711 -0.70711 0.00000 -0.03000 0.36500 1 0 1.0
cl_metal
0 3.15000 -0.25981 1.67500 -0.70711 -0.70711 0.00000 -0.05196 0.33500 1 0 1.0
0 3.04019 -0.15000 1.82500 -0.70711 -0.70711 0.00000 -0.03000 0.36500 1 0 1.0
0 3.04019 -0.15000 1.67500 -0.70711 -0.70711 0.00000 -0.03000 0.33500 1 0 1.0
cl_metal
0 3.04019 -0.15000 1.67500 -0.96593 -0.25882 0.00000 -0.03000 0.33500 1 0 1.0
0 3.04019 -0.15000 1.82500 -0.96593 -0.25882 0.00000 -0.03000 0.36500 1 0 1.0
0 3.00000 0.00000 1.82500 -0.96593 -0.25882 0.00000 0.00000 0.36500 1 0 1.0
cl_metal
0 3.04019 -0.15000 1.67500 -0.96593 -0.25882 0.00000 -0.03000 0.33500 1 0 1.0
0 3.00000 0.00000 1.82500 -0.96593 -0.25882 0.00000 0.00000 0.36500 1 0 1.0
0 3.00000 0.00000 1.67500 -0.96593 -0.25882 0.00000 0.00000 0.33500 1 0 1.0
cl_metal
0 3.00000 0.00000 1.67500 -0.96593 0.25882 0.00000 0.00000 0.33500 1 0 1.0
0 3.00000 0.00000 1.82500 -0.96593 0.25882 0.00000 0.00000 0.36500 1 0 1.0
0 3.04019 0.15000 1.82500 -0.96593 0.25882 0.00000 0.03000 0.36500 1 0 1.0
cl_metal
0 3.00000 0.00000 1.67500 -0.96593 0.25882 0.00000 0.00000 0.33500 1 0 1.0
0 3.04019 0.15000 1.82500 -0.96593 0.25882 0.00000 0.03000 0.36500 1 0 1.0
0 3.04019 0.15000 1.67500 -0.96593 0.25882 0.00000 0.03000 0.33500 1 0 1.0
cl_metal
0 3.55981 0.15000 1.82500 0.00000 0.00000 1.00000 0.71196 0.03000 1 0 1.0
0 3.45000 0.25981 1.82500 0.00000 0.00000 1.00000 0.69000 0.05196 1 0 1.0
0 3.30000 0.30000 1.82500 0.00000 0.00000 1.00000 0.66000 0.06000 1 0 1.0
cl_metal
0 3.30000 0.30000 1.82500 0.00000 0.00000 1.00000 0.66000 0.06000 1 0 1.0
0 3.15000 0.25981 1.82500 0.00000 0.00000 1.00000 0.63000 0.05196 1 0 1.0
0 3.04019 0.15000 1.82500 0.00000 0.00000 1.00000 0.60804 0.03000 1 0 1.0
cl_metal
0 3.04019 0.15000 1.82500 0.00000 0.00000 1.00000 0.60804 0.03000 1 0 1.0
0 3.00000 0.00000 1.82500 0.00000 0.00000 1.00000 0.60000 0.00000 1 0 1.0
0 3.04019 -0.15000 1.82500 0.00000 0.00000 1.00000 0.60804 -0.03000 1 0 1.0
cl_metal
0 3.04019 -0.15000 1.82500 0.00000 0.00000 1.00000 0.60804 -0.03000 1 0 1.0
0 3.15000 -0.25981 1.82500 0.00000 0.00000 1.00000 0.63000 -0.05196 1 0 1.0
0 3.30000 -0.30000 1.82500 0.00000 0.00000 1.00000 0.66000 -0.06000 1 0 1.0
cl_metal
0 3.30000 -0.30000 1.82500 0.00000 0.00000 1.00000 0.66000 -0.06000 1 0 1.0
0 3.45000 -0.25981 1.82500 0.00000 0.00000 1.00000 0.69000 -0.05196 1 0 1.0
0 3.55981 -0.15000 1.82500 0.00000 0.00000 1.00000 0.71196 -0.03000 1 0 1.0
cl_metal
0 3.55981 -0.15000 1.82500 0.00000 0.00000 1.00000 0.71196 -0.03000 1 0 1.0
0 3.60000 0.00000 1.82500 0.00000 0.00000 1.00000 0.72000 0.00000 1 0 1.0
0 3.55981 0.15000 1.82500 0.00000 0.00000 1.00000 0.71196 0.03000 1 0 1.0
cl_metal
0 3.55981 0.15000 1.82500 0.00000 0.00000 1.00000 0.71196 0.03000 1 0 1.0
0 3.30000 0.30000 1.82500 0.00000 0.00000 1.00000 0.66000 0.06000 1 0 1.0
0 3.04019 0.15000 1.82500 0.00000 0.00000 1.00000 0.60804 0.03000 1 0 1.0
cl_metal
0 3.04019 0.15000 1.82500 0.00000 0.00000 1.00000 0.60804 0.03000 1 0 1.0
0 3.04019 -0.15000 1.82500 0.00000 0.00000 1.00000 0.60804 -0.03000 1 0 1.0
0 3.30000 -0.30000 1.82500 0.00000 0.00000 1.00000 0.66000 -0.06000 1 0 1.0
cl_metal
0 3.30000 -0.30000 1.82500 0.00000 0.00000 1.00000 0.66000 -0.06000 1 0 1.0
0 3.55981 -0.15000 1.82500 0.00000 0.00000 1.00000 0.71196 -0.03000 1 0 1.0
0 3.55981 0.15000 1.82500 0.00000 0.00000 1.00000 0.71196 0.03000 1 0 1.0
cl_metal
0 3.04019 0.15000 1.82500 0.00000 0.00000 1.00000 0.60804 0.03000 1 0 1.0
0 3.30000 -0.30000 1.82500 0.00000 0.00000 1.00000 0.66000 -0.06000 1 0 1.0
0 3.55981 0.15000 1.82500 0.00000 0.00000 1.00000 0.71196 0.03000 1 0 1.0
cl_metal
0 3.04019 0.15000 1.67500 -0.70711 0.70711 0.00000 0.03000 0.33500 1 0 1.0
0 3.04019 0.15000 1.82500 -0.70711 0.70711 0.00000 0.03000 0.36500 1 0 1.0
0 3.15000 0.25981 1.82500 -0.70711 0.70711 0.00000 0.05196 0.36500 1 0 1.0
cl_metal
0 3.04019 0.15000 1.67500 -0.70711 0.70711 0.00000 0.03000 0.33500 1 0 1.0
0 3.15000 0.25981 1.82500 -0.70711 0.70711 0.00000 0.05196 0.36500 1 0 1.0
0 3.15000 0.25981 1.67500 -0.70711 0.70711 0.00000 0.05196 0.33500 1 0 1.0
cl_metal
0 3.15000 0.25981 1.67500 -0.25882 0.96593 0.00000 0.63000 0.33500 1 0 1.0
0 3.15000 0.25981 1.82500 -0.25882 0.96593 0.00000 0.63000 0.36500 1 0 1.0
0 3.30000 0.30000 1.82500 -0.25882 0.96593 0.00000 0.66000 0.36500 1 0 1.0
cl_metal
0 3.15000 0.25981 1.67500 -0.25882 0.96593 0.00000 0.63000 0.33500 1 0 1.0
0 3.30000 0.30000 1.82500 -0.25882 0.96593 0.00000 0.66000 0.36500 1 0 1.0
0 3.30000 0.30000 1.67500 -0.25882 0.96593 0.00000 0.66000 0.33500 1 0 1.0
cl_metal
0 3.15000 0.25981 1.67500 0.00000 0.00000 -1.00000 0.63000 0.05196 1 0 1.0
0 3.30000 0.30000 1.67500 0.00000 0.00000 -1.00000 0.66000 0.06000 1 0 1.0
0 3.45000 0.25981 1.67500 0.00000 0.00000 -1.00000 0.69000 0.05196 1 0 1.0
cl_metal
0 3.45000 0.25981 1.67500 0.00000 0.00000 -1.00000 0.69000 0.05196 1 0 1.0
0 3.55981 0.15000 1.67500 0.00000 0.00000 -1.00000 0.71196 0.03000 1 0 1.0
0 3.60000 0.00000 1.67500 0.00000 0.00000 -1.00000 0.72000 0.00000 1 0 1.0
cl_metal
0 3.60000 0.00000 1.67500 0.00000 0.00000 -1.00000 0.72000 0.00000 1 0 1.0
0 3.55981 -0.15000 1.67500 0.00000 0.00000 -1.00000 0.71196 -0.03000 1 0 1.0
0 3.45000 -0.25981 1.67500 0.00000 0.00000 -1.00000 0.69000 -0.05196 1 0 1.0
cl_metal
0 3.45000 -0.25981 1.67500 0.00000 0.00000 -1.00000 0.69000 -0.05196 1 0 1.0
0 3.30000 -0.30000 1.67500 0.00000 0.00000 -1.00000 0.66000 -0.06000 1 0 1.0
0 3.15000 -0.25981 1.67500 0.00000 0.00000 -1.00000 0.63000 -0.05196 1 0 1.0
cl_metal
0 3.15000 -0.25981 1.67500 0.00000 0.00000 -1.00000 0.63000 -0.05196 1 0 1.0
0 3.04019 -0.15000 1.67500 0.00000 0.00000 -1.00000 0.60804 -0.03000 1 0 1.0
0 3.00000 0.00000 1.67500 0.00000 0.00000 -1.00000 0.60000 0.00000 1 0 1.0
cl_metal
0 3.00000 0.00000 1.67500 0.00000 0.00000 -1.00000 0.60000 0.00000 1 0 1.0
0 3.04019 0.15000 1.67500 0.00000 0.00000 -1.00000 0.60804 0.03000 1 0 1.0
0 3.15000 0.25981 1.67500 0.00000 0.00000 -1.00000 0.63000 0.05196 1 0 1.0
cl_metal
0 3.15000 0.25981 1.67500 0.00000 0.00000 -1.00000 0.63000 0.05196 1 0 1.0
0 3.45000 0.25981 1.67500 0.00000 0.00000 -1.00000 0.69000 0.05196 1 0 1.0
0 3.60000 0.00000 1.67500 0.00000 0.00000 -1.00000 0.72000 0.00000 1 0 1.0
cl_metal
0 3.60000 0.00000 1.67500 0.00000 0.00000 -1.00000 0.72000 0.00000 1 0 1.0
0 3.45000 -0.25981 1.67500 0.00000 0.00000 -1.00000 0.69000 -0.05196 1 0 1.0
0 3.15000 -0.25981 1.67500 0.00000 0.00000 -1.00000 0.63000 -0.05196 1 0 1.0
cl_metal
0 3.15000 -0.25981 1.67500 0.00000 0.00000 -1.00000 0.63000 -0.05196 1 0 1.0
0 3.00000 0.00000 1.67500 0.00000 0.00000 -1.00000 0.60000 0.00000 1 0 1.0
0 3.15000 0.25981 1.67500 0.00000 0.00000 -1.00000 0.63000 0.05196 1 0 1.0
cl_metal
0 3.60000 0.00000 1.67500 0.00000 0.00000 -1.00000 0.72000 0.00000 1 0 1.0
0 3.15000 -0.25981 1.67500 0.00000 0.00000 -1.00000 0.63000 -0.05196 1 0 1.0
0 3.15000 0.25981 1.67500 0.00000 0.00000 -1.00000 0.63000 0.05196 1 0 1.0
cl_accent
0 2.60597 -3.14030 1.62000 0.05585 0.60858 0.79153 0.52119 -0.62806 1 0 1.0
0 1.63487 -3.05118 1.62000 0.05585 0.60858 0.79153 0.32697 -0.61024 1 0 1.0
0 1.60000 -3.10000 1.66000 0.05585 0.60858 0.79153 0.32000 -0.62000 1 0 1.0
cl_accent
0 2.60597 -3.14030 1.62000 0.05519 0.55195 0.83205 0.52119 -0.62806 1 0 1.0
0 1.60000 -3.10000 1.66000 0.05519 0.55195 0.83205 0.32000 -0.62000 1 0 1.0
0 2.60000 -3.20000 1.66000 0.05519 0.55195 0.83205 0.52000 -0.64000 1 0 1.0
cl_accent
0 2.60000 -3.20000 1.66000 -0.06063 -0.60630 0.79292 0.52000 -0.64000 1 0 1.0
0 1.60000 -3.10000 1.66000 -0.06063 -0.60630 0.79292 0.32000 -0.62000 1 0 1.0
0 1.56513 -3.14882 1.62000 -0.06063 -0.60630 0.79292 0.31303 -0.62976 1 0 1.0
cl_accent
0 2.60000 -3.20000 1.66000 -0.05943 -0.55152 0.83204 0.52000 -0.64000 1 0 1.0
0 1.56513 -3.14882 1.62000 -0.05943 -0.55152 0.83204 0.31303 -0.62976 1 0 1.0
0 2.59403 -3.25970 1.62000 -0.05943 -0.55152 0.83204 0.51881 -0.65194 1 0 1.0
cl_accent
0 2.59403 -3.25970 1.62000 -0.06511 -0.60416 -0.79420 0.51881 -0.65194 1 0 1.0
0 1.56513 -3.14882 1.62000 -0.06511 -0.60416 -0.79420 0.31303 -0.62976 1 0 1.0
0 1.60000 -3.10000 1.58000 -0.06511 -0.60416 -0.79420 0.32000 -0.62000 1 0 1.0
cl_accent
0 2.59403 -3.25970 1.62000 -0.05519 -0.55195 -0.83205 0.51881 -0.65194 1 0 1.0
0 1.60000 -3.10000 1.58000 -0.05519 -0.55195 -0.83205 0.32000 -0.62000 1 0 1.0
0 2.60000 -3.20000 1.58000 -0.05519 -0.55195 -0.83205 0.52000 -0.64000 1 0 1.0
cl_accent
0 2.60000 -3.20000 1.58000 0.06063 0.60630 -0.79292 0.52000 -0.64000 1 0 1.0
0 1.60000 -3.10000 1.58000 0.06063 0.60630 -0.79292 0.32000 -0.62000 1 0 1.0
0 1.63487 -3.05118 1.62000 0.06063 0.60630 -0.79292 0.32697 -0.61024 1 0 1.0
cl_accent
0 2.60000 -3.20000 1.58000 0.05070 0.55239 -0.83204 0.52000 -0.64000 1 0 1.0
0 1.63487 -3.05118 1.62000 0.05070 0.55239 -0.83204 0.32697 -0.61024 1 0 1.0
0 2.60597 -3.14030 1.62000 0.05070 0.55239 -0.83204 0.52119 -0.62806 1 0 1.0
cl_accent
0 1.63487 -3.05118 1.62000 0.53885 0.23732 0.80828 0.32697 -0.61024 1 0 1.0
0 1.26000 -2.20000 1.62000 0.53885 0.23732 0.80828 0.25200 -0.44000 1 0 1.0
0 1.20000 -2.20000 1.66000 0.53885 0.23732 0.80828 0.24000 -0.44000 1 0 1.0
cl_accent
0 1.63487 -3.05118 1.62000 0.55920 0.24853 0.79090 0.32697 -0.61024 1 0 1.0
0 1.20000 -2.20000 1.66000 0.55920 0.24853 0.79090 0.24000 -0.44000 1 0 1.0
0 1.60000 -3.10000 1.66000 0.55920 0.24853 0.79090 0.32000 -0.62000 1 0 1.0
cl_accent
0 1.60000 -3.10000 1.66000 -0.53857 -0.23937 0.80786 0.32000 -0.62000 1 0 1.0
0 1.20000 -2.20000 1.66000 -0.53857 -0.23937 0.80786 0.24000 -0.44000 1 0 1.0
0 1.14000 -2.20000 1.62000 -0.53857 -0.23937 0.80786 0.22800 -0.44000 1 0 1.0
cl_accent
0 1.60000 -3.10000 1.66000 -0.55783 -0.24994 0.79143 0.32000 -0.62000 1 0 1.0
0 1.14000 -2.20000 1.62000 -0.55783 -0.24994 0.79143 0.22800 -0.44000 1 0 1.0
0 1.56513 -3.14882 1.62000 -0.55783 -0.24994 0.79143 0.31303 -0.62976 1 0 1.0
cl_accent
0 1.56513 -3.14882 1.62000 -0.53832 -0.24120 -0.80748 0.31303 -0.62976 1 0 1.0
0 1.14000 -2.20000 1.62000 -0.53832 -0.24120 -0.80748 0.22800 -0.44000 1 0 1.0
0 1.20000 -2.20000 1.58000 -0.53832 -0.24120 -0.80748 0.24000 -0.44000 1 0 1.0
cl_accent
0 1.56513 -3.14882 1.62000 -0.55920 -0.24853 -0.79090 0.31303 -0.62976 1 0 1.0
0 1.20000 -2.20000 1.58000 -0.55920 -0.24853 -0.79090 0.24000 -0.44000 1 0 1.0
0 1.60000 -3.10000 1.58000 -0.55920 -0.24853 -0.79090 0.32000 -0.62000 1 0 1.0
cl_accent
0 1.60000 -3.10000 1.58000 0.53857 0.23937 -0.80786 0.32000 -0.62000 1 0 1.0
0 1.20000 -2.20000 1.58000 0.53857 0.23937 -0.80786 0.24000 -0.44000 1 0 1.0
0 1.26000 -2.20000 1.62000 0.53857 0.23937 -0.80786 0.25200 -0.44000 1 0 1.0
cl_accent
0 1.60000 -3.10000 1.58000 0.56073 0.24696 -0.79031 0.32000 -0.62000 1 0 1.0
0 1.26000 -2.20000 1.62000 0.56073 0.24696 -0.79031 0.25200 -0.44000 1 0 1.0
0 1.63487 -3.05118 1.62000 0.56073 0.24696 -0.79031 0.32697 -0.61024 1 0 1.0
cl_accent
0 1.26000 -2.20000 1.62000 0.56073 -0.24696 0.79031 0.25200 -0.44000 1 0 1.0
0 1.63487 -1.34882 1.62000 0.56073 -0.24696 0.79031 0.32697 -0.26976 1 0 1.0
0 1.60000 -1.30000 1.66000 0.56073 -0.24696 0.79031 0.32000 -0.26000 1 0 1.0
cl_accent
0 1.26000 -2.20000 1.62000 0.53857 -0.23937 0.80786 0.25200 -0.44000 1 0 1.0
0 1.60000 -1.30000 1.66000 0.53857 -0.23937 0.80786 0.32000 -0.26000 1 0 1.0
0 1.20000 -2.20000 1.66000 0.53857 -0.23937 0.80786 0.24000 -0.44000 1 0 1.0
cl_accent
0 1.20000 -2.20000 1.66000 -0.55920 0.24853 0.79090 0.24000 -0.44000 1 0 1.0
0 1.60000 -1.30000 1.66000 -0.55920 0.24853 0.79090 0.32000 -0.26000 1 0 1.0
0 1.56513 -1.25118 1.62000 -0.55920 0.24853 0.79090 0.31303 -0.25024 1 0 1.0
cl_accent
0 1.20000 -2.20000 1.66000 -0.53832 0.24120 0.80748 0.24000 -0.44000 1 0 1.0
0 1.56513 -1.25118 1.62000 -0.53832 0.24120 0.80748 0.31303 -0.25024 1 0 1.0
0 1.14000 -2.20000 1.62000 -0.53832 0.24120 0.80748 0.22800 -0.44000 1 0 1.0
cl_accent
0 1.14000 -2.20000 1.62000 -0.55783 0.24994 -0.79143 0.22800 -0.44000 1 0 1.0
0 1.56513 -1.25118 1.62000 -0.55783 0.24994 -0.79143 0.31303 -0.25024 1 0 1.0
0 1.60000 -1.30000 1.58000 -0.55783 0.24994 -0.79143 0.32000 -0.26000 1 0 1.0
cl_accent
0 1.14000 -2.20000 1.62000 -0.53857 0.23937 -0.80786 0.22800 -0.44000 1 0 1.0
0 1.60000 -1.30000 1.58000 -0.53857 0.23937 -0.80786 0.32000 -0.26000 1 0 1.0
0 1.20000 -2.20000 1.58000 -0.53857 0.23937 -0.80786 0.24000 -0.44000 1 0 1.0
cl_accent
0 1.20000 -2.20000 1.58000 0.55920 -0.24853 -0.79090 0.24000 -0.44000 1 0 1.0
0 1.60000 -1.30000 1.58000 0.55920 -0.24853 -0.79090 0.32000 -0.26000 1 0 1.0
0 1.63487 -1.34882 1.62000 0.55920 -0.24853 -0.79090 0.32697 -0.26976 1 0 1.0
cl_accent
0 1.20000 -2.20000 1.58000 0.53885 -0.23732 -0.80828 0.24000 -0.44000 1 0 1.0
0 1.63487 -1.34882 1.62000 0.53885 -0.23732 -0.80828 0.32697 -0.26976 1 0 1.0
0 1.26000 -2.20000 1.62000 0.53885 -0.23732 -0.80828 0.25200 -0.44000 1 0 1.0
cl_accent
0 1.63487 -1.34882 1.62000 0.05070 -0.55239 0.83204 0.32697 -0.26976 1 0 1.0
0 2.60597 -1.25970 1.62000 0.05070 -0.55239 0.83204 0.52119 -0.25194 1 0 1.0
0 2.60000 -1.20000 1.66000 0.05070 -0.55239 0.83204 0.52000 -0.24000 1 0 1.0
cl_accent
0 1.63487 -1.34882 1.62000 0.06063 -0.60631 0.79292 0.32697 -0.26976 1 0 1.0
0 2.60000 -1.20000 1.66000 0.06063 -0.60631 0.79292 0.52000 -0.24000 1 0 1.0
0 1.60000 -1.30000 1.66000 0.06063 -0.60631 0.79292 0.32000 -0.26000 1 0 1.0
cl_accent
0 1.60000 -1.30000 1.66000 -0.05519 0.55195 0.83205 0.32000 -0.26000 1 0 1.0
0 2.60000 -1.20000 1.66000 -0.05519 0.55195 0.83205 0.52000 -0.24000 1 0 1.0
0 2.59403 -1.14030 1.62000 -0.05519 0.55195 0.83205 0.51881 -0.22806 1 0 1.0
cl_accent
0 1.60000 -1.30000 1.66000 -0.06511 0.60416 0.79420 0.32000 -0.26000 1 0 1.0
0 2.59403 -1.14030 1.62000 -0.06511 0.60416 0.79420 0.51881 -0.22806 1 0 1.0
0 1.56513 -1.25118 1.62000 -0.06511 0.60416 0.79420 0.31303 -0.25024 1 0 1.0
cl_accent
0 1.56513 -1.25118 1.62000 -0.05943 0.55152 -0.83204 0.31303 -0.25024 1 0 1.0
0 2.59403 -1.14030 1.62000 -0.05943 0.55152 -0.83204 0.51881 -0.22806 1 0 1.0
0 2.60000 -1.20000 1.58000 -0.05943 0.55152 -0.83204 0.52000 -0.24000 1 0 1.0
cl_accent
0 1.56513 -1.25118 1.62000 -0.06063 0.60631 -0.79292 0.31303 -0.25024 1 0 1.0
0 2.60000 -1.20000 1.58000 -0.06063 0.60631 -0.79292 0.52000 -0.24000 1 0 1.0
0 1.60000 -1.30000 1.58000 -0.06063 0.60631 -0.79292 0.32000 -0.26000 1 0 1.0
cl_accent
0 1.60000 -1.30000 1.58000 0.05519 -0.55195 -0.83205 0.32000 -0.26000 1 0 1.0
0 2.60000 -1.20000 1.58000 0.05519 -0.55195 -0.83205 0.52000 -0.24000 1 0 1.0
0 2.60597 -1.25970 1.62000 0.05519 -0.55195 -0.83205 0.52119 -0.25194 1 0 1.0
cl_accent
0 1.60000 -1.30000 1.58000 0.05585 -0.60858 -0.79153 0.32000 -0.26000 1 0 1.0
0 2.60597 -1.25970 1.62000 0.05585 -0.60858 -0.79153 0.52119 -0.25194 1 0 1.0
0 1.63487 -1.34882 1.62000 0.05585 -0.60858 -0.79153 0.32697 -0.26976 1 0 1.0
cl_accent
0 2.60000 -3.20000 1.58000 0.99504 -0.09950 0.00000 -0.64000 0.31600 1 0 1.0
0 2.60597 -3.14030 1.62000 0.99504 -0.09950 0.00000 -0.62806 0.32400 1 0 1.0
0 2.60000 -3.20000 1.66000 0.99504 -0.09950 0.00000 -0.64000 0.33200 1 0 1.0
cl_accent
0 2.60000 -3.20000 1.58000 0.99504 -0.09950 0.00000 -0.64000 0.31600 1 0 1.0
0 2.60000 -3.20000 1.66000 0.99504 -0.09950 0.00000 -0.64000 0.33200 1 0 1.0
0 2.59403 -3.25970 1.62000 0.99504 -0.09950 0.00000 -0.65194 0.32400 1 0 1.0
cl_accent
0 2.60597 -1.25970 1.62000 0.99504 0.09950 0.00000 -0.25194 0.32400 1 0 1.0
0 2.60000 -1.20000 1.58000 0.99504 0.09950 0.00000 -0.24000 0.31600 1 0 1.0
0 2.59403 -1.14030 1.62000 0.99504 0.09950 0.00000 -0.22806 0.32400 1 0 1.0
cl_accent
0 2.60597 -1.25970 1.62000 0.99504 0.09950 0.00000 -0.25194 0.32400 1 0 1.0
0 2.59403 -1.14030 1.62000 0.99504 0.09950 0.00000 -0.22806 0.32400 1 0 1.0
0 2.60000 -1.20000 1.66000 0.99504 0.09950 0.00000 -0.24000 0.33200 1 0 1.0
cl_accent
0 2.60597 1.25970 1.62000 0.05585 0.60858 0.79153 0.52119 0.25194 1 0 1.0
0 1.63487 1.34882 1.62000 0.05585 0.60858 0.79153 0.32697 0.26976 1 0 1.0
0 1.60000 1.30000 1.66000 0.05585 0.60858 0.79153 0.32000 0.26000 1 0 1.0
cl_accent
0 2.60597 1.25970 1.62000 0.05519 0.55195 0.83205 0.52119 0.25194 1 0 1.0
0 1.60000 1.30000 1.66000 0.05519 0.55195 0.83205 0.32000 0.26000 1 0 1.0
0 2.60000 1.20000 1.66000 0.05519 0.55195 0.83205 0.52000 0.24000 1 0 1.0
cl_accent
0 2.60000 1.20000 1.66000 -0.06063 -0.60631 0.79292 0.52000 0.24000 1 0 1.0
0 1.60000 1.30000 1.66000 -0.06063 -0.60631 0.79292 0.32000 0.26000 1 0 1.0
0 1.56513 1.25118 1.62000 -0.06063 -0.60631 0.79292 0.31303 0.25024 1 0 1.0
cl_accent
0 2.60000 1.20000 1.66000 -0.05943 -0.55152 0.83204 0.52000 0.24000 1 0 1.0
0 1.56513 1.25118 1.62000 -0.05943 -0.55152 0.83204 0.31303 0.25024 1 0 1.0
0 2.59403 1.14030 1.62000 -0.05943 -0.55152 0.83204 0.51881 0.22806 1 0 1.0
cl_accent
0 2.59403 1.14030 1.62000 -0.06511 -0.60416 -0.79420 0.51881 0.22806 1 0 1.0
0 1.56513 1.25118 1.62000 -0.06511 -0.60416 -0.79420 0.31303 0.25024 1 0 1.0
0 1.60000 1.30000 1.58000 -0.06511 -0.60416 -0.79420 0.32000 0.26000 1 0 1.0
cl_accent
0 2.59403 1.14030 1.62000 -0.05519 -0.55195 -0.83205 0.51881 0.22806 1 0 1.0
0 1.60000 1.30000 1.58000 -0.05519 -0.55195 -0.83205 0.32000 0.26000 1 0 1.0
0 2.60000 1.20000 1.58000 -0.05519 -0.55195 -0.83205 0.52000 0.24000 1 0 1.0
cl_accent
0 2.60000 1.20000 1.58000 0.06063 0.60631 -0.79292 0.52000 0.24000 1 0 1.0
0 1.60000 1.30000 1.58000 0.06063 0.60631 -0.79292 0.32000 0.26000 1 0 1.0
0 1.63487 1.34882 1.62000 0.06063 0.60631 -0.79292 0.32697 0.26976 1 0 1.0
cl_accent
0 2.60000 1.20000 1.58000 0.05070 0.55239 -0.83204 0.52000 0.24000 1 0 1.0
0 1.63487 1.34882 1.62000 0.05070 0.55239 -0.83204 0.32697 0.26976 1 0 1.0
0 2.60597 1.25970 1.62000 0.05070 0.55239 -0.83204 0.52119 0.25194 1 0 1.0
cl_accent
0 1.63487 1.34882 1.62000 0.53885 0.23732 0.80828 0.32697 0.26976 1 0 1.0
0 1.26000 2.20000 1.62000 0.53885 0.23732 0.80828 0.25200 0.44000 1 0 1.0
0 1.20000 2.20000 1.66000 0.53885 0.23732 0.80828 0.24000 0.44000 1 0 1.0
cl_accent
0 1.63487 1.34882 1.62000 0.55920 0.24853 0.79090 0.32697 0.26976 1 0 1.0
0 1.20000 2.20000 1.66000 0.55920 0.24853 0.79090 0.24000 0.44000 1 0 1.0
0 1.60000 1.30000 1.66000 0.55920 0.24853 0.79090 0.32000 0.26000 1 0 1.0
cl_accent
0 1.60000 1.30000 1.66000 -0.53857 -0.23937 0.80786 0.32000 0.26000 1 0 1.0
0 1.20000 2.20000 1.66000 -0.53857 -0.23937 0.80786 0.24000 0.44000 1 0 1.0
0 1.14000 2.20000 1.62000 -0.53857 -0.23937 0.80786 0.22800 0.44000 1 0 1.0
cl_accent
0 1.60000 1.30000 1.66000 -0.55783 -0.24994 0.79143 0.32000 0.26000 1 0 1.0
0 1.14000 2.20000 1.62000 -0.55783 -0.24994 0.79143 0.22800 0.44000 1 0 1.0
0 1.56513 1.25118 1.62000 -0.55783 -0.24994 0.79143 0.31303 0.25024 1 0 1.0
cl_accent
0 1.56513 1.25118 1.62000 -0.53832 -0.24120 -0.80748 0.31303 0.25024 1 0 1.0
0 1.14000 2.20000 1.62000 -0.53832 -0.24120 -0.80748 0.22800 0.44000 1 0 1.0
0 1.20000 2.20000 1.58000 -0.53832 -0.24120 -0.80748 0.24000 0.44000 1 0 1.0
cl_accent
0 1.56513 1.25118 1.62000 -0.55920 -0.24853 -0.79090 0.31303 0.25024 1 0 1.0
0 1.20000 2.20000 1.58000 -0.55920 -0.24853 -0.79090 0.24000 0.44000 1 0 1.0
0 1.60000 1.30000 1.58000 -0.55920 -0.24853 -0.79090 0.32000 0.26000 1 0 1.0
cl_accent
0 1.60000 1.30000 1.58000 0.53857 0.23937 -0.80786 0.32000 0.26000 1 0 1.0
0 1.20000 2.20000 1.58000 0.53857 0.23937 -0.80786 0.24000 0.44000 1 0 1.0
0 1.26000 2.20000 1.62000 0.53857 0.23937 -0.80786 0.25200 0.44000 1 0 1.0
cl_accent
0 1.60000 1.30000 1.58000 0.56073 0.24696 -0.79031 0.32000 0.26000 1 0 1.0
0 1.26000 2.20000 1.62000 0.56073 0.24696 -0.79031 0.25200 0.44000 1 0 1.0
0 1.63487 1.34882 1.62000 0.56073 0.24696 -0.79031 0.32697 0.26976 1 0 1.0
cl_accent
0 1.26000 2.20000 1.62000 0.56073 -0.24696 0.79031 0.25200 0.44000 1 0 1.0
0 1.63487 3.05118 1.62000 0.56073 -0.24696 0.79031 0.32697 0.61024 1 0 1.0
0 1.60000 3.10000 1.66000 0.56073 -0.24696 0.79031 0.32000 0.62000 1 0 1.0
cl_accent
0 1.26000 2.20000 1.62000 0.53857 -0.23937 0.80786 0.25200 0.44000 1 0 1.0
0 1.60000 3.10000 1.66000 0.53857 -0.23937 0.80786 0.32000 0.62000 1 0 1.0
0 1.20000 2.20000 1.66000 0.53857 -0.23937 0.80786 0.24000 0.44000 1 0 1.0
cl_accent
0 1.20000 2.20000 1.66000 -0.55920 0.24853 0.79090 0.24000 0.44000 1 0 1.0
0 1.60000 3.10000 1.66000 -0.55920 0.24853 0.79090 0.32000 0.62000 1 0 1.0
0 1.56513 3.14882 1.62000 -0.55920 0.24853 0.79090 0.31303 0.62976 1 0 1.0
cl_accent
0 1.20000 2.20000 1.66000 -0.53832 0.24120 0.80748 0.24000 0.44000 1 0 1.0
0 1.56513 3.14882 1.62000 -0.53832 0.24120 0.80748 0.31303 0.62976 1 0 1.0
0 1.14000 2.20000 1.62000 -0.53832 0.24120 0.80748 0.22800 0.44000 1 0 1.0
cl_accent
0 1.14000 2.20000 1.62000 -0.55783 0.24994 -0.79143 0.22800 0.44000 1 0 1.0
0 1.56513 3.14882 1.62000 -0.55783 0.24994 -0.79143 0.31303 0.62976 1 0 1.0
0 1.60000 3.10000 1.58000 -0.55783 0.24994 -0.79143 0.32000 0.62000 1 0 1.0
cl_accent
0 1.14000 2.20000 1.62000 -0.53857 0.23937 -0.80786 0.22800 0.44000 1 0 1.0
0 1.60000 3.10000 1.58000 -0.53857 0.23937 -0.80786 0.32000 0.62000 1 0 1.0
0 1.20000 2.20000 1.58000 -0.53857 0.23937 -0.80786 0.24000 0.44000 1 0 1.0
cl_accent
0 1.20000 2.20000 1.58000 0.55920 -0.24853 -0.79090 0.24000 0.44000 1 0 1.0
0 1.60000 3.10000 1.58000 0.55920 -0.24853 -0.79090 0.32000 0.62000 1 0 1.0
0 1.63487 3.05118 1.62000 0.55920 -0.24853 -0.79090 0.32697 0.61024 1 0 1.0
cl_accent
0 1.20000 2.20000 1.58000 0.53885 -0.23732 -0.80828 0.24000 0.44000 1 0 1.0
0 1.63487 3.05118 1.62000 0.53885 -0.23732 -0.80828 0.32697 0.61024 1 0 1.0
0 1.26000 2.20000 1.62000 0.53885 -0.23732 -0.80828 0.25200 0.44000 1 0 1.0
cl_accent
0 1.63487 3.05118 1.62000 0.05070 -0.55239 0.83204 0.32697 0.61024 1 0 1.0
0 2.60597 3.14030 1.62000 0.05070 -0.55239 0.83204 0.52119 0.62806 1 0 1.0
0 2.60000 3.20000 1.66000 0.05070 -0.55239 0.83204 0.52000 0.64000 1 0 1.0
cl_accent
0 1.63487 3.05118 1.62000 0.06063 -0.60630 0.79292 0.32697 0.61024 1 0 1.0
0 2.60000 3.20000 1.66000 0.06063 -0.60630 0.79292 0.52000 0.64000 1 0 1.0
0 1.60000 3.10000 1.66000 0.06063 -0.60630 0.79292 0.32000 0.62000 1 0 1.0
cl_accent
0 1.60000 3.10000 1.66000 -0.05519 0.55195 0.83205 0.32000 0.62000 1 0 1.0
0 2.60000 3.20000 1.66000 -0.05519 0.55195 0.83205 0.52000 0.64000 1 0 1.0
0 2.59403 3.25970 1.62000 -0.05519 0.55195 0.83205 0.51881 0.65194 1 0 1.0
cl_accent
0 1.60000 3.10000 1.66000 -0.06511 0.60416 0.79420 0.32000 0.62000 1 0 1.0
0 2.59403 3.25970 1.62000 -0.06511 0.60416 0.79420 0.51881 0.65194 1 0 1.0
0 1.56513 3.14882 1.62000 -0.06511 0.60416 0.79420 0.31303 0.62976 1 0 1.0
cl_accent
0 1.56513 3.14882 1.62000 -0.05943 0.55152 -0.83204 0.31303 0.62976 1 0 1.0
0 2.59403 3.25970 1.62000 -0.05943 0.55152 -0.83204 0.51881 0.65194 1 0 1.0
0 2.60000 3.20000 1.58000 -0.05943 0.55152 -0.83204 0.52000 0.64000 1 0 1.0
cl_accent
0 1.56513 3.14882 1.62000 -0.06063 0.60630 -0.79292 0.31303 0.62976 1 0 1.0
0 2.60000 3.20000 1.58000 -0.06063 0.60630 -0.79292 0.52000 0.64000 1 0 1.0
0 1.60000 3.10000 1.58000 -0.06063 0.60630 -0.79292 0.32000 0.62000 1 0 1.0
cl_accent
0 1.60000 3.10000 1.58000 0.05519 -0.55195 -0.83205 0.32000 0.62000 1 0 1.0
0 2.60000 3.20000 1.58000 0.05519 -0.55195 -0.83205 0.52000 0.64000 1 0 1.0
0 2.60597 3.14030 1.62000 0.05519 -0.55195 -0.83205 0.52119 0.62806 1 0 1.0
cl_accent
0 1.60000 3.10000 1.58000 0.05585 -0.60858 -0.79153 0.32000 0.62000 1 0 1.0
0 2.60597 3.14030 1.62000 0.05585 -0.60858 -0.79153 0.52119 0.62806 1 0 1.0
0 1.63487 3.05118 1.62000 0.05585 -0.60858 -0.79153 0.32697 0.61024 1 0 1.0
cl_accent
0 2.60000 1.20000 1.58000 0.99504 -0.09950 0.00000 0.24000 0.31600 1 0 1.0
0 2.60597 1.25970 1.62000 0.99504 -0.09950 0.00000 0.25194 0.32400 1 0 1.0
0 2.60000 1.20000 1.66000 0.99504 -0.09950 0.00000 0.24000 0.33200 1 0 1.0
cl_accent
0 2.60000 1.20000 1.58000 0.99504 -0.09950 0.00000 0.24000 0.31600 1 0 1.0
0 2.60000 1.20000 1.66000 0.99504 -0.09950 0.00000 0.24000 0.33200 1 0 1.0
0 2.59403 1.14030 1.62000 0.99504 -0.09950 0.00000 0.22806 0.32400 1 0 1.0
cl_accent
0 2.60597 3.14030 1.62000 0.99504 0.09950 0.00000 0.62806 0.32400 1 0 1.0
0 2.60000 3.20000 1.58000 0.99504 0.09950 0.00000 0.64000 0.31600 1 0 1.0
0 2.59403 3.25970 1.62000 0.99504 0.09950 0.00000 0.65194 0.32400 1 0 1.0
cl_accent
0 2.60597 3.14030 1.62000 0.99504 0.09950 0.00000 0.62806 0.32400 1 0 1.0
0 2.59403 3.25970 1.62000 0.99504 0.09950 0.00000 0.65194 0.32400 1 0 1.0
0 2.60000 3.20000 1.66000 0.99504 0.09950 0.00000 0.64000 0.33200 1 0 1.0
end
