version 1
nodes
0 "root" -1
end
skeleton
time 0
0 0 0 0 0 0 0
end
triangles
phys
0 -4.6191 -5.7000 -7.5000 0 0 1 0 0 1 0 1.0
0 -4.6191 -5.7000 7.5000 0 0 1 0 0 1 0 1.0
0 -4.6191 5.7000 7.5000 0 0 1 0 0 1 0 1.0
phys
0 -4.6191 -5.7000 -7.5000 0 0 1 0 0 1 0 1.0
0 -4.6191 5.7000 7.5000 0 0 1 0 0 1 0 1.0
0 -4.6191 5.7000 -7.5000 0 0 1 0 0 1 0 1.0
phys
0 5.8000 -5.7000 -7.5000 0 0 1 0 0 1 0 1.0
0 5.8000 5.7000 -7.5000 0 0 1 0 0 1 0 1.0
0 5.8000 5.7000 7.5000 0 0 1 0 0 1 0 1.0
phys
0 5.8000 -5.7000 -7.5000 0 0 1 0 0 1 0 1.0
0 5.8000 5.7000 7.5000 0 0 1 0 0 1 0 1.0
0 5.8000 -5.7000 7.5000 0 0 1 0 0 1 0 1.0
phys
0 -4.6191 -5.7000 -7.5000 0 0 1 0 0 1 0 1.0
0 5.8000 -5.7000 -7.5000 0 0 1 0 0 1 0 1.0
0 5.8000 -5.7000 7.5000 0 0 1 0 0 1 0 1.0
phys
0 -4.6191 -5.7000 -7.5000 0 0 1 0 0 1 0 1.0
0 5.8000 -5.7000 7.5000 0 0 1 0 0 1 0 1.0
0 -4.6191 -5.7000 7.5000 0 0 1 0 0 1 0 1.0
phys
0 -4.6191 5.7000 -7.5000 0 0 1 0 0 1 0 1.0
0 -4.6191 5.7000 7.5000 0 0 1 0 0 1 0 1.0
0 5.8000 5.7000 7.5000 0 0 1 0 0 1 0 1.0
phys
0 -4.6191 5.7000 -7.5000 0 0 1 0 0 1 0 1.0
0 5.8000 5.7000 7.5000 0 0 1 0 0 1 0 1.0
0 5.8000 5.7000 -7.5000 0 0 1 0 0 1 0 1.0
phys
0 -4.6191 -5.7000 -7.5000 0 0 1 0 0 1 0 1.0
0 -4.6191 5.7000 -7.5000 0 0 1 0 0 1 0 1.0
0 5.8000 5.7000 -7.5000 0 0 1 0 0 1 0 1.0
phys
0 -4.6191 -5.7000 -7.5000 0 0 1 0 0 1 0 1.0
0 5.8000 5.7000 -7.5000 0 0 1 0 0 1 0 1.0
0 5.8000 -5.7000 -7.5000 0 0 1 0 0 1 0 1.0
phys
0 -4.6191 -5.7000 7.5000 0 0 1 0 0 1 0 1.0
0 5.8000 -5.7000 7.5000 0 0 1 0 0 1 0 1.0
0 5.8000 5.7000 7.5000 0 0 1 0 0 1 0 1.0
phys
0 -4.6191 -5.7000 7.5000 0 0 1 0 0 1 0 1.0
0 5.8000 5.7000 7.5000 0 0 1 0 0 1 0 1.0
0 -4.6191 5.7000 7.5000 0 0 1 0 0 1 0 1.0
end
