version 1
nodes
0 "root" -1
1 "backpack_flap" 0
end
skeleton
time 0
0 0 0 0 0 0 0
1 -3.550000 0.000000 10.500000 -0.000000 -2.059489 -0.000000
time 1
0 0 0 0 0 0 0
1 -3.550000 0.000000 10.500000 -0.000000 -2.044807 -0.000000
time 2
0 0 0 0 0 0 0
1 -3.550000 0.000000 10.500000 -0.000000 -2.002795 -0.000000
time 3
0 0 0 0 0 0 0
1 -3.550000 0.000000 10.500000 -0.000000 -1.936507 -0.000000
time 4
0 0 0 0 0 0 0
1 -3.550000 0.000000 10.500000 -0.000000 -1.848995 -0.000000
time 5
0 0 0 0 0 0 0
1 -3.550000 0.000000 10.500000 -0.000000 -1.743312 -0.000000
time 6
0 0 0 0 0 0 0
1 -3.550000 0.000000 10.500000 -0.000000 -1.622510 -0.000000
time 7
0 0 0 0 0 0 0
1 -3.550000 0.000000 10.500000 0.000000 -1.489641 0.000000
time 8
0 0 0 0 0 0 0
1 -3.550000 0.000000 10.500000 0.000000 -1.347758 0.000000
time 9
0 0 0 0 0 0 0
1 -3.550000 0.000000 10.500000 0.000000 -1.199914 0.000000
time 10
0 0 0 0 0 0 0
1 -3.550000 0.000000 10.500000 0.000000 -1.049161 0.000000
time 11
0 0 0 0 0 0 0
1 -3.550000 0.000000 10.500000 0.000000 -0.898551 0.000000
time 12
0 0 0 0 0 0 0
1 -3.550000 0.000000 10.500000 0.000000 -0.751138 0.000000
time 13
0 0 0 0 0 0 0
1 -3.550000 0.000000 10.500000 0.000000 -0.609973 0.000000
time 14
0 0 0 0 0 0 0
1 -3.550000 0.000000 10.500000 0.000000 -0.478110 0.000000
time 15
0 0 0 0 0 0 0
1 -3.550000 0.000000 10.500000 0.000000 -0.358601 0.000000
time 16
0 0 0 0 0 0 0
1 -3.550000 0.000000 10.500000 0.000000 -0.254497 0.000000
time 17
0 0 0 0 0 0 0
1 -3.550000 0.000000 10.500000 0.000000 -0.168853 0.000000
time 18
0 0 0 0 0 0 0
1 -3.550000 0.000000 10.500000 0.000000 -0.104720 0.000000
time 19
0 0 0 0 0 0 0
1 -3.550000 0.000000 10.500000 0.000000 -0.060602 0.000000
time 20
0 0 0 0 0 0 0
1 -3.550000 0.000000 10.500000 0.000000 -0.031028 0.000000
time 21
0 0 0 0 0 0 0
1 -3.550000 0.000000 10.500000 0.000000 -0.013090 0.000000
time 22
0 0 0 0 0 0 0
1 -3.550000 0.000000 10.500000 0.000000 -0.003879 0.000000
time 23
0 0 0 0 0 0 0
1 -3.550000 0.000000 10.500000 0.000000 -0.000485 0.000000
time 24
0 0 0 0 0 0 0
1 -3.550000 0.000000 10.500000 0.000000 -0.000000 0.000000
end
