version 1
nodes
0 "root" -1
end
skeleton
time 0
0 0 0 0 0 0 0
end
triangles
bag_fabric
0 4.41421 5.91421 0.30000 0.55557 0.83147 0.00000 0.22971 0.18000 1 0 1.0
0 4.41421 5.91421 0.00000 0.55557 0.83147 0.00000 0.22971 0.14400 1 0 1.0
0 3.76537 6.34776 0.00000 0.55557 0.83147 0.00000 0.15184 0.14400 1 0 1.0
bag_fabric
0 4.41421 5.91421 0.30000 0.55557 0.83147 0.00000 0.22971 0.18000 1 0 1.0
0 3.76537 6.34776 0.00000 0.55557 0.83147 0.00000 0.15184 0.14400 1 0 1.0
0 3.76537 6.34776 0.30000 0.55557 0.83147 0.00000 0.15184 0.18000 1 0 1.0
bag_fabric
0 3.00000 -6.50000 0.30000 0.19509 -0.98079 0.00000 0.06000 0.18000 1 0 1.0
0 3.00000 -6.50000 0.00000 0.19509 -0.98079 0.00000 0.06000 0.14400 1 0 1.0
0 3.76537 -6.34776 0.00000 0.19509 -0.98079 0.00000 0.15184 0.14400 1 0 1.0
bag_fabric
0 3.00000 -6.50000 0.30000 0.19509 -0.98079 0.00000 0.06000 0.18000 1 0 1.0
0 3.76537 -6.34776 0.00000 0.19509 -0.98079 0.00000 0.15184 0.14400 1 0 1.0
0 3.76537 -6.34776 0.30000 0.19509 -0.98079 0.00000 0.15184 0.18000 1 0 1.0
bag_fabric
0 3.76537 -6.34776 0.30000 0.55557 -0.83147 0.00000 0.15184 0.18000 1 0 1.0
0 3.76537 -6.34776 0.00000 0.55557 -0.83147 0.00000 0.15184 0.14400 1 0 1.0
0 4.41421 -5.91421 0.00000 0.55557 -0.83147 0.00000 0.22971 0.14400 1 0 1.0
bag_fabric
0 3.76537 -6.34776 0.30000 0.55557 -0.83147 0.00000 0.15184 0.18000 1 0 1.0
0 4.41421 -5.91421 0.00000 0.55557 -0.83147 0.00000 0.22971 0.14400 1 0 1.0
0 4.41421 -5.91421 0.30000 0.55557 -0.83147 0.00000 0.22971 0.18000 1 0 1.0
bag_fabric
0 4.41421 -5.91421 0.30000 0.83147 -0.55557 0.00000 -0.70971 0.18000 1 0 1.0
0 4.41421 -5.91421 0.00000 0.83147 -0.55557 0.00000 -0.70971 0.14400 1 0 1.0
0 4.84776 -5.26537 0.00000 0.83147 -0.55557 0.00000 -0.63184 0.14400 1 0 1.0
bag_fabric
0 4.41421 -5.91421 0.30000 0.83147 -0.55557 0.00000 -0.70971 0.18000 1 0 1.0
0 4.84776 -5.26537 0.00000 0.83147 -0.55557 0.00000 -0.63184 0.14400 1 0 1.0
0 4.84776 -5.26537 0.30000 0.83147 -0.55557 0.00000 -0.63184 0.18000 1 0 1.0
bag_fabric
0 4.84776 -5.26537 0.30000 0.98079 -0.19509 0.00000 -0.63184 0.18000 1 0 1.0
0 4.84776 -5.26537 0.00000 0.98079 -0.19509 0.00000 -0.63184 0.14400 1 0 1.0
0 5.00000 -4.50000 0.00000 0.98079 -0.19509 0.00000 -0.54000 0.14400 1 0 1.0
bag_fabric
0 4.84776 -5.26537 0.30000 0.98079 -0.19509 0.00000 -0.63184 0.18000 1 0 1.0
0 5.00000 -4.50000 0.00000 0.98079 -0.19509 0.00000 -0.54000 0.14400 1 0 1.0
0 5.00000 -4.50000 0.30000 0.98079 -0.19509 0.00000 -0.54000 0.18000 1 0 1.0
bag_fabric
0 3.76537 6.34776 0.30000 0.19509 0.98079 0.00000 0.15184 0.18000 1 0 1.0
0 3.76537 6.34776 0.00000 0.19509 0.98079 0.00000 0.15184 0.14400 1 0 1.0
0 3.00000 6.50000 0.00000 0.19509 0.98079 0.00000 0.06000 0.14400 1 0 1.0
bag_fabric
0 3.76537 6.34776 0.30000 0.19509 0.98079 0.00000 0.15184 0.18000 1 0 1.0
0 3.00000 6.50000 0.00000 0.19509 0.98079 0.00000 0.06000 0.14400 1 0 1.0
0 3.00000 6.50000 0.30000 0.19509 0.98079 0.00000 0.06000 0.18000 1 0 1.0
bag_fabric
0 5.00000 -4.50000 0.00000 0.00000 0.00000 -1.00000 0.30000 -0.54000 1 0 1.0
0 4.84776 -5.26537 0.00000 0.00000 0.00000 -1.00000 0.28173 -0.63184 1 0 1.0
0 4.41421 -5.91421 0.00000 0.00000 0.00000 -1.00000 0.22971 -0.70971 1 0 1.0
bag_fabric
0 4.41421 -5.91421 0.00000 0.00000 0.00000 -1.00000 0.22971 -0.70971 1 0 1.0
0 3.76537 -6.34776 0.00000 0.00000 0.00000 -1.00000 0.15184 -0.76173 1 0 1.0
0 3.00000 -6.50000 0.00000 0.00000 0.00000 -1.00000 0.06000 -0.78000 1 0 1.0
bag_fabric
0 3.00000 -6.50000 0.00000 0.00000 0.00000 -1.00000 0.06000 -0.78000 1 0 1.0
0 2.00000 -6.50000 0.00000 0.00000 0.00000 -1.00000 -0.06000 -0.78000 1 0 1.0
0 1.23463 -6.34776 0.00000 0.00000 0.00000 -1.00000 -0.15184 -0.76173 1 0 1.0
bag_fabric
0 1.23463 -6.34776 0.00000 0.00000 0.00000 -1.00000 -0.15184 -0.76173 1 0 1.0
0 0.58579 -5.91421 0.00000 0.00000 0.00000 -1.00000 -0.22971 -0.70971 1 0 1.0
0 0.15224 -5.26537 0.00000 0.00000 0.00000 -1.00000 -0.28173 -0.63184 1 0 1.0
bag_fabric
0 0.15224 -5.26537 0.00000 0.00000 0.00000 -1.00000 -0.28173 -0.63184 1 0 1.0
0 0.00000 -4.50000 0.00000 0.00000 0.00000 -1.00000 -0.30000 -0.54000 1 0 1.0
0 0.00000 4.50000 0.00000 0.00000 0.00000 -1.00000 -0.30000 0.54000 1 0 1.0
bag_fabric
0 0.00000 4.50000 0.00000 0.00000 0.00000 -1.00000 -0.30000 0.54000 1 0 1.0
0 0.15224 5.26537 0.00000 0.00000 0.00000 -1.00000 -0.28173 0.63184 1 0 1.0
0 0.58579 5.91421 0.00000 0.00000 0.00000 -1.00000 -0.22971 0.70971 1 0 1.0
bag_fabric
0 0.58579 5.91421 0.00000 0.00000 0.00000 -1.00000 -0.22971 0.70971 1 0 1.0
0 1.23463 6.34776 0.00000 0.00000 0.00000 -1.00000 -0.15184 0.76173 1 0 1.0
0 2.00000 6.50000 0.00000 0.00000 0.00000 -1.00000 -0.06000 0.78000 1 0 1.0
bag_fabric
0 2.00000 6.50000 0.00000 0.00000 0.00000 -1.00000 -0.06000 0.78000 1 0 1.0
0 3.00000 6.50000 0.00000 0.00000 0.00000 -1.00000 0.06000 0.78000 1 0 1.0
0 3.76537 6.34776 0.00000 0.00000 0.00000 -1.00000 0.15184 0.76173 1 0 1.0
bag_fabric
0 3.76537 6.34776 0.00000 0.00000 0.00000 -1.00000 0.15184 0.76173 1 0 1.0
0 4.41421 5.91421 0.00000 0.00000 0.00000 -1.00000 0.22971 0.70971 1 0 1.0
0 4.84776 5.26537 0.00000 0.00000 0.00000 -1.00000 0.28173 0.63184 1 0 1.0
bag_fabric
0 4.84776 5.26537 0.00000 0.00000 0.00000 -1.00000 0.28173 0.63184 1 0 1.0
0 5.00000 4.50000 0.00000 0.00000 0.00000 -1.00000 0.30000 0.54000 1 0 1.0
0 5.00000 -4.50000 0.00000 0.00000 0.00000 -1.00000 0.30000 -0.54000 1 0 1.0
bag_fabric
0 5.00000 -4.50000 0.00000 0.00000 0.00000 -1.00000 0.30000 -0.54000 1 0 1.0
0 4.41421 -5.91421 0.00000 0.00000 0.00000 -1.00000 0.22971 -0.70971 1 0 1.0
0 3.00000 -6.50000 0.00000 0.00000 0.00000 -1.00000 0.06000 -0.78000 1 0 1.0
bag_fabric
0 3.00000 -6.50000 0.00000 0.00000 0.00000 -1.00000 0.06000 -0.78000 1 0 1.0
0 1.23463 -6.34776 0.00000 0.00000 0.00000 -1.00000 -0.15184 -0.76173 1 0 1.0
0 0.15224 -5.26537 0.00000 0.00000 0.00000 -1.00000 -0.28173 -0.63184 1 0 1.0
bag_fabric
0 0.15224 -5.26537 0.00000 0.00000 0.00000 -1.00000 -0.28173 -0.63184 1 0 1.0
0 0.00000 4.50000 0.00000 0.00000 0.00000 -1.00000 -0.30000 0.54000 1 0 1.0
0 0.58579 5.91421 0.00000 0.00000 0.00000 -1.00000 -0.22971 0.70971 1 0 1.0
bag_fabric
0 0.58579 5.91421 0.00000 0.00000 0.00000 -1.00000 -0.22971 0.70971 1 0 1.0
0 2.00000 6.50000 0.00000 0.00000 0.00000 -1.00000 -0.06000 0.78000 1 0 1.0
0 3.76537 6.34776 0.00000 0.00000 0.00000 -1.00000 0.15184 0.76173 1 0 1.0
bag_fabric
0 3.76537 6.34776 0.00000 0.00000 0.00000 -1.00000 0.15184 0.76173 1 0 1.0
0 4.84776 5.26537 0.00000 0.00000 0.00000 -1.00000 0.28173 0.63184 1 0 1.0
0 5.00000 -4.50000 0.00000 0.00000 0.00000 -1.00000 0.30000 -0.54000 1 0 1.0
bag_fabric
0 5.00000 -4.50000 0.00000 0.00000 0.00000 -1.00000 0.30000 -0.54000 1 0 1.0
0 3.00000 -6.50000 0.00000 0.00000 0.00000 -1.00000 0.06000 -0.78000 1 0 1.0
0 0.15224 -5.26537 0.00000 0.00000 0.00000 -1.00000 -0.28173 -0.63184 1 0 1.0
bag_fabric
0 0.15224 -5.26537 0.00000 0.00000 0.00000 -1.00000 -0.28173 -0.63184 1 0 1.0
0 0.58579 5.91421 0.00000 0.00000 0.00000 -1.00000 -0.22971 0.70971 1 0 1.0
0 3.76537 6.34776 0.00000 0.00000 0.00000 -1.00000 0.15184 0.76173 1 0 1.0
bag_fabric
0 0.15224 -5.26537 0.00000 0.00000 0.00000 -1.00000 -0.28173 -0.63184 1 0 1.0
0 3.76537 6.34776 0.00000 0.00000 0.00000 -1.00000 0.15184 0.76173 1 0 1.0
0 5.00000 -4.50000 0.00000 0.00000 0.00000 -1.00000 0.30000 -0.54000 1 0 1.0
bag_fabric
0 2.00000 -6.50000 0.30000 -0.21944 -0.95688 0.19033 -0.06000 0.18000 1 0 1.0
0 2.00000 -6.34776 1.06537 -0.21944 -0.95688 0.19033 -0.06000 0.27184 1 0 1.0
0 1.21545 -6.16402 1.08455 -0.21944 -0.95688 0.19033 -0.15415 0.27415 1 0 1.0
bag_fabric
0 2.00000 -6.50000 0.30000 -0.19033 -0.95688 0.21944 -0.06000 0.18000 1 0 1.0
0 1.21545 -6.16402 1.08455 -0.19033 -0.95688 0.21944 -0.15415 0.27415 1 0 1.0
0 1.23463 -6.34776 0.30000 -0.19033 -0.95688 0.21944 -0.15184 0.18000 1 0 1.0
bag_fabric
0 2.00000 -6.34776 1.06537 -0.18611 -0.81694 0.54586 -0.06000 0.27184 1 0 1.0
0 2.00000 -5.91421 1.71421 -0.18611 -0.81694 0.54586 -0.06000 0.34971 1 0 1.0
0 1.25526 -5.81251 1.61251 -0.18611 -0.81694 0.54586 -0.14937 0.33750 1 0 1.0
bag_fabric
0 2.00000 -6.34776 1.06537 -0.17685 -0.81306 0.55467 -0.06000 0.27184 1 0 1.0
0 1.25526 -5.81251 1.61251 -0.17685 -0.81306 0.55467 -0.14937 0.33750 1 0 1.0
0 1.21545 -6.16402 1.08455 -0.17685 -0.81306 0.55467 -0.15415 0.27415 1 0 1.0
bag_fabric
0 1.23463 -6.34776 0.30000 -0.55467 -0.81306 0.17685 -0.15184 0.18000 1 0 1.0
0 1.21545 -6.16402 1.08455 -0.55467 -0.81306 0.17685 -0.15415 0.27415 1 0 1.0
0 0.68749 -5.81251 1.04474 -0.55467 -0.81306 0.17685 -0.21750 0.26937 1 0 1.0
bag_fabric
0 1.23463 -6.34776 0.30000 -0.54586 -0.81694 0.18611 -0.15184 0.18000 1 0 1.0
0 0.68749 -5.81251 1.04474 -0.54586 -0.81694 0.18611 -0.21750 0.26937 1 0 1.0
0 0.58579 -5.91421 0.30000 -0.54586 -0.81694 0.18611 -0.22971 0.18000 1 0 1.0
bag_fabric
0 1.21545 -6.16402 1.08455 -0.47314 -0.71645 0.51268 -0.15415 0.27415 1 0 1.0
0 1.25526 -5.81251 1.61251 -0.47314 -0.71645 0.51268 -0.14937 0.33750 1 0 1.0
0 0.84530 -5.65470 1.45470 -0.47314 -0.71645 0.51268 -0.19856 0.31856 1 0 1.0
bag_fabric
0 1.21545 -6.16402 1.08455 -0.51268 -0.71645 0.47314 -0.15415 0.27415 1 0 1.0
0 0.84530 -5.65470 1.45470 -0.51268 -0.71645 0.47314 -0.19856 0.31856 1 0 1.0
0 0.68749 -5.81251 1.04474 -0.51268 -0.71645 0.47314 -0.21750 0.26937 1 0 1.0
bag_fabric
0 2.00000 -4.50000 2.30000 -0.19033 -0.21944 0.95688 -0.06000 -0.54000 1 0 1.0
0 1.23463 -4.50000 2.14776 -0.19033 -0.21944 0.95688 -0.15184 -0.54000 1 0 1.0
0 1.21545 -5.28455 1.96402 -0.19033 -0.21944 0.95688 -0.15415 -0.63415 1 0 1.0
bag_fabric
0 2.00000 -4.50000 2.30000 -0.21944 -0.19033 0.95688 -0.06000 -0.54000 1 0 1.0
0 1.21545 -5.28455 1.96402 -0.21944 -0.19033 0.95688 -0.15415 -0.63415 1 0 1.0
0 2.00000 -5.26537 2.14776 -0.21944 -0.19033 0.95688 -0.06000 -0.63184 1 0 1.0
bag_fabric
0 1.23463 -4.50000 2.14776 -0.54586 -0.18611 0.81694 -0.15184 -0.54000 1 0 1.0
0 0.58579 -4.50000 1.71421 -0.54586 -0.18611 0.81694 -0.22971 -0.54000 1 0 1.0
0 0.68749 -5.24474 1.61251 -0.54586 -0.18611 0.81694 -0.21750 -0.62937 1 0 1.0
bag_fabric
0 1.23463 -4.50000 2.14776 -0.55467 -0.17685 0.81306 -0.15184 -0.54000 1 0 1.0
0 0.68749 -5.24474 1.61251 -0.55467 -0.17685 0.81306 -0.21750 -0.62937 1 0 1.0
0 1.21545 -5.28455 1.96402 -0.55467 -0.17685 0.81306 -0.15415 -0.63415 1 0 1.0
bag_fabric
0 2.00000 -5.26537 2.14776 -0.17685 -0.55467 0.81306 -0.06000 -0.63184 1 0 1.0
0 1.21545 -5.28455 1.96402 -0.17685 -0.55467 0.81306 -0.15415 -0.63415 1 0 1.0
0 1.25526 -5.81251 1.61251 -0.17685 -0.55467 0.81306 -0.14937 -0.69750 1 0 1.0
bag_fabric
0 2.00000 -5.26537 2.14776 -0.18611 -0.54586 0.81694 -0.06000 -0.63184 1 0 1.0
0 1.25526 -5.81251 1.61251 -0.18611 -0.54586 0.81694 -0.14937 -0.69750 1 0 1.0
0 2.00000 -5.91421 1.71421 -0.18611 -0.54586 0.81694 -0.06000 -0.70971 1 0 1.0
bag_fabric
0 1.21545 -5.28455 1.96402 -0.51268 -0.47314 0.71645 -0.15415 -0.63415 1 0 1.0
0 0.68749 -5.24474 1.61251 -0.51268 -0.47314 0.71645 -0.21750 -0.62937 1 0 1.0
0 0.84530 -5.65470 1.45470 -0.51268 -0.47314 0.71645 -0.19856 -0.67856 1 0 1.0
bag_fabric
0 1.21545 -5.28455 1.96402 -0.47314 -0.51268 0.71645 -0.15415 -0.63415 1 0 1.0
0 0.84530 -5.65470 1.45470 -0.47314 -0.51268 0.71645 -0.19856 -0.67856 1 0 1.0
0 1.25526 -5.81251 1.61251 -0.47314 -0.51268 0.71645 -0.14937 -0.69750 1 0 1.0
bag_fabric
0 0.00000 -4.50000 0.30000 -0.95688 -0.19033 0.21944 -0.54000 0.18000 1 0 1.0
0 0.15224 -5.26537 0.30000 -0.95688 -0.19033 0.21944 -0.63184 0.18000 1 0 1.0
0 0.33598 -5.28455 1.08455 -0.95688 -0.19033 0.21944 -0.63415 0.27415 1 0 1.0
bag_fabric
0 0.00000 -4.50000 0.30000 -0.95688 -0.21944 0.19033 -0.54000 0.18000 1 0 1.0
0 0.33598 -5.28455 1.08455 -0.95688 -0.21944 0.19033 -0.63415 0.27415 1 0 1.0
0 0.15224 -4.50000 1.06537 -0.95688 -0.21944 0.19033 -0.54000 0.27184 1 0 1.0
bag_fabric
0 0.15224 -5.26537 0.30000 -0.81694 -0.54586 0.18611 -0.63184 0.18000 1 0 1.0
0 0.58579 -5.91421 0.30000 -0.81694 -0.54586 0.18611 -0.70971 0.18000 1 0 1.0
0 0.68749 -5.81251 1.04474 -0.81694 -0.54586 0.18611 -0.69750 0.26937 1 0 1.0
bag_fabric
0 0.15224 -5.26537 0.30000 -0.81306 -0.55467 0.17685 -0.63184 0.18000 1 0 1.0
0 0.68749 -5.81251 1.04474 -0.81306 -0.55467 0.17685 -0.69750 0.26937 1 0 1.0
0 0.33598 -5.28455 1.08455 -0.81306 -0.55467 0.17685 -0.63415 0.27415 1 0 1.0
bag_fabric
0 0.15224 -4.50000 1.06537 -0.81306 -0.17685 0.55467 -0.54000 0.27184 1 0 1.0
0 0.33598 -5.28455 1.08455 -0.81306 -0.17685 0.55467 -0.63415 0.27415 1 0 1.0
0 0.68749 -5.24474 1.61251 -0.81306 -0.17685 0.55467 -0.62937 0.33750 1 0 1.0
bag_fabric
0 0.15224 -4.50000 1.06537 -0.81694 -0.18611 0.54586 -0.54000 0.27184 1 0 1.0
0 0.68749 -5.24474 1.61251 -0.81694 -0.18611 0.54586 -0.62937 0.33750 1 0 1.0
0 0.58579 -4.50000 1.71421 -0.81694 -0.18611 0.54586 -0.54000 0.34971 1 0 1.0
bag_fabric
0 0.33598 -5.28455 1.08455 -0.71645 -0.51268 0.47314 -0.63415 0.27415 1 0 1.0
0 0.68749 -5.81251 1.04474 -0.71645 -0.51268 0.47314 -0.69750 0.26937 1 0 1.0
0 0.84530 -5.65470 1.45470 -0.71645 -0.51268 0.47314 -0.67856 0.31856 1 0 1.0
bag_fabric
0 0.33598 -5.28455 1.08455 -0.71645 -0.47314 0.51268 -0.63415 0.27415 1 0 1.0
0 0.84530 -5.65470 1.45470 -0.71645 -0.47314 0.51268 -0.67856 0.31856 1 0 1.0
0 0.68749 -5.24474 1.61251 -0.71645 -0.47314 0.51268 -0.62937 0.33750 1 0 1.0
bag_fabric
0 2.00000 4.50000 2.30000 -0.21944 0.19033 0.95688 -0.06000 0.54000 1 0 1.0
0 2.00000 5.26537 2.14776 -0.21944 0.19033 0.95688 -0.06000 0.63184 1 0 1.0
0 1.21545 5.28455 1.96402 -0.21944 0.19033 0.95688 -0.15415 0.63415 1 0 1.0
bag_fabric
0 2.00000 4.50000 2.30000 -0.19033 0.21944 0.95688 -0.06000 0.54000 1 0 1.0
0 1.21545 5.28455 1.96402 -0.19033 0.21944 0.95688 -0.15415 0.63415 1 0 1.0
0 1.23463 4.50000 2.14776 -0.19033 0.21944 0.95688 -0.15184 0.54000 1 0 1.0
bag_fabric
0 2.00000 5.26537 2.14776 -0.18611 0.54586 0.81694 -0.06000 0.63184 1 0 1.0
0 2.00000 5.91421 1.71421 -0.18611 0.54586 0.81694 -0.06000 0.70971 1 0 1.0
0 1.25526 5.81251 1.61251 -0.18611 0.54586 0.81694 -0.14937 0.69750 1 0 1.0
bag_fabric
0 2.00000 5.26537 2.14776 -0.17685 0.55467 0.81306 -0.06000 0.63184 1 0 1.0
0 1.25526 5.81251 1.61251 -0.17685 0.55467 0.81306 -0.14937 0.69750 1 0 1.0
0 1.21545 5.28455 1.96402 -0.17685 0.55467 0.81306 -0.15415 0.63415 1 0 1.0
bag_fabric
0 1.23463 4.50000 2.14776 -0.55467 0.17685 0.81306 -0.15184 0.54000 1 0 1.0
0 1.21545 5.28455 1.96402 -0.55467 0.17685 0.81306 -0.15415 0.63415 1 0 1.0
0 0.68749 5.24474 1.61251 -0.55467 0.17685 0.81306 -0.21750 0.62937 1 0 1.0
bag_fabric
0 1.23463 4.50000 2.14776 -0.54586 0.18611 0.81694 -0.15184 0.54000 1 0 1.0
0 0.68749 5.24474 1.61251 -0.54586 0.18611 0.81694 -0.21750 0.62937 1 0 1.0
0 0.58579 4.50000 1.71421 -0.54586 0.18611 0.81694 -0.22971 0.54000 1 0 1.0
bag_fabric
0 1.21545 5.28455 1.96402 -0.47314 0.51268 0.71645 -0.15415 0.63415 1 0 1.0
0 1.25526 5.81251 1.61251 -0.47314 0.51268 0.71645 -0.14937 0.69750 1 0 1.0
0 0.84530 5.65470 1.45470 -0.47314 0.51268 0.71645 -0.19856 0.67856 1 0 1.0
bag_fabric
0 1.21545 5.28455 1.96402 -0.51268 0.47314 0.71645 -0.15415 0.63415 1 0 1.0
0 0.84530 5.65470 1.45470 -0.51268 0.47314 0.71645 -0.19856 0.67856 1 0 1.0
0 0.68749 5.24474 1.61251 -0.51268 0.47314 0.71645 -0.21750 0.62937 1 0 1.0
bag_fabric
0 2.00000 6.50000 0.30000 -0.19033 0.95688 0.21944 -0.06000 0.18000 1 0 1.0
0 1.23463 6.34776 0.30000 -0.19033 0.95688 0.21944 -0.15184 0.18000 1 0 1.0
0 1.21545 6.16402 1.08455 -0.19033 0.95688 0.21944 -0.15415 0.27415 1 0 1.0
bag_fabric
0 2.00000 6.50000 0.30000 -0.21944 0.95688 0.19033 -0.06000 0.18000 1 0 1.0
0 1.21545 6.16402 1.08455 -0.21944 0.95688 0.19033 -0.15415 0.27415 1 0 1.0
0 2.00000 6.34776 1.06537 -0.21944 0.95688 0.19033 -0.06000 0.27184 1 0 1.0
bag_fabric
0 1.23463 6.34776 0.30000 -0.54586 0.81694 0.18611 -0.15184 0.18000 1 0 1.0
0 0.58579 5.91421 0.30000 -0.54586 0.81694 0.18611 -0.22971 0.18000 1 0 1.0
0 0.68749 5.81251 1.04474 -0.54586 0.81694 0.18611 -0.21750 0.26937 1 0 1.0
bag_fabric
0 1.23463 6.34776 0.30000 -0.55467 0.81306 0.17685 -0.15184 0.18000 1 0 1.0
0 0.68749 5.81251 1.04474 -0.55467 0.81306 0.17685 -0.21750 0.26937 1 0 1.0
0 1.21545 6.16402 1.08455 -0.55467 0.81306 0.17685 -0.15415 0.27415 1 0 1.0
bag_fabric
0 2.00000 6.34776 1.06537 -0.17685 0.81306 0.55467 -0.06000 0.27184 1 0 1.0
0 1.21545 6.16402 1.08455 -0.17685 0.81306 0.55467 -0.15415 0.27415 1 0 1.0
0 1.25526 5.81251 1.61251 -0.17685 0.81306 0.55467 -0.14937 0.33750 1 0 1.0
bag_fabric
0 2.00000 6.34776 1.06537 -0.18611 0.81694 0.54586 -0.06000 0.27184 1 0 1.0
0 1.25526 5.81251 1.61251 -0.18611 0.81694 0.54586 -0.14937 0.33750 1 0 1.0
0 2.00000 5.91421 1.71421 -0.18611 0.81694 0.54586 -0.06000 0.34971 1 0 1.0
bag_fabric
0 1.21545 6.16402 1.08455 -0.51268 0.71645 0.47314 -0.15415 0.27415 1 0 1.0
0 0.68749 5.81251 1.04474 -0.51268 0.71645 0.47314 -0.21750 0.26937 1 0 1.0
0 0.84530 5.65470 1.45470 -0.51268 0.71645 0.47314 -0.19856 0.31856 1 0 1.0
bag_fabric
0 1.21545 6.16402 1.08455 -0.47314 0.71645 0.51268 -0.15415 0.27415 1 0 1.0
0 0.84530 5.65470 1.45470 -0.47314 0.71645 0.51268 -0.19856 0.31856 1 0 1.0
0 1.25526 5.81251 1.61251 -0.47314 0.71645 0.51268 -0.14937 0.33750 1 0 1.0
bag_fabric
0 0.00000 4.50000 0.30000 -0.95688 0.21944 0.19033 0.54000 0.18000 1 0 1.0
0 0.15224 4.50000 1.06537 -0.95688 0.21944 0.19033 0.54000 0.27184 1 0 1.0
0 0.33598 5.28455 1.08455 -0.95688 0.21944 0.19033 0.63415 0.27415 1 0 1.0
bag_fabric
0 0.00000 4.50000 0.30000 -0.95688 0.19033 0.21944 0.54000 0.18000 1 0 1.0
0 0.33598 5.28455 1.08455 -0.95688 0.19033 0.21944 0.63415 0.27415 1 0 1.0
0 0.15224 5.26537 0.30000 -0.95688 0.19033 0.21944 0.63184 0.18000 1 0 1.0
bag_fabric
0 0.15224 4.50000 1.06537 -0.81694 0.18611 0.54586 0.54000 0.27184 1 0 1.0
0 0.58579 4.50000 1.71421 -0.81694 0.18611 0.54586 0.54000 0.34971 1 0 1.0
0 0.68749 5.24474 1.61251 -0.81694 0.18611 0.54586 0.62937 0.33750 1 0 1.0
bag_fabric
0 0.15224 4.50000 1.06537 -0.81306 0.17685 0.55467 0.54000 0.27184 1 0 1.0
0 0.68749 5.24474 1.61251 -0.81306 0.17685 0.55467 0.62937 0.33750 1 0 1.0
0 0.33598 5.28455 1.08455 -0.81306 0.17685 0.55467 0.63415 0.27415 1 0 1.0
bag_fabric
0 0.15224 5.26537 0.30000 -0.81306 0.55467 0.17685 0.63184 0.18000 1 0 1.0
0 0.33598 5.28455 1.08455 -0.81306 0.55467 0.17685 0.63415 0.27415 1 0 1.0
0 0.68749 5.81251 1.04474 -0.81306 0.55467 0.17685 0.69750 0.26937 1 0 1.0
bag_fabric
0 0.15224 5.26537 0.30000 -0.81694 0.54586 0.18611 0.63184 0.18000 1 0 1.0
0 0.68749 5.81251 1.04474 -0.81694 0.54586 0.18611 0.69750 0.26937 1 0 1.0
0 0.58579 5.91421 0.30000 -0.81694 0.54586 0.18611 0.70971 0.18000 1 0 1.0
bag_fabric
0 0.33598 5.28455 1.08455 -0.71645 0.47314 0.51268 0.63415 0.27415 1 0 1.0
0 0.68749 5.24474 1.61251 -0.71645 0.47314 0.51268 0.62937 0.33750 1 0 1.0
0 0.84530 5.65470 1.45470 -0.71645 0.47314 0.51268 0.67856 0.31856 1 0 1.0
bag_fabric
0 0.33598 5.28455 1.08455 -0.71645 0.51268 0.47314 0.63415 0.27415 1 0 1.0
0 0.84530 5.65470 1.45470 -0.71645 0.51268 0.47314 0.67856 0.31856 1 0 1.0
0 0.68749 5.81251 1.04474 -0.71645 0.51268 0.47314 0.69750 0.26937 1 0 1.0
bag_fabric
0 3.00000 -4.50000 2.30000 0.21944 -0.19033 0.95688 0.06000 -0.54000 1 0 1.0
0 3.00000 -5.26537 2.14776 0.21944 -0.19033 0.95688 0.06000 -0.63184 1 0 1.0
0 3.78455 -5.28455 1.96402 0.21944 -0.19033 0.95688 0.15415 -0.63415 1 0 1.0
bag_fabric
0 3.00000 -4.50000 2.30000 0.19033 -0.21944 0.95688 0.06000 -0.54000 1 0 1.0
0 3.78455 -5.28455 1.96402 0.19033 -0.21944 0.95688 0.15415 -0.63415 1 0 1.0
0 3.76537 -4.50000 2.14776 0.19033 -0.21944 0.95688 0.15184 -0.54000 1 0 1.0
bag_fabric
0 3.00000 -5.26537 2.14776 0.18611 -0.54586 0.81694 0.06000 -0.63184 1 0 1.0
0 3.00000 -5.91421 1.71421 0.18611 -0.54586 0.81694 0.06000 -0.70971 1 0 1.0
0 3.74474 -5.81251 1.61251 0.18611 -0.54586 0.81694 0.14937 -0.69750 1 0 1.0
bag_fabric
0 3.00000 -5.26537 2.14776 0.17685 -0.55467 0.81306 0.06000 -0.63184 1 0 1.0
0 3.74474 -5.81251 1.61251 0.17685 -0.55467 0.81306 0.14937 -0.69750 1 0 1.0
0 3.78455 -5.28455 1.96402 0.17685 -0.55467 0.81306 0.15415 -0.63415 1 0 1.0
bag_fabric
0 3.76537 -4.50000 2.14776 0.55467 -0.17685 0.81306 0.15184 -0.54000 1 0 1.0
0 3.78455 -5.28455 1.96402 0.55467 -0.17685 0.81306 0.15415 -0.63415 1 0 1.0
0 4.31251 -5.24474 1.61251 0.55467 -0.17685 0.81306 0.21750 -0.62937 1 0 1.0
bag_fabric
0 3.76537 -4.50000 2.14776 0.54586 -0.18611 0.81694 0.15184 -0.54000 1 0 1.0
0 4.31251 -5.24474 1.61251 0.54586 -0.18611 0.81694 0.21750 -0.62937 1 0 1.0
0 4.41421 -4.50000 1.71421 0.54586 -0.18611 0.81694 0.22971 -0.54000 1 0 1.0
bag_fabric
0 3.78455 -5.28455 1.96402 0.47314 -0.51268 0.71645 0.15415 -0.63415 1 0 1.0
0 3.74474 -5.81251 1.61251 0.47314 -0.51268 0.71645 0.14937 -0.69750 1 0 1.0
0 4.15470 -5.65470 1.45470 0.47314 -0.51268 0.71645 0.19856 -0.67856 1 0 1.0
bag_fabric
0 3.78455 -5.28455 1.96402 0.51268 -0.47314 0.71645 0.15415 -0.63415 1 0 1.0
0 4.15470 -5.65470 1.45470 0.51268 -0.47314 0.71645 0.19856 -0.67856 1 0 1.0
0 4.31251 -5.24474 1.61251 0.51268 -0.47314 0.71645 0.21750 -0.62937 1 0 1.0
bag_fabric
0 3.00000 -6.50000 0.30000 0.19033 -0.95688 0.21944 0.06000 0.18000 1 0 1.0
0 3.76537 -6.34776 0.30000 0.19033 -0.95688 0.21944 0.15184 0.18000 1 0 1.0
0 3.78455 -6.16402 1.08455 0.19033 -0.95688 0.21944 0.15415 0.27415 1 0 1.0
bag_fabric
0 3.00000 -6.50000 0.30000 0.21944 -0.95688 0.19033 0.06000 0.18000 1 0 1.0
0 3.78455 -6.16402 1.08455 0.21944 -0.95688 0.19033 0.15415 0.27415 1 0 1.0
0 3.00000 -6.34776 1.06537 0.21944 -0.95688 0.19033 0.06000 0.27184 1 0 1.0
bag_fabric
0 3.76537 -6.34776 0.30000 0.54586 -0.81694 0.18611 0.15184 0.18000 1 0 1.0
0 4.41421 -5.91421 0.30000 0.54586 -0.81694 0.18611 0.22971 0.18000 1 0 1.0
0 4.31251 -5.81251 1.04474 0.54586 -0.81694 0.18611 0.21750 0.26937 1 0 1.0
bag_fabric
0 3.76537 -6.34776 0.30000 0.55467 -0.81306 0.17685 0.15184 0.18000 1 0 1.0
0 4.31251 -5.81251 1.04474 0.55467 -0.81306 0.17685 0.21750 0.26937 1 0 1.0
0 3.78455 -6.16402 1.08455 0.55467 -0.81306 0.17685 0.15415 0.27415 1 0 1.0
bag_fabric
0 3.00000 -6.34776 1.06537 0.17685 -0.81306 0.55467 0.06000 0.27184 1 0 1.0
0 3.78455 -6.16402 1.08455 0.17685 -0.81306 0.55467 0.15415 0.27415 1 0 1.0
0 3.74474 -5.81251 1.61251 0.17685 -0.81306 0.55467 0.14937 0.33750 1 0 1.0
bag_fabric
0 3.00000 -6.34776 1.06537 0.18611 -0.81694 0.54586 0.06000 0.27184 1 0 1.0
0 3.74474 -5.81251 1.61251 0.18611 -0.81694 0.54586 0.14937 0.33750 1 0 1.0
0 3.00000 -5.91421 1.71421 0.18611 -0.81694 0.54586 0.06000 0.34971 1 0 1.0
bag_fabric
0 3.78455 -6.16402 1.08455 0.51268 -0.71645 0.47314 0.15415 0.27415 1 0 1.0
0 4.31251 -5.81251 1.04474 0.51268 -0.71645 0.47314 0.21750 0.26937 1 0 1.0
0 4.15470 -5.65470 1.45470 0.51268 -0.71645 0.47314 0.19856 0.31856 1 0 1.0
bag_fabric
0 3.78455 -6.16402 1.08455 0.47314 -0.71645 0.51268 0.15415 0.27415 1 0 1.0
0 4.15470 -5.65470 1.45470 0.47314 -0.71645 0.51268 0.19856 0.31856 1 0 1.0
0 3.74474 -5.81251 1.61251 0.47314 -0.71645 0.51268 0.14937 0.33750 1 0 1.0
bag_fabric
0 5.00000 -4.50000 0.30000 0.95688 -0.21944 0.19033 -0.54000 0.18000 1 0 1.0
0 4.84776 -4.50000 1.06537 0.95688 -0.21944 0.19033 -0.54000 0.27184 1 0 1.0
0 4.66402 -5.28455 1.08455 0.95688 -0.21944 0.19033 -0.63415 0.27415 1 0 1.0
bag_fabric
0 5.00000 -4.50000 0.30000 0.95688 -0.19033 0.21944 -0.54000 0.18000 1 0 1.0
0 4.66402 -5.28455 1.08455 0.95688 -0.19033 0.21944 -0.63415 0.27415 1 0 1.0
0 4.84776 -5.26537 0.30000 0.95688 -0.19033 0.21944 -0.63184 0.18000 1 0 1.0
bag_fabric
0 4.84776 -4.50000 1.06537 0.81694 -0.18611 0.54586 -0.54000 0.27184 1 0 1.0
0 4.41421 -4.50000 1.71421 0.81694 -0.18611 0.54586 -0.54000 0.34971 1 0 1.0
0 4.31251 -5.24474 1.61251 0.81694 -0.18611 0.54586 -0.62937 0.33750 1 0 1.0
bag_fabric
0 4.84776 -4.50000 1.06537 0.81306 -0.17685 0.55467 -0.54000 0.27184 1 0 1.0
0 4.31251 -5.24474 1.61251 0.81306 -0.17685 0.55467 -0.62937 0.33750 1 0 1.0
0 4.66402 -5.28455 1.08455 0.81306 -0.17685 0.55467 -0.63415 0.27415 1 0 1.0
bag_fabric
0 4.84776 -5.26537 0.30000 0.81306 -0.55467 0.17685 -0.63184 0.18000 1 0 1.0
0 4.66402 -5.28455 1.08455 0.81306 -0.55467 0.17685 -0.63415 0.27415 1 0 1.0
0 4.31251 -5.81251 1.04474 0.81306 -0.55467 0.17685 -0.69750 0.26937 1 0 1.0
bag_fabric
0 4.84776 -5.26537 0.30000 0.81694 -0.54586 0.18611 -0.63184 0.18000 1 0 1.0
0 4.31251 -5.81251 1.04474 0.81694 -0.54586 0.18611 -0.69750 0.26937 1 0 1.0
0 4.41421 -5.91421 0.30000 0.81694 -0.54586 0.18611 -0.70971 0.18000 1 0 1.0
bag_fabric
0 4.66402 -5.28455 1.08455 0.71645 -0.47314 0.51268 -0.63415 0.27415 1 0 1.0
0 4.31251 -5.24474 1.61251 0.71645 -0.47314 0.51268 -0.62937 0.33750 1 0 1.0
0 4.15470 -5.65470 1.45470 0.71645 -0.47314 0.51268 -0.67856 0.31856 1 0 1.0
bag_fabric
0 4.66402 -5.28455 1.08455 0.71645 -0.51268 0.47314 -0.63415 0.27415 1 0 1.0
0 4.15470 -5.65470 1.45470 0.71645 -0.51268 0.47314 -0.67856 0.31856 1 0 1.0
0 4.31251 -5.81251 1.04474 0.71645 -0.51268 0.47314 -0.69750 0.26937 1 0 1.0
bag_fabric
0 3.00000 4.50000 2.30000 0.19033 0.21944 0.95688 0.06000 0.54000 1 0 1.0
0 3.76537 4.50000 2.14776 0.19033 0.21944 0.95688 0.15184 0.54000 1 0 1.0
0 3.78455 5.28455 1.96402 0.19033 0.21944 0.95688 0.15415 0.63415 1 0 1.0
bag_fabric
0 3.00000 4.50000 2.30000 0.21944 0.19033 0.95688 0.06000 0.54000 1 0 1.0
0 3.78455 5.28455 1.96402 0.21944 0.19033 0.95688 0.15415 0.63415 1 0 1.0
0 3.00000 5.26537 2.14776 0.21944 0.19033 0.95688 0.06000 0.63184 1 0 1.0
bag_fabric
0 3.76537 4.50000 2.14776 0.54586 0.18611 0.81694 0.15184 0.54000 1 0 1.0
0 4.41421 4.50000 1.71421 0.54586 0.18611 0.81694 0.22971 0.54000 1 0 1.0
0 4.31251 5.24474 1.61251 0.54586 0.18611 0.81694 0.21750 0.62937 1 0 1.0
bag_fabric
0 3.76537 4.50000 2.14776 0.55467 0.17685 0.81306 0.15184 0.54000 1 0 1.0
0 4.31251 5.24474 1.61251 0.55467 0.17685 0.81306 0.21750 0.62937 1 0 1.0
0 3.78455 5.28455 1.96402 0.55467 0.17685 0.81306 0.15415 0.63415 1 0 1.0
bag_fabric
0 3.00000 5.26537 2.14776 0.17685 0.55467 0.81306 0.06000 0.63184 1 0 1.0
0 3.78455 5.28455 1.96402 0.17685 0.55467 0.81306 0.15415 0.63415 1 0 1.0
0 3.74474 5.81251 1.61251 0.17685 0.55467 0.81306 0.14937 0.69750 1 0 1.0
bag_fabric
0 3.00000 5.26537 2.14776 0.18611 0.54586 0.81694 0.06000 0.63184 1 0 1.0
0 3.74474 5.81251 1.61251 0.18611 0.54586 0.81694 0.14937 0.69750 1 0 1.0
0 3.00000 5.91421 1.71421 0.18611 0.54586 0.81694 0.06000 0.70971 1 0 1.0
bag_fabric
0 3.78455 5.28455 1.96402 0.51268 0.47314 0.71645 0.15415 0.63415 1 0 1.0
0 4.31251 5.24474 1.61251 0.51268 0.47314 0.71645 0.21750 0.62937 1 0 1.0
0 4.15470 5.65470 1.45470 0.51268 0.47314 0.71645 0.19856 0.67856 1 0 1.0
bag_fabric
0 3.78455 5.28455 1.96402 0.47314 0.51268 0.71645 0.15415 0.63415 1 0 1.0
0 4.15470 5.65470 1.45470 0.47314 0.51268 0.71645 0.19856 0.67856 1 0 1.0
0 3.74474 5.81251 1.61251 0.47314 0.51268 0.71645 0.14937 0.69750 1 0 1.0
bag_fabric
0 5.00000 4.50000 0.30000 0.95688 0.19033 0.21944 0.54000 0.18000 1 0 1.0
0 4.84776 5.26537 0.30000 0.95688 0.19033 0.21944 0.63184 0.18000 1 0 1.0
0 4.66402 5.28455 1.08455 0.95688 0.19033 0.21944 0.63415 0.27415 1 0 1.0
bag_fabric
0 5.00000 4.50000 0.30000 0.95688 0.21944 0.19033 0.54000 0.18000 1 0 1.0
0 4.66402 5.28455 1.08455 0.95688 0.21944 0.19033 0.63415 0.27415 1 0 1.0
0 4.84776 4.50000 1.06537 0.95688 0.21944 0.19033 0.54000 0.27184 1 0 1.0
bag_fabric
0 4.84776 5.26537 0.30000 0.81694 0.54586 0.18611 0.63184 0.18000 1 0 1.0
0 4.41421 5.91421 0.30000 0.81694 0.54586 0.18611 0.70971 0.18000 1 0 1.0
0 4.31251 5.81251 1.04474 0.81694 0.54586 0.18611 0.69750 0.26937 1 0 1.0
bag_fabric
0 4.84776 5.26537 0.30000 0.81306 0.55467 0.17685 0.63184 0.18000 1 0 1.0
0 4.31251 5.81251 1.04474 0.81306 0.55467 0.17685 0.69750 0.26937 1 0 1.0
0 4.66402 5.28455 1.08455 0.81306 0.55467 0.17685 0.63415 0.27415 1 0 1.0
bag_fabric
0 4.84776 4.50000 1.06537 0.81306 0.17685 0.55467 0.54000 0.27184 1 0 1.0
0 4.66402 5.28455 1.08455 0.81306 0.17685 0.55467 0.63415 0.27415 1 0 1.0
0 4.31251 5.24474 1.61251 0.81306 0.17685 0.55467 0.62937 0.33750 1 0 1.0
bag_fabric
0 4.84776 4.50000 1.06537 0.81694 0.18611 0.54586 0.54000 0.27184 1 0 1.0
0 4.31251 5.24474 1.61251 0.81694 0.18611 0.54586 0.62937 0.33750 1 0 1.0
0 4.41421 4.50000 1.71421 0.81694 0.18611 0.54586 0.54000 0.34971 1 0 1.0
bag_fabric
0 4.66402 5.28455 1.08455 0.71645 0.51268 0.47314 0.63415 0.27415 1 0 1.0
0 4.31251 5.81251 1.04474 0.71645 0.51268 0.47314 0.69750 0.26937 1 0 1.0
0 4.15470 5.65470 1.45470 0.71645 0.51268 0.47314 0.67856 0.31856 1 0 1.0
bag_fabric
0 4.66402 5.28455 1.08455 0.71645 0.47314 0.51268 0.63415 0.27415 1 0 1.0
0 4.15470 5.65470 1.45470 0.71645 0.47314 0.51268 0.67856 0.31856 1 0 1.0
0 4.31251 5.24474 1.61251 0.71645 0.47314 0.51268 0.62937 0.33750 1 0 1.0
bag_fabric
0 3.00000 6.50000 0.30000 0.21944 0.95688 0.19033 0.06000 0.18000 1 0 1.0
0 3.00000 6.34776 1.06537 0.21944 0.95688 0.19033 0.06000 0.27184 1 0 1.0
0 3.78455 6.16402 1.08455 0.21944 0.95688 0.19033 0.15415 0.27415 1 0 1.0
bag_fabric
0 3.00000 6.50000 0.30000 0.19033 0.95688 0.21944 0.06000 0.18000 1 0 1.0
0 3.78455 6.16402 1.08455 0.19033 0.95688 0.21944 0.15415 0.27415 1 0 1.0
0 3.76537 6.34776 0.30000 0.19033 0.95688 0.21944 0.15184 0.18000 1 0 1.0
bag_fabric
0 3.00000 6.34776 1.06537 0.18611 0.81694 0.54586 0.06000 0.27184 1 0 1.0
0 3.00000 5.91421 1.71421 0.18611 0.81694 0.54586 0.06000 0.34971 1 0 1.0
0 3.74474 5.81251 1.61251 0.18611 0.81694 0.54586 0.14937 0.33750 1 0 1.0
bag_fabric
0 3.00000 6.34776 1.06537 0.17685 0.81306 0.55467 0.06000 0.27184 1 0 1.0
0 3.74474 5.81251 1.61251 0.17685 0.81306 0.55467 0.14937 0.33750 1 0 1.0
0 3.78455 6.16402 1.08455 0.17685 0.81306 0.55467 0.15415 0.27415 1 0 1.0
bag_fabric
0 3.76537 6.34776 0.30000 0.55467 0.81306 0.17685 0.15184 0.18000 1 0 1.0
0 3.78455 6.16402 1.08455 0.55467 0.81306 0.17685 0.15415 0.27415 1 0 1.0
0 4.31251 5.81251 1.04474 0.55467 0.81306 0.17685 0.21750 0.26937 1 0 1.0
bag_fabric
0 3.76537 6.34776 0.30000 0.54586 0.81694 0.18611 0.15184 0.18000 1 0 1.0
0 4.31251 5.81251 1.04474 0.54586 0.81694 0.18611 0.21750 0.26937 1 0 1.0
0 4.41421 5.91421 0.30000 0.54586 0.81694 0.18611 0.22971 0.18000 1 0 1.0
bag_fabric
0 3.78455 6.16402 1.08455 0.47314 0.71645 0.51268 0.15415 0.27415 1 0 1.0
0 3.74474 5.81251 1.61251 0.47314 0.71645 0.51268 0.14937 0.33750 1 0 1.0
0 4.15470 5.65470 1.45470 0.47314 0.71645 0.51268 0.19856 0.31856 1 0 1.0
bag_fabric
0 3.78455 6.16402 1.08455 0.51268 0.71645 0.47314 0.15415 0.27415 1 0 1.0
0 4.15470 5.65470 1.45470 0.51268 0.71645 0.47314 0.19856 0.31856 1 0 1.0
0 4.31251 5.81251 1.04474 0.51268 0.71645 0.47314 0.21750 0.26937 1 0 1.0
bag_fabric
0 2.00000 -6.50000 0.00000 -0.19509 -0.98079 0.00000 -0.06000 0.14400 1 0 1.0
0 2.00000 -6.50000 0.30000 -0.19509 -0.98079 0.00000 -0.06000 0.18000 1 0 1.0
0 1.23463 -6.34776 0.30000 -0.19509 -0.98079 0.00000 -0.15184 0.18000 1 0 1.0
bag_fabric
0 2.00000 -6.50000 0.00000 -0.19509 -0.98079 0.00000 -0.06000 0.14400 1 0 1.0
0 1.23463 -6.34776 0.30000 -0.19509 -0.98079 0.00000 -0.15184 0.18000 1 0 1.0
0 1.23463 -6.34776 0.00000 -0.19509 -0.98079 0.00000 -0.15184 0.14400 1 0 1.0
bag_fabric
0 1.23463 -6.34776 0.00000 -0.55557 -0.83147 0.00000 -0.15184 0.14400 1 0 1.0
0 1.23463 -6.34776 0.30000 -0.55557 -0.83147 0.00000 -0.15184 0.18000 1 0 1.0
0 0.58579 -5.91421 0.30000 -0.55557 -0.83147 0.00000 -0.22971 0.18000 1 0 1.0
bag_fabric
0 1.23463 -6.34776 0.00000 -0.55557 -0.83147 0.00000 -0.15184 0.14400 1 0 1.0
0 0.58579 -5.91421 0.30000 -0.55557 -0.83147 0.00000 -0.22971 0.18000 1 0 1.0
0 0.58579 -5.91421 0.00000 -0.55557 -0.83147 0.00000 -0.22971 0.14400 1 0 1.0
bag_fabric
0 0.58579 -5.91421 0.00000 -0.83147 -0.55557 0.00000 -0.70971 0.14400 1 0 1.0
0 0.58579 -5.91421 0.30000 -0.83147 -0.55557 0.00000 -0.70971 0.18000 1 0 1.0
0 0.15224 -5.26537 0.30000 -0.83147 -0.55557 0.00000 -0.63184 0.18000 1 0 1.0
bag_fabric
0 0.58579 -5.91421 0.00000 -0.83147 -0.55557 0.00000 -0.70971 0.14400 1 0 1.0
0 0.15224 -5.26537 0.30000 -0.83147 -0.55557 0.00000 -0.63184 0.18000 1 0 1.0
0 0.15224 -5.26537 0.00000 -0.83147 -0.55557 0.00000 -0.63184 0.14400 1 0 1.0
bag_fabric
0 0.15224 -5.26537 0.00000 -0.98079 -0.19509 0.00000 -0.63184 0.14400 1 0 1.0
0 0.15224 -5.26537 0.30000 -0.98079 -0.19509 0.00000 -0.63184 0.18000 1 0 1.0
0 0.00000 -4.50000 0.30000 -0.98079 -0.19509 0.00000 -0.54000 0.18000 1 0 1.0
bag_fabric
0 0.15224 -5.26537 0.00000 -0.98079 -0.19509 0.00000 -0.63184 0.14400 1 0 1.0
0 0.00000 -4.50000 0.30000 -0.98079 -0.19509 0.00000 -0.54000 0.18000 1 0 1.0
0 0.00000 -4.50000 0.00000 -0.98079 -0.19509 0.00000 -0.54000 0.14400 1 0 1.0
bag_fabric
0 2.00000 -4.50000 2.30000 -0.19509 0.00000 0.98079 -0.06000 -0.54000 1 0 1.0
0 2.00000 4.50000 2.30000 -0.19509 0.00000 0.98079 -0.06000 0.54000 1 0 1.0
0 1.23463 4.50000 2.14776 -0.19509 0.00000 0.98079 -0.15184 0.54000 1 0 1.0
bag_fabric
0 2.00000 -4.50000 2.30000 -0.19509 0.00000 0.98079 -0.06000 -0.54000 1 0 1.0
0 1.23463 4.50000 2.14776 -0.19509 0.00000 0.98079 -0.15184 0.54000 1 0 1.0
0 1.23463 -4.50000 2.14776 -0.19509 0.00000 0.98079 -0.15184 -0.54000 1 0 1.0
bag_fabric
0 1.23463 -4.50000 2.14776 -0.55557 0.00000 0.83147 -0.15184 -0.54000 1 0 1.0
0 1.23463 4.50000 2.14776 -0.55557 0.00000 0.83147 -0.15184 0.54000 1 0 1.0
0 0.58579 4.50000 1.71421 -0.55557 0.00000 0.83147 -0.22971 0.54000 1 0 1.0
bag_fabric
0 1.23463 -4.50000 2.14776 -0.55557 0.00000 0.83147 -0.15184 -0.54000 1 0 1.0
0 0.58579 4.50000 1.71421 -0.55557 0.00000 0.83147 -0.22971 0.54000 1 0 1.0
0 0.58579 -4.50000 1.71421 -0.55557 0.00000 0.83147 -0.22971 -0.54000 1 0 1.0
bag_fabric
0 0.58579 -4.50000 1.71421 -0.83147 0.00000 0.55557 -0.54000 0.34971 1 0 1.0
0 0.58579 4.50000 1.71421 -0.83147 0.00000 0.55557 0.54000 0.34971 1 0 1.0
0 0.15224 4.50000 1.06537 -0.83147 0.00000 0.55557 0.54000 0.27184 1 0 1.0
bag_fabric
0 0.58579 -4.50000 1.71421 -0.83147 0.00000 0.55557 -0.54000 0.34971 1 0 1.0
0 0.15224 4.50000 1.06537 -0.83147 0.00000 0.55557 0.54000 0.27184 1 0 1.0
0 0.15224 -4.50000 1.06537 -0.83147 0.00000 0.55557 -0.54000 0.27184 1 0 1.0
bag_fabric
0 0.15224 -4.50000 1.06537 -0.98079 0.00000 0.19509 -0.54000 0.27184 1 0 1.0
0 0.15224 4.50000 1.06537 -0.98079 0.00000 0.19509 0.54000 0.27184 1 0 1.0
0 0.00000 4.50000 0.30000 -0.98079 0.00000 0.19509 0.54000 0.18000 1 0 1.0
bag_fabric
0 0.15224 -4.50000 1.06537 -0.98079 0.00000 0.19509 -0.54000 0.27184 1 0 1.0
0 0.00000 4.50000 0.30000 -0.98079 0.00000 0.19509 0.54000 0.18000 1 0 1.0
0 0.00000 -4.50000 0.30000 -0.98079 0.00000 0.19509 -0.54000 0.18000 1 0 1.0
bag_fabric
0 2.00000 4.50000 2.30000 0.00000 0.19509 0.98079 -0.06000 0.54000 1 0 1.0
0 3.00000 4.50000 2.30000 0.00000 0.19509 0.98079 0.06000 0.54000 1 0 1.0
0 3.00000 5.26537 2.14776 0.00000 0.19509 0.98079 0.06000 0.63184 1 0 1.0
bag_fabric
0 2.00000 4.50000 2.30000 0.00000 0.19509 0.98079 -0.06000 0.54000 1 0 1.0
0 3.00000 5.26537 2.14776 0.00000 0.19509 0.98079 0.06000 0.63184 1 0 1.0
0 2.00000 5.26537 2.14776 0.00000 0.19509 0.98079 -0.06000 0.63184 1 0 1.0
bag_fabric
0 2.00000 5.26537 2.14776 0.00000 0.55557 0.83147 -0.06000 0.63184 1 0 1.0
0 3.00000 5.26537 2.14776 0.00000 0.55557 0.83147 0.06000 0.63184 1 0 1.0
0 3.00000 5.91421 1.71421 0.00000 0.55557 0.83147 0.06000 0.70971 1 0 1.0
bag_fabric
0 2.00000 5.26537 2.14776 0.00000 0.55557 0.83147 -0.06000 0.63184 1 0 1.0
0 3.00000 5.91421 1.71421 0.00000 0.55557 0.83147 0.06000 0.70971 1 0 1.0
0 2.00000 5.91421 1.71421 0.00000 0.55557 0.83147 -0.06000 0.70971 1 0 1.0
bag_fabric
0 2.00000 5.91421 1.71421 0.00000 0.83147 0.55557 -0.06000 0.34971 1 0 1.0
0 3.00000 5.91421 1.71421 0.00000 0.83147 0.55557 0.06000 0.34971 1 0 1.0
0 3.00000 6.34776 1.06537 0.00000 0.83147 0.55557 0.06000 0.27184 1 0 1.0
bag_fabric
0 2.00000 5.91421 1.71421 0.00000 0.83147 0.55557 -0.06000 0.34971 1 0 1.0
0 3.00000 6.34776 1.06537 0.00000 0.83147 0.55557 0.06000 0.27184 1 0 1.0
0 2.00000 6.34776 1.06537 0.00000 0.83147 0.55557 -0.06000 0.27184 1 0 1.0
bag_fabric
0 2.00000 6.34776 1.06537 0.00000 0.98079 0.19509 -0.06000 0.27184 1 0 1.0
0 3.00000 6.34776 1.06537 0.00000 0.98079 0.19509 0.06000 0.27184 1 0 1.0
0 3.00000 6.50000 0.30000 0.00000 0.98079 0.19509 0.06000 0.18000 1 0 1.0
bag_fabric
0 2.00000 6.34776 1.06537 0.00000 0.98079 0.19509 -0.06000 0.27184 1 0 1.0
0 3.00000 6.50000 0.30000 0.00000 0.98079 0.19509 0.06000 0.18000 1 0 1.0
0 2.00000 6.50000 0.30000 0.00000 0.98079 0.19509 -0.06000 0.18000 1 0 1.0
bag_fabric
0 3.00000 4.50000 2.30000 0.19509 0.00000 0.98079 0.06000 0.54000 1 0 1.0
0 3.00000 -4.50000 2.30000 0.19509 0.00000 0.98079 0.06000 -0.54000 1 0 1.0
0 3.76537 -4.50000 2.14776 0.19509 0.00000 0.98079 0.15184 -0.54000 1 0 1.0
bag_fabric
0 3.00000 4.50000 2.30000 0.19509 0.00000 0.98079 0.06000 0.54000 1 0 1.0
0 3.76537 -4.50000 2.14776 0.19509 0.00000 0.98079 0.15184 -0.54000 1 0 1.0
0 3.76537 4.50000 2.14776 0.19509 0.00000 0.98079 0.15184 0.54000 1 0 1.0
bag_fabric
0 3.76537 4.50000 2.14776 0.55557 0.00000 0.83147 0.15184 0.54000 1 0 1.0
0 3.76537 -4.50000 2.14776 0.55557 0.00000 0.83147 0.15184 -0.54000 1 0 1.0
0 4.41421 -4.50000 1.71421 0.55557 0.00000 0.83147 0.22971 -0.54000 1 0 1.0
bag_fabric
0 3.76537 4.50000 2.14776 0.55557 0.00000 0.83147 0.15184 0.54000 1 0 1.0
0 4.41421 -4.50000 1.71421 0.55557 0.00000 0.83147 0.22971 -0.54000 1 0 1.0
0 4.41421 4.50000 1.71421 0.55557 0.00000 0.83147 0.22971 0.54000 1 0 1.0
bag_fabric
0 4.41421 4.50000 1.71421 0.83147 0.00000 0.55557 0.54000 0.34971 1 0 1.0
0 4.41421 -4.50000 1.71421 0.83147 0.00000 0.55557 -0.54000 0.34971 1 0 1.0
0 4.84776 -4.50000 1.06537 0.83147 0.00000 0.55557 -0.54000 0.27184 1 0 1.0
bag_fabric
0 4.41421 4.50000 1.71421 0.83147 0.00000 0.55557 0.54000 0.34971 1 0 1.0
0 4.84776 -4.50000 1.06537 0.83147 0.00000 0.55557 -0.54000 0.27184 1 0 1.0
0 4.84776 4.50000 1.06537 0.83147 0.00000 0.55557 0.54000 0.27184 1 0 1.0
bag_fabric
0 4.84776 4.50000 1.06537 0.98079 0.00000 0.19509 0.54000 0.27184 1 0 1.0
0 4.84776 -4.50000 1.06537 0.98079 0.00000 0.19509 -0.54000 0.27184 1 0 1.0
0 5.00000 -4.50000 0.30000 0.98079 0.00000 0.19509 -0.54000 0.18000 1 0 1.0
bag_fabric
0 4.84776 4.50000 1.06537 0.98079 0.00000 0.19509 0.54000 0.27184 1 0 1.0
0 5.00000 -4.50000 0.30000 0.98079 0.00000 0.19509 -0.54000 0.18000 1 0 1.0
0 5.00000 4.50000 0.30000 0.98079 0.00000 0.19509 0.54000 0.18000 1 0 1.0
bag_fabric
0 3.00000 -4.50000 2.30000 0.00000 -0.19509 0.98079 0.06000 -0.54000 1 0 1.0
0 2.00000 -4.50000 2.30000 0.00000 -0.19509 0.98079 -0.06000 -0.54000 1 0 1.0
0 2.00000 -5.26537 2.14776 0.00000 -0.19509 0.98079 -0.06000 -0.63184 1 0 1.0
bag_fabric
0 3.00000 -4.50000 2.30000 0.00000 -0.19509 0.98079 0.06000 -0.54000 1 0 1.0
0 2.00000 -5.26537 2.14776 0.00000 -0.19509 0.98079 -0.06000 -0.63184 1 0 1.0
0 3.00000 -5.26537 2.14776 0.00000 -0.19509 0.98079 0.06000 -0.63184 1 0 1.0
bag_fabric
0 3.00000 -5.26537 2.14776 0.00000 -0.55557 0.83147 0.06000 -0.63184 1 0 1.0
0 2.00000 -5.26537 2.14776 0.00000 -0.55557 0.83147 -0.06000 -0.63184 1 0 1.0
0 2.00000 -5.91421 1.71421 0.00000 -0.55557 0.83147 -0.06000 -0.70971 1 0 1.0
bag_fabric
0 3.00000 -5.26537 2.14776 0.00000 -0.55557 0.83147 0.06000 -0.63184 1 0 1.0
0 2.00000 -5.91421 1.71421 0.00000 -0.55557 0.83147 -0.06000 -0.70971 1 0 1.0
0 3.00000 -5.91421 1.71421 0.00000 -0.55557 0.83147 0.06000 -0.70971 1 0 1.0
bag_fabric
0 3.00000 -5.91421 1.71421 0.00000 -0.83147 0.55557 0.06000 0.34971 1 0 1.0
0 2.00000 -5.91421 1.71421 0.00000 -0.83147 0.55557 -0.06000 0.34971 1 0 1.0
0 2.00000 -6.34776 1.06537 0.00000 -0.83147 0.55557 -0.06000 0.27184 1 0 1.0
bag_fabric
0 3.00000 -5.91421 1.71421 0.00000 -0.83147 0.55557 0.06000 0.34971 1 0 1.0
0 2.00000 -6.34776 1.06537 0.00000 -0.83147 0.55557 -0.06000 0.27184 1 0 1.0
0 3.00000 -6.34776 1.06537 0.00000 -0.83147 0.55557 0.06000 0.27184 1 0 1.0
bag_fabric
0 3.00000 -6.34776 1.06537 0.00000 -0.98079 0.19509 0.06000 0.27184 1 0 1.0
0 2.00000 -6.34776 1.06537 0.00000 -0.98079 0.19509 -0.06000 0.27184 1 0 1.0
0 2.00000 -6.50000 0.30000 0.00000 -0.98079 0.19509 -0.06000 0.18000 1 0 1.0
bag_fabric
0 3.00000 -6.34776 1.06537 0.00000 -0.98079 0.19509 0.06000 0.27184 1 0 1.0
0 2.00000 -6.50000 0.30000 0.00000 -0.98079 0.19509 -0.06000 0.18000 1 0 1.0
0 3.00000 -6.50000 0.30000 0.00000 -0.98079 0.19509 0.06000 0.18000 1 0 1.0
bag_fabric
0 0.00000 -4.50000 0.00000 -1.00000 0.00000 0.00000 -0.54000 0.14400 1 0 1.0
0 0.00000 -4.50000 0.30000 -1.00000 0.00000 0.00000 -0.54000 0.18000 1 0 1.0
0 0.00000 4.50000 0.30000 -1.00000 0.00000 0.00000 0.54000 0.18000 1 0 1.0
bag_fabric
0 0.00000 -4.50000 0.00000 -1.00000 0.00000 0.00000 -0.54000 0.14400 1 0 1.0
0 0.00000 4.50000 0.30000 -1.00000 0.00000 0.00000 0.54000 0.18000 1 0 1.0
0 0.00000 4.50000 0.00000 -1.00000 0.00000 0.00000 0.54000 0.14400 1 0 1.0
bag_fabric
0 3.00000 -6.50000 0.00000 0.00000 -1.00000 0.00000 0.06000 0.14400 1 0 1.0
0 3.00000 -6.50000 0.30000 0.00000 -1.00000 0.00000 0.06000 0.18000 1 0 1.0
0 2.00000 -6.50000 0.30000 0.00000 -1.00000 0.00000 -0.06000 0.18000 1 0 1.0
bag_fabric
0 3.00000 -6.50000 0.00000 0.00000 -1.00000 0.00000 0.06000 0.14400 1 0 1.0
0 2.00000 -6.50000 0.30000 0.00000 -1.00000 0.00000 -0.06000 0.18000 1 0 1.0
0 2.00000 -6.50000 0.00000 0.00000 -1.00000 0.00000 -0.06000 0.14400 1 0 1.0
bag_fabric
0 3.00000 4.50000 2.30000 0.00000 0.00000 1.00000 0.06000 0.54000 1 0 1.0
0 2.00000 4.50000 2.30000 0.00000 0.00000 1.00000 -0.06000 0.54000 1 0 1.0
0 2.00000 -4.50000 2.30000 0.00000 0.00000 1.00000 -0.06000 -0.54000 1 0 1.0
bag_fabric
0 3.00000 4.50000 2.30000 0.00000 0.00000 1.00000 0.06000 0.54000 1 0 1.0
0 2.00000 -4.50000 2.30000 0.00000 0.00000 1.00000 -0.06000 -0.54000 1 0 1.0
0 3.00000 -4.50000 2.30000 0.00000 0.00000 1.00000 0.06000 -0.54000 1 0 1.0
bag_fabric
0 2.00000 6.50000 0.00000 0.00000 1.00000 0.00000 -0.06000 0.14400 1 0 1.0
0 2.00000 6.50000 0.30000 0.00000 1.00000 0.00000 -0.06000 0.18000 1 0 1.0
0 3.00000 6.50000 0.30000 0.00000 1.00000 0.00000 0.06000 0.18000 1 0 1.0
bag_fabric
0 2.00000 6.50000 0.00000 0.00000 1.00000 0.00000 -0.06000 0.14400 1 0 1.0
0 3.00000 6.50000 0.30000 0.00000 1.00000 0.00000 0.06000 0.18000 1 0 1.0
0 3.00000 6.50000 0.00000 0.00000 1.00000 0.00000 0.06000 0.14400 1 0 1.0
bag_fabric
0 5.00000 4.50000 0.00000 1.00000 0.00000 0.00000 0.54000 0.14400 1 0 1.0
0 5.00000 4.50000 0.30000 1.00000 0.00000 0.00000 0.54000 0.18000 1 0 1.0
0 5.00000 -4.50000 0.30000 1.00000 0.00000 0.00000 -0.54000 0.18000 1 0 1.0
bag_fabric
0 5.00000 4.50000 0.00000 1.00000 0.00000 0.00000 0.54000 0.14400 1 0 1.0
0 5.00000 -4.50000 0.30000 1.00000 0.00000 0.00000 -0.54000 0.18000 1 0 1.0
0 5.00000 -4.50000 0.00000 1.00000 0.00000 0.00000 -0.54000 0.14400 1 0 1.0
bag_fabric
0 4.84776 5.26537 0.30000 0.83147 0.55557 0.00000 0.63184 0.18000 1 0 1.0
0 4.84776 5.26537 0.00000 0.83147 0.55557 0.00000 0.63184 0.14400 1 0 1.0
0 4.41421 5.91421 0.00000 0.83147 0.55557 0.00000 0.70971 0.14400 1 0 1.0
bag_fabric
0 4.84776 5.26537 0.30000 0.83147 0.55557 0.00000 0.63184 0.18000 1 0 1.0
0 4.41421 5.91421 0.00000 0.83147 0.55557 0.00000 0.70971 0.14400 1 0 1.0
0 4.41421 5.91421 0.30000 0.83147 0.55557 0.00000 0.70971 0.18000 1 0 1.0
bag_fabric
0 5.00000 4.50000 0.30000 0.98079 0.19509 0.00000 0.54000 0.18000 1 0 1.0
0 5.00000 4.50000 0.00000 0.98079 0.19509 0.00000 0.54000 0.14400 1 0 1.0
0 4.84776 5.26537 0.00000 0.98079 0.19509 0.00000 0.63184 0.14400 1 0 1.0
bag_fabric
0 5.00000 4.50000 0.30000 0.98079 0.19509 0.00000 0.54000 0.18000 1 0 1.0
0 4.84776 5.26537 0.00000 0.98079 0.19509 0.00000 0.63184 0.14400 1 0 1.0
0 4.84776 5.26537 0.30000 0.98079 0.19509 0.00000 0.63184 0.18000 1 0 1.0
bag_fabric
0 0.15224 5.26537 0.30000 -0.98079 0.19509 0.00000 0.63184 0.18000 1 0 1.0
0 0.15224 5.26537 0.00000 -0.98079 0.19509 0.00000 0.63184 0.14400 1 0 1.0
0 0.00000 4.50000 0.00000 -0.98079 0.19509 0.00000 0.54000 0.14400 1 0 1.0
bag_fabric
0 0.15224 5.26537 0.30000 -0.98079 0.19509 0.00000 0.63184 0.18000 1 0 1.0
0 0.00000 4.50000 0.00000 -0.98079 0.19509 0.00000 0.54000 0.14400 1 0 1.0
0 0.00000 4.50000 0.30000 -0.98079 0.19509 0.00000 0.54000 0.18000 1 0 1.0
bag_fabric
0 0.58579 5.91421 0.30000 -0.83147 0.55557 0.00000 0.70971 0.18000 1 0 1.0
0 0.58579 5.91421 0.00000 -0.83147 0.55557 0.00000 0.70971 0.14400 1 0 1.0
0 0.15224 5.26537 0.00000 -0.83147 0.55557 0.00000 0.63184 0.14400 1 0 1.0
bag_fabric
0 0.58579 5.91421 0.30000 -0.83147 0.55557 0.00000 0.70971 0.18000 1 0 1.0
0 0.15224 5.26537 0.00000 -0.83147 0.55557 0.00000 0.63184 0.14400 1 0 1.0
0 0.15224 5.26537 0.30000 -0.83147 0.55557 0.00000 0.63184 0.18000 1 0 1.0
bag_fabric
0 1.23463 6.34776 0.30000 -0.55557 0.83147 0.00000 -0.15184 0.18000 1 0 1.0
0 1.23463 6.34776 0.00000 -0.55557 0.83147 0.00000 -0.15184 0.14400 1 0 1.0
0 0.58579 5.91421 0.00000 -0.55557 0.83147 0.00000 -0.22971 0.14400 1 0 1.0
bag_fabric
0 1.23463 6.34776 0.30000 -0.55557 0.83147 0.00000 -0.15184 0.18000 1 0 1.0
0 0.58579 5.91421 0.00000 -0.55557 0.83147 0.00000 -0.22971 0.14400 1 0 1.0
0 0.58579 5.91421 0.30000 -0.55557 0.83147 0.00000 -0.22971 0.18000 1 0 1.0
bag_fabric
0 2.00000 6.50000 0.30000 -0.19509 0.98079 0.00000 -0.06000 0.18000 1 0 1.0
0 2.00000 6.50000 0.00000 -0.19509 0.98079 0.00000 -0.06000 0.14400 1 0 1.0
0 1.23463 6.34776 0.00000 -0.19509 0.98079 0.00000 -0.15184 0.14400 1 0 1.0
bag_fabric
0 2.00000 6.50000 0.30000 -0.19509 0.98079 0.00000 -0.06000 0.18000 1 0 1.0
0 1.23463 6.34776 0.00000 -0.19509 0.98079 0.00000 -0.15184 0.14400 1 0 1.0
0 1.23463 6.34776 0.30000 -0.19509 0.98079 0.00000 -0.15184 0.18000 1 0 1.0
end
