version 1
nodes
0 "root" -1
1 "waistbag_lid" 0
2 "waistbag_zipper" 0
end
skeleton
time 0
0 0 0 0 0 0 0
1 -2.500000 0.000000 1.200000 0.000000 -1.256637 0.000000
2 2.600000 -3.900000 1.300000 0.000000 -0.000000 0.000000
time 1
0 0 0 0 0 0 0
1 -2.500000 0.000000 1.200000 0.000000 -1.235728 0.000000
2 2.600000 -3.900000 1.300000 0.000000 -0.000000 0.000000
time 2
0 0 0 0 0 0 0
1 -2.500000 0.000000 1.200000 0.000000 -1.177330 0.000000
2 2.600000 -3.900000 1.300000 0.000000 -0.000000 0.000000
time 3
0 0 0 0 0 0 0
1 -2.500000 0.000000 1.200000 0.000000 -1.087934 0.000000
2 2.600000 -3.900000 1.300000 0.000000 -0.000000 0.000000
time 4
0 0 0 0 0 0 0
1 -2.500000 0.000000 1.200000 0.000000 -0.974033 0.000000
2 2.600000 -3.900000 1.300000 0.000000 -0.000000 0.000000
time 5
0 0 0 0 0 0 0
1 -2.500000 0.000000 1.200000 0.000000 -0.842121 0.000000
2 2.600000 -3.900000 1.300000 0.000000 -0.000000 0.000000
time 6
0 0 0 0 0 0 0
1 -2.500000 0.000000 1.200000 0.000000 -0.698690 0.000000
2 2.600000 -3.900000 1.300000 0.000000 -0.000000 0.000000
time 7
0 0 0 0 0 0 0
1 -2.500000 0.000000 1.200000 0.000000 -0.550232 0.000000
2 2.600000 -3.900000 1.300000 0.000000 -0.000000 0.000000
time 8
0 0 0 0 0 0 0
1 -2.500000 0.000000 1.200000 0.000000 -0.403241 0.000000
2 2.600000 -3.900000 1.300000 0.000000 -0.000000 0.000000
time 9
0 0 0 0 0 0 0
1 -2.500000 0.000000 1.200000 0.000000 -0.264208 0.000000
2 2.600000 -3.900000 1.300000 0.000000 -0.000000 0.000000
time 10
0 0 0 0 0 0 0
1 -2.500000 0.000000 1.200000 0.000000 -0.139626 0.000000
2 2.600000 -3.900000 1.300000 0.000000 -0.000000 0.000000
time 11
0 0 0 0 0 0 0
1 -2.500000 0.000000 1.200000 0.000000 -0.041015 0.000000
2 2.600000 -3.900000 1.300000 0.000000 -0.000000 0.000000
time 12
0 0 0 0 0 0 0
1 -2.500000 0.000000 1.200000 0.000000 -0.000000 0.000000
2 2.600000 -3.900000 1.300000 0.000000 -0.000000 0.000000
time 13
0 0 0 0 0 0 0
1 -2.500000 0.000000 1.200000 0.000000 -0.000000 0.000000
2 2.600000 -3.746529 1.300000 0.000000 -0.000000 0.000000
time 14
0 0 0 0 0 0 0
1 -2.500000 0.000000 1.200000 0.000000 -0.000000 0.000000
2 2.600000 -3.322223 1.300000 0.000000 -0.000000 0.000000
time 15
0 0 0 0 0 0 0
1 -2.500000 0.000000 1.200000 0.000000 -0.000000 0.000000
2 2.600000 -2.681250 1.300000 0.000000 -0.000000 0.000000
time 16
0 0 0 0 0 0 0
1 -2.500000 0.000000 1.200000 0.000000 -0.000000 0.000000
2 2.600000 -1.877779 1.300000 0.000000 -0.000000 0.000000
time 17
0 0 0 0 0 0 0
1 -2.500000 0.000000 1.200000 0.000000 -0.000000 0.000000
2 2.600000 -0.965972 1.300000 0.000000 -0.000000 0.000000
time 18
0 0 0 0 0 0 0
1 -2.500000 0.000000 1.200000 0.000000 -0.000000 0.000000
2 2.600000 -0.000000 1.300000 0.000000 -0.000000 0.000000
time 19
0 0 0 0 0 0 0
1 -2.500000 0.000000 1.200000 0.000000 -0.000000 0.000000
2 2.600000 0.965972 1.300000 0.000000 -0.000000 0.000000
time 20
0 0 0 0 0 0 0
1 -2.500000 0.000000 1.200000 0.000000 -0.000000 0.000000
2 2.600000 1.877778 1.300000 0.000000 -0.000000 0.000000
time 21
0 0 0 0 0 0 0
1 -2.500000 0.000000 1.200000 0.000000 -0.000000 0.000000
2 2.600000 2.681250 1.300000 0.000000 -0.000000 0.000000
time 22
0 0 0 0 0 0 0
1 -2.500000 0.000000 1.200000 0.000000 -0.000000 0.000000
2 2.600000 3.322222 1.300000 0.000000 -0.000000 0.000000
time 23
0 0 0 0 0 0 0
1 -2.500000 0.000000 1.200000 0.000000 -0.000000 0.000000
2 2.600000 3.746528 1.300000 0.000000 -0.000000 0.000000
time 24
0 0 0 0 0 0 0
1 -2.500000 0.000000 1.200000 0.000000 -0.000000 0.000000
2 2.600000 3.900000 1.300000 0.000000 -0.000000 0.000000
end
