version 1
nodes
0 "root" -1
end
skeleton
time 0
0 0 0 0 0 0 0
end
triangles
phys
0 -14.8200 -8.6124 -3.5000 0 0 1 0 0 1 0 1.0
0 -14.8200 -8.6124 2.3000 0 0 1 0 0 1 0 1.0
0 -14.8200 8.6124 2.3000 0 0 1 0 0 1 0 1.0
phys
0 -14.8200 -8.6124 -3.5000 0 0 1 0 0 1 0 1.0
0 -14.8200 8.6124 2.3000 0 0 1 0 0 1 0 1.0
0 -14.8200 8.6124 -3.5000 0 0 1 0 0 1 0 1.0
phys
0 5.0000 -8.6124 -3.5000 0 0 1 0 0 1 0 1.0
0 5.0000 8.6124 -3.5000 0 0 1 0 0 1 0 1.0
0 5.0000 8.6124 2.3000 0 0 1 0 0 1 0 1.0
phys
0 5.0000 -8.6124 -3.5000 0 0 1 0 0 1 0 1.0
0 5.0000 8.6124 2.3000 0 0 1 0 0 1 0 1.0
0 5.0000 -8.6124 2.3000 0 0 1 0 0 1 0 1.0
phys
0 -14.8200 -8.6124 -3.5000 0 0 1 0 0 1 0 1.0
0 5.0000 -8.6124 -3.5000 0 0 1 0 0 1 0 1.0
0 5.0000 -8.6124 2.3000 0 0 1 0 0 1 0 1.0
phys
0 -14.8200 -8.6124 -3.5000 0 0 1 0 0 1 0 1.0
0 5.0000 -8.6124 2.3000 0 0 1 0 0 1 0 1.0
0 -14.8200 -8.6124 2.3000 0 0 1 0 0 1 0 1.0
phys
0 -14.8200 8.6124 -3.5000 0 0 1 0 0 1 0 1.0
0 -14.8200 8.6124 2.3000 0 0 1 0 0 1 0 1.0
0 5.0000 8.6124 2.3000 0 0 1 0 0 1 0 1.0
phys
0 -14.8200 8.6124 -3.5000 0 0 1 0 0 1 0 1.0
0 5.0000 8.6124 2.3000 0 0 1 0 0 1 0 1.0
0 5.0000 8.6124 -3.5000 0 0 1 0 0 1 0 1.0
phys
0 -14.8200 -8.6124 -3.5000 0 0 1 0 0 1 0 1.0
0 -14.8200 8.6124 -3.5000 0 0 1 0 0 1 0 1.0
0 5.0000 8.6124 -3.5000 0 0 1 0 0 1 0 1.0
phys
0 -14.8200 -8.6124 -3.5000 0 0 1 0 0 1 0 1.0
0 5.0000 8.6124 -3.5000 0 0 1 0 0 1 0 1.0
0 5.0000 -8.6124 -3.5000 0 0 1 0 0 1 0 1.0
phys
0 -14.8200 -8.6124 2.3000 0 0 1 0 0 1 0 1.0
0 5.0000 -8.6124 2.3000 0 0 1 0 0 1 0 1.0
0 5.0000 8.6124 2.3000 0 0 1 0 0 1 0 1.0
phys
0 -14.8200 -8.6124 2.3000 0 0 1 0 0 1 0 1.0
0 5.0000 8.6124 2.3000 0 0 1 0 0 1 0 1.0
0 -14.8200 8.6124 2.3000 0 0 1 0 0 1 0 1.0
end
