version 1
nodes
0 "root" -1
end
skeleton
time 0
0 0 0 0 0 0 0
end
triangles
bag_metal
0 -0.23000 -0.33000 -0.20000 -0.28175 -0.36718 -0.88645 0.31500 0.52560 1 0 1.0
0 -0.23000 -0.41485 -0.16485 -0.28175 -0.36718 -0.88645 0.31500 0.51033 1 0 1.0
0 -0.29928 -0.39928 -0.14928 -0.28175 -0.36718 -0.88645 0.30253 0.51313 1 0 1.0
bag_metal
0 -0.23000 -0.33000 -0.20000 -0.36718 -0.28175 -0.88645 0.31500 0.52560 1 0 1.0
0 -0.29928 -0.39928 -0.14928 -0.36718 -0.28175 -0.88645 0.30253 0.51313 1 0 1.0
0 -0.31485 -0.33000 -0.16485 -0.36718 -0.28175 -0.88645 0.29973 0.52560 1 0 1.0
bag_metal
0 -0.23000 -0.45000 -0.08000 -0.36718 -0.88645 -0.28175 0.31500 0.16200 1 0 1.0
0 -0.31485 -0.41485 -0.08000 -0.36718 -0.88645 -0.28175 0.29973 0.16200 1 0 1.0
0 -0.29928 -0.39928 -0.14928 -0.36718 -0.88645 -0.28175 0.30253 0.14953 1 0 1.0
bag_metal
0 -0.23000 -0.45000 -0.08000 -0.28175 -0.88645 -0.36718 0.31500 0.16200 1 0 1.0
0 -0.29928 -0.39928 -0.14928 -0.28175 -0.88645 -0.36718 0.30253 0.14953 1 0 1.0
0 -0.23000 -0.41485 -0.16485 -0.28175 -0.88645 -0.36718 0.31500 0.14673 1 0 1.0
bag_metal
0 -0.35000 -0.33000 -0.08000 -0.88645 -0.28175 -0.36718 0.52560 0.16200 1 0 1.0
0 -0.31485 -0.33000 -0.16485 -0.88645 -0.28175 -0.36718 0.52560 0.14673 1 0 1.0
0 -0.29928 -0.39928 -0.14928 -0.88645 -0.28175 -0.36718 0.51313 0.14953 1 0 1.0
bag_metal
0 -0.35000 -0.33000 -0.08000 -0.88645 -0.36718 -0.28175 0.52560 0.16200 1 0 1.0
0 -0.29928 -0.39928 -0.14928 -0.88645 -0.36718 -0.28175 0.51313 0.14953 1 0 1.0
0 -0.31485 -0.41485 -0.08000 -0.88645 -0.36718 -0.28175 0.51033 0.16200 1 0 1.0
bag_metal
0 -0.23000 -0.45000 0.08000 -0.28175 -0.88645 0.36718 0.31500 0.19080 1 0 1.0
0 -0.23000 -0.41485 0.16485 -0.28175 -0.88645 0.36718 0.31500 0.20607 1 0 1.0
0 -0.29928 -0.39928 0.14928 -0.28175 -0.88645 0.36718 0.30253 0.20327 1 0 1.0
bag_metal
0 -0.23000 -0.45000 0.08000 -0.36718 -0.88645 0.28175 0.31500 0.19080 1 0 1.0
0 -0.29928 -0.39928 0.14928 -0.36718 -0.88645 0.28175 0.30253 0.20327 1 0 1.0
0 -0.31485 -0.41485 0.08000 -0.36718 -0.88645 0.28175 0.29973 0.19080 1 0 1.0
bag_metal
0 -0.23000 -0.33000 0.20000 -0.36718 -0.28175 0.88645 0.31500 0.52560 1 0 1.0
0 -0.31485 -0.33000 0.16485 -0.36718 -0.28175 0.88645 0.29973 0.52560 1 0 1.0
0 -0.29928 -0.39928 0.14928 -0.36718 -0.28175 0.88645 0.30253 0.51313 1 0 1.0
bag_metal
0 -0.23000 -0.33000 0.20000 -0.28175 -0.36718 0.88645 0.31500 0.52560 1 0 1.0
0 -0.29928 -0.39928 0.14928 -0.28175 -0.36718 0.88645 0.30253 0.51313 1 0 1.0
0 -0.23000 -0.41485 0.16485 -0.28175 -0.36718 0.88645 0.31500 0.51033 1 0 1.0
bag_metal
0 -0.35000 -0.33000 0.08000 -0.88645 -0.36718 0.28175 0.52560 0.19080 1 0 1.0
0 -0.31485 -0.41485 0.08000 -0.88645 -0.36718 0.28175 0.51033 0.19080 1 0 1.0
0 -0.29928 -0.39928 0.14928 -0.88645 -0.36718 0.28175 0.51313 0.20327 1 0 1.0
bag_metal
0 -0.35000 -0.33000 0.08000 -0.88645 -0.28175 0.36718 0.52560 0.19080 1 0 1.0
0 -0.29928 -0.39928 0.14928 -0.88645 -0.28175 0.36718 0.51313 0.20327 1 0 1.0
0 -0.31485 -0.33000 0.16485 -0.88645 -0.28175 0.36718 0.52560 0.20607 1 0 1.0
bag_metal
0 -0.23000 0.33000 -0.20000 -0.36718 0.28175 -0.88645 0.31500 0.64440 1 0 1.0
0 -0.31485 0.33000 -0.16485 -0.36718 0.28175 -0.88645 0.29973 0.64440 1 0 1.0
0 -0.29928 0.39928 -0.14928 -0.36718 0.28175 -0.88645 0.30253 0.65687 1 0 1.0
bag_metal
0 -0.23000 0.33000 -0.20000 -0.28175 0.36718 -0.88645 0.31500 0.64440 1 0 1.0
0 -0.29928 0.39928 -0.14928 -0.28175 0.36718 -0.88645 0.30253 0.65687 1 0 1.0
0 -0.23000 0.41485 -0.16485 -0.28175 0.36718 -0.88645 0.31500 0.65967 1 0 1.0
bag_metal
0 -0.35000 0.33000 -0.08000 -0.88645 0.36718 -0.28175 0.64440 0.16200 1 0 1.0
0 -0.31485 0.41485 -0.08000 -0.88645 0.36718 -0.28175 0.65967 0.16200 1 0 1.0
0 -0.29928 0.39928 -0.14928 -0.88645 0.36718 -0.28175 0.65687 0.14953 1 0 1.0
bag_metal
0 -0.35000 0.33000 -0.08000 -0.88645 0.28175 -0.36718 0.64440 0.16200 1 0 1.0
0 -0.29928 0.39928 -0.14928 -0.88645 0.28175 -0.36718 0.65687 0.14953 1 0 1.0
0 -0.31485 0.33000 -0.16485 -0.88645 0.28175 -0.36718 0.64440 0.14673 1 0 1.0
bag_metal
0 -0.23000 0.45000 -0.08000 -0.28175 0.88645 -0.36718 0.31500 0.16200 1 0 1.0
0 -0.23000 0.41485 -0.16485 -0.28175 0.88645 -0.36718 0.31500 0.14673 1 0 1.0
0 -0.29928 0.39928 -0.14928 -0.28175 0.88645 -0.36718 0.30253 0.14953 1 0 1.0
bag_metal
0 -0.23000 0.45000 -0.08000 -0.36718 0.88645 -0.28175 0.31500 0.16200 1 0 1.0
0 -0.29928 0.39928 -0.14928 -0.36718 0.88645 -0.28175 0.30253 0.14953 1 0 1.0
0 -0.31485 0.41485 -0.08000 -0.36718 0.88645 -0.28175 0.29973 0.16200 1 0 1.0
bag_metal
0 -0.23000 0.33000 0.20000 -0.28175 0.36718 0.88645 0.31500 0.64440 1 0 1.0
0 -0.23000 0.41485 0.16485 -0.28175 0.36718 0.88645 0.31500 0.65967 1 0 1.0
0 -0.29928 0.39928 0.14928 -0.28175 0.36718 0.88645 0.30253 0.65687 1 0 1.0
bag_metal
0 -0.23000 0.33000 0.20000 -0.36718 0.28175 0.88645 0.31500 0.64440 1 0 1.0
0 -0.29928 0.39928 0.14928 -0.36718 0.28175 0.88645 0.30253 0.65687 1 0 1.0
0 -0.31485 0.33000 0.16485 -0.36718 0.28175 0.88645 0.29973 0.64440 1 0 1.0
bag_metal
0 -0.23000 0.45000 0.08000 -0.36718 0.88645 0.28175 0.31500 0.19080 1 0 1.0
0 -0.31485 0.41485 0.08000 -0.36718 0.88645 0.28175 0.29973 0.19080 1 0 1.0
0 -0.29928 0.39928 0.14928 -0.36718 0.88645 0.28175 0.30253 0.20327 1 0 1.0
bag_metal
0 -0.23000 0.45000 0.08000 -0.28175 0.88645 0.36718 0.31500 0.19080 1 0 1.0
0 -0.29928 0.39928 0.14928 -0.28175 0.88645 0.36718 0.30253 0.20327 1 0 1.0
0 -0.23000 0.41485 0.16485 -0.28175 0.88645 0.36718 0.31500 0.20607 1 0 1.0
bag_metal
0 -0.35000 0.33000 0.08000 -0.88645 0.28175 0.36718 0.64440 0.19080 1 0 1.0
0 -0.31485 0.33000 0.16485 -0.88645 0.28175 0.36718 0.64440 0.20607 1 0 1.0
0 -0.29928 0.39928 0.14928 -0.88645 0.28175 0.36718 0.65687 0.20327 1 0 1.0
bag_metal
0 -0.35000 0.33000 0.08000 -0.88645 0.36718 0.28175 0.64440 0.19080 1 0 1.0
0 -0.29928 0.39928 0.14928 -0.88645 0.36718 0.28175 0.65687 0.20327 1 0 1.0
0 -0.31485 0.41485 0.08000 -0.88645 0.36718 0.28175 0.65967 0.19080 1 0 1.0
bag_metal
0 0.23000 -0.33000 -0.20000 0.36718 -0.28175 -0.88645 0.39780 0.52560 1 0 1.0
0 0.31485 -0.33000 -0.16485 0.36718 -0.28175 -0.88645 0.41307 0.52560 1 0 1.0
0 0.29928 -0.39928 -0.14928 0.36718 -0.28175 -0.88645 0.41027 0.51313 1 0 1.0
bag_metal
0 0.23000 -0.33000 -0.20000 0.28175 -0.36718 -0.88645 0.39780 0.52560 1 0 1.0
0 0.29928 -0.39928 -0.14928 0.28175 -0.36718 -0.88645 0.41027 0.51313 1 0 1.0
0 0.23000 -0.41485 -0.16485 0.28175 -0.36718 -0.88645 0.39780 0.51033 1 0 1.0
bag_metal
0 0.35000 -0.33000 -0.08000 0.88645 -0.36718 -0.28174 0.52560 0.16200 1 0 1.0
0 0.31485 -0.41485 -0.08000 0.88645 -0.36718 -0.28174 0.51033 0.16200 1 0 1.0
0 0.29928 -0.39928 -0.14928 0.88645 -0.36718 -0.28174 0.51313 0.14953 1 0 1.0
bag_metal
0 0.35000 -0.33000 -0.08000 0.88645 -0.28175 -0.36718 0.52560 0.16200 1 0 1.0
0 0.29928 -0.39928 -0.14928 0.88645 -0.28175 -0.36718 0.51313 0.14953 1 0 1.0
0 0.31485 -0.33000 -0.16485 0.88645 -0.28175 -0.36718 0.52560 0.14673 1 0 1.0
bag_metal
0 0.23000 -0.45000 -0.08000 0.28175 -0.88645 -0.36718 0.39780 0.16200 1 0 1.0
0 0.23000 -0.41485 -0.16485 0.28175 -0.88645 -0.36718 0.39780 0.14673 1 0 1.0
0 0.29928 -0.39928 -0.14928 0.28175 -0.88645 -0.36718 0.41027 0.14953 1 0 1.0
bag_metal
0 0.23000 -0.45000 -0.08000 0.36718 -0.88645 -0.28174 0.39780 0.16200 1 0 1.0
0 0.29928 -0.39928 -0.14928 0.36718 -0.88645 -0.28174 0.41027 0.14953 1 0 1.0
0 0.31485 -0.41485 -0.08000 0.36718 -0.88645 -0.28174 0.41307 0.16200 1 0 1.0
bag_metal
0 0.23000 -0.33000 0.20000 0.28175 -0.36718 0.88645 0.39780 0.52560 1 0 1.0
0 0.23000 -0.41485 0.16485 0.28175 -0.36718 0.88645 0.39780 0.51033 1 0 1.0
0 0.29928 -0.39928 0.14928 0.28175 -0.36718 0.88645 0.41027 0.51313 1 0 1.0
bag_metal
0 0.23000 -0.33000 0.20000 0.36718 -0.28175 0.88645 0.39780 0.52560 1 0 1.0
0 0.29928 -0.39928 0.14928 0.36718 -0.28175 0.88645 0.41027 0.51313 1 0 1.0
0 0.31485 -0.33000 0.16485 0.36718 -0.28175 0.88645 0.41307 0.52560 1 0 1.0
bag_metal
0 0.23000 -0.45000 0.08000 0.36718 -0.88645 0.28174 0.39780 0.19080 1 0 1.0
0 0.31485 -0.41485 0.08000 0.36718 -0.88645 0.28174 0.41307 0.19080 1 0 1.0
0 0.29928 -0.39928 0.14928 0.36718 -0.88645 0.28174 0.41027 0.20327 1 0 1.0
bag_metal
0 0.23000 -0.45000 0.08000 0.28175 -0.88645 0.36718 0.39780 0.19080 1 0 1.0
0 0.29928 -0.39928 0.14928 0.28175 -0.88645 0.36718 0.41027 0.20327 1 0 1.0
0 0.23000 -0.41485 0.16485 0.28175 -0.88645 0.36718 0.39780 0.20607 1 0 1.0
bag_metal
0 0.35000 -0.33000 0.08000 0.88645 -0.28175 0.36718 0.52560 0.19080 1 0 1.0
0 0.31485 -0.33000 0.16485 0.88645 -0.28175 0.36718 0.52560 0.20607 1 0 1.0
0 0.29928 -0.39928 0.14928 0.88645 -0.28175 0.36718 0.51313 0.20327 1 0 1.0
bag_metal
0 0.35000 -0.33000 0.08000 0.88645 -0.36718 0.28174 0.52560 0.19080 1 0 1.0
0 0.29928 -0.39928 0.14928 0.88645 -0.36718 0.28174 0.51313 0.20327 1 0 1.0
0 0.31485 -0.41485 0.08000 0.88645 -0.36718 0.28174 0.51033 0.19080 1 0 1.0
bag_metal
0 0.23000 0.33000 -0.20000 0.28175 0.36718 -0.88645 0.39780 0.64440 1 0 1.0
0 0.23000 0.41485 -0.16485 0.28175 0.36718 -0.88645 0.39780 0.65967 1 0 1.0
0 0.29928 0.39928 -0.14928 0.28175 0.36718 -0.88645 0.41027 0.65687 1 0 1.0
bag_metal
0 0.23000 0.33000 -0.20000 0.36718 0.28175 -0.88645 0.39780 0.64440 1 0 1.0
0 0.29928 0.39928 -0.14928 0.36718 0.28175 -0.88645 0.41027 0.65687 1 0 1.0
0 0.31485 0.33000 -0.16485 0.36718 0.28175 -0.88645 0.41307 0.64440 1 0 1.0
bag_metal
0 0.23000 0.45000 -0.08000 0.36718 0.88645 -0.28174 0.39780 0.16200 1 0 1.0
0 0.31485 0.41485 -0.08000 0.36718 0.88645 -0.28174 0.41307 0.16200 1 0 1.0
0 0.29928 0.39928 -0.14928 0.36718 0.88645 -0.28174 0.41027 0.14953 1 0 1.0
bag_metal
0 0.23000 0.45000 -0.08000 0.28175 0.88645 -0.36718 0.39780 0.16200 1 0 1.0
0 0.29928 0.39928 -0.14928 0.28175 0.88645 -0.36718 0.41027 0.14953 1 0 1.0
0 0.23000 0.41485 -0.16485 0.28175 0.88645 -0.36718 0.39780 0.14673 1 0 1.0
bag_metal
0 0.35000 0.33000 -0.08000 0.88645 0.28175 -0.36718 0.64440 0.16200 1 0 1.0
0 0.31485 0.33000 -0.16485 0.88645 0.28175 -0.36718 0.64440 0.14673 1 0 1.0
0 0.29928 0.39928 -0.14928 0.88645 0.28175 -0.36718 0.65687 0.14953 1 0 1.0
bag_metal
0 0.35000 0.33000 -0.08000 0.88645 0.36718 -0.28174 0.64440 0.16200 1 0 1.0
0 0.29928 0.39928 -0.14928 0.88645 0.36718 -0.28174 0.65687 0.14953 1 0 1.0
0 0.31485 0.41485 -0.08000 0.88645 0.36718 -0.28174 0.65967 0.16200 1 0 1.0
bag_metal
0 0.23000 0.33000 0.20000 0.36718 0.28175 0.88645 0.39780 0.64440 1 0 1.0
0 0.31485 0.33000 0.16485 0.36718 0.28175 0.88645 0.41307 0.64440 1 0 1.0
0 0.29928 0.39928 0.14928 0.36718 0.28175 0.88645 0.41027 0.65687 1 0 1.0
bag_metal
0 0.23000 0.33000 0.20000 0.28175 0.36718 0.88645 0.39780 0.64440 1 0 1.0
0 0.29928 0.39928 0.14928 0.28175 0.36718 0.88645 0.41027 0.65687 1 0 1.0
0 0.23000 0.41485 0.16485 0.28175 0.36718 0.88645 0.39780 0.65967 1 0 1.0
bag_metal
0 0.35000 0.33000 0.08000 0.88645 0.36718 0.28174 0.64440 0.19080 1 0 1.0
0 0.31485 0.41485 0.08000 0.88645 0.36718 0.28174 0.65967 0.19080 1 0 1.0
0 0.29928 0.39928 0.14928 0.88645 0.36718 0.28174 0.65687 0.20327 1 0 1.0
bag_metal
0 0.35000 0.33000 0.08000 0.88645 0.28175 0.36718 0.64440 0.19080 1 0 1.0
0 0.29928 0.39928 0.14928 0.88645 0.28175 0.36718 0.65687 0.20327 1 0 1.0
0 0.31485 0.33000 0.16485 0.88645 0.28175 0.36718 0.64440 0.20607 1 0 1.0
bag_metal
0 0.23000 0.45000 0.08000 0.28175 0.88645 0.36718 0.39780 0.19080 1 0 1.0
0 0.23000 0.41485 0.16485 0.28175 0.88645 0.36718 0.39780 0.20607 1 0 1.0
0 0.29928 0.39928 0.14928 0.28175 0.88645 0.36718 0.41027 0.20327 1 0 1.0
bag_metal
0 0.23000 0.45000 0.08000 0.36718 0.88645 0.28174 0.39780 0.19080 1 0 1.0
0 0.29928 0.39928 0.14928 0.36718 0.88645 0.28174 0.41027 0.20327 1 0 1.0
0 0.31485 0.41485 0.08000 0.36718 0.88645 0.28174 0.41307 0.19080 1 0 1.0
bag_metal
0 -0.23000 0.33000 -0.20000 -0.38268 0.00000 -0.92388 0.31500 0.64440 1 0 1.0
0 -0.23000 -0.33000 -0.20000 -0.38268 0.00000 -0.92388 0.31500 0.52560 1 0 1.0
0 -0.31485 -0.33000 -0.16485 -0.38268 0.00000 -0.92388 0.29973 0.52560 1 0 1.0
bag_metal
0 -0.23000 0.33000 -0.20000 -0.38268 0.00000 -0.92388 0.31500 0.64440 1 0 1.0
0 -0.31485 -0.33000 -0.16485 -0.38268 0.00000 -0.92388 0.29973 0.52560 1 0 1.0
0 -0.31485 0.33000 -0.16485 -0.38268 0.00000 -0.92388 0.29973 0.64440 1 0 1.0
bag_metal
0 -0.31485 0.33000 -0.16485 -0.92388 0.00000 -0.38268 0.64440 0.14673 1 0 1.0
0 -0.31485 -0.33000 -0.16485 -0.92388 0.00000 -0.38268 0.52560 0.14673 1 0 1.0
0 -0.35000 -0.33000 -0.08000 -0.92388 0.00000 -0.38268 0.52560 0.16200 1 0 1.0
bag_metal
0 -0.31485 0.33000 -0.16485 -0.92388 0.00000 -0.38268 0.64440 0.14673 1 0 1.0
0 -0.35000 -0.33000 -0.08000 -0.92388 0.00000 -0.38268 0.52560 0.16200 1 0 1.0
0 -0.35000 0.33000 -0.08000 -0.92388 0.00000 -0.38268 0.64440 0.16200 1 0 1.0
bag_metal
0 -0.23000 -0.45000 -0.08000 -0.38268 -0.92388 0.00000 0.31500 0.16200 1 0 1.0
0 -0.23000 -0.45000 0.08000 -0.38268 -0.92388 0.00000 0.31500 0.19080 1 0 1.0
0 -0.31485 -0.41485 0.08000 -0.38268 -0.92388 0.00000 0.29973 0.19080 1 0 1.0
bag_metal
0 -0.23000 -0.45000 -0.08000 -0.38268 -0.92388 0.00000 0.31500 0.16200 1 0 1.0
0 -0.31485 -0.41485 0.08000 -0.38268 -0.92388 0.00000 0.29973 0.19080 1 0 1.0
0 -0.31485 -0.41485 -0.08000 -0.38268 -0.92388 0.00000 0.29973 0.16200 1 0 1.0
bag_metal
0 -0.31485 -0.41485 -0.08000 -0.92388 -0.38268 0.00000 0.51033 0.16200 1 0 1.0
0 -0.31485 -0.41485 0.08000 -0.92388 -0.38268 0.00000 0.51033 0.19080 1 0 1.0
0 -0.35000 -0.33000 0.08000 -0.92388 -0.38268 0.00000 0.52560 0.19080 1 0 1.0
bag_metal
0 -0.31485 -0.41485 -0.08000 -0.92388 -0.38268 0.00000 0.51033 0.16200 1 0 1.0
0 -0.35000 -0.33000 0.08000 -0.92388 -0.38268 0.00000 0.52560 0.19080 1 0 1.0
0 -0.35000 -0.33000 -0.08000 -0.92388 -0.38268 0.00000 0.52560 0.16200 1 0 1.0
bag_metal
0 -0.23000 -0.33000 0.20000 -0.38268 0.00000 0.92388 0.31500 0.52560 1 0 1.0
0 -0.23000 0.33000 0.20000 -0.38268 0.00000 0.92388 0.31500 0.64440 1 0 1.0
0 -0.31485 0.33000 0.16485 -0.38268 0.00000 0.92388 0.29973 0.64440 1 0 1.0
bag_metal
0 -0.23000 -0.33000 0.20000 -0.38268 0.00000 0.92388 0.31500 0.52560 1 0 1.0
0 -0.31485 0.33000 0.16485 -0.38268 0.00000 0.92388 0.29973 0.64440 1 0 1.0
0 -0.31485 -0.33000 0.16485 -0.38268 0.00000 0.92388 0.29973 0.52560 1 0 1.0
bag_metal
0 -0.31485 -0.33000 0.16485 -0.92388 0.00000 0.38268 0.52560 0.20607 1 0 1.0
0 -0.31485 0.33000 0.16485 -0.92388 0.00000 0.38268 0.64440 0.20607 1 0 1.0
0 -0.35000 0.33000 0.08000 -0.92388 0.00000 0.38268 0.64440 0.19080 1 0 1.0
bag_metal
0 -0.31485 -0.33000 0.16485 -0.92388 0.00000 0.38268 0.52560 0.20607 1 0 1.0
0 -0.35000 0.33000 0.08000 -0.92388 0.00000 0.38268 0.64440 0.19080 1 0 1.0
0 -0.35000 -0.33000 0.08000 -0.92388 0.00000 0.38268 0.52560 0.19080 1 0 1.0
bag_metal
0 -0.23000 0.45000 0.08000 -0.38268 0.92388 0.00000 0.31500 0.19080 1 0 1.0
0 -0.23000 0.45000 -0.08000 -0.38268 0.92388 0.00000 0.31500 0.16200 1 0 1.0
0 -0.31485 0.41485 -0.08000 -0.38268 0.92388 0.00000 0.29973 0.16200 1 0 1.0
bag_metal
0 -0.23000 0.45000 0.08000 -0.38268 0.92388 0.00000 0.31500 0.19080 1 0 1.0
0 -0.31485 0.41485 -0.08000 -0.38268 0.92388 0.00000 0.29973 0.16200 1 0 1.0
0 -0.31485 0.41485 0.08000 -0.38268 0.92388 0.00000 0.29973 0.19080 1 0 1.0
bag_metal
0 -0.31485 0.41485 0.08000 -0.92388 0.38268 0.00000 0.65967 0.19080 1 0 1.0
0 -0.31485 0.41485 -0.08000 -0.92388 0.38268 0.00000 0.65967 0.16200 1 0 1.0
0 -0.35000 0.33000 -0.08000 -0.92388 0.38268 0.00000 0.64440 0.16200 1 0 1.0
bag_metal
0 -0.31485 0.41485 0.08000 -0.92388 0.38268 0.00000 0.65967 0.19080 1 0 1.0
0 -0.35000 0.33000 -0.08000 -0.92388 0.38268 0.00000 0.64440 0.16200 1 0 1.0
0 -0.35000 0.33000 0.08000 -0.92388 0.38268 0.00000 0.64440 0.19080 1 0 1.0
bag_metal
0 0.23000 0.33000 -0.20000 0.00000 0.38268 -0.92388 0.39780 0.64440 1 0 1.0
0 -0.23000 0.33000 -0.20000 0.00000 0.38268 -0.92388 0.31500 0.64440 1 0 1.0
0 -0.23000 0.41485 -0.16485 0.00000 0.38268 -0.92388 0.31500 0.65967 1 0 1.0
bag_metal
0 0.23000 0.33000 -0.20000 0.00000 0.38268 -0.92388 0.39780 0.64440 1 0 1.0
0 -0.23000 0.41485 -0.16485 0.00000 0.38268 -0.92388 0.31500 0.65967 1 0 1.0
0 0.23000 0.41485 -0.16485 0.00000 0.38268 -0.92388 0.39780 0.65967 1 0 1.0
bag_metal
0 0.23000 0.41485 -0.16485 0.00000 0.92388 -0.38268 0.39780 0.14673 1 0 1.0
0 -0.23000 0.41485 -0.16485 0.00000 0.92388 -0.38268 0.31500 0.14673 1 0 1.0
0 -0.23000 0.45000 -0.08000 0.00000 0.92388 -0.38268 0.31500 0.16200 1 0 1.0
bag_metal
0 0.23000 0.41485 -0.16485 0.00000 0.92388 -0.38268 0.39780 0.14673 1 0 1.0
0 -0.23000 0.45000 -0.08000 0.00000 0.92388 -0.38268 0.31500 0.16200 1 0 1.0
0 0.23000 0.45000 -0.08000 0.00000 0.92388 -0.38268 0.39780 0.16200 1 0 1.0
bag_metal
0 -0.23000 0.33000 0.20000 0.00000 0.38268 0.92388 0.31500 0.64440 1 0 1.0
0 0.23000 0.33000 0.20000 0.00000 0.38268 0.92388 0.39780 0.64440 1 0 1.0
0 0.23000 0.41485 0.16485 0.00000 0.38268 0.92388 0.39780 0.65967 1 0 1.0
bag_metal
0 -0.23000 0.33000 0.20000 0.00000 0.38268 0.92388 0.31500 0.64440 1 0 1.0
0 0.23000 0.41485 0.16485 0.00000 0.38268 0.92388 0.39780 0.65967 1 0 1.0
0 -0.23000 0.41485 0.16485 0.00000 0.38268 0.92388 0.31500 0.65967 1 0 1.0
bag_metal
0 -0.23000 0.41485 0.16485 0.00000 0.92388 0.38268 0.31500 0.20607 1 0 1.0
0 0.23000 0.41485 0.16485 0.00000 0.92388 0.38268 0.39780 0.20607 1 0 1.0
0 0.23000 0.45000 0.08000 0.00000 0.92388 0.38268 0.39780 0.19080 1 0 1.0
bag_metal
0 -0.23000 0.41485 0.16485 0.00000 0.92388 0.38268 0.31500 0.20607 1 0 1.0
0 0.23000 0.45000 0.08000 0.00000 0.92388 0.38268 0.39780 0.19080 1 0 1.0
0 -0.23000 0.45000 0.08000 0.00000 0.92388 0.38268 0.31500 0.19080 1 0 1.0
bag_metal
0 0.35000 0.33000 0.08000 0.92388 0.38268 0.00000 0.64440 0.19080 1 0 1.0
0 0.35000 0.33000 -0.08000 0.92388 0.38268 0.00000 0.64440 0.16200 1 0 1.0
0 0.31485 0.41485 -0.08000 0.92388 0.38268 0.00000 0.65967 0.16200 1 0 1.0
bag_metal
0 0.35000 0.33000 0.08000 0.92388 0.38268 0.00000 0.64440 0.19080 1 0 1.0
0 0.31485 0.41485 -0.08000 0.92388 0.38268 0.00000 0.65967 0.16200 1 0 1.0
0 0.31485 0.41485 0.08000 0.92388 0.38268 0.00000 0.65967 0.19080 1 0 1.0
bag_metal
0 0.31485 0.41485 0.08000 0.38268 0.92388 0.00000 0.41307 0.19080 1 0 1.0
0 0.31485 0.41485 -0.08000 0.38268 0.92388 0.00000 0.41307 0.16200 1 0 1.0
0 0.23000 0.45000 -0.08000 0.38268 0.92388 0.00000 0.39780 0.16200 1 0 1.0
bag_metal
0 0.31485 0.41485 0.08000 0.38268 0.92388 0.00000 0.41307 0.19080 1 0 1.0
0 0.23000 0.45000 -0.08000 0.38268 0.92388 0.00000 0.39780 0.16200 1 0 1.0
0 0.23000 0.45000 0.08000 0.38268 0.92388 0.00000 0.39780 0.19080 1 0 1.0
bag_metal
0 0.23000 -0.33000 -0.20000 0.38268 0.00000 -0.92388 0.39780 0.52560 1 0 1.0
0 0.23000 0.33000 -0.20000 0.38268 0.00000 -0.92388 0.39780 0.64440 1 0 1.0
0 0.31485 0.33000 -0.16485 0.38268 0.00000 -0.92388 0.41307 0.64440 1 0 1.0
bag_metal
0 0.23000 -0.33000 -0.20000 0.38268 0.00000 -0.92388 0.39780 0.52560 1 0 1.0
0 0.31485 0.33000 -0.16485 0.38268 0.00000 -0.92388 0.41307 0.64440 1 0 1.0
0 0.31485 -0.33000 -0.16485 0.38268 0.00000 -0.92388 0.41307 0.52560 1 0 1.0
bag_metal
0 0.31485 -0.33000 -0.16485 0.92388 0.00000 -0.38268 0.52560 0.14673 1 0 1.0
0 0.31485 0.33000 -0.16485 0.92388 0.00000 -0.38268 0.64440 0.14673 1 0 1.0
0 0.35000 0.33000 -0.08000 0.92388 0.00000 -0.38268 0.64440 0.16200 1 0 1.0
bag_metal
0 0.31485 -0.33000 -0.16485 0.92388 0.00000 -0.38268 0.52560 0.14673 1 0 1.0
0 0.35000 0.33000 -0.08000 0.92388 0.00000 -0.38268 0.64440 0.16200 1 0 1.0
0 0.35000 -0.33000 -0.08000 0.92388 0.00000 -0.38268 0.52560 0.16200 1 0 1.0
bag_metal
0 0.23000 0.33000 0.20000 0.38268 0.00000 0.92388 0.39780 0.64440 1 0 1.0
0 0.23000 -0.33000 0.20000 0.38268 0.00000 0.92388 0.39780 0.52560 1 0 1.0
0 0.31485 -0.33000 0.16485 0.38268 0.00000 0.92388 0.41307 0.52560 1 0 1.0
bag_metal
0 0.23000 0.33000 0.20000 0.38268 0.00000 0.92388 0.39780 0.64440 1 0 1.0
0 0.31485 -0.33000 0.16485 0.38268 0.00000 0.92388 0.41307 0.52560 1 0 1.0
0 0.31485 0.33000 0.16485 0.38268 0.00000 0.92388 0.41307 0.64440 1 0 1.0
bag_metal
0 0.31485 0.33000 0.16485 0.92388 0.00000 0.38268 0.64440 0.20607 1 0 1.0
0 0.31485 -0.33000 0.16485 0.92388 0.00000 0.38268 0.52560 0.20607 1 0 1.0
0 0.35000 -0.33000 0.08000 0.92388 0.00000 0.38268 0.52560 0.19080 1 0 1.0
bag_metal
0 0.31485 0.33000 0.16485 0.92388 0.00000 0.38268 0.64440 0.20607 1 0 1.0
0 0.35000 -0.33000 0.08000 0.92388 0.00000 0.38268 0.52560 0.19080 1 0 1.0
0 0.35000 0.33000 0.08000 0.92388 0.00000 0.38268 0.64440 0.19080 1 0 1.0
bag_metal
0 0.23000 -0.45000 0.08000 0.38268 -0.92388 0.00000 0.39780 0.19080 1 0 1.0
0 0.23000 -0.45000 -0.08000 0.38268 -0.92388 0.00000 0.39780 0.16200 1 0 1.0
0 0.31485 -0.41485 -0.08000 0.38268 -0.92388 0.00000 0.41307 0.16200 1 0 1.0
bag_metal
0 0.23000 -0.45000 0.08000 0.38268 -0.92388 0.00000 0.39780 0.19080 1 0 1.0
0 0.31485 -0.41485 -0.08000 0.38268 -0.92388 0.00000 0.41307 0.16200 1 0 1.0
0 0.31485 -0.41485 0.08000 0.38268 -0.92388 0.00000 0.41307 0.19080 1 0 1.0
bag_metal
0 0.31485 -0.41485 0.08000 0.92388 -0.38268 0.00000 0.51033 0.19080 1 0 1.0
0 0.31485 -0.41485 -0.08000 0.92388 -0.38268 0.00000 0.51033 0.16200 1 0 1.0
0 0.35000 -0.33000 -0.08000 0.92388 -0.38268 0.00000 0.52560 0.16200 1 0 1.0
bag_metal
0 0.31485 -0.41485 0.08000 0.92388 -0.38268 0.00000 0.51033 0.19080 1 0 1.0
0 0.35000 -0.33000 -0.08000 0.92388 -0.38268 0.00000 0.52560 0.16200 1 0 1.0
0 0.35000 -0.33000 0.08000 0.92388 -0.38268 0.00000 0.52560 0.19080 1 0 1.0
bag_metal
0 -0.23000 -0.33000 -0.20000 0.00000 -0.38268 -0.92388 0.31500 0.52560 1 0 1.0
0 0.23000 -0.33000 -0.20000 0.00000 -0.38268 -0.92388 0.39780 0.52560 1 0 1.0
0 0.23000 -0.41485 -0.16485 0.00000 -0.38268 -0.92388 0.39780 0.51033 1 0 1.0
bag_metal
0 -0.23000 -0.33000 -0.20000 0.00000 -0.38268 -0.92388 0.31500 0.52560 1 0 1.0
0 0.23000 -0.41485 -0.16485 0.00000 -0.38268 -0.92388 0.39780 0.51033 1 0 1.0
0 -0.23000 -0.41485 -0.16485 0.00000 -0.38268 -0.92388 0.31500 0.51033 1 0 1.0
bag_metal
0 -0.23000 -0.41485 -0.16485 0.00000 -0.92388 -0.38268 0.31500 0.14673 1 0 1.0
0 0.23000 -0.41485 -0.16485 0.00000 -0.92388 -0.38268 0.39780 0.14673 1 0 1.0
0 0.23000 -0.45000 -0.08000 0.00000 -0.92388 -0.38268 0.39780 0.16200 1 0 1.0
bag_metal
0 -0.23000 -0.41485 -0.16485 0.00000 -0.92388 -0.38268 0.31500 0.14673 1 0 1.0
0 0.23000 -0.45000 -0.08000 0.00000 -0.92388 -0.38268 0.39780 0.16200 1 0 1.0
0 -0.23000 -0.45000 -0.08000 0.00000 -0.92388 -0.38268 0.31500 0.16200 1 0 1.0
bag_metal
0 0.23000 -0.33000 0.20000 0.00000 -0.38268 0.92388 0.39780 0.52560 1 0 1.0
0 -0.23000 -0.33000 0.20000 0.00000 -0.38268 0.92388 0.31500 0.52560 1 0 1.0
0 -0.23000 -0.41485 0.16485 0.00000 -0.38268 0.92388 0.31500 0.51033 1 0 1.0
bag_metal
0 0.23000 -0.33000 0.20000 0.00000 -0.38268 0.92388 0.39780 0.52560 1 0 1.0
0 -0.23000 -0.41485 0.16485 0.00000 -0.38268 0.92388 0.31500 0.51033 1 0 1.0
0 0.23000 -0.41485 0.16485 0.00000 -0.38268 0.92388 0.39780 0.51033 1 0 1.0
bag_metal
0 0.23000 -0.41485 0.16485 0.00000 -0.92388 0.38268 0.39780 0.20607 1 0 1.0
0 -0.23000 -0.41485 0.16485 0.00000 -0.92388 0.38268 0.31500 0.20607 1 0 1.0
0 -0.23000 -0.45000 0.08000 0.00000 -0.92388 0.38268 0.31500 0.19080 1 0 1.0
bag_metal
0 0.23000 -0.41485 0.16485 0.00000 -0.92388 0.38268 0.39780 0.20607 1 0 1.0
0 -0.23000 -0.45000 0.08000 0.00000 -0.92388 0.38268 0.31500 0.19080 1 0 1.0
0 0.23000 -0.45000 0.08000 0.00000 -0.92388 0.38268 0.39780 0.19080 1 0 1.0
bag_metal
0 -0.23000 0.33000 -0.20000 0.00000 0.00000 -1.00000 0.31500 0.64440 1 0 1.0
0 0.23000 0.33000 -0.20000 0.00000 0.00000 -1.00000 0.39780 0.64440 1 0 1.0
0 0.23000 -0.33000 -0.20000 0.00000 0.00000 -1.00000 0.39780 0.52560 1 0 1.0
bag_metal
0 -0.23000 0.33000 -0.20000 0.00000 0.00000 -1.00000 0.31500 0.64440 1 0 1.0
0 0.23000 -0.33000 -0.20000 0.00000 0.00000 -1.00000 0.39780 0.52560 1 0 1.0
0 -0.23000 -0.33000 -0.20000 0.00000 0.00000 -1.00000 0.31500 0.52560 1 0 1.0
bag_metal
0 -0.35000 -0.33000 -0.08000 -1.00000 0.00000 0.00000 0.52560 0.16200 1 0 1.0
0 -0.35000 -0.33000 0.08000 -1.00000 0.00000 0.00000 0.52560 0.19080 1 0 1.0
0 -0.35000 0.33000 0.08000 -1.00000 0.00000 0.00000 0.64440 0.19080 1 0 1.0
bag_metal
0 -0.35000 -0.33000 -0.08000 -1.00000 0.00000 0.00000 0.52560 0.16200 1 0 1.0
0 -0.35000 0.33000 0.08000 -1.00000 0.00000 0.00000 0.64440 0.19080 1 0 1.0
0 -0.35000 0.33000 -0.08000 -1.00000 0.00000 0.00000 0.64440 0.16200 1 0 1.0
bag_metal
0 0.23000 -0.45000 -0.08000 0.00000 -1.00000 0.00000 0.39780 0.16200 1 0 1.0
0 0.23000 -0.45000 0.08000 0.00000 -1.00000 0.00000 0.39780 0.19080 1 0 1.0
0 -0.23000 -0.45000 0.08000 0.00000 -1.00000 0.00000 0.31500 0.19080 1 0 1.0
bag_metal
0 0.23000 -0.45000 -0.08000 0.00000 -1.00000 0.00000 0.39780 0.16200 1 0 1.0
0 -0.23000 -0.45000 0.08000 0.00000 -1.00000 0.00000 0.31500 0.19080 1 0 1.0
0 -0.23000 -0.45000 -0.08000 0.00000 -1.00000 0.00000 0.31500 0.16200 1 0 1.0
bag_metal
0 0.23000 0.33000 0.20000 0.00000 0.00000 1.00000 0.39780 0.64440 1 0 1.0
0 -0.23000 0.33000 0.20000 0.00000 0.00000 1.00000 0.31500 0.64440 1 0 1.0
0 -0.23000 -0.33000 0.20000 0.00000 0.00000 1.00000 0.31500 0.52560 1 0 1.0
bag_metal
0 0.23000 0.33000 0.20000 0.00000 0.00000 1.00000 0.39780 0.64440 1 0 1.0
0 -0.23000 -0.33000 0.20000 0.00000 0.00000 1.00000 0.31500 0.52560 1 0 1.0
0 0.23000 -0.33000 0.20000 0.00000 0.00000 1.00000 0.39780 0.52560 1 0 1.0
bag_metal
0 -0.23000 0.45000 -0.08000 0.00000 1.00000 0.00000 0.31500 0.16200 1 0 1.0
0 -0.23000 0.45000 0.08000 0.00000 1.00000 0.00000 0.31500 0.19080 1 0 1.0
0 0.23000 0.45000 0.08000 0.00000 1.00000 0.00000 0.39780 0.19080 1 0 1.0
bag_metal
0 -0.23000 0.45000 -0.08000 0.00000 1.00000 0.00000 0.31500 0.16200 1 0 1.0
0 0.23000 0.45000 0.08000 0.00000 1.00000 0.00000 0.39780 0.19080 1 0 1.0
0 0.23000 0.45000 -0.08000 0.00000 1.00000 0.00000 0.39780 0.16200 1 0 1.0
bag_metal
0 0.35000 0.33000 -0.08000 1.00000 0.00000 0.00000 0.64440 0.16200 1 0 1.0
0 0.35000 0.33000 0.08000 1.00000 0.00000 0.00000 0.64440 0.19080 1 0 1.0
0 0.35000 -0.33000 0.08000 1.00000 0.00000 0.00000 0.52560 0.19080 1 0 1.0
bag_metal
0 0.35000 0.33000 -0.08000 1.00000 0.00000 0.00000 0.64440 0.16200 1 0 1.0
0 0.35000 -0.33000 0.08000 1.00000 0.00000 0.00000 0.52560 0.19080 1 0 1.0
0 0.35000 -0.33000 -0.08000 1.00000 0.00000 0.00000 0.52560 0.16200 1 0 1.0
bag_accent
0 0.25000 -0.22500 -0.92500 -0.57735 -0.57735 -0.57735 0.54450 0.00990 1 0 1.0
0 0.25000 -0.27500 -0.87500 -0.57735 -0.57735 -0.57735 0.53550 0.01890 1 0 1.0
0 0.20000 -0.22500 -0.87500 -0.57735 -0.57735 -0.57735 0.54450 0.01890 1 0 1.0
bag_accent
0 0.25000 -0.27500 -0.12500 -0.57735 -0.57735 0.57735 0.53550 0.15390 1 0 1.0
0 0.25000 -0.22500 -0.07500 -0.57735 -0.57735 0.57735 0.54450 0.16290 1 0 1.0
0 0.20000 -0.22500 -0.12500 -0.57735 -0.57735 0.57735 0.54450 0.15390 1 0 1.0
bag_accent
0 0.25000 0.22500 -0.92500 -0.57735 0.57735 -0.57735 0.62550 0.00990 1 0 1.0
0 0.20000 0.22500 -0.87500 -0.57735 0.57735 -0.57735 0.62550 0.01890 1 0 1.0
0 0.25000 0.27500 -0.87500 -0.57735 0.57735 -0.57735 0.63450 0.01890 1 0 1.0
bag_accent
0 0.25000 0.22500 -0.07500 -0.57735 0.57735 0.57735 0.62550 0.16290 1 0 1.0
0 0.25000 0.27500 -0.12500 -0.57735 0.57735 0.57735 0.63450 0.15390 1 0 1.0
0 0.20000 0.22500 -0.12500 -0.57735 0.57735 0.57735 0.62550 0.15390 1 0 1.0
bag_accent
0 0.29000 -0.22500 -0.92500 0.57735 -0.57735 -0.57735 0.54450 0.00990 1 0 1.0
0 0.34000 -0.22500 -0.87500 0.57735 -0.57735 -0.57735 0.54450 0.01890 1 0 1.0
0 0.29000 -0.27500 -0.87500 0.57735 -0.57735 -0.57735 0.53550 0.01890 1 0 1.0
bag_accent
0 0.29000 -0.22500 -0.07500 0.57735 -0.57735 0.57735 0.54450 0.16290 1 0 1.0
0 0.29000 -0.27500 -0.12500 0.57735 -0.57735 0.57735 0.53550 0.15390 1 0 1.0
0 0.34000 -0.22500 -0.12500 0.57735 -0.57735 0.57735 0.54450 0.15390 1 0 1.0
bag_accent
0 0.29000 0.22500 -0.92500 0.57735 0.57735 -0.57735 0.62550 0.00990 1 0 1.0
0 0.29000 0.27500 -0.87500 0.57735 0.57735 -0.57735 0.63450 0.01890 1 0 1.0
0 0.34000 0.22500 -0.87500 0.57735 0.57735 -0.57735 0.62550 0.01890 1 0 1.0
bag_accent
0 0.29000 0.22500 -0.07500 0.57735 0.57735 0.57735 0.62550 0.16290 1 0 1.0
0 0.34000 0.22500 -0.12500 0.57735 0.57735 0.57735 0.62550 0.15390 1 0 1.0
0 0.29000 0.27500 -0.12500 0.57735 0.57735 0.57735 0.63450 0.15390 1 0 1.0
bag_accent
0 0.25000 0.22500 -0.92500 -0.70711 0.00000 -0.70711 0.62550 0.00990 1 0 1.0
0 0.25000 -0.22500 -0.92500 -0.70711 0.00000 -0.70711 0.54450 0.00990 1 0 1.0
0 0.20000 -0.22500 -0.87500 -0.70711 0.00000 -0.70711 0.54450 0.01890 1 0 1.0
bag_accent
0 0.25000 0.22500 -0.92500 -0.70711 0.00000 -0.70711 0.62550 0.00990 1 0 1.0
0 0.20000 -0.22500 -0.87500 -0.70711 0.00000 -0.70711 0.54450 0.01890 1 0 1.0
0 0.20000 0.22500 -0.87500 -0.70711 0.00000 -0.70711 0.62550 0.01890 1 0 1.0
bag_accent
0 0.25000 -0.27500 -0.87500 -0.70711 -0.70711 0.00000 0.53550 0.01890 1 0 1.0
0 0.25000 -0.27500 -0.12500 -0.70711 -0.70711 0.00000 0.53550 0.15390 1 0 1.0
0 0.20000 -0.22500 -0.12500 -0.70711 -0.70711 0.00000 0.54450 0.15390 1 0 1.0
bag_accent
0 0.25000 -0.27500 -0.87500 -0.70711 -0.70711 0.00000 0.53550 0.01890 1 0 1.0
0 0.20000 -0.22500 -0.12500 -0.70711 -0.70711 0.00000 0.54450 0.15390 1 0 1.0
0 0.20000 -0.22500 -0.87500 -0.70711 -0.70711 0.00000 0.54450 0.01890 1 0 1.0
bag_accent
0 0.25000 -0.22500 -0.07500 -0.70711 0.00000 0.70711 0.54450 0.16290 1 0 1.0
0 0.25000 0.22500 -0.07500 -0.70711 0.00000 0.70711 0.62550 0.16290 1 0 1.0
0 0.20000 0.22500 -0.12500 -0.70711 0.00000 0.70711 0.62550 0.15390 1 0 1.0
bag_accent
0 0.25000 -0.22500 -0.07500 -0.70711 0.00000 0.70711 0.54450 0.16290 1 0 1.0
0 0.20000 0.22500 -0.12500 -0.70711 0.00000 0.70711 0.62550 0.15390 1 0 1.0
0 0.20000 -0.22500 -0.12500 -0.70711 0.00000 0.70711 0.54450 0.15390 1 0 1.0
bag_accent
0 0.25000 0.27500 -0.12500 -0.70711 0.70711 0.00000 0.63450 0.15390 1 0 1.0
0 0.25000 0.27500 -0.87500 -0.70711 0.70711 0.00000 0.63450 0.01890 1 0 1.0
0 0.20000 0.22500 -0.87500 -0.70711 0.70711 0.00000 0.62550 0.01890 1 0 1.0
bag_accent
0 0.25000 0.27500 -0.12500 -0.70711 0.70711 0.00000 0.63450 0.15390 1 0 1.0
0 0.20000 0.22500 -0.87500 -0.70711 0.70711 0.00000 0.62550 0.01890 1 0 1.0
0 0.20000 0.22500 -0.12500 -0.70711 0.70711 0.00000 0.62550 0.15390 1 0 1.0
bag_accent
0 0.29000 0.22500 -0.92500 0.00000 0.70711 -0.70711 0.40860 0.00990 1 0 1.0
0 0.25000 0.22500 -0.92500 0.00000 0.70711 -0.70711 0.40140 0.00990 1 0 1.0
0 0.25000 0.27500 -0.87500 0.00000 0.70711 -0.70711 0.40140 0.01890 1 0 1.0
bag_accent
0 0.29000 0.22500 -0.92500 0.00000 0.70711 -0.70711 0.40860 0.00990 1 0 1.0
0 0.25000 0.27500 -0.87500 0.00000 0.70711 -0.70711 0.40140 0.01890 1 0 1.0
0 0.29000 0.27500 -0.87500 0.00000 0.70711 -0.70711 0.40860 0.01890 1 0 1.0
bag_accent
0 0.25000 0.22500 -0.07500 0.00000 0.70711 0.70711 0.40140 0.16290 1 0 1.0
0 0.29000 0.22500 -0.07500 0.00000 0.70711 0.70711 0.40860 0.16290 1 0 1.0
0 0.29000 0.27500 -0.12500 0.00000 0.70711 0.70711 0.40860 0.15390 1 0 1.0
bag_accent
0 0.25000 0.22500 -0.07500 0.00000 0.70711 0.70711 0.40140 0.16290 1 0 1.0
0 0.29000 0.27500 -0.12500 0.00000 0.70711 0.70711 0.40860 0.15390 1 0 1.0
0 0.25000 0.27500 -0.12500 0.00000 0.70711 0.70711 0.40140 0.15390 1 0 1.0
bag_accent
0 0.34000 0.22500 -0.12500 0.70711 0.70711 0.00000 0.62550 0.15390 1 0 1.0
0 0.34000 0.22500 -0.87500 0.70711 0.70711 0.00000 0.62550 0.01890 1 0 1.0
0 0.29000 0.27500 -0.87500 0.70711 0.70711 0.00000 0.63450 0.01890 1 0 1.0
bag_accent
0 0.34000 0.22500 -0.12500 0.70711 0.70711 0.00000 0.62550 0.15390 1 0 1.0
0 0.29000 0.27500 -0.87500 0.70711 0.70711 0.00000 0.63450 0.01890 1 0 1.0
0 0.29000 0.27500 -0.12500 0.70711 0.70711 0.00000 0.63450 0.15390 1 0 1.0
bag_accent
0 0.29000 -0.22500 -0.92500 0.70711 0.00000 -0.70711 0.54450 0.00990 1 0 1.0
0 0.29000 0.22500 -0.92500 0.70711 0.00000 -0.70711 0.62550 0.00990 1 0 1.0
0 0.34000 0.22500 -0.87500 0.70711 0.00000 -0.70711 0.62550 0.01890 1 0 1.0
bag_accent
0 0.29000 -0.22500 -0.92500 0.70711 0.00000 -0.70711 0.54450 0.00990 1 0 1.0
0 0.34000 0.22500 -0.87500 0.70711 0.00000 -0.70711 0.62550 0.01890 1 0 1.0
0 0.34000 -0.22500 -0.87500 0.70711 0.00000 -0.70711 0.54450 0.01890 1 0 1.0
bag_accent
0 0.29000 0.22500 -0.07500 0.70711 0.00000 0.70711 0.62550 0.16290 1 0 1.0
0 0.29000 -0.22500 -0.07500 0.70711 0.00000 0.70711 0.54450 0.16290 1 0 1.0
0 0.34000 -0.22500 -0.12500 0.70711 0.00000 0.70711 0.54450 0.15390 1 0 1.0
bag_accent
0 0.29000 0.22500 -0.07500 0.70711 0.00000 0.70711 0.62550 0.16290 1 0 1.0
0 0.34000 -0.22500 -0.12500 0.70711 0.00000 0.70711 0.54450 0.15390 1 0 1.0
0 0.34000 0.22500 -0.12500 0.70711 0.00000 0.70711 0.62550 0.15390 1 0 1.0
bag_accent
0 0.29000 -0.27500 -0.12500 0.70711 -0.70711 0.00000 0.53550 0.15390 1 0 1.0
0 0.29000 -0.27500 -0.87500 0.70711 -0.70711 0.00000 0.53550 0.01890 1 0 1.0
0 0.34000 -0.22500 -0.87500 0.70711 -0.70711 0.00000 0.54450 0.01890 1 0 1.0
bag_accent
0 0.29000 -0.27500 -0.12500 0.70711 -0.70711 0.00000 0.53550 0.15390 1 0 1.0
0 0.34000 -0.22500 -0.87500 0.70711 -0.70711 0.00000 0.54450 0.01890 1 0 1.0
0 0.34000 -0.22500 -0.12500 0.70711 -0.70711 0.00000 0.54450 0.15390 1 0 1.0
bag_accent
0 0.25000 -0.22500 -0.92500 0.00000 -0.70711 -0.70711 0.40140 0.00990 1 0 1.0
0 0.29000 -0.22500 -0.92500 0.00000 -0.70711 -0.70711 0.40860 0.00990 1 0 1.0
0 0.29000 -0.27500 -0.87500 0.00000 -0.70711 -0.70711 0.40860 0.01890 1 0 1.0
bag_accent
0 0.25000 -0.22500 -0.92500 0.00000 -0.70711 -0.70711 0.40140 0.00990 1 0 1.0
0 0.29000 -0.27500 -0.87500 0.00000 -0.70711 -0.70711 0.40860 0.01890 1 0 1.0
0 0.25000 -0.27500 -0.87500 0.00000 -0.70711 -0.70711 0.40140 0.01890 1 0 1.0
bag_accent
0 0.29000 -0.22500 -0.07500 0.00000 -0.70711 0.70711 0.40860 0.16290 1 0 1.0
0 0.25000 -0.22500 -0.07500 0.00000 -0.70711 0.70711 0.40140 0.16290 1 0 1.0
0 0.25000 -0.27500 -0.12500 0.00000 -0.70711 0.70711 0.40140 0.15390 1 0 1.0
bag_accent
0 0.29000 -0.22500 -0.07500 0.00000 -0.70711 0.70711 0.40860 0.16290 1 0 1.0
0 0.25000 -0.27500 -0.12500 0.00000 -0.70711 0.70711 0.40140 0.15390 1 0 1.0
0 0.29000 -0.27500 -0.12500 0.00000 -0.70711 0.70711 0.40860 0.15390 1 0 1.0
bag_accent
0 0.25000 0.22500 -0.92500 0.00000 0.00000 -1.00000 0.40140 0.62550 1 0 1.0
0 0.29000 0.22500 -0.92500 0.00000 0.00000 -1.00000 0.40860 0.62550 1 0 1.0
0 0.29000 -0.22500 -0.92500 0.00000 0.00000 -1.00000 0.40860 0.54450 1 0 1.0
bag_accent
0 0.25000 0.22500 -0.92500 0.00000 0.00000 -1.00000 0.40140 0.62550 1 0 1.0
0 0.29000 -0.22500 -0.92500 0.00000 0.00000 -1.00000 0.40860 0.54450 1 0 1.0
0 0.25000 -0.22500 -0.92500 0.00000 0.00000 -1.00000 0.40140 0.54450 1 0 1.0
bag_accent
0 0.20000 -0.22500 -0.87500 -1.00000 0.00000 0.00000 0.54450 0.01890 1 0 1.0
0 0.20000 -0.22500 -0.12500 -1.00000 0.00000 0.00000 0.54450 0.15390 1 0 1.0
0 0.20000 0.22500 -0.12500 -1.00000 0.00000 0.00000 0.62550 0.15390 1 0 1.0
bag_accent
0 0.20000 -0.22500 -0.87500 -1.00000 0.00000 0.00000 0.54450 0.01890 1 0 1.0
0 0.20000 0.22500 -0.12500 -1.00000 0.00000 0.00000 0.62550 0.15390 1 0 1.0
0 0.20000 0.22500 -0.87500 -1.00000 0.00000 0.00000 0.62550 0.01890 1 0 1.0
bag_accent
0 0.29000 -0.27500 -0.87500 0.00000 -1.00000 0.00000 0.40860 0.01890 1 0 1.0
0 0.29000 -0.27500 -0.12500 0.00000 -1.00000 0.00000 0.40860 0.15390 1 0 1.0
0 0.25000 -0.27500 -0.12500 0.00000 -1.00000 0.00000 0.40140 0.15390 1 0 1.0
bag_accent
0 0.29000 -0.27500 -0.87500 0.00000 -1.00000 0.00000 0.40860 0.01890 1 0 1.0
0 0.25000 -0.27500 -0.12500 0.00000 -1.00000 0.00000 0.40140 0.15390 1 0 1.0
0 0.25000 -0.27500 -0.87500 0.00000 -1.00000 0.00000 0.40140 0.01890 1 0 1.0
bag_accent
0 0.29000 0.22500 -0.07500 0.00000 0.00000 1.00000 0.40860 0.62550 1 0 1.0
0 0.25000 0.22500 -0.07500 0.00000 0.00000 1.00000 0.40140 0.62550 1 0 1.0
0 0.25000 -0.22500 -0.07500 0.00000 0.00000 1.00000 0.40140 0.54450 1 0 1.0
bag_accent
0 0.29000 0.22500 -0.07500 0.00000 0.00000 1.00000 0.40860 0.62550 1 0 1.0
0 0.25000 -0.22500 -0.07500 0.00000 0.00000 1.00000 0.40140 0.54450 1 0 1.0
0 0.29000 -0.22500 -0.07500 0.00000 0.00000 1.00000 0.40860 0.54450 1 0 1.0
bag_accent
0 0.25000 0.27500 -0.87500 0.00000 1.00000 0.00000 0.40140 0.01890 1 0 1.0
0 0.25000 0.27500 -0.12500 0.00000 1.00000 0.00000 0.40140 0.15390 1 0 1.0
0 0.29000 0.27500 -0.12500 0.00000 1.00000 0.00000 0.40860 0.15390 1 0 1.0
bag_accent
0 0.25000 0.27500 -0.87500 0.00000 1.00000 0.00000 0.40140 0.01890 1 0 1.0
0 0.29000 0.27500 -0.12500 0.00000 1.00000 0.00000 0.40860 0.15390 1 0 1.0
0 0.29000 0.27500 -0.87500 0.00000 1.00000 0.00000 0.40860 0.01890 1 0 1.0
bag_accent
0 0.34000 0.22500 -0.87500 1.00000 0.00000 0.00000 0.62550 0.01890 1 0 1.0
0 0.34000 0.22500 -0.12500 1.00000 0.00000 0.00000 0.62550 0.15390 1 0 1.0
0 0.34000 -0.22500 -0.12500 1.00000 0.00000 0.00000 0.54450 0.15390 1 0 1.0
bag_accent
0 0.34000 0.22500 -0.87500 1.00000 0.00000 0.00000 0.62550 0.01890 1 0 1.0
0 0.34000 -0.22500 -0.12500 1.00000 0.00000 0.00000 0.54450 0.15390 1 0 1.0
0 0.34000 -0.22500 -0.87500 1.00000 0.00000 0.00000 0.54450 0.01890 1 0 1.0
end
